M48
;Layer_Color=9474304
;FILE_FORMAT=2:5
INCH
;TYPE=PLATED
T1F00S00C0.02000
T2F00S00C0.03800
T3F00S00C0.03937
T4F00S00C0.04000
T5F00S00C0.04724
T6F00S00C0.05000
%
T01
X1708000Y0366500
X1708500Y0385500
X1699000Y0397500
X1692000Y0396500
X1693000Y0415500
X1694000Y0421000
X1694500Y0427000
X1713000Y0425500
X1712500Y0420500
X1712000Y0415500
X1711000Y0409000
X1705500Y0412000
X1712500Y0432500
X1715500Y0442500
X1711500Y0451000
X1707000Y0460000
X1693500Y0463000
X1685000Y0460000
X1685400Y0451000
X1681500Y0446000
X1674000Y0445000
X1667500Y0450000
X1658500Y0447000
X1653000Y0447500
X1653500Y0441000
X1656000Y0435500
X1657500Y0425500
X1666500Y0432000
X1670000Y0415000
X1663985Y0409985
X1659500Y0405500
X1645400Y0389000
X1634626Y0389874
X1622500Y0379300
X1615000Y0366500
X1638700Y0364000
X1663500Y0363500
X1679500Y0355500
X1689000Y0375500
X1660500Y0339000
X1664000Y0328000
X1605000Y0347800
X1614000Y0457000
X1633000Y0464000
X1638629Y0466871
X1643500Y0464500
X1650000Y0468500
X1654500Y0465500
X1676500Y0465000
X1697500Y0452960
X1698000Y0445100
X1690200Y0444700
X1642000Y0434000
X1630000Y0445500
X1761300Y0437300
X1773500Y0446500
X1754000Y0461500
X1751500Y0413000
X1746500Y0412000
X1747000Y0405000
X1764500Y0407000
X1762600Y0415200
X1777000Y0407500
X1782000Y0410500
X1801181Y0398981
X1814961Y0385827
X1808500Y0374500
X1810500Y0362000
X1816500Y0353000
X1823000Y0364500
X1794500Y0359500
X1783275Y0357725
X1776500Y0366500
X1786300Y0380400
X1741000Y0383000
X1734000Y0374500
X1735600Y0394100
X1749000Y0353500
X1755500Y0353000
X1760500Y0349000
X1757000Y0331000
X1771100Y0318900
X1776100Y0339200
X1793500Y0336000
X1776000Y0479000
X1731200Y0474100
X1730000Y0485000
X1729000Y0493500
X1734500
X1723000Y0487500
X1749000Y0503500
X1755500Y0508500
X1743500Y0510346
X1758500Y0525500
X1703500Y0502000
X1696000Y0504000
X1693500Y0488500
X1675000Y0491000
X1672000Y0486000
X1678000Y0480500
X1696000Y0470000
X1707500Y0479500
X1685000Y0516000
X1674800Y0535000
X1643500Y0534500
X1641000Y0540000
X1633800Y0536600
X1625500Y0526000
X1627000Y0518000
X1615500Y0515500
X1617000Y0488500
X1631500Y0489500
X1635000Y0484500
X1635500Y0479000
X1630500Y0479454
X1631000Y0470000
X1635500Y0473500
X1613900Y0473100
X1649000Y0506500
X1645500Y0527000
X1665000Y0496500
T02
X1630500Y0344500
X1616000Y0338000
T03
X1741142Y0303976
X1708555Y0346000
X1698555
X1625015Y0427638
Y0437638
X1783283Y0448638
X1790354Y0455709
X1797425Y0462780
X1792500Y0431500
Y0421500
X1741142Y0333976
Y0323976
Y0313976
X1804497Y0469851
X1811567Y0476922
X1818639Y0483993
X1716987Y0514000
X1706987
T04
X1770809Y0399746
X1763849Y0392787
X1756890Y0385827
X1743082Y0372019
X1736011Y0364948
T05
X1607000Y0481500
X1607000Y0491500
Y0501500
Y0511500
T06
X1675197Y0306250
Y0321850
Y0337450
X1620767Y0394685
X1605167
X1589567
M30
