G04 Layer_Physical_Order=4*
G04 Layer_Color=16711680*
%FSAX25Y25*%
%MOIN*%
G70*
G01*
G75*
%ADD10P,0.04243X4X180.0*%
%ADD12P,0.04243X4X90.0*%
G04:AMPARAMS|DCode=14|XSize=40mil|YSize=50mil|CornerRadius=0mil|HoleSize=0mil|Usage=FLASHONLY|Rotation=45.000|XOffset=0mil|YOffset=0mil|HoleType=Round|Shape=Rectangle|*
%AMROTATEDRECTD14*
4,1,4,0.00353,-0.03182,-0.03182,0.00353,-0.00353,0.03182,0.03182,-0.00353,0.00353,-0.03182,0.0*
%
%ADD14ROTATEDRECTD14*%

%ADD18R,0.03000X0.03000*%
G04:AMPARAMS|DCode=19|XSize=35.43mil|YSize=47.24mil|CornerRadius=0mil|HoleSize=0mil|Usage=FLASHONLY|Rotation=135.000|XOffset=0mil|YOffset=0mil|HoleType=Round|Shape=Rectangle|*
%AMROTATEDRECTD19*
4,1,4,0.02923,0.00418,-0.00418,-0.02923,-0.02923,-0.00418,0.00418,0.02923,0.02923,0.00418,0.0*
%
%ADD19ROTATEDRECTD19*%

G04:AMPARAMS|DCode=20|XSize=47.24mil|YSize=35.43mil|CornerRadius=0mil|HoleSize=0mil|Usage=FLASHONLY|Rotation=225.000|XOffset=0mil|YOffset=0mil|HoleType=Round|Shape=Rectangle|*
%AMROTATEDRECTD20*
4,1,4,0.00418,0.02923,0.02923,0.00418,-0.00418,-0.02923,-0.02923,-0.00418,0.00418,0.02923,0.0*
%
%ADD20ROTATEDRECTD20*%

%ADD21R,0.03000X0.03000*%
%ADD24R,0.05000X0.04000*%
%ADD37C,0.01800*%
%ADD39C,0.02200*%
%ADD40C,0.00900*%
%ADD41C,0.01000*%
%ADD42C,0.03000*%
%ADD43C,0.02500*%
%ADD44C,0.01500*%
%ADD45C,0.01200*%
%ADD46C,0.00800*%
%ADD50C,0.10000*%
%ADD51R,0.10000X0.10000*%
%ADD52C,0.07874*%
%ADD53R,0.07874X0.07874*%
%ADD54P,0.11136X4X90.0*%
%ADD55R,0.10000X0.10000*%
%ADD56R,0.07874X0.07874*%
%ADD57C,0.07000*%
%ADD58P,0.09899X4X90.0*%
%ADD59C,0.04000*%
%ADD60C,0.03000*%
G04:AMPARAMS|DCode=61|XSize=25.59mil|YSize=64.96mil|CornerRadius=1.92mil|HoleSize=0mil|Usage=FLASHONLY|Rotation=135.000|XOffset=0mil|YOffset=0mil|HoleType=Round|Shape=RoundedRectangle|*
%AMROUNDEDRECTD61*
21,1,0.02559,0.06112,0,0,135.0*
21,1,0.02175,0.06496,0,0,135.0*
1,1,0.00384,0.01392,0.02930*
1,1,0.00384,0.02930,0.01392*
1,1,0.00384,-0.01392,-0.02930*
1,1,0.00384,-0.02930,-0.01392*
%
%ADD61ROUNDEDRECTD61*%
%ADD62R,0.15000X0.08000*%
G04:AMPARAMS|DCode=63|XSize=80mil|YSize=150mil|CornerRadius=0mil|HoleSize=0mil|Usage=FLASHONLY|Rotation=135.000|XOffset=0mil|YOffset=0mil|HoleType=Round|Shape=Rectangle|*
%AMROTATEDRECTD63*
4,1,4,0.08132,0.02475,-0.02475,-0.08132,-0.08132,-0.02475,0.02475,0.08132,0.08132,0.02475,0.0*
%
%ADD63ROTATEDRECTD63*%

%ADD64R,0.03000X0.05000*%
%ADD65O,0.01181X0.05709*%
%ADD66O,0.05709X0.01181*%
G04:AMPARAMS|DCode=67|XSize=83mil|YSize=55mil|CornerRadius=0mil|HoleSize=0mil|Usage=FLASHONLY|Rotation=225.000|XOffset=0mil|YOffset=0mil|HoleType=Round|Shape=Rectangle|*
%AMROTATEDRECTD67*
4,1,4,0.00990,0.04879,0.04879,0.00990,-0.00990,-0.04879,-0.04879,-0.00990,0.00990,0.04879,0.0*
%
%ADD67ROTATEDRECTD67*%

%ADD68O,0.07480X0.02362*%
%ADD69C,0.10000*%
%ADD70C,0.02800*%
G54D10*
X1803611Y0371889D02*
D03*
X1807500Y0368000D02*
D03*
X1779858Y0342429D02*
D03*
X1783747Y0338540D02*
D03*
X1775615Y0346672D02*
D03*
X1771726Y0350561D02*
D03*
X1723500Y0481500D02*
D03*
X1727389Y0477611D02*
D03*
X1756111Y0520389D02*
D03*
X1760000Y0516500D02*
D03*
X1740500Y0502000D02*
D03*
X1744389Y0498111D02*
D03*
G54D12*
X1760827Y0400591D02*
D03*
X1756938Y0396702D02*
D03*
X1776527Y0392669D02*
D03*
X1772638Y0388779D02*
D03*
X1767716Y0384842D02*
D03*
X1763827Y0380953D02*
D03*
X1788889Y0369889D02*
D03*
X1785000Y0366000D02*
D03*
X1777111Y0358611D02*
D03*
X1781000Y0362500D02*
D03*
X1768500Y0471000D02*
D03*
X1772389Y0474889D02*
D03*
X1752889Y0515389D02*
D03*
X1749000Y0511500D02*
D03*
G54D14*
X1768501Y0374800D02*
D03*
X1773027Y0379326D02*
D03*
X1778543Y0384842D02*
D03*
X1783069Y0389368D02*
D03*
G54D18*
X1784000Y0427500D02*
D03*
Y0422000D02*
D03*
X1751000Y0425500D02*
D03*
Y0420000D02*
D03*
X1748500Y0365500D02*
D03*
Y0360000D02*
D03*
X1623000Y0447000D02*
D03*
Y0452500D02*
D03*
X1597500Y0491500D02*
D03*
Y0497000D02*
D03*
X1615500Y0509000D02*
D03*
Y0503500D02*
D03*
X1637000Y0532000D02*
D03*
Y0526500D02*
D03*
X1631500D02*
D03*
Y0532000D02*
D03*
X1699500Y0515000D02*
D03*
X1699500Y0509500D02*
D03*
X1693500D02*
D03*
Y0515000D02*
D03*
G54D19*
X1725000Y0467000D02*
D03*
X1743000Y0449000D02*
D03*
G54D20*
X1715525Y0476475D02*
D03*
X1733525Y0458475D02*
D03*
G54D21*
X1714500Y0506500D02*
D03*
X1709000D02*
D03*
X1709500Y0501000D02*
D03*
X1715000D02*
D03*
X1709500Y0495000D02*
D03*
X1715000D02*
D03*
X1704055Y0354000D02*
D03*
X1698555Y0354000D02*
D03*
G54D24*
X1757500Y0419150D02*
D03*
Y0425550D02*
D03*
X1756500Y0360150D02*
D03*
Y0366550D02*
D03*
G54D37*
X1730000Y0484667D02*
X1735570Y0479097D01*
X1790000Y0427500D02*
X1794000Y0431500D01*
X1740021Y0515521D02*
X1752889D01*
X1730000Y0484667D02*
Y0485000D01*
X1748930Y0466570D02*
X1754000Y0461500D01*
X1750597Y0469070D02*
X1773430Y0491903D01*
X1748097Y0466570D02*
X1750597Y0469070D01*
X1699000Y0418500D02*
Y0438585D01*
X1694100Y0443485D02*
X1699000Y0438585D01*
X1694100Y0443485D02*
Y0447632D01*
X1692673Y0449060D02*
X1694100Y0447632D01*
X1690200Y0438800D02*
Y0444700D01*
Y0438800D02*
X1690500Y0438500D01*
X1703800Y0441425D02*
X1704700Y0442325D01*
X1703800Y0429185D02*
Y0441425D01*
Y0429185D02*
X1712485Y0420500D01*
X1704700Y0442325D02*
Y0447875D01*
X1689044Y0449060D02*
X1692673D01*
X1686685Y0446700D02*
X1689044Y0449060D01*
X1693500Y0488500D02*
X1698500D01*
X1707500Y0479500D01*
X1690380Y0497135D02*
X1696115Y0491400D01*
X1688365Y0497135D02*
X1690380D01*
X1696115Y0491400D02*
X1724615D01*
X1755500Y0508500D02*
X1760000Y0513000D01*
Y0516500D01*
X1777000Y0407500D02*
X1796000Y0388500D01*
Y0374010D02*
Y0388500D01*
X1631500Y0534300D02*
X1633800Y0536600D01*
X1631500Y0532000D02*
Y0534300D01*
Y0532000D02*
X1637000D01*
X1700775Y0451800D02*
X1704700Y0447875D01*
X1698660Y0451800D02*
X1700775D01*
X1697500Y0452960D02*
X1698660Y0451800D01*
X1682200Y0446700D02*
X1686685D01*
X1681500Y0446000D02*
X1682200Y0446700D01*
X1761450Y0415200D02*
X1762600D01*
X1773300Y0411300D02*
X1784000Y0422000D01*
X1760985Y0411300D02*
X1773300D01*
X1760785Y0411500D02*
X1760985Y0411300D01*
X1758545Y0411500D02*
X1760785D01*
X1757500Y0419150D02*
X1761450Y0415200D01*
X1756650Y0420000D02*
X1757500Y0419150D01*
X1751000Y0420000D02*
X1756650D01*
X1708555Y0346000D02*
Y0349500D01*
Y0343709D02*
Y0346000D01*
X1752045Y0405000D02*
X1758545Y0411500D01*
X1747000Y0405000D02*
X1752045D01*
X1708500Y0363945D02*
Y0366000D01*
X1708000Y0366500D02*
X1708500Y0366000D01*
X1636000Y0415000D02*
X1664485D01*
X1666100Y0413385D01*
Y0413385D02*
X1668400Y0411085D01*
X1666100Y0413385D02*
Y0413385D01*
X1668400Y0411055D02*
Y0411085D01*
Y0411055D02*
X1674355Y0405100D01*
X1719600D01*
X1746500Y0405500D02*
X1747000Y0405000D01*
X1719600Y0405100D02*
X1720000Y0405500D01*
X1699000Y0418500D02*
X1705500Y0412000D01*
X1712000Y0415500D02*
X1720000D01*
X1702000Y0400500D02*
X1720000D01*
X1711000Y0409000D02*
X1712500Y0410500D01*
X1701955Y0357400D02*
X1708500Y0363945D01*
X1698555Y0354187D02*
X1701768Y0357400D01*
X1698555Y0354000D02*
Y0354187D01*
X1701768Y0357400D02*
X1701955D01*
X1715000Y0495000D02*
X1727000D01*
X1728500Y0493500D01*
X1729000D01*
X1715000Y0501000D02*
X1727015D01*
X1734500Y0493515D01*
Y0493500D02*
Y0493515D01*
X1726515Y0489500D02*
X1738000D01*
X1724615Y0491400D02*
X1726515Y0489500D01*
X1738000D02*
X1738400Y0489900D01*
Y0495115D01*
X1735000Y0498515D02*
X1738400Y0495115D01*
X1735000Y0498515D02*
Y0510500D01*
X1740021Y0515521D01*
X1708000Y0506500D02*
X1709000D01*
X1703500Y0502000D02*
X1708000Y0506500D01*
X1754000Y0461500D02*
X1763500Y0471000D01*
X1768500D01*
X1772389Y0475389D02*
X1776000Y0479000D01*
X1772389Y0474889D02*
Y0475389D01*
X1723000Y0487500D02*
X1723500Y0487000D01*
X1752889Y0515521D02*
Y0517167D01*
Y0515389D02*
Y0515521D01*
X1723500Y0481500D02*
Y0487000D01*
X1720550Y0481500D02*
X1723500D01*
X1715525Y0476475D02*
X1720550Y0481500D01*
X1725000Y0467000D02*
X1733525Y0458475D01*
X1743000Y0449000D02*
X1765000D01*
X1778780Y0462780D01*
X1797425D01*
X1758500Y0522778D02*
Y0525500D01*
X1756111Y0520389D02*
X1758500Y0522778D01*
X1752889Y0517167D02*
X1756111Y0520389D01*
X1749000Y0503500D02*
Y0511500D01*
X1744389Y0498889D02*
X1749000Y0503500D01*
X1744389Y0498111D02*
Y0498889D01*
X1740500Y0502000D02*
X1743500Y0505000D01*
Y0510346D01*
X1755500Y0508500D02*
X1759570Y0504430D01*
X1760903D01*
X1748097Y0466570D02*
X1748930D01*
X1714000Y0385500D02*
X1729000Y0400500D01*
X1708500Y0385500D02*
X1714000D01*
X1714500Y0430500D02*
X1720000D01*
X1704055Y0354000D02*
X1708555Y0349500D01*
X1712500Y0410500D02*
X1720000D01*
X1712485Y0420500D02*
X1712500D01*
X1784000Y0422000D02*
X1784500Y0421500D01*
X1738504Y0410500D02*
X1745000D01*
X1712500Y0420500D02*
X1720000D01*
X1738504Y0405500D02*
X1746500D01*
X1733500Y0420500D02*
X1738504D01*
X1723500Y0410500D02*
X1733500Y0420500D01*
X1720000Y0410500D02*
X1723500D01*
X1734000Y0415500D02*
X1738504D01*
X1724000Y0405500D02*
X1734000Y0415500D01*
X1720000Y0405500D02*
X1724000D01*
X1699000Y0397500D02*
X1702000Y0400500D01*
X1614000Y0457000D02*
X1618313D01*
X1622813Y0452500D01*
X1623000D01*
X1607000Y0491500D02*
X1607000Y0491500D01*
X1597500Y0491500D02*
X1607000D01*
X1680100Y0428100D02*
X1690500Y0438500D01*
X1664885Y0428100D02*
X1680100D01*
X1664485Y0428500D02*
X1664885Y0428100D01*
X1660500Y0428500D02*
X1664485D01*
X1657500Y0425500D02*
X1660500Y0428500D01*
X1655836Y0353022D02*
X1663500Y0360686D01*
Y0363500D01*
X1660500Y0339000D02*
X1664000Y0335500D01*
Y0328000D02*
Y0335500D01*
X1770165Y0349000D02*
X1771726Y0350561D01*
X1760500Y0349000D02*
X1770165D01*
X1771726Y0351268D02*
X1777736Y0357278D01*
X1782000Y0408000D02*
X1815000Y0375000D01*
Y0360000D02*
Y0375000D01*
X1810775Y0355775D02*
X1815000Y0360000D01*
X1807379Y0355775D02*
X1810775D01*
X1808222Y0374778D02*
X1808500Y0374500D01*
X1806500Y0374778D02*
X1808222D01*
X1803611Y0371889D02*
X1806500Y0374778D01*
X1789757Y0369299D02*
X1792675Y0366382D01*
X1796773D01*
X1805500Y0366000D02*
X1807500Y0368000D01*
X1803462Y0366000D02*
X1805500D01*
X1800308Y0362846D02*
X1803462Y0366000D01*
X1800308Y0362846D02*
X1803844Y0359310D01*
X1791650Y0337850D02*
X1793500Y0336000D01*
X1791650Y0337850D02*
Y0340046D01*
X1771726Y0350561D02*
Y0351268D01*
X1745000Y0410500D02*
X1746500Y0412000D01*
X1729000Y0400500D02*
X1738504D01*
X1782000Y0408000D02*
Y0410500D01*
X1712500Y0432500D02*
X1714500Y0430500D01*
X1696000Y0463000D02*
X1708000Y0451000D01*
X1711500D01*
X1693500Y0463000D02*
X1696000D01*
X1706987Y0514000D02*
X1709000Y0511987D01*
Y0506500D02*
Y0511987D01*
X1716987Y0508987D02*
Y0514000D01*
X1714500Y0506500D02*
X1716987Y0508987D01*
X1784000Y0427500D02*
X1790000D01*
X1784500Y0421500D02*
X1792500D01*
X1794000D01*
X1698555Y0343709D02*
Y0346000D01*
Y0354000D01*
X1625015Y0425985D02*
X1636000Y0415000D01*
X1625015Y0425985D02*
Y0427638D01*
G54D39*
X1750500Y0425500D02*
X1751000Y0425000D01*
X1749963Y0378900D02*
X1756890Y0385827D01*
X1699500Y0382500D02*
X1703100Y0378900D01*
X1749963D01*
X1694000Y0427000D02*
X1694500D01*
X1746000Y0425500D02*
X1750500D01*
X1738504D02*
X1746000D01*
X1751000Y0413000D02*
X1751500D01*
X1750600Y0413400D02*
X1751000Y0413000D01*
X1750600Y0413400D02*
Y0413698D01*
X1746000Y0418298D02*
X1750600Y0413698D01*
X1746000Y0418298D02*
Y0425500D01*
X1699500Y0382500D02*
Y0389000D01*
X1692000Y0396500D02*
X1699500Y0389000D01*
X1757450Y0425500D02*
X1757500Y0425550D01*
X1751000Y0425500D02*
X1757450D01*
X1713000D02*
X1720000D01*
X1769965Y0400591D02*
X1770809Y0399746D01*
X1756890Y0396654D02*
X1756938Y0396702D01*
X1756890Y0385827D02*
Y0396654D01*
Y0385827D02*
X1761763Y0380953D01*
X1763827D01*
X1768501Y0376280D01*
Y0374800D02*
Y0376280D01*
X1763849Y0388710D02*
Y0392787D01*
Y0388710D02*
X1767716Y0384842D01*
X1773027Y0379532D01*
Y0379326D02*
Y0379532D01*
X1763849Y0392787D02*
X1768631D01*
X1772638Y0388779D01*
X1776575Y0384842D01*
X1778543D01*
X1770809Y0399746D02*
X1776527Y0394028D01*
Y0392669D02*
Y0394028D01*
Y0392669D02*
X1779768D01*
X1783069Y0389368D01*
X1760827Y0400591D02*
X1769965D01*
G54D40*
X1632727Y0450227D02*
Y0456880D01*
X1607000Y0491500D02*
X1608551D01*
X1615500Y0503199D02*
X1623822D01*
X1638803Y0453866D02*
Y0457184D01*
X1627050Y0481387D02*
Y0481429D01*
X1644551Y0517706D02*
Y0527449D01*
X1641900Y0525221D02*
Y0534500D01*
X1650000Y0467500D02*
Y0468500D01*
X1641137Y0464500D02*
X1643500D01*
X1689670Y0487451D02*
X1692071Y0485050D01*
X1684965Y0487451D02*
X1689670D01*
X1692071Y0485050D02*
X1697450D01*
X1704050Y0478450D01*
X1691284Y0483150D02*
X1695850D01*
X1738504Y0440496D01*
X1692650Y0479350D02*
X1715500Y0456500D01*
X1689710Y0479350D02*
X1692650D01*
X1687673Y0481387D02*
X1689710Y0479350D01*
X1684807Y0481387D02*
X1687673D01*
X1694250Y0481250D02*
X1720000Y0455500D01*
X1690497Y0481250D02*
X1694250D01*
X1688391Y0483356D02*
X1690497Y0481250D01*
X1684807Y0483356D02*
X1688391D01*
X1689178Y0485256D02*
X1691284Y0483150D01*
X1684875Y0485256D02*
X1689178D01*
X1706450Y0476050D02*
X1744000Y0438500D01*
X1706071Y0476050D02*
X1706450D01*
X1704050Y0478071D02*
X1706071Y0476050D01*
X1704050Y0478071D02*
Y0478450D01*
X1730900Y0474100D02*
X1731200D01*
X1727389Y0477611D02*
X1730900Y0474100D01*
X1630000Y0445500D02*
X1630500Y0446000D01*
X1636000D01*
X1638645Y0457342D02*
X1638803Y0457184D01*
X1638627Y0457361D02*
X1638645Y0457342D01*
Y0462145D01*
Y0456880D02*
Y0457342D01*
X1638627Y0456898D02*
X1638645Y0456880D01*
X1638627Y0456898D02*
Y0457361D01*
X1638803Y0453866D02*
X1639000Y0453669D01*
Y0446000D02*
Y0453669D01*
X1629455Y0471545D02*
X1631000Y0470000D01*
X1623980Y0473513D02*
X1635487D01*
X1631982Y0475482D02*
X1635500Y0479000D01*
X1623980Y0475482D02*
X1631982D01*
X1629954Y0479454D02*
X1630500D01*
X1627781Y0481614D02*
X1629617Y0483450D01*
X1627235Y0481614D02*
X1627781D01*
X1626994Y0483514D02*
X1628830Y0485350D01*
X1624138Y0483514D02*
X1626994D01*
X1627950Y0477450D02*
X1629954Y0479454D01*
X1623980Y0477450D02*
X1627950D01*
X1684807Y0497135D02*
X1688365D01*
X1696000Y0504000D02*
X1699500Y0507500D01*
X1692946Y0508946D02*
X1693500Y0509500D01*
X1650000Y0467500D02*
X1651050Y0466450D01*
Y0464071D02*
Y0466450D01*
Y0464071D02*
X1652425Y0462696D01*
Y0456880D02*
Y0462696D01*
X1630000Y0445500D02*
Y0446000D01*
X1629000Y0447000D02*
X1630000Y0446000D01*
X1623000Y0447000D02*
X1629000D01*
X1629500D02*
X1632727Y0450227D01*
X1627000Y0518000D02*
X1627294Y0517706D01*
X1630771D01*
X1685000Y0460000D02*
Y0463478D01*
X1684807Y0463671D02*
X1685000Y0463478D01*
X1676500Y0465000D02*
X1678015Y0463485D01*
Y0456880D02*
Y0463485D01*
X1735000Y0430500D02*
X1738504D01*
X1642000Y0434000D02*
X1642742D01*
X1647871Y0439129D01*
Y0443871D01*
X1647550Y0444192D02*
X1647871Y0443871D01*
X1647550Y0444192D02*
Y0451808D01*
X1648488Y0452746D01*
Y0456880D01*
X1699500Y0507500D02*
Y0509500D01*
X1693500D02*
X1699500D01*
X1645000Y0527000D02*
X1645500D01*
X1644551Y0527449D02*
X1645000Y0527000D01*
X1640000Y0524434D02*
X1640614Y0523820D01*
X1640000Y0524434D02*
Y0539000D01*
X1641900Y0525221D02*
X1642582Y0524539D01*
Y0517706D02*
Y0524539D01*
X1640614Y0517706D02*
Y0523820D01*
X1641900Y0534500D02*
X1643500D01*
X1640000Y0539000D02*
X1641000Y0540000D01*
X1637000Y0526500D02*
X1638000D01*
X1631500D02*
X1637000D01*
X1615500Y0509000D02*
Y0515500D01*
X1625500Y0526000D02*
X1626000Y0526500D01*
X1631500D01*
X1632740Y0525260D01*
Y0517706D02*
Y0525260D01*
X1623000Y0452500D02*
X1625000D01*
X1629379Y0456880D01*
X1630771D01*
X1618123Y0501072D02*
X1623980D01*
X1608551Y0491500D02*
X1618123Y0501072D01*
X1623822Y0503199D02*
X1623980Y0503041D01*
X1615500Y0503199D02*
Y0503500D01*
X1631500Y0486500D02*
Y0489500D01*
X1617000Y0482500D02*
Y0488500D01*
Y0482500D02*
X1620000Y0479500D01*
X1623180D01*
X1623261Y0479419D01*
X1623980D01*
X1635487Y0473513D02*
X1635500Y0473500D01*
X1640058Y0463421D02*
X1641137Y0464500D01*
X1639921Y0463421D02*
X1640058D01*
X1638645Y0462145D02*
X1639921Y0463421D01*
X1635500Y0473500D02*
Y0474000D01*
X1635000Y0474500D02*
X1635500Y0474000D01*
X1738504Y0430500D02*
X1744000D01*
Y0438500D01*
X1684807Y0487293D02*
X1684965Y0487451D01*
X1684807Y0485324D02*
X1684875Y0485256D01*
X1617950Y0477450D02*
X1623980D01*
X1617500Y0477000D02*
X1617950Y0477450D01*
X1617500Y0472500D02*
Y0477000D01*
Y0472500D02*
X1618455Y0471545D01*
X1623980D01*
Y0481387D02*
X1627050D01*
X1630350Y0485350D02*
X1631500Y0486500D01*
X1627050Y0481429D02*
X1627235Y0481614D01*
X1628830Y0485350D02*
X1630350D01*
X1623980Y0483356D02*
X1624138Y0483514D01*
X1623980Y0471545D02*
X1629455D01*
X1629617Y0483450D02*
X1631263D01*
X1632313Y0484500D01*
X1635000D01*
X1623980Y0499104D02*
X1630604D01*
X1684807Y0508946D02*
X1692946D01*
X1623980Y0497135D02*
X1629461D01*
X1629693Y0496904D01*
X1630096D01*
X1631000Y0496000D01*
X1738504Y0435500D02*
Y0440496D01*
X1720000Y0435500D02*
Y0455500D01*
X1715500Y0442500D02*
Y0456500D01*
G54D41*
X1660407Y0452922D02*
Y0456880D01*
X1684807Y0503009D02*
X1689491D01*
X1634677Y0456880D02*
Y0462323D01*
X1697222Y0495000D02*
X1709500D01*
X1690500Y0501722D02*
X1697222Y0495000D01*
X1667550Y0445000D02*
X1674000D01*
X1658330Y0452119D02*
Y0456880D01*
Y0452119D02*
X1662000Y0448450D01*
X1664000Y0448550D02*
X1667550Y0445000D01*
X1664000Y0448550D02*
Y0449328D01*
X1660407Y0452922D02*
X1664000Y0449328D01*
X1662000Y0441500D02*
Y0448450D01*
X1636677Y0456880D02*
Y0465177D01*
X1638371Y0466871D02*
X1638629D01*
X1633000Y0464000D02*
X1634677Y0462323D01*
X1689491Y0503009D02*
X1690500Y0502000D01*
Y0501722D02*
Y0502000D01*
X1707450Y0501000D02*
X1709500D01*
X1660330Y0456880D02*
X1660407D01*
X1654393Y0465393D02*
X1654500Y0465500D01*
X1654393Y0456880D02*
Y0465393D01*
X1685000Y0516000D02*
X1686000Y0515000D01*
X1693500D01*
X1699500D01*
X1684807Y0515807D02*
X1685000Y0516000D01*
X1684807Y0510915D02*
Y0515807D01*
X1636677Y0465177D02*
X1638371Y0466871D01*
X1654393Y0448893D02*
Y0456880D01*
X1650456Y0451956D02*
Y0456880D01*
X1656000Y0435500D02*
X1662000Y0441500D01*
X1649500Y0451000D02*
X1650456Y0451956D01*
X1649500Y0445000D02*
Y0451000D01*
Y0445000D02*
X1653500Y0441000D01*
X1704950Y0498500D02*
X1707450Y0501000D01*
X1684807Y0505009D02*
X1690491D01*
X1692500Y0503000D01*
Y0502550D02*
Y0503000D01*
Y0502550D02*
X1694550Y0500500D01*
X1700050D01*
X1702050Y0498500D01*
X1704950D01*
X1844094Y0452756D02*
G03*
X1732284Y0564567I-0135433J-0023622D01*
G01*
X1685039D02*
G03*
X1572912Y0452811I0023228J-0135433D01*
G01*
X1573228Y0405512D02*
G03*
X1685039Y0293701I0135433J0023622D01*
G01*
X1732284D02*
G03*
X1844094Y0405512I-0023622J0135433D01*
G01*
X1732284Y0519685D02*
Y0564567D01*
X1685039Y0519685D02*
X1732284D01*
X1685039D02*
Y0564567D01*
Y0293701D02*
Y0338583D01*
X1732284D01*
Y0293701D02*
Y0338583D01*
X1799213Y0405512D02*
X1844094D01*
X1799213D02*
Y0452756D01*
X1844094D01*
X1573228Y0452756D02*
X1618110D01*
Y0405512D02*
Y0452756D01*
X1573228Y0405512D02*
X1618110D01*
G54D42*
X1776450Y0366550D02*
X1776500Y0366500D01*
X1756500Y0366550D02*
X1776450D01*
X1755500Y0353000D02*
Y0359150D01*
X1756500Y0360150D01*
X1748500Y0354000D02*
X1749000Y0353500D01*
X1748500Y0354000D02*
Y0360000D01*
X1736011Y0364948D02*
X1736563Y0365500D01*
X1748500D01*
X1749550Y0366550D01*
X1756500D01*
X1757000Y0331000D02*
Y0337500D01*
X1760500Y0341000D01*
X1750382Y0303976D02*
X1760500Y0314094D01*
X1741142Y0303976D02*
X1750382D01*
G54D43*
X1597500Y0502000D02*
X1607000Y0511500D01*
X1636811Y0372047D02*
X1642358Y0366500D01*
X1650500D01*
X1697500Y0374500D02*
X1734000D01*
X1663985Y0408015D02*
X1697500Y0374500D01*
X1663985Y0408015D02*
Y0409985D01*
X1597500Y0497000D02*
Y0502000D01*
X1652000Y0368000D02*
X1667000D01*
X1650500Y0366500D02*
X1652000Y0368000D01*
X1667000D02*
X1679500Y0355500D01*
G54D44*
X1793100Y0381897D02*
Y0387400D01*
X1787853Y0376650D02*
X1793100Y0381897D01*
X1787650Y0376650D02*
X1787853D01*
X1781000Y0370000D02*
X1787650Y0376650D01*
X1776750Y0403750D02*
X1793100Y0387400D01*
X1653000Y0447500D02*
X1654393Y0448893D01*
X1660500Y0491000D02*
X1675000D01*
X1652396Y0499104D02*
X1660500Y0491000D01*
X1630604Y0499104D02*
X1652396D01*
X1775447Y0403750D02*
X1776750D01*
X1772197Y0407000D02*
X1775447Y0403750D01*
X1764500Y0407000D02*
X1772197D01*
X1697000Y0470000D02*
X1707000Y0460000D01*
X1696000Y0470000D02*
X1697000D01*
G54D45*
X1779891Y0342429D02*
X1784579Y0347117D01*
X1779858Y0342429D02*
X1779891D01*
X1778910Y0341481D02*
X1779700Y0340691D01*
X1769507Y0324300D02*
X1783747Y0338540D01*
X1751800Y0324300D02*
X1769507D01*
X1768500Y0326500D02*
X1779700Y0337700D01*
X1743665Y0326500D02*
X1768500D01*
X1741476Y0313976D02*
X1751800Y0324300D01*
X1741142Y0323976D02*
X1743665Y0326500D01*
X1779700Y0337700D02*
Y0340691D01*
X1778910Y0341481D02*
X1779858Y0342429D01*
X1778910Y0341481D02*
Y0341481D01*
X1783275Y0354884D02*
Y0357725D01*
X1781000Y0370000D02*
X1785000Y0366000D01*
X1781500Y0362500D02*
X1785000Y0366000D01*
X1781000Y0362500D02*
X1781500D01*
X1783000Y0352609D02*
Y0354609D01*
X1781044Y0350653D02*
X1783000Y0352609D01*
Y0354609D02*
X1783275Y0354884D01*
X1783747Y0338540D02*
Y0339214D01*
X1788115Y0343582D01*
X1796000Y0374010D02*
X1803462Y0366548D01*
Y0366000D02*
Y0366548D01*
X1775615Y0346672D02*
X1777063D01*
X1781044Y0350653D01*
X1741142Y0313976D02*
X1741476D01*
X1631000Y0496000D02*
X1652000D01*
X1662000Y0486000D01*
X1672000D01*
G54D46*
X1656430Y0450070D02*
Y0456930D01*
X1650000Y0468500D02*
X1652500Y0471000D01*
X1655500D01*
X1657900Y0468600D01*
Y0464092D02*
Y0468600D01*
X1656362Y0462554D02*
X1657900Y0464092D01*
X1656362Y0456880D02*
Y0462554D01*
X1656430Y0450070D02*
X1658500Y0448000D01*
Y0447000D02*
Y0448000D01*
X1656380Y0456880D02*
X1656430Y0456930D01*
X1656362Y0456880D02*
X1656380D01*
G54D50*
X1589567Y0394685D02*
D03*
X1605167D02*
D03*
X1675197Y0337450D02*
D03*
Y0321850D02*
D03*
G54D51*
X1620767Y0394685D02*
D03*
G54D52*
X1607000Y0511500D02*
D03*
Y0501500D02*
D03*
Y0491500D02*
D03*
X1790354Y0455709D02*
D03*
X1797425Y0462780D02*
D03*
X1804497Y0469851D02*
D03*
X1811567Y0476922D02*
D03*
X1818639Y0483993D02*
D03*
X1708555Y0346000D02*
D03*
X1716987Y0514000D02*
D03*
X1792500Y0431500D02*
D03*
X1625015Y0437638D02*
D03*
X1741142Y0313976D02*
D03*
Y0323976D02*
D03*
Y0333976D02*
D03*
G54D53*
X1607000Y0481500D02*
D03*
X1792500Y0421500D02*
D03*
X1625015Y0427638D02*
D03*
X1741142Y0303976D02*
D03*
G54D54*
X1783283Y0448638D02*
D03*
G54D55*
X1675197Y0306250D02*
D03*
G54D56*
X1698555Y0346000D02*
D03*
X1706987Y0514000D02*
D03*
G54D57*
X1770809Y0399746D02*
D03*
X1763849Y0392787D02*
D03*
X1756890Y0385827D02*
D03*
X1743082Y0372019D02*
D03*
X1630500Y0344500D02*
D03*
X1616000Y0338000D02*
D03*
G54D58*
X1736011Y0364948D02*
D03*
G54D59*
X1730000Y0485000D02*
D03*
X1650000Y0468500D02*
D03*
X1643500Y0464500D02*
D03*
X1690200Y0444700D02*
D03*
X1698000Y0445100D02*
D03*
X1814961Y0385827D02*
D03*
X1693500Y0488500D02*
D03*
X1707500Y0479500D02*
D03*
X1771100Y0318900D02*
D03*
X1776100Y0339200D02*
D03*
X1783275Y0357725D02*
D03*
X1801181Y0398981D02*
D03*
X1786300Y0380400D02*
D03*
X1633800Y0536600D02*
D03*
X1674800Y0535000D02*
D03*
X1613900Y0473100D02*
D03*
X1605000Y0347800D02*
D03*
X1622500Y0379300D02*
D03*
X1638700Y0364000D02*
D03*
X1615000Y0366500D02*
D03*
X1731200Y0474100D02*
D03*
X1761300Y0437300D02*
D03*
X1773500Y0446500D02*
D03*
X1667500Y0450000D02*
D03*
X1685400Y0451000D02*
D03*
X1645400Y0389000D02*
D03*
X1762600Y0415200D02*
D03*
X1735600Y0394100D02*
D03*
X1638629Y0466871D02*
D03*
X1631000Y0470000D02*
D03*
X1630500Y0479454D02*
D03*
X1633000Y0464000D02*
D03*
X1689000Y0375500D02*
D03*
X1734000Y0374500D02*
D03*
X1708000Y0366500D02*
D03*
X1659500Y0405500D02*
D03*
X1663985Y0409985D02*
D03*
X1747000Y0405000D02*
D03*
X1693000Y0415500D02*
D03*
X1712000D02*
D03*
X1705500Y0412000D02*
D03*
X1694000Y0421000D02*
D03*
X1694500Y0427000D02*
D03*
X1711000Y0409000D02*
D03*
X1751500Y0413000D02*
D03*
X1692000Y0396500D02*
D03*
X1729000Y0493500D02*
D03*
X1734500D02*
D03*
X1696000Y0504000D02*
D03*
X1703500Y0502000D02*
D03*
X1697500Y0452960D02*
D03*
X1630000Y0445500D02*
D03*
X1649000Y0506500D02*
D03*
X1627000Y0518000D02*
D03*
X1685000Y0460000D02*
D03*
X1676500Y0465000D02*
D03*
X1776000Y0479000D02*
D03*
X1723000Y0487500D02*
D03*
X1758500Y0525500D02*
D03*
X1749000Y0503500D02*
D03*
X1743500Y0510346D02*
D03*
X1755500Y0508500D02*
D03*
X1754000Y0461500D02*
D03*
X1642000Y0434000D02*
D03*
X1670000Y0415000D02*
D03*
X1708500Y0385500D02*
D03*
X1712500Y0420500D02*
D03*
X1699000Y0397500D02*
D03*
X1713000Y0425500D02*
D03*
X1665000Y0496500D02*
D03*
X1654500Y0465500D02*
D03*
X1685000Y0516000D02*
D03*
X1645500Y0527000D02*
D03*
X1643500Y0534500D02*
D03*
X1641000Y0540000D02*
D03*
X1615500Y0515500D02*
D03*
X1625500Y0526000D02*
D03*
X1614000Y0457000D02*
D03*
X1631500Y0489500D02*
D03*
X1617000Y0488500D02*
D03*
X1635500Y0473500D02*
D03*
Y0479000D02*
D03*
X1666500Y0432000D02*
D03*
X1658500Y0447000D02*
D03*
X1656000Y0435500D02*
D03*
X1653500Y0441000D02*
D03*
X1653000Y0447500D02*
D03*
X1657500Y0425500D02*
D03*
X1634626Y0389874D02*
D03*
X1663500Y0363500D02*
D03*
X1660500Y0339000D02*
D03*
X1664000Y0328000D02*
D03*
X1776500Y0366500D02*
D03*
X1760500Y0349000D02*
D03*
X1808500Y0374500D02*
D03*
X1793500Y0336000D02*
D03*
X1816500Y0353000D02*
D03*
X1810500Y0362000D02*
D03*
X1755500Y0353000D02*
D03*
X1749000Y0353500D02*
D03*
X1823000Y0364500D02*
D03*
X1794500Y0359500D02*
D03*
X1757000Y0331000D02*
D03*
X1678000Y0480500D02*
D03*
X1635000Y0484500D02*
D03*
X1746500Y0412000D02*
D03*
X1777000Y0407500D02*
D03*
X1715500Y0442500D02*
D03*
X1675000Y0491000D02*
D03*
X1696000Y0470000D02*
D03*
X1672000Y0486000D02*
D03*
X1693500Y0463000D02*
D03*
X1782000Y0410500D02*
D03*
X1712500Y0432500D02*
D03*
X1674000Y0445000D02*
D03*
X1681500Y0446000D02*
D03*
X1711500Y0451000D02*
D03*
X1764500Y0407000D02*
D03*
X1707000Y0460000D02*
D03*
X1679500Y0355500D02*
D03*
G54D60*
X1741000Y0383000D02*
D03*
G54D61*
X1796773Y0366382D02*
D03*
X1800308Y0362846D02*
D03*
X1803844Y0359310D02*
D03*
X1807379Y0355775D02*
D03*
X1781044Y0350653D02*
D03*
X1784579Y0347117D02*
D03*
X1788115Y0343582D02*
D03*
X1791650Y0340046D02*
D03*
G54D62*
X1760500Y0314094D02*
D03*
Y0341000D02*
D03*
G54D63*
X1616802Y0352687D02*
D03*
X1635827Y0333661D02*
D03*
X1636811Y0372047D02*
D03*
X1655836Y0353022D02*
D03*
G54D64*
X1639000Y0446000D02*
D03*
X1636000D02*
D03*
G54D65*
X1630771Y0456880D02*
D03*
X1632740D02*
D03*
X1634708D02*
D03*
X1636677D02*
D03*
X1638645D02*
D03*
X1640614D02*
D03*
X1642582Y0456880D02*
D03*
X1644551Y0456880D02*
D03*
X1646519D02*
D03*
X1648488D02*
D03*
X1650456D02*
D03*
X1652425D02*
D03*
X1654393Y0456880D02*
D03*
X1656362D02*
D03*
X1658330D02*
D03*
X1660299Y0456880D02*
D03*
X1662267D02*
D03*
X1664236D02*
D03*
X1666204D02*
D03*
X1668173D02*
D03*
X1670141D02*
D03*
X1672110D02*
D03*
X1674078D02*
D03*
X1676047D02*
D03*
X1678015D02*
D03*
Y0517706D02*
D03*
X1676047D02*
D03*
X1674078D02*
D03*
X1672110Y0517706D02*
D03*
X1670141D02*
D03*
X1668173D02*
D03*
X1666204Y0517706D02*
D03*
X1664236D02*
D03*
X1662267D02*
D03*
X1660299D02*
D03*
X1658330Y0517706D02*
D03*
X1656362D02*
D03*
X1654393D02*
D03*
X1652425Y0517706D02*
D03*
X1650456D02*
D03*
X1648488D02*
D03*
X1646519D02*
D03*
X1644551D02*
D03*
X1642582Y0517706D02*
D03*
X1640614D02*
D03*
X1638645Y0517706D02*
D03*
X1636677D02*
D03*
X1634708D02*
D03*
X1632740Y0517706D02*
D03*
X1630771D02*
D03*
G54D66*
X1684807Y0463671D02*
D03*
Y0465639D02*
D03*
Y0467608D02*
D03*
Y0469576D02*
D03*
Y0471545D02*
D03*
Y0473513D02*
D03*
Y0475482D02*
D03*
Y0477450D02*
D03*
Y0479419D02*
D03*
Y0481387D02*
D03*
Y0483356D02*
D03*
Y0485324D02*
D03*
Y0487293D02*
D03*
Y0489261D02*
D03*
Y0491230D02*
D03*
Y0493198D02*
D03*
Y0495167D02*
D03*
Y0497135D02*
D03*
Y0499104D02*
D03*
Y0501072D02*
D03*
Y0503041D02*
D03*
Y0505009D02*
D03*
Y0506978D02*
D03*
Y0508946D02*
D03*
Y0510915D02*
D03*
X1623980D02*
D03*
Y0508946D02*
D03*
Y0506978D02*
D03*
Y0505009D02*
D03*
Y0503041D02*
D03*
Y0501072D02*
D03*
Y0499104D02*
D03*
Y0497135D02*
D03*
Y0495167D02*
D03*
Y0493198D02*
D03*
Y0491230D02*
D03*
Y0489261D02*
D03*
Y0487293D02*
D03*
Y0485324D02*
D03*
Y0483356D02*
D03*
Y0481387D02*
D03*
Y0479419D02*
D03*
Y0477450D02*
D03*
Y0475482D02*
D03*
Y0473513D02*
D03*
Y0471545D02*
D03*
Y0469576D02*
D03*
Y0467608D02*
D03*
Y0465639D02*
D03*
Y0463671D02*
D03*
G54D67*
X1738070Y0481597D02*
D03*
X1763403Y0506930D02*
D03*
X1750597Y0469070D02*
D03*
X1775930Y0494403D02*
D03*
G54D68*
X1738504Y0435500D02*
D03*
X1738504Y0430500D02*
D03*
X1738504Y0425500D02*
D03*
Y0420500D02*
D03*
Y0415500D02*
D03*
Y0410500D02*
D03*
X1738504Y0405500D02*
D03*
X1738504Y0400500D02*
D03*
X1720000Y0435500D02*
D03*
X1720000Y0430500D02*
D03*
X1720000Y0425500D02*
D03*
Y0420500D02*
D03*
Y0415500D02*
D03*
Y0410500D02*
D03*
X1720000Y0405500D02*
D03*
X1720000Y0400500D02*
D03*
G54D69*
X1631686Y0377172D02*
X1633200Y0378686D01*
X1620767Y0388881D02*
Y0394685D01*
Y0388881D02*
X1621886Y0390000D01*
X1626626D01*
Y0386560D02*
Y0390000D01*
Y0386560D02*
X1631312Y0381874D01*
X1633200Y0378686D02*
Y0381874D01*
X1631312D02*
X1633200D01*
X1631686Y0377172D02*
X1636811Y0372047D01*
X1631686Y0377172D02*
X1631686D01*
X1605167Y0364321D02*
X1616802Y0352687D01*
X1605167Y0364321D02*
Y0394685D01*
X1636475Y0333661D02*
X1655836Y0353022D01*
X1663238Y0306250D02*
X1675197D01*
X1635827Y0333661D02*
X1663238Y0306250D01*
X1635827Y0333661D02*
X1636475D01*
G54D70*
X1607000Y0501500D02*
X1613500D01*
X1615500Y0503500D01*
M02*
