G04 Layer_Color=16711935*
%FSAX25Y25*%
%MOIN*%
G70*
G01*
G75*
%ADD41C,0.01000*%
%ADD75C,0.00394*%
G54D41*
X1844094Y0452756D02*
G03*
X1732284Y0564567I-0135433J-0023622D01*
G01*
X1685039D02*
G03*
X1572912Y0452811I0023228J-0135433D01*
G01*
X1573228Y0405512D02*
G03*
X1685039Y0293701I0135433J0023622D01*
G01*
X1732284D02*
G03*
X1844094Y0405512I-0023622J0135433D01*
G01*
X1732284Y0519685D02*
Y0564567D01*
X1685039Y0519685D02*
X1732284D01*
X1685039D02*
Y0564567D01*
Y0293701D02*
Y0338583D01*
X1732284D01*
Y0293701D02*
Y0338583D01*
X1799213Y0405512D02*
X1844094D01*
X1799213D02*
Y0452756D01*
X1844094D01*
X1573228Y0452756D02*
X1618110D01*
Y0405512D02*
Y0452756D01*
X1573228Y0405512D02*
X1618110D01*
G54D75*
X1797138Y0358066D02*
X1798529Y0356674D01*
Y0356117D01*
X1797973Y0355561D01*
X1797416D01*
X1796025Y0356952D01*
X1795468Y0356396D02*
X1794355Y0355282D01*
X1794633Y0355004D01*
X1796860D01*
X1797138Y0354726D01*
X1676139Y0408000D02*
X1678106D01*
X1678500Y0408394D01*
Y0409181D01*
X1678106Y0409574D01*
X1676139D01*
X1676532Y0410361D02*
X1676139Y0410755D01*
Y0411542D01*
X1676532Y0411936D01*
X1676926D01*
X1677319Y0411542D01*
Y0411149D01*
Y0411542D01*
X1677713Y0411936D01*
X1678106D01*
X1678500Y0411542D01*
Y0410755D01*
X1678106Y0410361D01*
M02*
