G04 Layer_Physical_Order=2*
G04 Layer_Color=36540*
%FSAX25Y25*%
%MOIN*%
G70*
G01*
G75*
%ADD37C,0.01800*%
%ADD40C,0.00900*%
%ADD41C,0.01000*%
%ADD50C,0.10000*%
%ADD52C,0.07874*%
%ADD54P,0.11136X4X90.0*%
%ADD57C,0.07000*%
%ADD59C,0.04000*%
%ADD60C,0.03000*%
G36*
X1798900Y0414915D02*
Y0405400D01*
X1835100D01*
X1843068Y0405400D01*
X1843371Y0405002D01*
X1838500Y0387400D01*
X1830550Y0367650D01*
X1821100Y0354000D01*
X1819988Y0352676D01*
X1819511Y0352886D01*
X1819526Y0353000D01*
X1819423Y0353783D01*
X1819120Y0354513D01*
X1818640Y0355140D01*
X1818013Y0355621D01*
X1817283Y0355923D01*
X1817000Y0355960D01*
Y0353000D01*
Y0350040D01*
X1817134Y0350058D01*
X1817405Y0349653D01*
X1817415Y0349615D01*
X1799714Y0328551D01*
X1771900Y0309000D01*
X1759600Y0303000D01*
X1746533Y0298929D01*
X1746079Y0299311D01*
Y0308913D01*
X1743126D01*
X1743027Y0309413D01*
X1743632Y0309664D01*
X1744663Y0310455D01*
X1745454Y0311487D01*
X1745952Y0312688D01*
X1746121Y0313976D01*
X1745952Y0315265D01*
X1745454Y0316466D01*
X1744663Y0317497D01*
X1743632Y0318289D01*
X1742625Y0318706D01*
Y0319247D01*
X1743632Y0319664D01*
X1744663Y0320455D01*
X1745454Y0321487D01*
X1745952Y0322688D01*
X1746121Y0323976D01*
X1745952Y0325265D01*
X1745454Y0326466D01*
X1744663Y0327498D01*
X1743632Y0328289D01*
X1742625Y0328706D01*
Y0329247D01*
X1743632Y0329664D01*
X1744663Y0330455D01*
X1745454Y0331487D01*
X1745952Y0332688D01*
X1746055Y0333476D01*
X1741142D01*
X1736228D01*
X1736332Y0332688D01*
X1736829Y0331487D01*
X1737621Y0330455D01*
X1738652Y0329664D01*
X1739659Y0329247D01*
Y0328706D01*
X1738652Y0328289D01*
X1737621Y0327498D01*
X1736829Y0326466D01*
X1736332Y0325265D01*
X1736162Y0323976D01*
X1736332Y0322688D01*
X1736829Y0321487D01*
X1737621Y0320455D01*
X1738652Y0319664D01*
X1739659Y0319247D01*
Y0318706D01*
X1738652Y0318289D01*
X1737621Y0317497D01*
X1736829Y0316466D01*
X1736332Y0315265D01*
X1736162Y0313976D01*
X1736332Y0312688D01*
X1736829Y0311487D01*
X1737621Y0310455D01*
X1738652Y0309664D01*
X1739257Y0309413D01*
X1739157Y0308913D01*
X1736205D01*
Y0299039D01*
X1745206D01*
X1745282Y0298539D01*
X1734003Y0295025D01*
X1733600Y0295322D01*
Y0344100D01*
X1721492Y0356208D01*
Y0372996D01*
X1724409D01*
X1724800Y0373074D01*
X1725130Y0373295D01*
X1744094Y0392259D01*
X1751140Y0385213D01*
X1751227Y0385155D01*
X1751302Y0385082D01*
X1751391Y0385046D01*
X1751471Y0384993D01*
X1751573Y0384972D01*
X1751670Y0384933D01*
X1751767Y0384934D01*
X1751861Y0384915D01*
X1751963Y0384935D01*
X1752068Y0384936D01*
X1752098Y0384942D01*
X1752505Y0384653D01*
X1752506Y0384652D01*
X1752959Y0383557D01*
X1753680Y0382617D01*
X1754620Y0381896D01*
X1755715Y0381443D01*
X1756890Y0381288D01*
X1758064Y0381443D01*
X1759159Y0381896D01*
X1760099Y0382617D01*
X1760821Y0383557D01*
X1761274Y0384652D01*
X1761280Y0384701D01*
X1761429Y0384807D01*
X1767716D01*
X1768107Y0384885D01*
X1768438Y0385106D01*
X1798438Y0415106D01*
X1798900Y0414915D01*
D02*
G37*
G36*
X1728346Y0496440D02*
X1728217Y0496423D01*
X1727487Y0496121D01*
X1726860Y0495640D01*
X1726380Y0495013D01*
X1726077Y0494283D01*
X1726003Y0493719D01*
X1722781Y0490497D01*
X1722217Y0490423D01*
X1721487Y0490121D01*
X1720860Y0489640D01*
X1720379Y0489013D01*
X1720077Y0488283D01*
X1720003Y0487719D01*
X1710895Y0478612D01*
X1710442Y0478866D01*
X1710526Y0479500D01*
X1710423Y0480283D01*
X1710121Y0481013D01*
X1709640Y0481640D01*
X1709013Y0482121D01*
X1708283Y0482423D01*
X1707500Y0482526D01*
X1706717Y0482423D01*
X1705987Y0482121D01*
X1705360Y0481640D01*
X1704880Y0481013D01*
X1704577Y0480283D01*
X1704474Y0479500D01*
X1704577Y0478717D01*
X1704880Y0477987D01*
X1705360Y0477360D01*
X1705987Y0476880D01*
X1706717Y0476577D01*
X1707500Y0476474D01*
X1708134Y0476558D01*
X1708389Y0476105D01*
X1704725Y0472441D01*
X1751969Y0425197D01*
X1755906D01*
X1774288Y0443579D01*
X1775013Y0443880D01*
X1775640Y0444360D01*
X1776040Y0444882D01*
X1780057D01*
X1783283Y0441656D01*
X1786510Y0444882D01*
X1798500Y0444882D01*
X1798500Y0416610D01*
X1767716Y0385827D01*
X1761429D01*
X1761274Y0387001D01*
X1760821Y0388096D01*
X1760099Y0389036D01*
X1759159Y0389757D01*
X1758064Y0390211D01*
X1756890Y0390366D01*
X1755715Y0390211D01*
X1754620Y0389757D01*
X1753680Y0389036D01*
X1752959Y0388096D01*
X1752506Y0387001D01*
X1752379Y0386042D01*
X1751861Y0385934D01*
X1744094Y0393701D01*
X1724409Y0374016D01*
X1720472D01*
Y0354331D01*
X1732284Y0342520D01*
Y0339500D01*
X1685039D01*
Y0385827D01*
X1646885D01*
X1646786Y0386327D01*
X1646913Y0386380D01*
X1647540Y0386860D01*
X1648021Y0387487D01*
X1648323Y0388217D01*
X1648360Y0388500D01*
X1642440D01*
X1642477Y0388217D01*
X1642780Y0387487D01*
X1643260Y0386860D01*
X1643887Y0386380D01*
X1644014Y0386327D01*
X1643915Y0385827D01*
X1633858D01*
X1632835Y0386850D01*
X1633113Y0387253D01*
X1633843Y0386951D01*
X1634126Y0386914D01*
Y0389374D01*
X1631666D01*
X1631703Y0389091D01*
X1632006Y0388361D01*
X1631602Y0388083D01*
X1626767Y0392918D01*
Y0400685D01*
X1625984D01*
Y0417323D01*
X1622047D01*
X1618110Y0421260D01*
Y0444882D01*
X1627056D01*
X1627077Y0444717D01*
X1627379Y0443987D01*
X1627860Y0443360D01*
X1628487Y0442879D01*
X1629217Y0442577D01*
X1630000Y0442474D01*
X1630783Y0442577D01*
X1631513Y0442879D01*
X1632140Y0443360D01*
X1632620Y0443987D01*
X1632923Y0444717D01*
X1632944Y0444882D01*
X1633858D01*
X1641732Y0452756D01*
Y0461481D01*
X1642232Y0461778D01*
X1642717Y0461577D01*
X1643500Y0461474D01*
X1644283Y0461577D01*
X1645013Y0461879D01*
X1645640Y0462360D01*
X1646120Y0462987D01*
X1646423Y0463717D01*
X1646526Y0464500D01*
X1646423Y0465283D01*
X1646120Y0466013D01*
X1645640Y0466640D01*
X1645013Y0467121D01*
X1644283Y0467423D01*
X1643500Y0467526D01*
X1642717Y0467423D01*
X1642232Y0467222D01*
X1641732Y0467519D01*
Y0476378D01*
X1661417D01*
Y0456693D01*
X1688976D01*
X1692465Y0460182D01*
X1692717Y0460077D01*
X1693500Y0459974D01*
X1694283Y0460077D01*
X1695013Y0460380D01*
X1695640Y0460860D01*
X1696120Y0461487D01*
X1696423Y0462217D01*
X1696526Y0463000D01*
X1696423Y0463783D01*
X1696318Y0464035D01*
X1696850Y0464567D01*
Y0467105D01*
X1697513Y0467380D01*
X1698140Y0467860D01*
X1698620Y0468487D01*
X1698923Y0469217D01*
X1699026Y0470000D01*
X1698923Y0470783D01*
X1698620Y0471513D01*
X1698140Y0472140D01*
X1697513Y0472620D01*
X1696850Y0472895D01*
Y0501105D01*
X1697513Y0501379D01*
X1698140Y0501860D01*
X1698620Y0502487D01*
X1698923Y0503217D01*
X1699026Y0504000D01*
X1698923Y0504783D01*
X1698620Y0505513D01*
X1698140Y0506140D01*
X1697513Y0506621D01*
X1696850Y0506895D01*
Y0519685D01*
X1728346D01*
X1728346Y0496440D01*
D02*
G37*
G36*
X1755561Y0524839D02*
X1755577Y0524717D01*
X1755880Y0523987D01*
X1756360Y0523360D01*
X1756987Y0522880D01*
X1757717Y0522577D01*
X1757839Y0522561D01*
X1795100Y0485300D01*
X1808800D01*
X1811776Y0482324D01*
X1811774Y0482321D01*
X1811500Y0481893D01*
X1810279Y0481732D01*
X1809078Y0481234D01*
X1808046Y0480443D01*
X1807255Y0479412D01*
X1806758Y0478211D01*
X1806588Y0476922D01*
X1806758Y0475633D01*
X1807174Y0474626D01*
X1806792Y0474244D01*
X1805785Y0474661D01*
X1804497Y0474830D01*
X1803208Y0474661D01*
X1802007Y0474163D01*
X1800975Y0473372D01*
X1800184Y0472341D01*
X1799686Y0471140D01*
X1799517Y0469851D01*
X1799686Y0468562D01*
X1800104Y0467555D01*
X1799721Y0467173D01*
X1798714Y0467590D01*
X1797425Y0467759D01*
X1796137Y0467590D01*
X1794936Y0467092D01*
X1793904Y0466301D01*
X1793113Y0465270D01*
X1792616Y0464069D01*
X1792446Y0462780D01*
X1792616Y0461491D01*
X1793032Y0460484D01*
X1792650Y0460102D01*
X1791643Y0460519D01*
X1790354Y0460688D01*
X1789066Y0460519D01*
X1787864Y0460021D01*
X1786833Y0459230D01*
X1786042Y0458198D01*
X1785544Y0456997D01*
X1785375Y0455709D01*
X1785544Y0454420D01*
X1785795Y0453815D01*
X1785371Y0453532D01*
X1783283Y0455620D01*
X1780146Y0452482D01*
X1783637Y0448991D01*
X1782930Y0448284D01*
X1779439Y0451775D01*
X1776301Y0448638D01*
X1778575Y0446363D01*
X1778384Y0445901D01*
X1776826D01*
X1776740Y0446000D01*
X1770540D01*
X1770577Y0445717D01*
X1770880Y0444987D01*
X1771360Y0444360D01*
X1771987Y0443880D01*
X1772307Y0443747D01*
X1772424Y0443157D01*
X1755483Y0426216D01*
X1752391D01*
X1706373Y0472234D01*
X1719949Y0485810D01*
X1720577Y0485730D01*
X1720860Y0485360D01*
X1721487Y0484879D01*
X1722217Y0484577D01*
X1723000Y0484474D01*
X1723783Y0484577D01*
X1724513Y0484879D01*
X1725140Y0485360D01*
X1725620Y0485987D01*
X1725923Y0486717D01*
X1726026Y0487500D01*
X1725923Y0488283D01*
X1725620Y0489013D01*
X1725140Y0489640D01*
X1724770Y0489923D01*
X1724690Y0490551D01*
X1725949Y0491810D01*
X1726577Y0491730D01*
X1726860Y0491360D01*
X1727487Y0490879D01*
X1728217Y0490577D01*
X1729000Y0490474D01*
X1729783Y0490577D01*
X1730513Y0490879D01*
X1731140Y0491360D01*
X1731449Y0491764D01*
X1731471Y0491775D01*
X1732029D01*
X1732051Y0491764D01*
X1732360Y0491360D01*
X1732987Y0490879D01*
X1733717Y0490577D01*
X1734500Y0490474D01*
X1735283Y0490577D01*
X1736013Y0490879D01*
X1736640Y0491360D01*
X1737120Y0491987D01*
X1737423Y0492717D01*
X1737526Y0493500D01*
X1737423Y0494283D01*
X1737120Y0495013D01*
X1736640Y0495640D01*
X1736013Y0496121D01*
X1735283Y0496423D01*
X1734500Y0496526D01*
X1733717Y0496423D01*
X1732987Y0496121D01*
X1732360Y0495640D01*
X1732051Y0495236D01*
X1732029Y0495225D01*
X1731471D01*
X1731449Y0495236D01*
X1731140Y0495640D01*
X1730513Y0496121D01*
X1729783Y0496423D01*
X1729366Y0496478D01*
X1729366Y0518397D01*
X1729769Y0518800D01*
X1732000D01*
X1733000Y0519800D01*
Y0536900D01*
X1743500D01*
X1755561Y0524839D01*
D02*
G37*
G36*
X1621326Y0416602D02*
X1621657Y0416381D01*
X1622047Y0416303D01*
X1624965D01*
Y0400685D01*
X1614767D01*
Y0388685D01*
X1626767D01*
Y0390823D01*
X1627229Y0391014D01*
X1630881Y0387362D01*
X1630970Y0387303D01*
X1631047Y0387228D01*
X1631134Y0387193D01*
X1631211Y0387141D01*
X1631317Y0387121D01*
X1631416Y0387081D01*
X1631547Y0387005D01*
X1631757Y0386794D01*
X1631833Y0386664D01*
X1631873Y0386565D01*
X1631893Y0386459D01*
X1631945Y0386382D01*
X1631980Y0386295D01*
X1632055Y0386218D01*
X1632114Y0386129D01*
X1633137Y0385106D01*
X1633468Y0384885D01*
X1633858Y0384807D01*
X1643915D01*
X1644013Y0384827D01*
X1644114D01*
X1644207Y0384865D01*
X1644305Y0384885D01*
X1644389Y0384941D01*
X1644481Y0384979D01*
X1644552Y0385050D01*
X1644636Y0385106D01*
X1644692Y0385189D01*
X1644763Y0385260D01*
X1644801Y0385353D01*
X1644857Y0385437D01*
X1644876Y0385535D01*
X1644915Y0385628D01*
X1644994Y0386028D01*
X1645400Y0385974D01*
X1645806Y0386028D01*
X1645885Y0385628D01*
X1645923Y0385535D01*
X1645943Y0385437D01*
X1645999Y0385353D01*
X1646037Y0385260D01*
X1646108Y0385189D01*
X1646164Y0385106D01*
X1646248Y0385050D01*
X1646319Y0384979D01*
X1646411Y0384941D01*
X1646495Y0384885D01*
X1646593Y0384865D01*
X1646686Y0384827D01*
X1646787D01*
X1646885Y0384807D01*
X1684020D01*
Y0339500D01*
X1684097Y0339110D01*
X1684100Y0339106D01*
Y0294528D01*
X1683694Y0294236D01*
X1650842Y0305226D01*
X1612164Y0333128D01*
X1593565Y0355731D01*
X1579700Y0388000D01*
X1575835Y0403305D01*
X1576143Y0403700D01*
X1618500Y0403700D01*
Y0418775D01*
X1618962Y0418966D01*
X1621326Y0416602D01*
D02*
G37*
G36*
X1684000Y0560745D02*
Y0518833D01*
X1683487Y0518620D01*
X1682860Y0518140D01*
X1682380Y0517513D01*
X1682077Y0516783D01*
X1682040Y0516500D01*
X1687960D01*
X1687923Y0516783D01*
X1687621Y0517513D01*
X1687247Y0518000D01*
X1687439Y0518500D01*
X1695831D01*
Y0507004D01*
X1695217Y0506923D01*
X1694487Y0506621D01*
X1693860Y0506140D01*
X1693380Y0505513D01*
X1693077Y0504783D01*
X1692974Y0504000D01*
X1693077Y0503217D01*
X1693380Y0502487D01*
X1693860Y0501860D01*
X1694487Y0501379D01*
X1695217Y0501077D01*
X1695831Y0500996D01*
Y0491123D01*
X1695331Y0490877D01*
X1695013Y0491120D01*
X1694283Y0491423D01*
X1694000Y0491460D01*
Y0488500D01*
Y0485540D01*
X1694283Y0485577D01*
X1695013Y0485880D01*
X1695331Y0486123D01*
X1695831Y0485877D01*
Y0473004D01*
X1695217Y0472923D01*
X1694487Y0472620D01*
X1693860Y0472140D01*
X1693380Y0471513D01*
X1693077Y0470783D01*
X1692974Y0470000D01*
X1693077Y0469217D01*
X1693380Y0468487D01*
X1693860Y0467860D01*
X1694487Y0467380D01*
X1695217Y0467077D01*
X1695831Y0466996D01*
Y0465623D01*
X1695331Y0465377D01*
X1695013Y0465621D01*
X1694283Y0465923D01*
X1693500Y0466026D01*
X1692717Y0465923D01*
X1691987Y0465621D01*
X1691360Y0465140D01*
X1690879Y0464513D01*
X1690577Y0463783D01*
X1690474Y0463000D01*
X1690577Y0462217D01*
X1690879Y0461487D01*
X1691360Y0460860D01*
X1691381Y0460540D01*
X1688764Y0457923D01*
X1687753D01*
X1687532Y0458371D01*
X1687621Y0458487D01*
X1687923Y0459217D01*
X1687960Y0459500D01*
X1682040D01*
X1682077Y0459217D01*
X1682380Y0458487D01*
X1682468Y0458371D01*
X1682247Y0457923D01*
X1662437D01*
Y0476378D01*
X1662359Y0476768D01*
X1662138Y0477099D01*
X1661807Y0477320D01*
X1661417Y0477397D01*
X1641732D01*
X1641342Y0477320D01*
X1641011Y0477099D01*
X1640790Y0476768D01*
X1640713Y0476378D01*
Y0469619D01*
X1640264Y0469398D01*
X1640142Y0469491D01*
X1639412Y0469794D01*
X1638629Y0469897D01*
X1637846Y0469794D01*
X1637116Y0469491D01*
X1636489Y0469011D01*
X1636008Y0468384D01*
X1635706Y0467654D01*
X1635603Y0466871D01*
X1635685Y0466251D01*
X1635207Y0466052D01*
X1635140Y0466140D01*
X1634513Y0466620D01*
X1633783Y0466923D01*
X1633000Y0467026D01*
X1632847Y0467006D01*
X1632649Y0467484D01*
X1633140Y0467860D01*
X1633620Y0468487D01*
X1633923Y0469217D01*
X1634026Y0470000D01*
X1633981Y0470341D01*
X1634439Y0470692D01*
X1634717Y0470577D01*
X1635500Y0470474D01*
X1636283Y0470577D01*
X1637013Y0470880D01*
X1637640Y0471360D01*
X1638120Y0471987D01*
X1638423Y0472717D01*
X1638526Y0473500D01*
X1638423Y0474283D01*
X1638120Y0475013D01*
X1637640Y0475640D01*
X1637236Y0475949D01*
X1637225Y0475971D01*
Y0476529D01*
X1637236Y0476551D01*
X1637640Y0476860D01*
X1638120Y0477487D01*
X1638423Y0478217D01*
X1638526Y0479000D01*
X1638423Y0479783D01*
X1638120Y0480513D01*
X1637640Y0481140D01*
X1637013Y0481621D01*
X1637002Y0481625D01*
X1636927Y0482197D01*
X1637140Y0482360D01*
X1637621Y0482987D01*
X1637923Y0483717D01*
X1638026Y0484500D01*
X1637923Y0485283D01*
X1637621Y0486013D01*
X1637140Y0486640D01*
X1636513Y0487120D01*
X1635783Y0487423D01*
X1635000Y0487526D01*
X1634329Y0487438D01*
X1634113Y0487698D01*
X1634042Y0487885D01*
X1634121Y0487987D01*
X1634423Y0488717D01*
X1634526Y0489500D01*
X1634423Y0490283D01*
X1634121Y0491013D01*
X1633640Y0491640D01*
X1633013Y0492121D01*
X1632283Y0492423D01*
X1631500Y0492526D01*
X1630717Y0492423D01*
X1629987Y0492121D01*
X1629360Y0491640D01*
X1628880Y0491013D01*
X1628577Y0490283D01*
X1628474Y0489500D01*
X1628577Y0488717D01*
X1628880Y0487987D01*
X1629360Y0487360D01*
X1629987Y0486879D01*
X1630717Y0486577D01*
X1631500Y0486474D01*
X1632171Y0486562D01*
X1632387Y0486302D01*
X1632458Y0486115D01*
X1632380Y0486013D01*
X1632077Y0485283D01*
X1631974Y0484500D01*
X1632077Y0483717D01*
X1632380Y0482987D01*
X1632860Y0482360D01*
X1633311Y0482015D01*
X1633335Y0481494D01*
X1633305Y0481418D01*
X1632704Y0481510D01*
X1632640Y0481594D01*
X1632013Y0482075D01*
X1631283Y0482377D01*
X1630500Y0482480D01*
X1629717Y0482377D01*
X1628987Y0482075D01*
X1628360Y0481594D01*
X1627880Y0480967D01*
X1627577Y0480237D01*
X1627474Y0479454D01*
X1627577Y0478671D01*
X1627880Y0477941D01*
X1628360Y0477315D01*
X1628987Y0476834D01*
X1629717Y0476531D01*
X1630500Y0476428D01*
X1631283Y0476531D01*
X1632013Y0476834D01*
X1632480Y0477192D01*
X1632998Y0477194D01*
X1633141Y0477146D01*
X1633360Y0476860D01*
X1633764Y0476551D01*
X1633775Y0476529D01*
Y0475971D01*
X1633764Y0475949D01*
X1633360Y0475640D01*
X1632879Y0475013D01*
X1632577Y0474283D01*
X1632474Y0473500D01*
X1632519Y0473159D01*
X1632061Y0472808D01*
X1631783Y0472923D01*
X1631000Y0473026D01*
X1630217Y0472923D01*
X1629487Y0472620D01*
X1628860Y0472140D01*
X1628379Y0471513D01*
X1628077Y0470783D01*
X1627974Y0470000D01*
X1628077Y0469217D01*
X1628379Y0468487D01*
X1628860Y0467860D01*
X1629487Y0467380D01*
X1630217Y0467077D01*
X1631000Y0466974D01*
X1631153Y0466994D01*
X1631351Y0466516D01*
X1630860Y0466140D01*
X1630379Y0465513D01*
X1630077Y0464783D01*
X1629974Y0464000D01*
X1630077Y0463217D01*
X1630379Y0462487D01*
X1630860Y0461860D01*
X1631487Y0461379D01*
X1632217Y0461077D01*
X1633000Y0460974D01*
X1633783Y0461077D01*
X1634513Y0461379D01*
X1635140Y0461860D01*
X1635620Y0462487D01*
X1635923Y0463217D01*
X1636026Y0464000D01*
X1635944Y0464620D01*
X1636422Y0464819D01*
X1636489Y0464731D01*
X1637116Y0464251D01*
X1637846Y0463948D01*
X1638629Y0463845D01*
X1639412Y0463948D01*
X1640010Y0464196D01*
X1640400Y0464049D01*
X1640549Y0463932D01*
X1640577Y0463717D01*
X1640879Y0462987D01*
X1641073Y0462735D01*
X1641011Y0462202D01*
X1640970Y0462141D01*
X1640916Y0462092D01*
X1640861Y0461977D01*
X1640790Y0461871D01*
X1640776Y0461799D01*
X1640744Y0461733D01*
X1640738Y0461606D01*
X1640713Y0461481D01*
Y0453178D01*
X1633457Y0445922D01*
X1632964Y0445969D01*
X1632923Y0446283D01*
X1632620Y0447013D01*
X1632140Y0447640D01*
X1631513Y0448120D01*
X1630783Y0448423D01*
X1630500Y0448460D01*
Y0445500D01*
X1629500D01*
Y0448460D01*
X1629217Y0448423D01*
X1628487Y0448120D01*
X1627860Y0447640D01*
X1627379Y0447013D01*
X1627077Y0446283D01*
X1627027Y0445901D01*
X1618523D01*
Y0452323D01*
X1617523Y0453323D01*
X1573441D01*
X1573141Y0453723D01*
X1579000Y0473500D01*
X1589508Y0496081D01*
X1601962Y0514038D01*
X1606387Y0520187D01*
X1612623Y0526423D01*
X1622484Y0534561D01*
X1628050Y0538550D01*
X1641913Y0548487D01*
X1670400Y0559923D01*
X1683023Y0561723D01*
X1684000Y0560745D01*
D02*
G37*
%LPC*%
G36*
X1808000Y0377460D02*
X1807717Y0377423D01*
X1806987Y0377120D01*
X1806360Y0376640D01*
X1805880Y0376013D01*
X1805577Y0375283D01*
X1805540Y0375000D01*
X1808000D01*
Y0377460D01*
D02*
G37*
G36*
X1809000D02*
Y0375000D01*
X1811460D01*
X1811423Y0375283D01*
X1811120Y0376013D01*
X1810640Y0376640D01*
X1810013Y0377120D01*
X1809283Y0377423D01*
X1809000Y0377460D01*
D02*
G37*
G36*
X1743082Y0376557D02*
X1741907Y0376403D01*
X1740812Y0375949D01*
X1740272Y0375535D01*
X1743082Y0372726D01*
X1745891Y0375535D01*
X1745351Y0375949D01*
X1744256Y0376403D01*
X1743082Y0376557D01*
D02*
G37*
G36*
X1785800Y0379900D02*
X1783340D01*
X1783377Y0379617D01*
X1783680Y0378887D01*
X1784160Y0378260D01*
X1784787Y0377780D01*
X1785517Y0377477D01*
X1785800Y0377440D01*
Y0379900D01*
D02*
G37*
G36*
X1789260D02*
X1786800D01*
Y0377440D01*
X1787083Y0377477D01*
X1787813Y0377780D01*
X1788440Y0378260D01*
X1788921Y0378887D01*
X1789223Y0379617D01*
X1789260Y0379900D01*
D02*
G37*
G36*
X1811460Y0374000D02*
X1809000D01*
Y0371540D01*
X1809283Y0371577D01*
X1810013Y0371880D01*
X1810640Y0372360D01*
X1811120Y0372987D01*
X1811423Y0373717D01*
X1811460Y0374000D01*
D02*
G37*
G36*
X1822500Y0367460D02*
X1822217Y0367423D01*
X1821487Y0367121D01*
X1820860Y0366640D01*
X1820379Y0366013D01*
X1820077Y0365283D01*
X1820040Y0365000D01*
X1822500D01*
Y0367460D01*
D02*
G37*
G36*
X1811000Y0364960D02*
Y0362500D01*
X1813460D01*
X1813423Y0362783D01*
X1813120Y0363513D01*
X1812640Y0364140D01*
X1812013Y0364620D01*
X1811283Y0364923D01*
X1811000Y0364960D01*
D02*
G37*
G36*
X1776500Y0369526D02*
X1775717Y0369423D01*
X1774987Y0369121D01*
X1774360Y0368640D01*
X1773879Y0368013D01*
X1773577Y0367283D01*
X1773474Y0366500D01*
X1773577Y0365717D01*
X1773879Y0364987D01*
X1774360Y0364360D01*
X1774987Y0363879D01*
X1775717Y0363577D01*
X1776500Y0363474D01*
X1777283Y0363577D01*
X1778013Y0363879D01*
X1778640Y0364360D01*
X1779120Y0364987D01*
X1779423Y0365717D01*
X1779526Y0366500D01*
X1779423Y0367283D01*
X1779120Y0368013D01*
X1778640Y0368640D01*
X1778013Y0369121D01*
X1777283Y0369423D01*
X1776500Y0369526D01*
D02*
G37*
G36*
X1746598Y0374828D02*
X1743789Y0372019D01*
X1746598Y0369209D01*
X1747012Y0369749D01*
X1747466Y0370844D01*
X1747621Y0372019D01*
X1747466Y0373193D01*
X1747012Y0374288D01*
X1746598Y0374828D01*
D02*
G37*
G36*
X1739565Y0374828D02*
X1739151Y0374288D01*
X1738697Y0373193D01*
X1738543Y0372019D01*
X1738697Y0370844D01*
X1739151Y0369749D01*
X1739565Y0369209D01*
X1742375Y0372019D01*
X1739565Y0374828D01*
D02*
G37*
G36*
X1808000Y0374000D02*
X1805540D01*
X1805577Y0373717D01*
X1805880Y0372987D01*
X1806360Y0372360D01*
X1806987Y0371880D01*
X1807717Y0371577D01*
X1808000Y0371540D01*
Y0374000D01*
D02*
G37*
G36*
X1734000Y0377526D02*
X1733217Y0377423D01*
X1732487Y0377120D01*
X1731860Y0376640D01*
X1731380Y0376013D01*
X1731077Y0375283D01*
X1730974Y0374500D01*
X1731077Y0373717D01*
X1731380Y0372987D01*
X1731860Y0372360D01*
X1732487Y0371880D01*
X1733217Y0371577D01*
X1734000Y0371474D01*
X1734783Y0371577D01*
X1735513Y0371880D01*
X1736140Y0372360D01*
X1736621Y0372987D01*
X1736923Y0373717D01*
X1737026Y0374500D01*
X1736923Y0375283D01*
X1736621Y0376013D01*
X1736140Y0376640D01*
X1735513Y0377120D01*
X1734783Y0377423D01*
X1734000Y0377526D01*
D02*
G37*
G36*
X1823500Y0367460D02*
Y0365000D01*
X1825960D01*
X1825923Y0365283D01*
X1825620Y0366013D01*
X1825140Y0366640D01*
X1824513Y0367121D01*
X1823783Y0367423D01*
X1823500Y0367460D01*
D02*
G37*
G36*
X1743082Y0371311D02*
X1740272Y0368502D01*
X1740812Y0368088D01*
X1741907Y0367635D01*
X1743082Y0367480D01*
X1744256Y0367635D01*
X1745351Y0368088D01*
X1745891Y0368502D01*
X1743082Y0371311D01*
D02*
G37*
G36*
X1804141Y0398481D02*
X1801681D01*
Y0396021D01*
X1801964Y0396058D01*
X1802694Y0396361D01*
X1803321Y0396842D01*
X1803802Y0397468D01*
X1804104Y0398198D01*
X1804141Y0398481D01*
D02*
G37*
G36*
X1800681D02*
X1798221D01*
X1798258Y0398198D01*
X1798561Y0397468D01*
X1799042Y0396842D01*
X1799668Y0396361D01*
X1800398Y0396058D01*
X1800681Y0396021D01*
Y0398481D01*
D02*
G37*
G36*
X1801681Y0401941D02*
Y0399481D01*
X1804141D01*
X1804104Y0399764D01*
X1803802Y0400494D01*
X1803321Y0401121D01*
X1802694Y0401602D01*
X1801964Y0401904D01*
X1801681Y0401941D01*
D02*
G37*
G36*
X1800681D02*
X1800398Y0401904D01*
X1799668Y0401602D01*
X1799042Y0401121D01*
X1798561Y0400494D01*
X1798258Y0399764D01*
X1798221Y0399481D01*
X1800681D01*
Y0401941D01*
D02*
G37*
G36*
X1740500Y0385450D02*
X1740025Y0385355D01*
X1739198Y0384802D01*
X1738645Y0383976D01*
X1738551Y0383500D01*
X1740500D01*
Y0385450D01*
D02*
G37*
G36*
X1814961Y0388853D02*
X1814178Y0388750D01*
X1813448Y0388447D01*
X1812821Y0387966D01*
X1812340Y0387340D01*
X1812038Y0386610D01*
X1811935Y0385827D01*
X1812038Y0385044D01*
X1812340Y0384314D01*
X1812821Y0383687D01*
X1813448Y0383206D01*
X1814178Y0382904D01*
X1814961Y0382801D01*
X1815744Y0382904D01*
X1816474Y0383206D01*
X1817100Y0383687D01*
X1817581Y0384314D01*
X1817883Y0385044D01*
X1817986Y0385827D01*
X1817883Y0386610D01*
X1817581Y0387340D01*
X1817100Y0387966D01*
X1816474Y0388447D01*
X1815744Y0388750D01*
X1814961Y0388853D01*
D02*
G37*
G36*
X1746200Y0386378D02*
X1745634Y0386266D01*
X1745155Y0385945D01*
X1743688Y0384478D01*
X1743019D01*
X1742802Y0384802D01*
X1741975Y0385355D01*
X1741500Y0385450D01*
Y0383000D01*
Y0380551D01*
X1741975Y0380645D01*
X1742802Y0381198D01*
X1743019Y0381522D01*
X1744300D01*
X1744866Y0381634D01*
X1745345Y0381955D01*
X1747245Y0383855D01*
X1747566Y0384334D01*
X1747678Y0384900D01*
X1747566Y0385466D01*
X1747245Y0385945D01*
X1746766Y0386266D01*
X1746200Y0386378D01*
D02*
G37*
G36*
X1785800Y0383360D02*
X1785517Y0383323D01*
X1784787Y0383020D01*
X1784160Y0382540D01*
X1783680Y0381913D01*
X1783377Y0381183D01*
X1783340Y0380900D01*
X1785800D01*
Y0383360D01*
D02*
G37*
G36*
X1740500Y0382500D02*
X1738551D01*
X1738645Y0382025D01*
X1739198Y0381198D01*
X1740025Y0380645D01*
X1740500Y0380551D01*
Y0382500D01*
D02*
G37*
G36*
X1786800Y0383360D02*
Y0380900D01*
X1789260D01*
X1789223Y0381183D01*
X1788921Y0381913D01*
X1788440Y0382540D01*
X1787813Y0383020D01*
X1787083Y0383323D01*
X1786800Y0383360D01*
D02*
G37*
G36*
X1775600Y0342160D02*
X1775317Y0342123D01*
X1774587Y0341821D01*
X1773960Y0341340D01*
X1773479Y0340713D01*
X1773177Y0339983D01*
X1773140Y0339700D01*
X1775600D01*
Y0342160D01*
D02*
G37*
G36*
X1794000Y0338960D02*
Y0336500D01*
X1796460D01*
X1796423Y0336783D01*
X1796120Y0337513D01*
X1795640Y0338140D01*
X1795013Y0338620D01*
X1794283Y0338923D01*
X1794000Y0338960D01*
D02*
G37*
G36*
X1775600Y0338700D02*
X1773140D01*
X1773177Y0338417D01*
X1773479Y0337687D01*
X1773960Y0337060D01*
X1774587Y0336579D01*
X1775317Y0336277D01*
X1775600Y0336240D01*
Y0338700D01*
D02*
G37*
G36*
X1779060D02*
X1776600D01*
Y0336240D01*
X1776883Y0336277D01*
X1777613Y0336579D01*
X1778240Y0337060D01*
X1778720Y0337687D01*
X1779023Y0338417D01*
X1779060Y0338700D01*
D02*
G37*
G36*
X1793000Y0338960D02*
X1792717Y0338923D01*
X1791987Y0338620D01*
X1791360Y0338140D01*
X1790879Y0337513D01*
X1790577Y0336783D01*
X1790540Y0336500D01*
X1793000D01*
Y0338960D01*
D02*
G37*
G36*
X1776600Y0342160D02*
Y0339700D01*
X1779060D01*
X1779023Y0339983D01*
X1778720Y0340713D01*
X1778240Y0341340D01*
X1777613Y0341821D01*
X1776883Y0342123D01*
X1776600Y0342160D01*
D02*
G37*
G36*
X1770600Y0321860D02*
X1770317Y0321823D01*
X1769587Y0321520D01*
X1768960Y0321040D01*
X1768480Y0320413D01*
X1768177Y0319683D01*
X1768140Y0319400D01*
X1770600D01*
Y0321860D01*
D02*
G37*
G36*
X1771600D02*
Y0319400D01*
X1774060D01*
X1774023Y0319683D01*
X1773721Y0320413D01*
X1773240Y0321040D01*
X1772613Y0321520D01*
X1771883Y0321823D01*
X1771600Y0321860D01*
D02*
G37*
G36*
X1774060Y0318400D02*
X1771600D01*
Y0315940D01*
X1771883Y0315977D01*
X1772613Y0316280D01*
X1773240Y0316760D01*
X1773721Y0317387D01*
X1774023Y0318117D01*
X1774060Y0318400D01*
D02*
G37*
G36*
X1770600D02*
X1768140D01*
X1768177Y0318117D01*
X1768480Y0317387D01*
X1768960Y0316760D01*
X1769587Y0316280D01*
X1770317Y0315977D01*
X1770600Y0315940D01*
Y0318400D01*
D02*
G37*
G36*
X1757000Y0334026D02*
X1756217Y0333923D01*
X1755487Y0333621D01*
X1754860Y0333140D01*
X1754379Y0332513D01*
X1754077Y0331783D01*
X1753974Y0331000D01*
X1754077Y0330217D01*
X1754379Y0329487D01*
X1754860Y0328860D01*
X1755487Y0328380D01*
X1756217Y0328077D01*
X1757000Y0327974D01*
X1757783Y0328077D01*
X1758513Y0328380D01*
X1759140Y0328860D01*
X1759620Y0329487D01*
X1759923Y0330217D01*
X1760026Y0331000D01*
X1759923Y0331783D01*
X1759620Y0332513D01*
X1759140Y0333140D01*
X1758513Y0333621D01*
X1757783Y0333923D01*
X1757000Y0334026D01*
D02*
G37*
G36*
X1740642Y0338890D02*
X1739853Y0338786D01*
X1738652Y0338289D01*
X1737621Y0337497D01*
X1736829Y0336466D01*
X1736332Y0335265D01*
X1736228Y0334476D01*
X1740642D01*
Y0338890D01*
D02*
G37*
G36*
X1741642D02*
Y0334476D01*
X1746055D01*
X1745952Y0335265D01*
X1745454Y0336466D01*
X1744663Y0337497D01*
X1743632Y0338289D01*
X1742430Y0338786D01*
X1741642Y0338890D01*
D02*
G37*
G36*
X1793000Y0335500D02*
X1790540D01*
X1790577Y0335217D01*
X1790879Y0334487D01*
X1791360Y0333860D01*
X1791987Y0333380D01*
X1792717Y0333077D01*
X1793000Y0333040D01*
Y0335500D01*
D02*
G37*
G36*
X1796460D02*
X1794000D01*
Y0333040D01*
X1794283Y0333077D01*
X1795013Y0333380D01*
X1795640Y0333860D01*
X1796120Y0334487D01*
X1796423Y0335217D01*
X1796460Y0335500D01*
D02*
G37*
G36*
X1736011Y0371312D02*
X1729647Y0364948D01*
X1736011Y0358584D01*
X1742375Y0364948D01*
X1736011Y0371312D01*
D02*
G37*
G36*
X1810000Y0361500D02*
X1807540D01*
X1807577Y0361217D01*
X1807879Y0360487D01*
X1808360Y0359860D01*
X1808987Y0359380D01*
X1809717Y0359077D01*
X1810000Y0359040D01*
Y0361500D01*
D02*
G37*
G36*
X1813460D02*
X1811000D01*
Y0359040D01*
X1811283Y0359077D01*
X1812013Y0359380D01*
X1812640Y0359860D01*
X1813120Y0360487D01*
X1813423Y0361217D01*
X1813460Y0361500D01*
D02*
G37*
G36*
X1797460Y0359000D02*
X1795000D01*
Y0356540D01*
X1795283Y0356577D01*
X1796013Y0356879D01*
X1796640Y0357360D01*
X1797120Y0357987D01*
X1797423Y0358717D01*
X1797460Y0359000D01*
D02*
G37*
G36*
X1749500Y0356460D02*
Y0354000D01*
X1751960D01*
X1751923Y0354283D01*
X1751620Y0355013D01*
X1751140Y0355640D01*
X1750513Y0356120D01*
X1749783Y0356423D01*
X1749500Y0356460D01*
D02*
G37*
G36*
X1783275Y0360751D02*
X1782492Y0360648D01*
X1781762Y0360346D01*
X1781135Y0359865D01*
X1780654Y0359238D01*
X1780352Y0358508D01*
X1780249Y0357725D01*
X1780352Y0356942D01*
X1780654Y0356212D01*
X1781135Y0355586D01*
X1781762Y0355105D01*
X1782492Y0354802D01*
X1783275Y0354699D01*
X1784058Y0354802D01*
X1784788Y0355105D01*
X1785414Y0355586D01*
X1785895Y0356212D01*
X1786198Y0356942D01*
X1786301Y0357725D01*
X1786198Y0358508D01*
X1785895Y0359238D01*
X1785414Y0359865D01*
X1784788Y0360346D01*
X1784058Y0360648D01*
X1783275Y0360751D01*
D02*
G37*
G36*
X1794000Y0359000D02*
X1791540D01*
X1791577Y0358717D01*
X1791879Y0357987D01*
X1792360Y0357360D01*
X1792987Y0356879D01*
X1793717Y0356577D01*
X1794000Y0356540D01*
Y0359000D01*
D02*
G37*
G36*
Y0362460D02*
X1793717Y0362423D01*
X1792987Y0362121D01*
X1792360Y0361640D01*
X1791879Y0361013D01*
X1791577Y0360283D01*
X1791540Y0360000D01*
X1794000D01*
Y0362460D01*
D02*
G37*
G36*
X1822500Y0364000D02*
X1820040D01*
X1820077Y0363717D01*
X1820379Y0362987D01*
X1820860Y0362360D01*
X1821487Y0361879D01*
X1822217Y0361577D01*
X1822500Y0361540D01*
Y0364000D01*
D02*
G37*
G36*
X1825960D02*
X1823500D01*
Y0361540D01*
X1823783Y0361577D01*
X1824513Y0361879D01*
X1825140Y0362360D01*
X1825620Y0362987D01*
X1825923Y0363717D01*
X1825960Y0364000D01*
D02*
G37*
G36*
X1810000Y0364960D02*
X1809717Y0364923D01*
X1808987Y0364620D01*
X1808360Y0364140D01*
X1807879Y0363513D01*
X1807577Y0362783D01*
X1807540Y0362500D01*
X1810000D01*
Y0364960D01*
D02*
G37*
G36*
X1795000Y0362460D02*
Y0360000D01*
X1797460D01*
X1797423Y0360283D01*
X1797120Y0361013D01*
X1796640Y0361640D01*
X1796013Y0362121D01*
X1795283Y0362423D01*
X1795000Y0362460D01*
D02*
G37*
G36*
X1748500Y0356460D02*
X1748217Y0356423D01*
X1747487Y0356120D01*
X1746860Y0355640D01*
X1746379Y0355013D01*
X1746077Y0354283D01*
X1746040Y0354000D01*
X1748500D01*
Y0356460D01*
D02*
G37*
G36*
X1758460Y0352500D02*
X1756000D01*
Y0350040D01*
X1756283Y0350077D01*
X1757013Y0350379D01*
X1757409Y0350683D01*
X1757820Y0350368D01*
X1757577Y0349783D01*
X1757540Y0349500D01*
X1760000D01*
Y0351960D01*
X1759717Y0351923D01*
X1758987Y0351621D01*
X1758591Y0351317D01*
X1758180Y0351632D01*
X1758423Y0352217D01*
X1758460Y0352500D01*
D02*
G37*
G36*
X1761000Y0351960D02*
Y0349500D01*
X1763460D01*
X1763423Y0349783D01*
X1763120Y0350513D01*
X1762640Y0351140D01*
X1762013Y0351621D01*
X1761283Y0351923D01*
X1761000Y0351960D01*
D02*
G37*
G36*
X1760000Y0348500D02*
X1757540D01*
X1757577Y0348217D01*
X1757879Y0347487D01*
X1758360Y0346860D01*
X1758987Y0346379D01*
X1759717Y0346077D01*
X1760000Y0346040D01*
Y0348500D01*
D02*
G37*
G36*
X1763460D02*
X1761000D01*
Y0346040D01*
X1761283Y0346077D01*
X1762013Y0346379D01*
X1762640Y0346860D01*
X1763120Y0347487D01*
X1763423Y0348217D01*
X1763460Y0348500D01*
D02*
G37*
G36*
X1755000Y0352500D02*
X1752540D01*
X1752577Y0352217D01*
X1752880Y0351487D01*
X1753360Y0350860D01*
X1753987Y0350379D01*
X1754717Y0350077D01*
X1755000Y0350040D01*
Y0352500D01*
D02*
G37*
G36*
Y0355960D02*
X1754717Y0355923D01*
X1753987Y0355621D01*
X1753360Y0355140D01*
X1752880Y0354513D01*
X1752577Y0353783D01*
X1752540Y0353500D01*
X1755000D01*
Y0355960D01*
D02*
G37*
G36*
X1756000D02*
Y0353500D01*
X1758460D01*
X1758423Y0353783D01*
X1758121Y0354513D01*
X1757640Y0355140D01*
X1757013Y0355621D01*
X1756283Y0355923D01*
X1756000Y0355960D01*
D02*
G37*
G36*
X1816000D02*
X1815717Y0355923D01*
X1814987Y0355621D01*
X1814360Y0355140D01*
X1813880Y0354513D01*
X1813577Y0353783D01*
X1813540Y0353500D01*
X1816000D01*
Y0355960D01*
D02*
G37*
G36*
Y0352500D02*
X1813540D01*
X1813577Y0352217D01*
X1813880Y0351487D01*
X1814360Y0350860D01*
X1814987Y0350379D01*
X1815717Y0350077D01*
X1816000Y0350040D01*
Y0352500D01*
D02*
G37*
G36*
X1748500Y0353000D02*
X1746040D01*
X1746077Y0352717D01*
X1746379Y0351987D01*
X1746860Y0351360D01*
X1747487Y0350880D01*
X1748217Y0350577D01*
X1748500Y0350540D01*
Y0353000D01*
D02*
G37*
G36*
X1751960D02*
X1749500D01*
Y0350540D01*
X1749783Y0350577D01*
X1750513Y0350880D01*
X1751140Y0351360D01*
X1751620Y0351987D01*
X1751923Y0352717D01*
X1751960Y0353000D01*
D02*
G37*
G36*
X1691960Y0375000D02*
X1689500D01*
Y0372540D01*
X1689783Y0372577D01*
X1690513Y0372880D01*
X1691140Y0373360D01*
X1691620Y0373987D01*
X1691923Y0374717D01*
X1691960Y0375000D01*
D02*
G37*
G36*
X1688500D02*
X1686040D01*
X1686077Y0374717D01*
X1686379Y0373987D01*
X1686860Y0373360D01*
X1687487Y0372880D01*
X1688217Y0372577D01*
X1688500Y0372540D01*
Y0375000D01*
D02*
G37*
G36*
Y0378460D02*
X1688217Y0378423D01*
X1687487Y0378120D01*
X1686860Y0377640D01*
X1686379Y0377013D01*
X1686077Y0376283D01*
X1686040Y0376000D01*
X1688500D01*
Y0378460D01*
D02*
G37*
G36*
X1689500D02*
Y0376000D01*
X1691960D01*
X1691923Y0376283D01*
X1691620Y0377013D01*
X1691140Y0377640D01*
X1690513Y0378120D01*
X1689783Y0378423D01*
X1689500Y0378460D01*
D02*
G37*
G36*
X1708000Y0369526D02*
X1707217Y0369423D01*
X1706487Y0369121D01*
X1705860Y0368640D01*
X1705379Y0368013D01*
X1705077Y0367283D01*
X1704974Y0366500D01*
X1705077Y0365717D01*
X1705379Y0364987D01*
X1705860Y0364360D01*
X1706487Y0363879D01*
X1707217Y0363577D01*
X1708000Y0363474D01*
X1708783Y0363577D01*
X1709513Y0363879D01*
X1710140Y0364360D01*
X1710620Y0364987D01*
X1710923Y0365717D01*
X1711026Y0366500D01*
X1710923Y0367283D01*
X1710620Y0368013D01*
X1710140Y0368640D01*
X1709513Y0369121D01*
X1708783Y0369423D01*
X1708000Y0369526D01*
D02*
G37*
G36*
X1763849Y0397325D02*
X1762675Y0397171D01*
X1761580Y0396717D01*
X1761040Y0396303D01*
X1763849Y0393494D01*
X1766659Y0396303D01*
X1766119Y0396717D01*
X1765024Y0397171D01*
X1763849Y0397325D01*
D02*
G37*
G36*
X1692000Y0399526D02*
X1691217Y0399423D01*
X1690487Y0399120D01*
X1689860Y0398640D01*
X1689380Y0398013D01*
X1689077Y0397283D01*
X1688974Y0396500D01*
X1689077Y0395717D01*
X1689380Y0394987D01*
X1689860Y0394360D01*
X1690487Y0393880D01*
X1691217Y0393577D01*
X1692000Y0393474D01*
X1692783Y0393577D01*
X1693513Y0393880D01*
X1694140Y0394360D01*
X1694621Y0394987D01*
X1694923Y0395717D01*
X1695026Y0396500D01*
X1694923Y0397283D01*
X1694621Y0398013D01*
X1694140Y0398640D01*
X1693513Y0399120D01*
X1692783Y0399423D01*
X1692000Y0399526D01*
D02*
G37*
G36*
X1735100Y0397060D02*
X1734817Y0397023D01*
X1734087Y0396721D01*
X1733460Y0396240D01*
X1732980Y0395613D01*
X1732677Y0394883D01*
X1732640Y0394600D01*
X1735100D01*
Y0397060D01*
D02*
G37*
G36*
X1699000Y0400526D02*
X1698217Y0400423D01*
X1697487Y0400120D01*
X1696860Y0399640D01*
X1696379Y0399013D01*
X1696077Y0398283D01*
X1695974Y0397500D01*
X1696077Y0396717D01*
X1696379Y0395987D01*
X1696860Y0395360D01*
X1697487Y0394880D01*
X1698217Y0394577D01*
X1699000Y0394474D01*
X1699783Y0394577D01*
X1700513Y0394880D01*
X1701140Y0395360D01*
X1701620Y0395987D01*
X1701923Y0396717D01*
X1702026Y0397500D01*
X1701923Y0398283D01*
X1701620Y0399013D01*
X1701140Y0399640D01*
X1700513Y0400120D01*
X1699783Y0400423D01*
X1699000Y0400526D01*
D02*
G37*
G36*
X1635126Y0392834D02*
Y0390374D01*
X1637586D01*
X1637549Y0390657D01*
X1637247Y0391387D01*
X1636766Y0392014D01*
X1636139Y0392495D01*
X1635409Y0392797D01*
X1635126Y0392834D01*
D02*
G37*
G36*
X1634126D02*
X1633843Y0392797D01*
X1633113Y0392495D01*
X1632486Y0392014D01*
X1632006Y0391387D01*
X1631703Y0390657D01*
X1631666Y0390374D01*
X1634126D01*
Y0392834D01*
D02*
G37*
G36*
X1738560Y0393600D02*
X1736100D01*
Y0391140D01*
X1736383Y0391177D01*
X1737113Y0391479D01*
X1737740Y0391960D01*
X1738220Y0392587D01*
X1738523Y0393317D01*
X1738560Y0393600D01*
D02*
G37*
G36*
X1735100D02*
X1732640D01*
X1732677Y0393317D01*
X1732980Y0392587D01*
X1733460Y0391960D01*
X1734087Y0391479D01*
X1734817Y0391177D01*
X1735100Y0391140D01*
Y0393600D01*
D02*
G37*
G36*
X1736100Y0397060D02*
Y0394600D01*
X1738560D01*
X1738523Y0394883D01*
X1738220Y0395613D01*
X1737740Y0396240D01*
X1737113Y0396721D01*
X1736383Y0397023D01*
X1736100Y0397060D01*
D02*
G37*
G36*
X1770809Y0404285D02*
X1769634Y0404130D01*
X1768540Y0403677D01*
X1767600Y0402956D01*
X1766879Y0402016D01*
X1766425Y0400921D01*
X1766270Y0399746D01*
X1766425Y0398571D01*
X1766879Y0397477D01*
X1767600Y0396537D01*
X1768540Y0395815D01*
X1769634Y0395362D01*
X1770809Y0395207D01*
X1771984Y0395362D01*
X1773079Y0395815D01*
X1774019Y0396537D01*
X1774740Y0397477D01*
X1775193Y0398571D01*
X1775348Y0399746D01*
X1775193Y0400921D01*
X1774740Y0402016D01*
X1774019Y0402956D01*
X1773079Y0403677D01*
X1771984Y0404130D01*
X1770809Y0404285D01*
D02*
G37*
G36*
X1637586Y0389374D02*
X1635126D01*
Y0386914D01*
X1635409Y0386951D01*
X1636139Y0387253D01*
X1636766Y0387734D01*
X1637247Y0388361D01*
X1637549Y0389091D01*
X1637586Y0389374D01*
D02*
G37*
G36*
X1708500Y0388526D02*
X1707717Y0388423D01*
X1706987Y0388121D01*
X1706360Y0387640D01*
X1705880Y0387013D01*
X1705577Y0386283D01*
X1705474Y0385500D01*
X1705577Y0384717D01*
X1705880Y0383987D01*
X1706360Y0383360D01*
X1706987Y0382879D01*
X1707717Y0382577D01*
X1708500Y0382474D01*
X1709283Y0382577D01*
X1710013Y0382879D01*
X1710640Y0383360D01*
X1711120Y0383987D01*
X1711423Y0384717D01*
X1711526Y0385500D01*
X1711423Y0386283D01*
X1711120Y0387013D01*
X1710640Y0387640D01*
X1710013Y0388121D01*
X1709283Y0388423D01*
X1708500Y0388526D01*
D02*
G37*
G36*
X1645900Y0391960D02*
Y0389500D01*
X1648360D01*
X1648323Y0389783D01*
X1648021Y0390513D01*
X1647540Y0391140D01*
X1646913Y0391620D01*
X1646183Y0391923D01*
X1645900Y0391960D01*
D02*
G37*
G36*
X1644900D02*
X1644617Y0391923D01*
X1643887Y0391620D01*
X1643260Y0391140D01*
X1642780Y0390513D01*
X1642477Y0389783D01*
X1642440Y0389500D01*
X1644900D01*
Y0391960D01*
D02*
G37*
G36*
X1760333Y0395596D02*
X1759919Y0395056D01*
X1759465Y0393961D01*
X1759311Y0392787D01*
X1759465Y0391612D01*
X1759919Y0390517D01*
X1760333Y0389977D01*
X1763142Y0392787D01*
X1760333Y0395596D01*
D02*
G37*
G36*
X1767366Y0395596D02*
X1764557Y0392787D01*
X1767366Y0389977D01*
X1767780Y0390517D01*
X1768234Y0391612D01*
X1768388Y0392787D01*
X1768234Y0393961D01*
X1767780Y0395056D01*
X1767366Y0395596D01*
D02*
G37*
G36*
X1763849Y0392079D02*
X1761040Y0389270D01*
X1761580Y0388856D01*
X1762675Y0388402D01*
X1763849Y0388248D01*
X1765024Y0388402D01*
X1766119Y0388856D01*
X1766659Y0389270D01*
X1763849Y0392079D01*
D02*
G37*
G36*
X1713469Y0345500D02*
X1709055D01*
Y0341086D01*
X1709844Y0341190D01*
X1711045Y0341687D01*
X1712076Y0342479D01*
X1712868Y0343510D01*
X1713365Y0344711D01*
X1713469Y0345500D01*
D02*
G37*
G36*
X1703492Y0350937D02*
X1693618D01*
Y0341063D01*
X1703492D01*
Y0344016D01*
X1703992Y0344115D01*
X1704243Y0343510D01*
X1705034Y0342479D01*
X1706065Y0341687D01*
X1707266Y0341190D01*
X1708055Y0341086D01*
Y0346000D01*
Y0350914D01*
X1707266Y0350810D01*
X1706065Y0350312D01*
X1705034Y0349521D01*
X1704243Y0348490D01*
X1703992Y0347885D01*
X1703492Y0347985D01*
Y0350937D01*
D02*
G37*
G36*
X1709055Y0350914D02*
Y0346500D01*
X1713469D01*
X1713365Y0347289D01*
X1712868Y0348490D01*
X1712076Y0349521D01*
X1711045Y0350312D01*
X1709844Y0350810D01*
X1709055Y0350914D01*
D02*
G37*
G36*
X1747000Y0408026D02*
X1746217Y0407923D01*
X1745487Y0407620D01*
X1744860Y0407140D01*
X1744379Y0406513D01*
X1744077Y0405783D01*
X1743974Y0405000D01*
X1744077Y0404217D01*
X1744379Y0403487D01*
X1744860Y0402860D01*
X1745487Y0402380D01*
X1746217Y0402077D01*
X1747000Y0401974D01*
X1747783Y0402077D01*
X1748513Y0402380D01*
X1749140Y0402860D01*
X1749620Y0403487D01*
X1749923Y0404217D01*
X1750026Y0405000D01*
X1749923Y0405783D01*
X1749620Y0406513D01*
X1749140Y0407140D01*
X1748513Y0407620D01*
X1747783Y0407923D01*
X1747000Y0408026D01*
D02*
G37*
G36*
X1703500Y0505026D02*
X1702717Y0504923D01*
X1701987Y0504621D01*
X1701360Y0504140D01*
X1700879Y0503513D01*
X1700577Y0502783D01*
X1700474Y0502000D01*
X1700577Y0501217D01*
X1700879Y0500487D01*
X1701360Y0499860D01*
X1701987Y0499379D01*
X1702717Y0499077D01*
X1703500Y0498974D01*
X1704283Y0499077D01*
X1705013Y0499379D01*
X1705640Y0499860D01*
X1706120Y0500487D01*
X1706423Y0501217D01*
X1706526Y0502000D01*
X1706423Y0502783D01*
X1706120Y0503513D01*
X1705640Y0504140D01*
X1705013Y0504621D01*
X1704283Y0504923D01*
X1703500Y0505026D01*
D02*
G37*
G36*
X1649500Y0468000D02*
X1647040D01*
X1647077Y0467717D01*
X1647379Y0466987D01*
X1647860Y0466360D01*
X1648487Y0465879D01*
X1649217Y0465577D01*
X1649500Y0465540D01*
Y0468000D01*
D02*
G37*
G36*
Y0471460D02*
X1649217Y0471423D01*
X1648487Y0471121D01*
X1647860Y0470640D01*
X1647379Y0470013D01*
X1647077Y0469283D01*
X1647040Y0469000D01*
X1649500D01*
Y0471460D01*
D02*
G37*
G36*
X1650500D02*
Y0468500D01*
Y0465540D01*
X1650783Y0465577D01*
X1650991Y0465663D01*
X1651137Y0465614D01*
X1651496Y0465331D01*
X1651577Y0464717D01*
X1651880Y0463987D01*
X1652360Y0463360D01*
X1652987Y0462880D01*
X1653717Y0462577D01*
X1654500Y0462474D01*
X1655283Y0462577D01*
X1656013Y0462880D01*
X1656640Y0463360D01*
X1657121Y0463987D01*
X1657423Y0464717D01*
X1657526Y0465500D01*
X1657423Y0466283D01*
X1657121Y0467013D01*
X1656640Y0467640D01*
X1656013Y0468120D01*
X1655283Y0468423D01*
X1654500Y0468526D01*
X1653717Y0468423D01*
X1653509Y0468337D01*
X1653363Y0468386D01*
X1653004Y0468669D01*
X1652923Y0469283D01*
X1652621Y0470013D01*
X1652140Y0470640D01*
X1651513Y0471121D01*
X1650783Y0471423D01*
X1650500Y0471460D01*
D02*
G37*
G36*
X1717487Y0518914D02*
Y0514500D01*
X1721901D01*
X1721797Y0515289D01*
X1721299Y0516490D01*
X1720508Y0517521D01*
X1719477Y0518313D01*
X1718275Y0518810D01*
X1717487Y0518914D01*
D02*
G37*
G36*
X1711924Y0518937D02*
X1702050D01*
Y0509063D01*
X1711924D01*
Y0512015D01*
X1712424Y0512115D01*
X1712674Y0511510D01*
X1713466Y0510479D01*
X1714497Y0509688D01*
X1715698Y0509190D01*
X1716487Y0509086D01*
Y0514000D01*
Y0518914D01*
X1715698Y0518810D01*
X1714497Y0518313D01*
X1713466Y0517521D01*
X1712674Y0516490D01*
X1712424Y0515885D01*
X1711924Y0515984D01*
Y0518937D01*
D02*
G37*
G36*
X1721901Y0513500D02*
X1717487D01*
Y0509086D01*
X1718275Y0509190D01*
X1719477Y0509688D01*
X1720508Y0510479D01*
X1721299Y0511510D01*
X1721797Y0512711D01*
X1721901Y0513500D01*
D02*
G37*
G36*
X1629929Y0437138D02*
X1625015D01*
X1620102D01*
X1620205Y0436349D01*
X1620703Y0435148D01*
X1621494Y0434117D01*
X1622525Y0433325D01*
X1623130Y0433075D01*
X1623031Y0432575D01*
X1620078D01*
Y0422701D01*
X1629952D01*
Y0432575D01*
X1627000D01*
X1626900Y0433075D01*
X1627505Y0433325D01*
X1628536Y0434117D01*
X1629328Y0435148D01*
X1629825Y0436349D01*
X1629929Y0437138D01*
D02*
G37*
G36*
X1666000Y0431500D02*
X1663540D01*
X1663577Y0431217D01*
X1663880Y0430487D01*
X1664360Y0429860D01*
X1664987Y0429380D01*
X1665717Y0429077D01*
X1666000Y0429040D01*
Y0431500D01*
D02*
G37*
G36*
X1669460D02*
X1667000D01*
Y0429040D01*
X1667283Y0429077D01*
X1668013Y0429380D01*
X1668640Y0429860D01*
X1669120Y0430487D01*
X1669423Y0431217D01*
X1669460Y0431500D01*
D02*
G37*
G36*
X1657500Y0428526D02*
X1656717Y0428423D01*
X1655987Y0428121D01*
X1655360Y0427640D01*
X1654880Y0427013D01*
X1654577Y0426283D01*
X1654474Y0425500D01*
X1654577Y0424717D01*
X1654880Y0423987D01*
X1655360Y0423360D01*
X1655987Y0422880D01*
X1656717Y0422577D01*
X1657500Y0422474D01*
X1658283Y0422577D01*
X1659013Y0422880D01*
X1659640Y0423360D01*
X1660121Y0423987D01*
X1660423Y0424717D01*
X1660526Y0425500D01*
X1660423Y0426283D01*
X1660121Y0427013D01*
X1659640Y0427640D01*
X1659013Y0428121D01*
X1658283Y0428423D01*
X1657500Y0428526D01*
D02*
G37*
G36*
X1696960Y0420500D02*
X1691040D01*
X1691077Y0420217D01*
X1691380Y0419487D01*
X1691860Y0418860D01*
X1691898Y0418832D01*
X1691822Y0418259D01*
X1691487Y0418120D01*
X1690860Y0417640D01*
X1690380Y0417013D01*
X1690077Y0416283D01*
X1690040Y0416000D01*
X1695960D01*
X1695923Y0416283D01*
X1695621Y0417013D01*
X1695140Y0417640D01*
X1695102Y0417668D01*
X1695178Y0418241D01*
X1695513Y0418379D01*
X1696140Y0418860D01*
X1696621Y0419487D01*
X1696923Y0420217D01*
X1696960Y0420500D01*
D02*
G37*
G36*
X1797414Y0431000D02*
X1792500D01*
X1787586D01*
X1787690Y0430211D01*
X1788187Y0429010D01*
X1788979Y0427979D01*
X1790010Y0427187D01*
X1790615Y0426937D01*
X1790516Y0426437D01*
X1787563D01*
Y0416563D01*
X1797437D01*
Y0426437D01*
X1794484D01*
X1794385Y0426937D01*
X1794990Y0427187D01*
X1796021Y0427979D01*
X1796812Y0429010D01*
X1797310Y0430211D01*
X1797414Y0431000D01*
D02*
G37*
G36*
X1694500Y0430026D02*
X1693717Y0429923D01*
X1692987Y0429621D01*
X1692360Y0429140D01*
X1691879Y0428513D01*
X1691577Y0427783D01*
X1691474Y0427000D01*
X1691577Y0426217D01*
X1691879Y0425487D01*
X1692360Y0424860D01*
X1692987Y0424379D01*
X1693000Y0424374D01*
Y0423833D01*
X1692487Y0423621D01*
X1691860Y0423140D01*
X1691380Y0422513D01*
X1691077Y0421783D01*
X1691040Y0421500D01*
X1696960D01*
X1696923Y0421783D01*
X1696621Y0422513D01*
X1696140Y0423140D01*
X1695513Y0423621D01*
X1695500Y0423626D01*
Y0424167D01*
X1696013Y0424379D01*
X1696640Y0424860D01*
X1697120Y0425487D01*
X1697423Y0426217D01*
X1697526Y0427000D01*
X1697423Y0427783D01*
X1697120Y0428513D01*
X1696640Y0429140D01*
X1696013Y0429621D01*
X1695283Y0429923D01*
X1694500Y0430026D01*
D02*
G37*
G36*
X1712000Y0432000D02*
X1709540D01*
X1709577Y0431717D01*
X1709879Y0430987D01*
X1710360Y0430360D01*
X1710987Y0429880D01*
X1711717Y0429577D01*
X1712000Y0429540D01*
Y0432000D01*
D02*
G37*
G36*
X1653500Y0444026D02*
X1652717Y0443923D01*
X1651987Y0443620D01*
X1651360Y0443140D01*
X1650879Y0442513D01*
X1650577Y0441783D01*
X1650474Y0441000D01*
X1650577Y0440217D01*
X1650879Y0439487D01*
X1651360Y0438860D01*
X1651987Y0438379D01*
X1652717Y0438077D01*
X1653500Y0437974D01*
X1653521Y0437977D01*
X1653756Y0437503D01*
X1653379Y0437013D01*
X1653077Y0436283D01*
X1652974Y0435500D01*
X1653077Y0434717D01*
X1653379Y0433987D01*
X1653860Y0433360D01*
X1654487Y0432879D01*
X1655217Y0432577D01*
X1656000Y0432474D01*
X1656783Y0432577D01*
X1657513Y0432879D01*
X1658140Y0433360D01*
X1658620Y0433987D01*
X1658923Y0434717D01*
X1659026Y0435500D01*
X1658923Y0436283D01*
X1658620Y0437013D01*
X1658140Y0437640D01*
X1657513Y0438121D01*
X1656783Y0438423D01*
X1656000Y0438526D01*
X1655980Y0438523D01*
X1655744Y0438997D01*
X1656120Y0439487D01*
X1656423Y0440217D01*
X1656526Y0441000D01*
X1656423Y0441783D01*
X1656120Y0442513D01*
X1655640Y0443140D01*
X1655013Y0443620D01*
X1654283Y0443923D01*
X1653500Y0444026D01*
D02*
G37*
G36*
X1666000Y0434960D02*
X1665717Y0434923D01*
X1664987Y0434621D01*
X1664360Y0434140D01*
X1663880Y0433513D01*
X1663577Y0432783D01*
X1663540Y0432500D01*
X1666000D01*
Y0434960D01*
D02*
G37*
G36*
X1667000D02*
Y0432500D01*
X1669460D01*
X1669423Y0432783D01*
X1669120Y0433513D01*
X1668640Y0434140D01*
X1668013Y0434621D01*
X1667283Y0434923D01*
X1667000Y0434960D01*
D02*
G37*
G36*
X1793000Y0436414D02*
Y0432000D01*
X1797414D01*
X1797310Y0432789D01*
X1796812Y0433990D01*
X1796021Y0435021D01*
X1794990Y0435813D01*
X1793789Y0436310D01*
X1793000Y0436414D01*
D02*
G37*
G36*
X1715460Y0432000D02*
X1713000D01*
Y0429540D01*
X1713283Y0429577D01*
X1714013Y0429880D01*
X1714640Y0430360D01*
X1715121Y0430987D01*
X1715423Y0431717D01*
X1715460Y0432000D01*
D02*
G37*
G36*
X1642000Y0437026D02*
X1641217Y0436923D01*
X1640487Y0436621D01*
X1639860Y0436140D01*
X1639380Y0435513D01*
X1639077Y0434783D01*
X1638974Y0434000D01*
X1639077Y0433217D01*
X1639380Y0432487D01*
X1639860Y0431860D01*
X1640487Y0431380D01*
X1641217Y0431077D01*
X1642000Y0430974D01*
X1642783Y0431077D01*
X1643513Y0431380D01*
X1644140Y0431860D01*
X1644621Y0432487D01*
X1644923Y0433217D01*
X1645026Y0434000D01*
X1644923Y0434783D01*
X1644621Y0435513D01*
X1644140Y0436140D01*
X1643513Y0436621D01*
X1642783Y0436923D01*
X1642000Y0437026D01*
D02*
G37*
G36*
X1792000Y0436414D02*
X1791211Y0436310D01*
X1790010Y0435813D01*
X1788979Y0435021D01*
X1788187Y0433990D01*
X1787690Y0432789D01*
X1787586Y0432000D01*
X1792000D01*
Y0436414D01*
D02*
G37*
G36*
X1763100Y0418160D02*
Y0415700D01*
X1765560D01*
X1765523Y0415983D01*
X1765220Y0416713D01*
X1764740Y0417340D01*
X1764113Y0417821D01*
X1763383Y0418123D01*
X1763100Y0418160D01*
D02*
G37*
G36*
X1659000Y0408460D02*
X1658717Y0408423D01*
X1657987Y0408120D01*
X1657360Y0407640D01*
X1656879Y0407013D01*
X1656577Y0406283D01*
X1656540Y0406000D01*
X1659000D01*
Y0408460D01*
D02*
G37*
G36*
X1663985Y0413011D02*
X1663201Y0412907D01*
X1662472Y0412605D01*
X1661845Y0412124D01*
X1661364Y0411497D01*
X1661062Y0410768D01*
X1660959Y0409985D01*
X1661062Y0409201D01*
X1661364Y0408472D01*
X1661013Y0408120D01*
X1660283Y0408423D01*
X1660000Y0408460D01*
Y0406000D01*
X1662460D01*
X1662423Y0406283D01*
X1662120Y0407013D01*
X1662472Y0407364D01*
X1663201Y0407062D01*
X1663985Y0406959D01*
X1664768Y0407062D01*
X1665498Y0407364D01*
X1666124Y0407845D01*
X1666605Y0408472D01*
X1666907Y0409201D01*
X1667010Y0409985D01*
X1666907Y0410768D01*
X1666605Y0411497D01*
X1666124Y0412124D01*
X1665498Y0412605D01*
X1664768Y0412907D01*
X1663985Y0413011D01*
D02*
G37*
G36*
X1782000Y0413526D02*
X1781217Y0413423D01*
X1780487Y0413121D01*
X1779860Y0412640D01*
X1779379Y0412013D01*
X1779077Y0411283D01*
X1778974Y0410500D01*
X1778989Y0410385D01*
X1778521Y0410115D01*
X1778513Y0410120D01*
X1777783Y0410423D01*
X1777000Y0410526D01*
X1776217Y0410423D01*
X1775487Y0410120D01*
X1774860Y0409640D01*
X1774380Y0409013D01*
X1774077Y0408283D01*
X1773974Y0407500D01*
X1774077Y0406717D01*
X1774380Y0405987D01*
X1774860Y0405360D01*
X1775487Y0404880D01*
X1776217Y0404577D01*
X1777000Y0404474D01*
X1777783Y0404577D01*
X1778513Y0404880D01*
X1779140Y0405360D01*
X1779621Y0405987D01*
X1779923Y0406717D01*
X1780026Y0407500D01*
X1780011Y0407615D01*
X1780479Y0407885D01*
X1780487Y0407879D01*
X1781217Y0407577D01*
X1782000Y0407474D01*
X1782783Y0407577D01*
X1783513Y0407879D01*
X1784140Y0408360D01*
X1784620Y0408987D01*
X1784923Y0409717D01*
X1785026Y0410500D01*
X1784923Y0411283D01*
X1784620Y0412013D01*
X1784140Y0412640D01*
X1783513Y0413121D01*
X1782783Y0413423D01*
X1782000Y0413526D01*
D02*
G37*
G36*
X1705500Y0415026D02*
X1704717Y0414923D01*
X1703987Y0414620D01*
X1703360Y0414140D01*
X1702880Y0413513D01*
X1702577Y0412783D01*
X1702474Y0412000D01*
X1702577Y0411217D01*
X1702880Y0410487D01*
X1703360Y0409860D01*
X1703987Y0409379D01*
X1704717Y0409077D01*
X1705500Y0408974D01*
X1706283Y0409077D01*
X1707013Y0409379D01*
X1707577Y0409812D01*
X1707805Y0409744D01*
X1708050Y0409573D01*
X1707974Y0409000D01*
X1708077Y0408217D01*
X1708380Y0407487D01*
X1708860Y0406860D01*
X1709487Y0406380D01*
X1710217Y0406077D01*
X1711000Y0405974D01*
X1711783Y0406077D01*
X1712513Y0406380D01*
X1713140Y0406860D01*
X1713621Y0407487D01*
X1713923Y0408217D01*
X1714026Y0409000D01*
X1713923Y0409783D01*
X1713621Y0410513D01*
X1713140Y0411140D01*
X1712513Y0411621D01*
X1711783Y0411923D01*
X1711000Y0412026D01*
X1710217Y0411923D01*
X1709487Y0411621D01*
X1708923Y0411188D01*
X1708695Y0411256D01*
X1708450Y0411427D01*
X1708526Y0412000D01*
X1708423Y0412783D01*
X1708121Y0413513D01*
X1707640Y0414140D01*
X1707013Y0414620D01*
X1706283Y0414923D01*
X1705500Y0415026D01*
D02*
G37*
G36*
X1659000Y0405000D02*
X1656540D01*
X1656577Y0404717D01*
X1656879Y0403987D01*
X1657360Y0403360D01*
X1657987Y0402879D01*
X1658717Y0402577D01*
X1659000Y0402540D01*
Y0405000D01*
D02*
G37*
G36*
X1662460D02*
X1660000D01*
Y0402540D01*
X1660283Y0402577D01*
X1661013Y0402879D01*
X1661640Y0403360D01*
X1662120Y0403987D01*
X1662423Y0404717D01*
X1662460Y0405000D01*
D02*
G37*
G36*
X1764500Y0410026D02*
X1763717Y0409923D01*
X1762987Y0409621D01*
X1762360Y0409140D01*
X1761880Y0408513D01*
X1761577Y0407783D01*
X1761474Y0407000D01*
X1761577Y0406217D01*
X1761880Y0405487D01*
X1762360Y0404860D01*
X1762987Y0404380D01*
X1763717Y0404077D01*
X1764500Y0403974D01*
X1765283Y0404077D01*
X1766013Y0404380D01*
X1766640Y0404860D01*
X1767121Y0405487D01*
X1767423Y0406217D01*
X1767526Y0407000D01*
X1767423Y0407783D01*
X1767121Y0408513D01*
X1766640Y0409140D01*
X1766013Y0409621D01*
X1765283Y0409923D01*
X1764500Y0410026D01*
D02*
G37*
G36*
X1670000Y0418026D02*
X1669217Y0417923D01*
X1668487Y0417621D01*
X1667860Y0417140D01*
X1667380Y0416513D01*
X1667077Y0415783D01*
X1666974Y0415000D01*
X1667077Y0414217D01*
X1667380Y0413487D01*
X1667860Y0412860D01*
X1668487Y0412380D01*
X1669217Y0412077D01*
X1670000Y0411974D01*
X1670783Y0412077D01*
X1671513Y0412380D01*
X1672140Y0412860D01*
X1672621Y0413487D01*
X1672923Y0414217D01*
X1673026Y0415000D01*
X1672923Y0415783D01*
X1672621Y0416513D01*
X1672140Y0417140D01*
X1671513Y0417621D01*
X1670783Y0417923D01*
X1670000Y0418026D01*
D02*
G37*
G36*
X1695960Y0415000D02*
X1693500D01*
Y0412540D01*
X1693783Y0412577D01*
X1694513Y0412880D01*
X1695140Y0413360D01*
X1695621Y0413987D01*
X1695923Y0414717D01*
X1695960Y0415000D01*
D02*
G37*
G36*
X1751500Y0416026D02*
X1750717Y0415923D01*
X1749987Y0415621D01*
X1749360Y0415140D01*
X1748879Y0414513D01*
X1748294Y0414405D01*
X1748013Y0414620D01*
X1747283Y0414923D01*
X1746500Y0415026D01*
X1745717Y0414923D01*
X1744987Y0414620D01*
X1744360Y0414140D01*
X1743880Y0413513D01*
X1743577Y0412783D01*
X1743474Y0412000D01*
X1743577Y0411217D01*
X1743880Y0410487D01*
X1744360Y0409860D01*
X1744987Y0409379D01*
X1745717Y0409077D01*
X1746500Y0408974D01*
X1747283Y0409077D01*
X1748013Y0409379D01*
X1748640Y0409860D01*
X1749121Y0410487D01*
X1749706Y0410595D01*
X1749987Y0410380D01*
X1750717Y0410077D01*
X1751500Y0409974D01*
X1752283Y0410077D01*
X1753013Y0410380D01*
X1753640Y0410860D01*
X1754120Y0411487D01*
X1754423Y0412217D01*
X1754526Y0413000D01*
X1754423Y0413783D01*
X1754120Y0414513D01*
X1753640Y0415140D01*
X1753013Y0415621D01*
X1752283Y0415923D01*
X1751500Y0416026D01*
D02*
G37*
G36*
X1762100Y0418160D02*
X1761817Y0418123D01*
X1761087Y0417821D01*
X1760460Y0417340D01*
X1759979Y0416713D01*
X1759677Y0415983D01*
X1759640Y0415700D01*
X1762100D01*
Y0418160D01*
D02*
G37*
G36*
X1692500Y0415000D02*
X1690040D01*
X1690077Y0414717D01*
X1690380Y0413987D01*
X1690860Y0413360D01*
X1691487Y0412880D01*
X1692217Y0412577D01*
X1692500Y0412540D01*
Y0415000D01*
D02*
G37*
G36*
X1762100Y0414700D02*
X1759640D01*
X1759677Y0414417D01*
X1759979Y0413687D01*
X1760460Y0413060D01*
X1761087Y0412579D01*
X1761817Y0412277D01*
X1762100Y0412240D01*
Y0414700D01*
D02*
G37*
G36*
X1765560D02*
X1763100D01*
Y0412240D01*
X1763383Y0412277D01*
X1764113Y0412579D01*
X1764740Y0413060D01*
X1765220Y0413687D01*
X1765523Y0414417D01*
X1765560Y0414700D01*
D02*
G37*
G36*
X1713000Y0428526D02*
X1712217Y0428423D01*
X1711487Y0428121D01*
X1710860Y0427640D01*
X1710379Y0427013D01*
X1710077Y0426283D01*
X1709974Y0425500D01*
X1710077Y0424717D01*
X1710379Y0423987D01*
X1710736Y0423523D01*
X1710851Y0423338D01*
X1710669Y0422877D01*
X1710360Y0422640D01*
X1709879Y0422013D01*
X1709577Y0421283D01*
X1709474Y0420500D01*
X1709577Y0419717D01*
X1709879Y0418987D01*
X1710236Y0418523D01*
X1710351Y0418338D01*
X1710169Y0417877D01*
X1709860Y0417640D01*
X1709380Y0417013D01*
X1709077Y0416283D01*
X1708974Y0415500D01*
X1709077Y0414717D01*
X1709380Y0413987D01*
X1709860Y0413360D01*
X1710487Y0412880D01*
X1711217Y0412577D01*
X1712000Y0412474D01*
X1712783Y0412577D01*
X1713513Y0412880D01*
X1714140Y0413360D01*
X1714621Y0413987D01*
X1714923Y0414717D01*
X1715026Y0415500D01*
X1714923Y0416283D01*
X1714621Y0417013D01*
X1714264Y0417477D01*
X1714149Y0417662D01*
X1714331Y0418123D01*
X1714640Y0418360D01*
X1715121Y0418987D01*
X1715423Y0419717D01*
X1715526Y0420500D01*
X1715423Y0421283D01*
X1715121Y0422013D01*
X1714764Y0422477D01*
X1714649Y0422662D01*
X1714831Y0423123D01*
X1715140Y0423360D01*
X1715620Y0423987D01*
X1715923Y0424717D01*
X1716026Y0425500D01*
X1715923Y0426283D01*
X1715620Y0427013D01*
X1715140Y0427640D01*
X1714513Y0428121D01*
X1713783Y0428423D01*
X1713000Y0428526D01*
D02*
G37*
G36*
X1712000Y0435460D02*
X1711717Y0435423D01*
X1710987Y0435120D01*
X1710360Y0434640D01*
X1709879Y0434013D01*
X1709577Y0433283D01*
X1709540Y0433000D01*
X1712000D01*
Y0435460D01*
D02*
G37*
G36*
X1659000Y0449960D02*
Y0447500D01*
X1661460D01*
X1661423Y0447783D01*
X1661120Y0448513D01*
X1660640Y0449140D01*
X1660013Y0449620D01*
X1659283Y0449923D01*
X1659000Y0449960D01*
D02*
G37*
G36*
X1711500Y0454026D02*
X1710717Y0453923D01*
X1709987Y0453620D01*
X1709360Y0453140D01*
X1708879Y0452513D01*
X1708577Y0451783D01*
X1708474Y0451000D01*
X1708577Y0450217D01*
X1708879Y0449487D01*
X1709360Y0448860D01*
X1709987Y0448380D01*
X1710717Y0448077D01*
X1711500Y0447974D01*
X1712283Y0448077D01*
X1713013Y0448380D01*
X1713640Y0448860D01*
X1714120Y0449487D01*
X1714423Y0450217D01*
X1714526Y0451000D01*
X1714423Y0451783D01*
X1714120Y0452513D01*
X1713640Y0453140D01*
X1713013Y0453620D01*
X1712283Y0453923D01*
X1711500Y0454026D01*
D02*
G37*
G36*
X1688360Y0450500D02*
X1685900D01*
Y0448040D01*
X1686183Y0448077D01*
X1686913Y0448380D01*
X1687540Y0448860D01*
X1688021Y0449487D01*
X1688323Y0450217D01*
X1688360Y0450500D01*
D02*
G37*
G36*
X1670460Y0449500D02*
X1668000D01*
Y0447040D01*
X1668283Y0447077D01*
X1669013Y0447379D01*
X1669640Y0447860D01*
X1670120Y0448487D01*
X1670423Y0449217D01*
X1670460Y0449500D01*
D02*
G37*
G36*
X1667000D02*
X1664540D01*
X1664577Y0449217D01*
X1664879Y0448487D01*
X1665360Y0447860D01*
X1665987Y0447379D01*
X1666717Y0447077D01*
X1667000Y0447040D01*
Y0449500D01*
D02*
G37*
G36*
X1684900Y0450500D02*
X1682440D01*
X1682477Y0450217D01*
X1682780Y0449487D01*
X1683037Y0449152D01*
X1682722Y0448741D01*
X1682283Y0448923D01*
X1681500Y0449026D01*
X1680717Y0448923D01*
X1679987Y0448621D01*
X1679360Y0448140D01*
X1678880Y0447513D01*
X1678577Y0446783D01*
X1678474Y0446000D01*
X1678577Y0445217D01*
X1678880Y0444487D01*
X1679360Y0443860D01*
X1679987Y0443379D01*
X1680717Y0443077D01*
X1681500Y0442974D01*
X1682283Y0443077D01*
X1683013Y0443379D01*
X1683640Y0443860D01*
X1684121Y0444487D01*
X1684423Y0445217D01*
X1684526Y0446000D01*
X1684423Y0446783D01*
X1684121Y0447513D01*
X1683863Y0447848D01*
X1684178Y0448259D01*
X1684617Y0448077D01*
X1684900Y0448040D01*
Y0450500D01*
D02*
G37*
G36*
X1685900Y0453960D02*
Y0451500D01*
X1688360D01*
X1688323Y0451783D01*
X1688021Y0452513D01*
X1687540Y0453140D01*
X1686913Y0453620D01*
X1686183Y0453923D01*
X1685900Y0453960D01*
D02*
G37*
G36*
X1707000Y0463026D02*
X1706217Y0462923D01*
X1705487Y0462620D01*
X1704860Y0462140D01*
X1704379Y0461513D01*
X1704077Y0460783D01*
X1703974Y0460000D01*
X1704077Y0459217D01*
X1704379Y0458487D01*
X1704860Y0457860D01*
X1705487Y0457379D01*
X1706217Y0457077D01*
X1707000Y0456974D01*
X1707783Y0457077D01*
X1708513Y0457379D01*
X1709140Y0457860D01*
X1709620Y0458487D01*
X1709923Y0459217D01*
X1710026Y0460000D01*
X1709923Y0460783D01*
X1709620Y0461513D01*
X1709140Y0462140D01*
X1708513Y0462620D01*
X1707783Y0462923D01*
X1707000Y0463026D01*
D02*
G37*
G36*
X1684900Y0453960D02*
X1684617Y0453923D01*
X1683887Y0453620D01*
X1683260Y0453140D01*
X1682780Y0452513D01*
X1682477Y0451783D01*
X1682440Y0451500D01*
X1684900D01*
Y0453960D01*
D02*
G37*
G36*
X1697500Y0455986D02*
X1696717Y0455883D01*
X1695987Y0455580D01*
X1695360Y0455099D01*
X1694880Y0454473D01*
X1694577Y0453743D01*
X1694474Y0452960D01*
X1694577Y0452177D01*
X1694880Y0451447D01*
X1695360Y0450820D01*
X1695987Y0450339D01*
X1696717Y0450037D01*
X1697500Y0449934D01*
X1698283Y0450037D01*
X1699013Y0450339D01*
X1699640Y0450820D01*
X1700121Y0451447D01*
X1700423Y0452177D01*
X1700526Y0452960D01*
X1700423Y0453743D01*
X1700121Y0454473D01*
X1699640Y0455099D01*
X1699013Y0455580D01*
X1698283Y0455883D01*
X1697500Y0455986D01*
D02*
G37*
G36*
X1667000Y0452960D02*
X1666717Y0452923D01*
X1665987Y0452621D01*
X1665360Y0452140D01*
X1664879Y0451513D01*
X1664577Y0450783D01*
X1664540Y0450500D01*
X1667000D01*
Y0452960D01*
D02*
G37*
G36*
X1668000D02*
Y0450500D01*
X1670460D01*
X1670423Y0450783D01*
X1670120Y0451513D01*
X1669640Y0452140D01*
X1669013Y0452621D01*
X1668283Y0452923D01*
X1668000Y0452960D01*
D02*
G37*
G36*
X1698500Y0448060D02*
Y0445600D01*
X1700960D01*
X1700923Y0445883D01*
X1700620Y0446613D01*
X1700140Y0447240D01*
X1699513Y0447720D01*
X1698783Y0448023D01*
X1698500Y0448060D01*
D02*
G37*
G36*
X1624515Y0442552D02*
X1623726Y0442448D01*
X1622525Y0441951D01*
X1621494Y0441159D01*
X1620703Y0440128D01*
X1620205Y0438927D01*
X1620102Y0438138D01*
X1624515D01*
Y0442552D01*
D02*
G37*
G36*
X1625515Y0442552D02*
Y0438138D01*
X1629929D01*
X1629825Y0438927D01*
X1629328Y0440128D01*
X1628536Y0441159D01*
X1627505Y0441951D01*
X1626304Y0442448D01*
X1625515Y0442552D01*
D02*
G37*
G36*
X1713000Y0435460D02*
Y0433000D01*
X1715460D01*
X1715423Y0433283D01*
X1715121Y0434013D01*
X1714640Y0434640D01*
X1714013Y0435120D01*
X1713283Y0435423D01*
X1713000Y0435460D01*
D02*
G37*
G36*
X1715500Y0445526D02*
X1714717Y0445423D01*
X1713987Y0445120D01*
X1713360Y0444640D01*
X1712880Y0444013D01*
X1712577Y0443283D01*
X1712474Y0442500D01*
X1712577Y0441717D01*
X1712880Y0440987D01*
X1713360Y0440360D01*
X1713987Y0439880D01*
X1714717Y0439577D01*
X1715500Y0439474D01*
X1716283Y0439577D01*
X1717013Y0439880D01*
X1717640Y0440360D01*
X1718121Y0440987D01*
X1718423Y0441717D01*
X1718526Y0442500D01*
X1718423Y0443283D01*
X1718121Y0444013D01*
X1717640Y0444640D01*
X1717013Y0445120D01*
X1716283Y0445423D01*
X1715500Y0445526D01*
D02*
G37*
G36*
X1653000Y0450526D02*
X1652217Y0450423D01*
X1651487Y0450120D01*
X1650860Y0449640D01*
X1650380Y0449013D01*
X1650077Y0448283D01*
X1649974Y0447500D01*
X1650077Y0446717D01*
X1650380Y0445987D01*
X1650860Y0445360D01*
X1651487Y0444879D01*
X1652217Y0444577D01*
X1653000Y0444474D01*
X1653783Y0444577D01*
X1654513Y0444879D01*
X1655140Y0445360D01*
X1655303Y0445573D01*
X1655875Y0445498D01*
X1655880Y0445487D01*
X1656360Y0444860D01*
X1656987Y0444380D01*
X1657717Y0444077D01*
X1658000Y0444040D01*
Y0447000D01*
Y0449960D01*
X1657717Y0449923D01*
X1656987Y0449620D01*
X1656360Y0449140D01*
X1656197Y0448927D01*
X1655625Y0449002D01*
X1655621Y0449013D01*
X1655140Y0449640D01*
X1654513Y0450120D01*
X1653783Y0450423D01*
X1653000Y0450526D01*
D02*
G37*
G36*
X1661460Y0446500D02*
X1659000D01*
Y0444040D01*
X1659283Y0444077D01*
X1660013Y0444380D01*
X1660640Y0444860D01*
X1661120Y0445487D01*
X1661423Y0446217D01*
X1661460Y0446500D01*
D02*
G37*
G36*
X1697500Y0448060D02*
X1697217Y0448023D01*
X1696487Y0447720D01*
X1695860Y0447240D01*
X1695379Y0446613D01*
X1695077Y0445883D01*
X1695040Y0445600D01*
X1697500D01*
Y0448060D01*
D02*
G37*
G36*
X1700960Y0444600D02*
X1698500D01*
Y0442140D01*
X1698783Y0442177D01*
X1699513Y0442480D01*
X1700140Y0442960D01*
X1700620Y0443587D01*
X1700923Y0444317D01*
X1700960Y0444600D01*
D02*
G37*
G36*
X1690200Y0447726D02*
X1689417Y0447623D01*
X1688687Y0447321D01*
X1688060Y0446840D01*
X1687580Y0446213D01*
X1687277Y0445483D01*
X1687174Y0444700D01*
X1687277Y0443917D01*
X1687580Y0443187D01*
X1688060Y0442560D01*
X1688687Y0442079D01*
X1689417Y0441777D01*
X1690200Y0441674D01*
X1690983Y0441777D01*
X1691713Y0442079D01*
X1692340Y0442560D01*
X1692821Y0443187D01*
X1693123Y0443917D01*
X1693226Y0444700D01*
X1693123Y0445483D01*
X1692821Y0446213D01*
X1692340Y0446840D01*
X1691713Y0447321D01*
X1690983Y0447623D01*
X1690200Y0447726D01*
D02*
G37*
G36*
X1674000Y0448026D02*
X1673217Y0447923D01*
X1672487Y0447620D01*
X1671860Y0447140D01*
X1671379Y0446513D01*
X1671077Y0445783D01*
X1670974Y0445000D01*
X1671077Y0444217D01*
X1671379Y0443487D01*
X1671860Y0442860D01*
X1672487Y0442380D01*
X1673217Y0442077D01*
X1674000Y0441974D01*
X1674783Y0442077D01*
X1675513Y0442380D01*
X1676140Y0442860D01*
X1676620Y0443487D01*
X1676923Y0444217D01*
X1677026Y0445000D01*
X1676923Y0445783D01*
X1676620Y0446513D01*
X1676140Y0447140D01*
X1675513Y0447620D01*
X1674783Y0447923D01*
X1674000Y0448026D01*
D02*
G37*
G36*
X1697500Y0444600D02*
X1695040D01*
X1695077Y0444317D01*
X1695379Y0443587D01*
X1695860Y0442960D01*
X1696487Y0442480D01*
X1697217Y0442177D01*
X1697500Y0442140D01*
Y0444600D01*
D02*
G37*
G36*
X1729500Y0484500D02*
X1727040D01*
X1727077Y0484217D01*
X1727379Y0483487D01*
X1727860Y0482860D01*
X1728487Y0482379D01*
X1729217Y0482077D01*
X1729500Y0482040D01*
Y0484500D01*
D02*
G37*
G36*
X1732960D02*
X1730500D01*
Y0482040D01*
X1730783Y0482077D01*
X1731513Y0482379D01*
X1732140Y0482860D01*
X1732620Y0483487D01*
X1732923Y0484217D01*
X1732960Y0484500D01*
D02*
G37*
G36*
X1729500Y0487960D02*
X1729217Y0487923D01*
X1728487Y0487620D01*
X1727860Y0487140D01*
X1727379Y0486513D01*
X1727077Y0485783D01*
X1727040Y0485500D01*
X1729500D01*
Y0487960D01*
D02*
G37*
G36*
X1749000Y0506526D02*
X1748217Y0506423D01*
X1747487Y0506120D01*
X1746860Y0505640D01*
X1746379Y0505013D01*
X1746077Y0504283D01*
X1745974Y0503500D01*
X1746077Y0502717D01*
X1746379Y0501987D01*
X1746860Y0501360D01*
X1747487Y0500879D01*
X1748217Y0500577D01*
X1749000Y0500474D01*
X1749783Y0500577D01*
X1750513Y0500879D01*
X1751140Y0501360D01*
X1751620Y0501987D01*
X1751923Y0502717D01*
X1752026Y0503500D01*
X1751923Y0504283D01*
X1751620Y0505013D01*
X1751140Y0505640D01*
X1750513Y0506120D01*
X1749783Y0506423D01*
X1749000Y0506526D01*
D02*
G37*
G36*
X1730500Y0487960D02*
Y0485500D01*
X1732960D01*
X1732923Y0485783D01*
X1732620Y0486513D01*
X1732140Y0487140D01*
X1731513Y0487620D01*
X1730783Y0487923D01*
X1730500Y0487960D01*
D02*
G37*
G36*
X1730700Y0477060D02*
X1730417Y0477023D01*
X1729687Y0476721D01*
X1729060Y0476240D01*
X1728580Y0475613D01*
X1728277Y0474883D01*
X1728240Y0474600D01*
X1730700D01*
Y0477060D01*
D02*
G37*
G36*
X1731700D02*
Y0474600D01*
X1734160D01*
X1734123Y0474883D01*
X1733821Y0475613D01*
X1733340Y0476240D01*
X1732713Y0476721D01*
X1731983Y0477023D01*
X1731700Y0477060D01*
D02*
G37*
G36*
X1776000Y0482026D02*
X1775217Y0481923D01*
X1774487Y0481621D01*
X1773860Y0481140D01*
X1773380Y0480513D01*
X1773077Y0479783D01*
X1772974Y0479000D01*
X1773077Y0478217D01*
X1773380Y0477487D01*
X1773860Y0476860D01*
X1774487Y0476379D01*
X1775217Y0476077D01*
X1776000Y0475974D01*
X1776783Y0476077D01*
X1777513Y0476379D01*
X1778140Y0476860D01*
X1778621Y0477487D01*
X1778923Y0478217D01*
X1779026Y0479000D01*
X1778923Y0479783D01*
X1778621Y0480513D01*
X1778140Y0481140D01*
X1777513Y0481621D01*
X1776783Y0481923D01*
X1776000Y0482026D01*
D02*
G37*
G36*
X1730700Y0473600D02*
X1728240D01*
X1728277Y0473317D01*
X1728580Y0472587D01*
X1729060Y0471960D01*
X1729687Y0471480D01*
X1730417Y0471177D01*
X1730700Y0471140D01*
Y0473600D01*
D02*
G37*
G36*
X1734160D02*
X1731700D01*
Y0471140D01*
X1731983Y0471177D01*
X1732713Y0471480D01*
X1733340Y0471960D01*
X1733821Y0472587D01*
X1734123Y0473317D01*
X1734160Y0473600D01*
D02*
G37*
G36*
X1743500Y0513372D02*
X1742717Y0513269D01*
X1741987Y0512967D01*
X1741360Y0512486D01*
X1740879Y0511859D01*
X1740577Y0511130D01*
X1740474Y0510346D01*
X1740577Y0509563D01*
X1740879Y0508834D01*
X1741360Y0508207D01*
X1741987Y0507726D01*
X1742717Y0507424D01*
X1743500Y0507320D01*
X1744283Y0507424D01*
X1745013Y0507726D01*
X1745640Y0508207D01*
X1746120Y0508834D01*
X1746423Y0509563D01*
X1746526Y0510346D01*
X1746423Y0511130D01*
X1746120Y0511859D01*
X1745640Y0512486D01*
X1745013Y0512967D01*
X1744283Y0513269D01*
X1743500Y0513372D01*
D02*
G37*
G36*
X1755000Y0511460D02*
X1754717Y0511423D01*
X1753987Y0511121D01*
X1753360Y0510640D01*
X1752880Y0510013D01*
X1752577Y0509283D01*
X1752540Y0509000D01*
X1755000D01*
Y0511460D01*
D02*
G37*
G36*
Y0508000D02*
X1752540D01*
X1752577Y0507717D01*
X1752880Y0506987D01*
X1753360Y0506360D01*
X1753987Y0505879D01*
X1754717Y0505577D01*
X1755000Y0505540D01*
Y0508000D01*
D02*
G37*
G36*
X1758460D02*
X1756000D01*
Y0505540D01*
X1756283Y0505577D01*
X1757013Y0505879D01*
X1757640Y0506360D01*
X1758121Y0506987D01*
X1758423Y0507717D01*
X1758460Y0508000D01*
D02*
G37*
G36*
X1756000Y0511460D02*
Y0509000D01*
X1758460D01*
X1758423Y0509283D01*
X1758121Y0510013D01*
X1757640Y0510640D01*
X1757013Y0511121D01*
X1756283Y0511423D01*
X1756000Y0511460D01*
D02*
G37*
G36*
X1754000Y0464526D02*
X1753217Y0464423D01*
X1752487Y0464120D01*
X1751860Y0463640D01*
X1751380Y0463013D01*
X1751077Y0462283D01*
X1750974Y0461500D01*
X1751077Y0460717D01*
X1751380Y0459987D01*
X1751860Y0459360D01*
X1752487Y0458880D01*
X1753217Y0458577D01*
X1754000Y0458474D01*
X1754783Y0458577D01*
X1755513Y0458880D01*
X1756140Y0459360D01*
X1756620Y0459987D01*
X1756923Y0460717D01*
X1757026Y0461500D01*
X1756923Y0462283D01*
X1756620Y0463013D01*
X1756140Y0463640D01*
X1755513Y0464120D01*
X1754783Y0464423D01*
X1754000Y0464526D01*
D02*
G37*
G36*
X1773000Y0449460D02*
X1772717Y0449423D01*
X1771987Y0449121D01*
X1771360Y0448640D01*
X1770880Y0448013D01*
X1770577Y0447283D01*
X1770540Y0447000D01*
X1773000D01*
Y0449460D01*
D02*
G37*
G36*
X1774000D02*
Y0447000D01*
X1776460D01*
X1776423Y0447283D01*
X1776121Y0448013D01*
X1775640Y0448640D01*
X1775013Y0449121D01*
X1774283Y0449423D01*
X1774000Y0449460D01*
D02*
G37*
G36*
X1761800Y0440260D02*
Y0437800D01*
X1764260D01*
X1764223Y0438083D01*
X1763921Y0438813D01*
X1763440Y0439440D01*
X1762813Y0439921D01*
X1762083Y0440223D01*
X1761800Y0440260D01*
D02*
G37*
G36*
X1760800D02*
X1760517Y0440223D01*
X1759787Y0439921D01*
X1759160Y0439440D01*
X1758680Y0438813D01*
X1758377Y0438083D01*
X1758340Y0437800D01*
X1760800D01*
Y0440260D01*
D02*
G37*
G36*
Y0436800D02*
X1758340D01*
X1758377Y0436517D01*
X1758680Y0435787D01*
X1759160Y0435160D01*
X1759787Y0434680D01*
X1760517Y0434377D01*
X1760800Y0434340D01*
Y0436800D01*
D02*
G37*
G36*
X1764260D02*
X1761800D01*
Y0434340D01*
X1762083Y0434377D01*
X1762813Y0434680D01*
X1763440Y0435160D01*
X1763921Y0435787D01*
X1764223Y0436517D01*
X1764260Y0436800D01*
D02*
G37*
G36*
X1622000Y0382260D02*
X1621717Y0382223D01*
X1620987Y0381921D01*
X1620360Y0381440D01*
X1619880Y0380813D01*
X1619577Y0380083D01*
X1619540Y0379800D01*
X1622000D01*
Y0382260D01*
D02*
G37*
G36*
Y0378800D02*
X1619540D01*
X1619577Y0378517D01*
X1619880Y0377787D01*
X1620360Y0377160D01*
X1620987Y0376679D01*
X1621717Y0376377D01*
X1622000Y0376340D01*
Y0378800D01*
D02*
G37*
G36*
X1625460D02*
X1623000D01*
Y0376340D01*
X1623283Y0376377D01*
X1624013Y0376679D01*
X1624640Y0377160D01*
X1625121Y0377787D01*
X1625423Y0378517D01*
X1625460Y0378800D01*
D02*
G37*
G36*
X1638200Y0366960D02*
X1637917Y0366923D01*
X1637187Y0366620D01*
X1636560Y0366140D01*
X1636079Y0365513D01*
X1635777Y0364783D01*
X1635740Y0364500D01*
X1638200D01*
Y0366960D01*
D02*
G37*
G36*
X1617960Y0366000D02*
X1615500D01*
Y0363540D01*
X1615783Y0363577D01*
X1616513Y0363879D01*
X1617140Y0364360D01*
X1617620Y0364987D01*
X1617923Y0365717D01*
X1617960Y0366000D01*
D02*
G37*
G36*
X1639200Y0366960D02*
Y0364500D01*
X1641660D01*
X1641623Y0364783D01*
X1641320Y0365513D01*
X1641229Y0365632D01*
X1640870Y0366170D01*
X1640332Y0366529D01*
X1640213Y0366620D01*
X1639483Y0366923D01*
X1639200Y0366960D01*
D02*
G37*
G36*
X1614500Y0366000D02*
X1612040D01*
X1612077Y0365717D01*
X1612379Y0364987D01*
X1612860Y0364360D01*
X1613487Y0363879D01*
X1614217Y0363577D01*
X1614500Y0363540D01*
Y0366000D01*
D02*
G37*
G36*
Y0369460D02*
X1614217Y0369423D01*
X1613487Y0369121D01*
X1612860Y0368640D01*
X1612379Y0368013D01*
X1612077Y0367283D01*
X1612040Y0367000D01*
X1614500D01*
Y0369460D01*
D02*
G37*
G36*
X1615500D02*
Y0367000D01*
X1617960D01*
X1617923Y0367283D01*
X1617620Y0368013D01*
X1617140Y0368640D01*
X1616513Y0369121D01*
X1615783Y0369423D01*
X1615500Y0369460D01*
D02*
G37*
G36*
X1623000Y0382260D02*
Y0379800D01*
X1625460D01*
X1625423Y0380083D01*
X1625121Y0380813D01*
X1624640Y0381440D01*
X1624013Y0381921D01*
X1623283Y0382223D01*
X1623000Y0382260D01*
D02*
G37*
G36*
X1589067Y0400665D02*
X1588391Y0400598D01*
X1587260Y0400255D01*
X1586217Y0399698D01*
X1585304Y0398948D01*
X1584554Y0398035D01*
X1583997Y0396992D01*
X1583654Y0395861D01*
X1583587Y0395185D01*
X1589067D01*
Y0400665D01*
D02*
G37*
G36*
X1590067Y0400665D02*
Y0395185D01*
X1595547D01*
X1595480Y0395861D01*
X1595137Y0396992D01*
X1594580Y0398035D01*
X1593830Y0398948D01*
X1592916Y0399698D01*
X1591874Y0400255D01*
X1590743Y0400598D01*
X1590067Y0400665D01*
D02*
G37*
G36*
X1605167Y0400714D02*
X1603991Y0400598D01*
X1602860Y0400255D01*
X1601817Y0399698D01*
X1600904Y0398948D01*
X1600154Y0398035D01*
X1599597Y0396992D01*
X1599254Y0395861D01*
X1599138Y0394685D01*
X1599254Y0393509D01*
X1599597Y0392378D01*
X1600154Y0391336D01*
X1600904Y0390422D01*
X1601817Y0389672D01*
X1602860Y0389115D01*
X1603991Y0388772D01*
X1605167Y0388656D01*
X1606343Y0388772D01*
X1607474Y0389115D01*
X1608517Y0389672D01*
X1609430Y0390422D01*
X1610180Y0391336D01*
X1610737Y0392378D01*
X1611080Y0393509D01*
X1611196Y0394685D01*
X1611080Y0395861D01*
X1610737Y0396992D01*
X1610180Y0398035D01*
X1609430Y0398948D01*
X1608517Y0399698D01*
X1607474Y0400255D01*
X1606343Y0400598D01*
X1605167Y0400714D01*
D02*
G37*
G36*
X1589067Y0394185D02*
X1583587D01*
X1583654Y0393509D01*
X1583997Y0392378D01*
X1584554Y0391336D01*
X1585304Y0390422D01*
X1586217Y0389672D01*
X1587260Y0389115D01*
X1588391Y0388772D01*
X1589067Y0388705D01*
Y0394185D01*
D02*
G37*
G36*
X1595547D02*
X1590067D01*
Y0388705D01*
X1590743Y0388772D01*
X1591874Y0389115D01*
X1592916Y0389672D01*
X1593830Y0390422D01*
X1594580Y0391336D01*
X1595137Y0392378D01*
X1595480Y0393509D01*
X1595547Y0394185D01*
D02*
G37*
G36*
X1615500Y0342473D02*
X1614825Y0342384D01*
X1613731Y0341931D01*
X1612791Y0341209D01*
X1612069Y0340269D01*
X1611616Y0339175D01*
X1611527Y0338500D01*
X1615500D01*
Y0342473D01*
D02*
G37*
G36*
X1616500D02*
Y0338500D01*
X1620473D01*
X1620384Y0339175D01*
X1619931Y0340269D01*
X1619209Y0341209D01*
X1618269Y0341931D01*
X1617175Y0342384D01*
X1616500Y0342473D01*
D02*
G37*
G36*
X1604500Y0347300D02*
X1602040D01*
X1602077Y0347017D01*
X1602379Y0346287D01*
X1602860Y0345660D01*
X1603487Y0345180D01*
X1604217Y0344877D01*
X1604500Y0344840D01*
Y0347300D01*
D02*
G37*
G36*
X1607960D02*
X1605500D01*
Y0344840D01*
X1605783Y0344877D01*
X1606513Y0345180D01*
X1607140Y0345660D01*
X1607620Y0346287D01*
X1607923Y0347017D01*
X1607960Y0347300D01*
D02*
G37*
G36*
X1630000Y0348973D02*
X1629325Y0348884D01*
X1628231Y0348431D01*
X1627291Y0347709D01*
X1626569Y0346769D01*
X1626116Y0345675D01*
X1626027Y0345000D01*
X1630000D01*
Y0348973D01*
D02*
G37*
G36*
Y0344000D02*
X1626027D01*
X1626116Y0343325D01*
X1626569Y0342231D01*
X1627291Y0341291D01*
X1628231Y0340569D01*
X1629325Y0340116D01*
X1630000Y0340027D01*
Y0344000D01*
D02*
G37*
G36*
X1634973D02*
X1631000D01*
Y0340027D01*
X1631675Y0340116D01*
X1632769Y0340569D01*
X1633709Y0341291D01*
X1634431Y0342231D01*
X1634884Y0343325D01*
X1634973Y0344000D01*
D02*
G37*
G36*
X1660500Y0342026D02*
X1659717Y0341923D01*
X1658987Y0341620D01*
X1658360Y0341140D01*
X1657879Y0340513D01*
X1657577Y0339783D01*
X1657474Y0339000D01*
X1657577Y0338217D01*
X1657879Y0337487D01*
X1658360Y0336860D01*
X1658987Y0336380D01*
X1659717Y0336077D01*
X1660500Y0335974D01*
X1661283Y0336077D01*
X1662013Y0336380D01*
X1662640Y0336860D01*
X1663120Y0337487D01*
X1663423Y0338217D01*
X1663526Y0339000D01*
X1663423Y0339783D01*
X1663120Y0340513D01*
X1662640Y0341140D01*
X1662013Y0341620D01*
X1661283Y0341923D01*
X1660500Y0342026D01*
D02*
G37*
G36*
X1664000Y0331026D02*
X1663217Y0330923D01*
X1662487Y0330621D01*
X1661860Y0330140D01*
X1661379Y0329513D01*
X1661077Y0328783D01*
X1660974Y0328000D01*
X1661077Y0327217D01*
X1661379Y0326487D01*
X1661860Y0325860D01*
X1662487Y0325379D01*
X1663217Y0325077D01*
X1664000Y0324974D01*
X1664783Y0325077D01*
X1665513Y0325379D01*
X1666140Y0325860D01*
X1666620Y0326487D01*
X1666923Y0327217D01*
X1667026Y0328000D01*
X1666923Y0328783D01*
X1666620Y0329513D01*
X1666140Y0330140D01*
X1665513Y0330621D01*
X1664783Y0330923D01*
X1664000Y0331026D01*
D02*
G37*
G36*
X1681197Y0312250D02*
X1669197D01*
Y0300250D01*
X1681197D01*
Y0312250D01*
D02*
G37*
G36*
X1675197Y0327879D02*
X1674021Y0327764D01*
X1672890Y0327420D01*
X1671847Y0326863D01*
X1670934Y0326114D01*
X1670184Y0325200D01*
X1669627Y0324158D01*
X1669284Y0323027D01*
X1669168Y0321850D01*
X1669284Y0320674D01*
X1669627Y0319543D01*
X1670184Y0318501D01*
X1670934Y0317587D01*
X1671847Y0316837D01*
X1672890Y0316280D01*
X1674021Y0315937D01*
X1675197Y0315821D01*
X1676373Y0315937D01*
X1677504Y0316280D01*
X1678546Y0316837D01*
X1679460Y0317587D01*
X1680210Y0318501D01*
X1680767Y0319543D01*
X1681110Y0320674D01*
X1681226Y0321850D01*
X1681110Y0323027D01*
X1680767Y0324158D01*
X1680210Y0325200D01*
X1679460Y0326114D01*
X1678546Y0326863D01*
X1677504Y0327420D01*
X1676373Y0327764D01*
X1675197Y0327879D01*
D02*
G37*
G36*
X1620473Y0337500D02*
X1616500D01*
Y0333527D01*
X1617175Y0333616D01*
X1618269Y0334069D01*
X1619209Y0334791D01*
X1619931Y0335731D01*
X1620384Y0336825D01*
X1620473Y0337500D01*
D02*
G37*
G36*
X1615500D02*
X1611527D01*
X1611616Y0336825D01*
X1612069Y0335731D01*
X1612791Y0334791D01*
X1613731Y0334069D01*
X1614825Y0333616D01*
X1615500Y0333527D01*
Y0337500D01*
D02*
G37*
G36*
X1675197Y0343479D02*
X1674021Y0343364D01*
X1672890Y0343021D01*
X1671847Y0342463D01*
X1670934Y0341714D01*
X1670184Y0340800D01*
X1669627Y0339758D01*
X1669284Y0338627D01*
X1669168Y0337450D01*
X1669284Y0336274D01*
X1669627Y0335143D01*
X1670184Y0334101D01*
X1670934Y0333187D01*
X1671847Y0332437D01*
X1672890Y0331880D01*
X1674021Y0331537D01*
X1675197Y0331421D01*
X1676373Y0331537D01*
X1677504Y0331880D01*
X1678546Y0332437D01*
X1679460Y0333187D01*
X1680210Y0334101D01*
X1680767Y0335143D01*
X1681110Y0336274D01*
X1681226Y0337450D01*
X1681110Y0338627D01*
X1680767Y0339758D01*
X1680210Y0340800D01*
X1679460Y0341714D01*
X1678546Y0342463D01*
X1677504Y0343021D01*
X1676373Y0343364D01*
X1675197Y0343479D01*
D02*
G37*
G36*
X1631000Y0348973D02*
Y0345000D01*
X1634973D01*
X1634884Y0345675D01*
X1634431Y0346769D01*
X1633709Y0347709D01*
X1632769Y0348431D01*
X1631675Y0348884D01*
X1631000Y0348973D01*
D02*
G37*
G36*
X1641660Y0363500D02*
X1639200D01*
Y0361040D01*
X1639483Y0361077D01*
X1640213Y0361380D01*
X1640840Y0361860D01*
X1641320Y0362487D01*
X1641623Y0363217D01*
X1641660Y0363500D01*
D02*
G37*
G36*
X1663500Y0366526D02*
X1662717Y0366423D01*
X1661987Y0366121D01*
X1661360Y0365640D01*
X1660880Y0365013D01*
X1660577Y0364283D01*
X1660474Y0363500D01*
X1660577Y0362717D01*
X1660880Y0361987D01*
X1661360Y0361360D01*
X1661987Y0360879D01*
X1662717Y0360577D01*
X1663500Y0360474D01*
X1664283Y0360577D01*
X1665013Y0360879D01*
X1665640Y0361360D01*
X1666121Y0361987D01*
X1666423Y0362717D01*
X1666526Y0363500D01*
X1666423Y0364283D01*
X1666121Y0365013D01*
X1665640Y0365640D01*
X1665013Y0366121D01*
X1664283Y0366423D01*
X1663500Y0366526D01*
D02*
G37*
G36*
X1638200Y0363500D02*
X1635740D01*
X1635777Y0363217D01*
X1636079Y0362487D01*
X1636560Y0361860D01*
X1637187Y0361380D01*
X1637917Y0361077D01*
X1638200Y0361040D01*
Y0363500D01*
D02*
G37*
G36*
X1605500Y0350760D02*
Y0348300D01*
X1607960D01*
X1607923Y0348583D01*
X1607620Y0349313D01*
X1607140Y0349940D01*
X1606513Y0350420D01*
X1605783Y0350723D01*
X1605500Y0350760D01*
D02*
G37*
G36*
X1604500D02*
X1604217Y0350723D01*
X1603487Y0350420D01*
X1602860Y0349940D01*
X1602379Y0349313D01*
X1602077Y0348583D01*
X1602040Y0348300D01*
X1604500D01*
Y0350760D01*
D02*
G37*
G36*
X1679500Y0358526D02*
X1678717Y0358423D01*
X1677987Y0358120D01*
X1677360Y0357640D01*
X1676880Y0357013D01*
X1676577Y0356283D01*
X1676474Y0355500D01*
X1676577Y0354717D01*
X1676880Y0353987D01*
X1677360Y0353360D01*
X1677987Y0352880D01*
X1678717Y0352577D01*
X1679500Y0352474D01*
X1680283Y0352577D01*
X1681013Y0352880D01*
X1681640Y0353360D01*
X1682121Y0353987D01*
X1682423Y0354717D01*
X1682526Y0355500D01*
X1682423Y0356283D01*
X1682121Y0357013D01*
X1681640Y0357640D01*
X1681013Y0358120D01*
X1680283Y0358423D01*
X1679500Y0358526D01*
D02*
G37*
G36*
X1617000Y0491526D02*
X1616217Y0491423D01*
X1615487Y0491120D01*
X1614860Y0490640D01*
X1614380Y0490013D01*
X1614077Y0489283D01*
X1613974Y0488500D01*
X1614077Y0487717D01*
X1614380Y0486987D01*
X1614860Y0486360D01*
X1615487Y0485880D01*
X1616217Y0485577D01*
X1617000Y0485474D01*
X1617783Y0485577D01*
X1618513Y0485880D01*
X1619140Y0486360D01*
X1619621Y0486987D01*
X1619923Y0487717D01*
X1620026Y0488500D01*
X1619923Y0489283D01*
X1619621Y0490013D01*
X1619140Y0490640D01*
X1618513Y0491120D01*
X1617783Y0491423D01*
X1617000Y0491526D01*
D02*
G37*
G36*
X1678500Y0483460D02*
Y0481000D01*
X1680960D01*
X1680923Y0481283D01*
X1680621Y0482013D01*
X1680140Y0482640D01*
X1679513Y0483120D01*
X1678783Y0483423D01*
X1678500Y0483460D01*
D02*
G37*
G36*
X1677500Y0480000D02*
X1675040D01*
X1675077Y0479717D01*
X1675380Y0478987D01*
X1675860Y0478360D01*
X1676487Y0477879D01*
X1677217Y0477577D01*
X1677500Y0477540D01*
Y0480000D01*
D02*
G37*
G36*
X1680960D02*
X1678500D01*
Y0477540D01*
X1678783Y0477577D01*
X1679513Y0477879D01*
X1680140Y0478360D01*
X1680621Y0478987D01*
X1680923Y0479717D01*
X1680960Y0480000D01*
D02*
G37*
G36*
X1677500Y0483460D02*
X1677217Y0483423D01*
X1676487Y0483120D01*
X1675860Y0482640D01*
X1675380Y0482013D01*
X1675077Y0481283D01*
X1675040Y0481000D01*
X1677500D01*
Y0483460D01*
D02*
G37*
G36*
X1665000Y0499526D02*
X1664217Y0499423D01*
X1663487Y0499121D01*
X1662860Y0498640D01*
X1662379Y0498013D01*
X1662077Y0497283D01*
X1661974Y0496500D01*
X1662077Y0495717D01*
X1662379Y0494987D01*
X1662860Y0494360D01*
X1663487Y0493880D01*
X1664217Y0493577D01*
X1665000Y0493474D01*
X1665783Y0493577D01*
X1666513Y0493880D01*
X1667140Y0494360D01*
X1667620Y0494987D01*
X1667923Y0495717D01*
X1668026Y0496500D01*
X1667923Y0497283D01*
X1667620Y0498013D01*
X1667140Y0498640D01*
X1666513Y0499121D01*
X1665783Y0499423D01*
X1665000Y0499526D01*
D02*
G37*
G36*
X1675000Y0494026D02*
X1674217Y0493923D01*
X1673487Y0493620D01*
X1672860Y0493140D01*
X1672379Y0492513D01*
X1672077Y0491783D01*
X1671974Y0491000D01*
X1672077Y0490217D01*
X1672379Y0489487D01*
X1672385Y0489479D01*
X1672115Y0489011D01*
X1672000Y0489026D01*
X1671217Y0488923D01*
X1670487Y0488621D01*
X1669860Y0488140D01*
X1669379Y0487513D01*
X1669077Y0486783D01*
X1668974Y0486000D01*
X1669077Y0485217D01*
X1669379Y0484487D01*
X1669860Y0483860D01*
X1670487Y0483380D01*
X1671217Y0483077D01*
X1672000Y0482974D01*
X1672783Y0483077D01*
X1673513Y0483380D01*
X1674140Y0483860D01*
X1674620Y0484487D01*
X1674923Y0485217D01*
X1675026Y0486000D01*
X1674923Y0486783D01*
X1674620Y0487513D01*
X1674615Y0487521D01*
X1674885Y0487989D01*
X1675000Y0487974D01*
X1675783Y0488077D01*
X1676513Y0488379D01*
X1677140Y0488860D01*
X1677621Y0489487D01*
X1677923Y0490217D01*
X1678026Y0491000D01*
X1677923Y0491783D01*
X1677621Y0492513D01*
X1677140Y0493140D01*
X1676513Y0493620D01*
X1675783Y0493923D01*
X1675000Y0494026D01*
D02*
G37*
G36*
X1693000Y0488000D02*
X1690540D01*
X1690577Y0487717D01*
X1690879Y0486987D01*
X1691360Y0486360D01*
X1691987Y0485880D01*
X1692717Y0485577D01*
X1693000Y0485540D01*
Y0488000D01*
D02*
G37*
G36*
Y0491460D02*
X1692717Y0491423D01*
X1691987Y0491120D01*
X1691360Y0490640D01*
X1690879Y0490013D01*
X1690577Y0489283D01*
X1690540Y0489000D01*
X1693000D01*
Y0491460D01*
D02*
G37*
G36*
X1611914Y0511000D02*
X1607000D01*
X1602086D01*
X1602190Y0510211D01*
X1602687Y0509010D01*
X1603479Y0507979D01*
X1604510Y0507188D01*
X1605517Y0506771D01*
Y0506229D01*
X1604510Y0505813D01*
X1603479Y0505021D01*
X1602687Y0503990D01*
X1602190Y0502789D01*
X1602020Y0501500D01*
X1602190Y0500211D01*
X1602687Y0499010D01*
X1603479Y0497979D01*
X1604510Y0497188D01*
X1605517Y0496771D01*
Y0496229D01*
X1604510Y0495813D01*
X1603479Y0495021D01*
X1602687Y0493990D01*
X1602190Y0492789D01*
X1602020Y0491500D01*
X1602190Y0490211D01*
X1602687Y0489010D01*
X1603479Y0487979D01*
X1604510Y0487187D01*
X1605115Y0486937D01*
X1605016Y0486437D01*
X1602063D01*
Y0476563D01*
X1611937D01*
Y0486437D01*
X1608984D01*
X1608885Y0486937D01*
X1609490Y0487187D01*
X1610521Y0487979D01*
X1611312Y0489010D01*
X1611810Y0490211D01*
X1611980Y0491500D01*
X1611810Y0492789D01*
X1611312Y0493990D01*
X1610521Y0495021D01*
X1609490Y0495813D01*
X1608483Y0496229D01*
Y0496771D01*
X1609490Y0497188D01*
X1610521Y0497979D01*
X1611312Y0499010D01*
X1611810Y0500211D01*
X1611980Y0501500D01*
X1611810Y0502789D01*
X1611312Y0503990D01*
X1610521Y0505021D01*
X1609490Y0505813D01*
X1608483Y0506229D01*
Y0506771D01*
X1609490Y0507188D01*
X1610521Y0507979D01*
X1611312Y0509010D01*
X1611810Y0510211D01*
X1611914Y0511000D01*
D02*
G37*
G36*
X1613400Y0472600D02*
X1610940D01*
X1610977Y0472317D01*
X1611279Y0471587D01*
X1611760Y0470960D01*
X1612387Y0470479D01*
X1613117Y0470177D01*
X1613400Y0470140D01*
Y0472600D01*
D02*
G37*
G36*
X1684500Y0462960D02*
X1684217Y0462923D01*
X1683487Y0462620D01*
X1682860Y0462140D01*
X1682380Y0461513D01*
X1682077Y0460783D01*
X1682040Y0460500D01*
X1684500D01*
Y0462960D01*
D02*
G37*
G36*
X1685500D02*
Y0460500D01*
X1687960D01*
X1687923Y0460783D01*
X1687621Y0461513D01*
X1687140Y0462140D01*
X1686513Y0462620D01*
X1685783Y0462923D01*
X1685500Y0462960D01*
D02*
G37*
G36*
X1676500Y0468026D02*
X1675717Y0467923D01*
X1674987Y0467621D01*
X1674360Y0467140D01*
X1673879Y0466513D01*
X1673577Y0465783D01*
X1673474Y0465000D01*
X1673577Y0464217D01*
X1673879Y0463487D01*
X1674360Y0462860D01*
X1674987Y0462380D01*
X1675717Y0462077D01*
X1676500Y0461974D01*
X1677283Y0462077D01*
X1678013Y0462380D01*
X1678640Y0462860D01*
X1679120Y0463487D01*
X1679423Y0464217D01*
X1679526Y0465000D01*
X1679423Y0465783D01*
X1679120Y0466513D01*
X1678640Y0467140D01*
X1678013Y0467621D01*
X1677283Y0467923D01*
X1676500Y0468026D01*
D02*
G37*
G36*
X1616860Y0472600D02*
X1614400D01*
Y0470140D01*
X1614683Y0470177D01*
X1615413Y0470479D01*
X1616040Y0470960D01*
X1616521Y0471587D01*
X1616823Y0472317D01*
X1616860Y0472600D01*
D02*
G37*
G36*
X1614400Y0476060D02*
Y0473600D01*
X1616860D01*
X1616823Y0473883D01*
X1616521Y0474613D01*
X1616040Y0475240D01*
X1615413Y0475721D01*
X1614683Y0476023D01*
X1614400Y0476060D01*
D02*
G37*
G36*
X1613400D02*
X1613117Y0476023D01*
X1612387Y0475721D01*
X1611760Y0475240D01*
X1611279Y0474613D01*
X1610977Y0473883D01*
X1610940Y0473600D01*
X1613400D01*
Y0476060D01*
D02*
G37*
G36*
X1648500Y0506000D02*
X1646040D01*
X1646077Y0505717D01*
X1646379Y0504987D01*
X1646860Y0504360D01*
X1647487Y0503879D01*
X1648217Y0503577D01*
X1648500Y0503540D01*
Y0506000D01*
D02*
G37*
G36*
X1625500Y0529026D02*
X1624717Y0528923D01*
X1623987Y0528620D01*
X1623360Y0528140D01*
X1622879Y0527513D01*
X1622577Y0526783D01*
X1622474Y0526000D01*
X1622577Y0525217D01*
X1622879Y0524487D01*
X1623360Y0523860D01*
X1623987Y0523380D01*
X1624717Y0523077D01*
X1625500Y0522974D01*
X1626283Y0523077D01*
X1627013Y0523380D01*
X1627640Y0523860D01*
X1628120Y0524487D01*
X1628423Y0525217D01*
X1628526Y0526000D01*
X1628423Y0526783D01*
X1628120Y0527513D01*
X1627640Y0528140D01*
X1627013Y0528620D01*
X1626283Y0528923D01*
X1625500Y0529026D01*
D02*
G37*
G36*
X1645500Y0530026D02*
X1644717Y0529923D01*
X1643987Y0529621D01*
X1643360Y0529140D01*
X1642879Y0528513D01*
X1642577Y0527783D01*
X1642474Y0527000D01*
X1642577Y0526217D01*
X1642879Y0525487D01*
X1643360Y0524860D01*
X1643987Y0524379D01*
X1644717Y0524077D01*
X1645500Y0523974D01*
X1646283Y0524077D01*
X1647013Y0524379D01*
X1647640Y0524860D01*
X1648120Y0525487D01*
X1648423Y0526217D01*
X1648526Y0527000D01*
X1648423Y0527783D01*
X1648120Y0528513D01*
X1647640Y0529140D01*
X1647013Y0529621D01*
X1646283Y0529923D01*
X1645500Y0530026D01*
D02*
G37*
G36*
X1641000Y0543026D02*
X1640217Y0542923D01*
X1639487Y0542621D01*
X1638860Y0542140D01*
X1638379Y0541513D01*
X1638077Y0540783D01*
X1637974Y0540000D01*
X1638077Y0539217D01*
X1638379Y0538487D01*
X1638860Y0537860D01*
X1639487Y0537380D01*
X1640217Y0537077D01*
X1641000Y0536974D01*
X1641021Y0536977D01*
X1641256Y0536504D01*
X1640879Y0536013D01*
X1640577Y0535283D01*
X1640474Y0534500D01*
X1640577Y0533717D01*
X1640879Y0532987D01*
X1641360Y0532360D01*
X1641987Y0531880D01*
X1642717Y0531577D01*
X1643500Y0531474D01*
X1644283Y0531577D01*
X1645013Y0531880D01*
X1645640Y0532360D01*
X1646120Y0532987D01*
X1646423Y0533717D01*
X1646526Y0534500D01*
X1646423Y0535283D01*
X1646120Y0536013D01*
X1645640Y0536640D01*
X1645013Y0537120D01*
X1644283Y0537423D01*
X1643500Y0537526D01*
X1643480Y0537523D01*
X1643244Y0537996D01*
X1643620Y0538487D01*
X1643923Y0539217D01*
X1644026Y0540000D01*
X1643923Y0540783D01*
X1643620Y0541513D01*
X1643140Y0542140D01*
X1642513Y0542621D01*
X1641783Y0542923D01*
X1641000Y0543026D01*
D02*
G37*
G36*
X1627500Y0520960D02*
Y0518500D01*
X1629960D01*
X1629923Y0518783D01*
X1629621Y0519513D01*
X1629140Y0520140D01*
X1628513Y0520620D01*
X1627783Y0520923D01*
X1627500Y0520960D01*
D02*
G37*
G36*
X1626500Y0517500D02*
X1624040D01*
X1624077Y0517217D01*
X1624380Y0516487D01*
X1624860Y0515860D01*
X1625487Y0515379D01*
X1626217Y0515077D01*
X1626500Y0515040D01*
Y0517500D01*
D02*
G37*
G36*
X1629960D02*
X1627500D01*
Y0515040D01*
X1627783Y0515077D01*
X1628513Y0515379D01*
X1629140Y0515860D01*
X1629621Y0516487D01*
X1629923Y0517217D01*
X1629960Y0517500D01*
D02*
G37*
G36*
X1626500Y0520960D02*
X1626217Y0520923D01*
X1625487Y0520620D01*
X1624860Y0520140D01*
X1624380Y0519513D01*
X1624077Y0518783D01*
X1624040Y0518500D01*
X1626500D01*
Y0520960D01*
D02*
G37*
G36*
X1674300Y0534500D02*
X1671840D01*
X1671877Y0534217D01*
X1672179Y0533487D01*
X1672660Y0532860D01*
X1673287Y0532379D01*
X1674017Y0532077D01*
X1674300Y0532040D01*
Y0534500D01*
D02*
G37*
G36*
X1675300Y0537960D02*
Y0535500D01*
X1677760D01*
X1677723Y0535783D01*
X1677420Y0536513D01*
X1676940Y0537140D01*
X1676313Y0537620D01*
X1675583Y0537923D01*
X1675300Y0537960D01*
D02*
G37*
G36*
X1633300Y0539560D02*
X1633017Y0539523D01*
X1632287Y0539221D01*
X1631660Y0538740D01*
X1631179Y0538113D01*
X1630877Y0537383D01*
X1630840Y0537100D01*
X1633300D01*
Y0539560D01*
D02*
G37*
G36*
X1634300D02*
Y0537100D01*
X1636760D01*
X1636723Y0537383D01*
X1636420Y0538113D01*
X1635940Y0538740D01*
X1635313Y0539221D01*
X1634583Y0539523D01*
X1634300Y0539560D01*
D02*
G37*
G36*
X1674300Y0537960D02*
X1674017Y0537923D01*
X1673287Y0537620D01*
X1672660Y0537140D01*
X1672179Y0536513D01*
X1671877Y0535783D01*
X1671840Y0535500D01*
X1674300D01*
Y0537960D01*
D02*
G37*
G36*
X1677760Y0534500D02*
X1675300D01*
Y0532040D01*
X1675583Y0532077D01*
X1676313Y0532379D01*
X1676940Y0532860D01*
X1677420Y0533487D01*
X1677723Y0534217D01*
X1677760Y0534500D01*
D02*
G37*
G36*
X1633300Y0536100D02*
X1630840D01*
X1630877Y0535817D01*
X1631179Y0535087D01*
X1631660Y0534460D01*
X1632287Y0533980D01*
X1633017Y0533677D01*
X1633300Y0533640D01*
Y0536100D01*
D02*
G37*
G36*
X1636760D02*
X1634300D01*
Y0533640D01*
X1634583Y0533677D01*
X1635313Y0533980D01*
X1635940Y0534460D01*
X1636420Y0535087D01*
X1636723Y0535817D01*
X1636760Y0536100D01*
D02*
G37*
G36*
X1649500Y0509460D02*
Y0507000D01*
X1651960D01*
X1651923Y0507283D01*
X1651620Y0508013D01*
X1651140Y0508640D01*
X1650513Y0509121D01*
X1649783Y0509423D01*
X1649500Y0509460D01*
D02*
G37*
G36*
X1648500D02*
X1648217Y0509423D01*
X1647487Y0509121D01*
X1646860Y0508640D01*
X1646379Y0508013D01*
X1646077Y0507283D01*
X1646040Y0507000D01*
X1648500D01*
Y0509460D01*
D02*
G37*
G36*
X1651960Y0506000D02*
X1649500D01*
Y0503540D01*
X1649783Y0503577D01*
X1650513Y0503879D01*
X1651140Y0504360D01*
X1651620Y0504987D01*
X1651923Y0505717D01*
X1651960Y0506000D01*
D02*
G37*
G36*
X1615500Y0518526D02*
X1614717Y0518423D01*
X1613987Y0518120D01*
X1613360Y0517640D01*
X1612880Y0517013D01*
X1612577Y0516283D01*
X1612474Y0515500D01*
X1612577Y0514717D01*
X1612880Y0513987D01*
X1613360Y0513360D01*
X1613987Y0512880D01*
X1614717Y0512577D01*
X1615500Y0512474D01*
X1616283Y0512577D01*
X1617013Y0512880D01*
X1617640Y0513360D01*
X1618121Y0513987D01*
X1618423Y0514717D01*
X1618526Y0515500D01*
X1618423Y0516283D01*
X1618121Y0517013D01*
X1617640Y0517640D01*
X1617013Y0518120D01*
X1616283Y0518423D01*
X1615500Y0518526D01*
D02*
G37*
G36*
X1684500Y0515500D02*
X1682040D01*
X1682077Y0515217D01*
X1682380Y0514487D01*
X1682860Y0513860D01*
X1683487Y0513379D01*
X1684217Y0513077D01*
X1684500Y0513040D01*
Y0515500D01*
D02*
G37*
G36*
X1687960D02*
X1685500D01*
Y0513040D01*
X1685783Y0513077D01*
X1686513Y0513379D01*
X1687140Y0513860D01*
X1687621Y0514487D01*
X1687923Y0515217D01*
X1687960Y0515500D01*
D02*
G37*
G36*
X1607500Y0516414D02*
Y0512000D01*
X1611914D01*
X1611810Y0512789D01*
X1611312Y0513990D01*
X1610521Y0515021D01*
X1609490Y0515812D01*
X1608289Y0516310D01*
X1607500Y0516414D01*
D02*
G37*
G36*
X1606500D02*
X1605711Y0516310D01*
X1604510Y0515812D01*
X1603479Y0515021D01*
X1602687Y0513990D01*
X1602190Y0512789D01*
X1602086Y0512000D01*
X1606500D01*
Y0516414D01*
D02*
G37*
G36*
X1614000Y0460026D02*
X1613217Y0459923D01*
X1612487Y0459621D01*
X1611860Y0459140D01*
X1611379Y0458513D01*
X1611077Y0457783D01*
X1610974Y0457000D01*
X1611077Y0456217D01*
X1611379Y0455487D01*
X1611860Y0454860D01*
X1612487Y0454380D01*
X1613217Y0454077D01*
X1614000Y0453974D01*
X1614783Y0454077D01*
X1615513Y0454380D01*
X1616140Y0454860D01*
X1616620Y0455487D01*
X1616923Y0456217D01*
X1617026Y0457000D01*
X1616923Y0457783D01*
X1616620Y0458513D01*
X1616140Y0459140D01*
X1615513Y0459621D01*
X1614783Y0459923D01*
X1614000Y0460026D01*
D02*
G37*
%LPD*%
G54D37*
X1638700Y0364000D02*
X1639500Y0364800D01*
X1685400Y0450900D02*
Y0451000D01*
G54D40*
X1744300Y0383000D02*
X1746200Y0384900D01*
X1741000Y0383000D02*
X1744300D01*
G54D41*
X1844094Y0452756D02*
G03*
X1732284Y0564567I-0135433J-0023622D01*
G01*
X1685039D02*
G03*
X1572912Y0452811I0023228J-0135433D01*
G01*
X1573228Y0405512D02*
G03*
X1685039Y0293701I0135433J0023622D01*
G01*
X1732284D02*
G03*
X1844094Y0405512I-0023622J0135433D01*
G01*
X1732284Y0519685D02*
Y0564567D01*
X1685039Y0519685D02*
X1732284D01*
X1685039D02*
Y0564567D01*
Y0293701D02*
Y0338583D01*
X1732284D01*
Y0293701D02*
Y0338583D01*
X1799213Y0405512D02*
X1844094D01*
X1799213D02*
Y0452756D01*
X1844094D01*
X1573228Y0452756D02*
X1618110D01*
Y0405512D02*
Y0452756D01*
X1573228Y0405512D02*
X1618110D01*
G54D50*
X1589567Y0394685D02*
D03*
G54D52*
X1607000Y0511500D02*
D03*
X1708555Y0346000D02*
D03*
X1716987Y0514000D02*
D03*
X1792500Y0431500D02*
D03*
X1625015Y0437638D02*
D03*
X1741142Y0333976D02*
D03*
G54D54*
X1783283Y0448638D02*
D03*
G54D57*
X1763849Y0392787D02*
D03*
X1743082Y0372019D02*
D03*
X1630500Y0344500D02*
D03*
X1616000Y0338000D02*
D03*
G54D59*
X1730000Y0485000D02*
D03*
X1650000Y0468500D02*
D03*
X1698000Y0445100D02*
D03*
X1693500Y0488500D02*
D03*
X1771100Y0318900D02*
D03*
X1776100Y0339200D02*
D03*
X1801181Y0398981D02*
D03*
X1786300Y0380400D02*
D03*
X1633800Y0536600D02*
D03*
X1674800Y0535000D02*
D03*
X1613900Y0473100D02*
D03*
X1605000Y0347800D02*
D03*
X1622500Y0379300D02*
D03*
X1638700Y0364000D02*
D03*
X1615000Y0366500D02*
D03*
X1731200Y0474100D02*
D03*
X1761300Y0437300D02*
D03*
X1773500Y0446500D02*
D03*
X1667500Y0450000D02*
D03*
X1685400Y0451000D02*
D03*
X1645400Y0389000D02*
D03*
X1762600Y0415200D02*
D03*
X1735600Y0394100D02*
D03*
X1689000Y0375500D02*
D03*
X1659500Y0405500D02*
D03*
X1693000Y0415500D02*
D03*
X1694000Y0421000D02*
D03*
X1630000Y0445500D02*
D03*
X1649000Y0506500D02*
D03*
X1627000Y0518000D02*
D03*
X1685000Y0460000D02*
D03*
X1755500Y0508500D02*
D03*
X1685000Y0516000D02*
D03*
X1666500Y0432000D02*
D03*
X1658500Y0447000D02*
D03*
X1634626Y0389874D02*
D03*
X1760500Y0349000D02*
D03*
X1808500Y0374500D02*
D03*
X1793500Y0336000D02*
D03*
X1816500Y0353000D02*
D03*
X1810500Y0362000D02*
D03*
X1755500Y0353000D02*
D03*
X1749000Y0353500D02*
D03*
X1823000Y0364500D02*
D03*
X1794500Y0359500D02*
D03*
X1678000Y0480500D02*
D03*
X1712500Y0432500D02*
D03*
G54D60*
X1741000Y0383000D02*
D03*
M02*
