G04 Layer_Color=16711935*
%FSAX25Y25*%
%MOIN*%
G70*
G01*
G75*
%ADD41C,0.01000*%
%ADD80P,0.05374X4X180.0*%
%ADD82P,0.05374X4X90.0*%
G04:AMPARAMS|DCode=84|XSize=48mil|YSize=58mil|CornerRadius=0mil|HoleSize=0mil|Usage=FLASHONLY|Rotation=45.000|XOffset=0mil|YOffset=0mil|HoleType=Round|Shape=Rectangle|*
%AMROTATEDRECTD84*
4,1,4,0.00353,-0.03748,-0.03748,0.00353,-0.00353,0.03748,0.03748,-0.00353,0.00353,-0.03748,0.0*
%
%ADD84ROTATEDRECTD84*%

%ADD88R,0.03800X0.03800*%
G04:AMPARAMS|DCode=89|XSize=43.43mil|YSize=55.24mil|CornerRadius=0mil|HoleSize=0mil|Usage=FLASHONLY|Rotation=135.000|XOffset=0mil|YOffset=0mil|HoleType=Round|Shape=Rectangle|*
%AMROTATEDRECTD89*
4,1,4,0.03489,0.00418,-0.00418,-0.03489,-0.03489,-0.00418,0.00418,0.03489,0.03489,0.00418,0.0*
%
%ADD89ROTATEDRECTD89*%

G04:AMPARAMS|DCode=90|XSize=55.24mil|YSize=43.43mil|CornerRadius=0mil|HoleSize=0mil|Usage=FLASHONLY|Rotation=225.000|XOffset=0mil|YOffset=0mil|HoleType=Round|Shape=Rectangle|*
%AMROTATEDRECTD90*
4,1,4,0.00418,0.03489,0.03489,0.00418,-0.00418,-0.03489,-0.03489,-0.00418,0.00418,0.03489,0.0*
%
%ADD90ROTATEDRECTD90*%

%ADD91R,0.03800X0.03800*%
%ADD93R,0.05800X0.04800*%
%ADD106C,0.10800*%
%ADD107R,0.10800X0.10800*%
%ADD108C,0.08674*%
%ADD109R,0.08674X0.08674*%
%ADD110P,0.12267X4X90.0*%
%ADD111R,0.10800X0.10800*%
%ADD112R,0.08674X0.08674*%
%ADD113C,0.07800*%
%ADD114P,0.11031X4X90.0*%
%ADD115C,0.04800*%
%ADD116C,0.03800*%
G04:AMPARAMS|DCode=117|XSize=33.59mil|YSize=72.96mil|CornerRadius=5.92mil|HoleSize=0mil|Usage=FLASHONLY|Rotation=135.000|XOffset=0mil|YOffset=0mil|HoleType=Round|Shape=RoundedRectangle|*
%AMROUNDEDRECTD117*
21,1,0.03359,0.06112,0,0,135.0*
21,1,0.02175,0.07296,0,0,135.0*
1,1,0.01184,0.01392,0.02930*
1,1,0.01184,0.02930,0.01392*
1,1,0.01184,-0.01392,-0.02930*
1,1,0.01184,-0.02930,-0.01392*
%
%ADD117ROUNDEDRECTD117*%
%ADD118R,0.15800X0.08800*%
G04:AMPARAMS|DCode=119|XSize=88mil|YSize=158mil|CornerRadius=0mil|HoleSize=0mil|Usage=FLASHONLY|Rotation=135.000|XOffset=0mil|YOffset=0mil|HoleType=Round|Shape=Rectangle|*
%AMROTATEDRECTD119*
4,1,4,0.08697,0.02475,-0.02475,-0.08697,-0.08697,-0.02475,0.02475,0.08697,0.08697,0.02475,0.0*
%
%ADD119ROTATEDRECTD119*%

%ADD120O,0.01981X0.06509*%
%ADD121O,0.06509X0.01981*%
G04:AMPARAMS|DCode=122|XSize=91mil|YSize=63mil|CornerRadius=0mil|HoleSize=0mil|Usage=FLASHONLY|Rotation=225.000|XOffset=0mil|YOffset=0mil|HoleType=Round|Shape=Rectangle|*
%AMROTATEDRECTD122*
4,1,4,0.00990,0.05445,0.05445,0.00990,-0.00990,-0.05445,-0.05445,-0.00990,0.00990,0.05445,0.0*
%
%ADD122ROTATEDRECTD122*%

%ADD123O,0.08280X0.03162*%
G54D41*
X1844094Y0452756D02*
G03*
X1732284Y0564567I-0135433J-0023622D01*
G01*
X1685039D02*
G03*
X1572912Y0452811I0023228J-0135433D01*
G01*
X1573228Y0405512D02*
G03*
X1685039Y0293701I0135433J0023622D01*
G01*
X1732284D02*
G03*
X1844094Y0405512I-0023622J0135433D01*
G01*
X1732284Y0519685D02*
Y0564567D01*
X1685039Y0519685D02*
X1732284D01*
X1685039D02*
Y0564567D01*
Y0293701D02*
Y0338583D01*
X1732284D01*
Y0293701D02*
Y0338583D01*
X1799213Y0405512D02*
X1844094D01*
X1799213D02*
Y0452756D01*
X1844094D01*
X1573228Y0452756D02*
X1618110D01*
Y0405512D02*
Y0452756D01*
X1573228Y0405512D02*
X1618110D01*
G54D80*
X1803611Y0371889D02*
D03*
X1807500Y0368000D02*
D03*
X1779858Y0342429D02*
D03*
X1783747Y0338540D02*
D03*
X1775615Y0346672D02*
D03*
X1771726Y0350561D02*
D03*
X1723500Y0481500D02*
D03*
X1727389Y0477611D02*
D03*
X1756111Y0520389D02*
D03*
X1760000Y0516500D02*
D03*
X1740500Y0502000D02*
D03*
X1744389Y0498111D02*
D03*
G54D82*
X1760827Y0400591D02*
D03*
X1756938Y0396702D02*
D03*
X1776527Y0392669D02*
D03*
X1772638Y0388779D02*
D03*
X1767716Y0384842D02*
D03*
X1763827Y0380953D02*
D03*
X1788889Y0369889D02*
D03*
X1785000Y0366000D02*
D03*
X1777111Y0358611D02*
D03*
X1781000Y0362500D02*
D03*
X1768500Y0471000D02*
D03*
X1772389Y0474889D02*
D03*
X1752889Y0515389D02*
D03*
X1749000Y0511500D02*
D03*
G54D84*
X1768501Y0374800D02*
D03*
X1773027Y0379326D02*
D03*
X1778543Y0384842D02*
D03*
X1783069Y0389368D02*
D03*
G54D88*
X1784000Y0427500D02*
D03*
Y0422000D02*
D03*
X1751000Y0425500D02*
D03*
Y0420000D02*
D03*
X1748500Y0365500D02*
D03*
Y0360000D02*
D03*
X1623000Y0447000D02*
D03*
Y0452500D02*
D03*
X1597500Y0491500D02*
D03*
Y0497000D02*
D03*
X1615500Y0509000D02*
D03*
Y0503500D02*
D03*
X1637000Y0532000D02*
D03*
Y0526500D02*
D03*
X1631500D02*
D03*
Y0532000D02*
D03*
X1699500Y0515000D02*
D03*
X1699500Y0509500D02*
D03*
X1693500D02*
D03*
Y0515000D02*
D03*
G54D89*
X1725000Y0467000D02*
D03*
X1743000Y0449000D02*
D03*
G54D90*
X1715525Y0476475D02*
D03*
X1733525Y0458475D02*
D03*
G54D91*
X1714500Y0506500D02*
D03*
X1709000D02*
D03*
X1709500Y0501000D02*
D03*
X1715000D02*
D03*
X1709500Y0495000D02*
D03*
X1715000D02*
D03*
X1704055Y0354000D02*
D03*
X1698555Y0354000D02*
D03*
G54D93*
X1757500Y0419150D02*
D03*
Y0425550D02*
D03*
X1756500Y0360150D02*
D03*
Y0366550D02*
D03*
G54D106*
X1589567Y0394685D02*
D03*
X1605167D02*
D03*
X1675197Y0337450D02*
D03*
Y0321850D02*
D03*
G54D107*
X1620767Y0394685D02*
D03*
G54D108*
X1607000Y0511500D02*
D03*
Y0501500D02*
D03*
Y0491500D02*
D03*
X1790354Y0455709D02*
D03*
X1797425Y0462780D02*
D03*
X1804497Y0469851D02*
D03*
X1811567Y0476922D02*
D03*
X1818639Y0483993D02*
D03*
X1708555Y0346000D02*
D03*
X1716987Y0514000D02*
D03*
X1792500Y0431500D02*
D03*
X1625015Y0437638D02*
D03*
X1741142Y0313976D02*
D03*
Y0323976D02*
D03*
Y0333976D02*
D03*
G54D109*
X1607000Y0481500D02*
D03*
X1792500Y0421500D02*
D03*
X1625015Y0427638D02*
D03*
X1741142Y0303976D02*
D03*
G54D110*
X1783283Y0448638D02*
D03*
G54D111*
X1675197Y0306250D02*
D03*
G54D112*
X1698555Y0346000D02*
D03*
X1706987Y0514000D02*
D03*
G54D113*
X1770809Y0399746D02*
D03*
X1763849Y0392787D02*
D03*
X1756890Y0385827D02*
D03*
X1743082Y0372019D02*
D03*
X1630500Y0344500D02*
D03*
X1616000Y0338000D02*
D03*
G54D114*
X1736011Y0364948D02*
D03*
G54D115*
X1730000Y0485000D02*
D03*
X1650000Y0468500D02*
D03*
X1643500Y0464500D02*
D03*
X1690200Y0444700D02*
D03*
X1698000Y0445100D02*
D03*
X1814961Y0385827D02*
D03*
X1693500Y0488500D02*
D03*
X1707500Y0479500D02*
D03*
X1771100Y0318900D02*
D03*
X1776100Y0339200D02*
D03*
X1783275Y0357725D02*
D03*
X1801181Y0398981D02*
D03*
X1786300Y0380400D02*
D03*
X1633800Y0536600D02*
D03*
X1674800Y0535000D02*
D03*
X1613900Y0473100D02*
D03*
X1605000Y0347800D02*
D03*
X1622500Y0379300D02*
D03*
X1638700Y0364000D02*
D03*
X1615000Y0366500D02*
D03*
X1731200Y0474100D02*
D03*
X1761300Y0437300D02*
D03*
X1773500Y0446500D02*
D03*
X1667500Y0450000D02*
D03*
X1685400Y0451000D02*
D03*
X1645400Y0389000D02*
D03*
X1762600Y0415200D02*
D03*
X1735600Y0394100D02*
D03*
X1638629Y0466871D02*
D03*
X1631000Y0470000D02*
D03*
X1630500Y0479454D02*
D03*
X1633000Y0464000D02*
D03*
X1689000Y0375500D02*
D03*
X1734000Y0374500D02*
D03*
X1708000Y0366500D02*
D03*
X1659500Y0405500D02*
D03*
X1663985Y0409985D02*
D03*
X1747000Y0405000D02*
D03*
X1693000Y0415500D02*
D03*
X1712000D02*
D03*
X1705500Y0412000D02*
D03*
X1694000Y0421000D02*
D03*
X1694500Y0427000D02*
D03*
X1711000Y0409000D02*
D03*
X1751500Y0413000D02*
D03*
X1692000Y0396500D02*
D03*
X1729000Y0493500D02*
D03*
X1734500D02*
D03*
X1696000Y0504000D02*
D03*
X1703500Y0502000D02*
D03*
X1697500Y0452960D02*
D03*
X1630000Y0445500D02*
D03*
X1649000Y0506500D02*
D03*
X1627000Y0518000D02*
D03*
X1685000Y0460000D02*
D03*
X1676500Y0465000D02*
D03*
X1776000Y0479000D02*
D03*
X1723000Y0487500D02*
D03*
X1758500Y0525500D02*
D03*
X1749000Y0503500D02*
D03*
X1743500Y0510346D02*
D03*
X1755500Y0508500D02*
D03*
X1754000Y0461500D02*
D03*
X1642000Y0434000D02*
D03*
X1670000Y0415000D02*
D03*
X1708500Y0385500D02*
D03*
X1712500Y0420500D02*
D03*
X1699000Y0397500D02*
D03*
X1713000Y0425500D02*
D03*
X1665000Y0496500D02*
D03*
X1654500Y0465500D02*
D03*
X1685000Y0516000D02*
D03*
X1645500Y0527000D02*
D03*
X1643500Y0534500D02*
D03*
X1641000Y0540000D02*
D03*
X1615500Y0515500D02*
D03*
X1625500Y0526000D02*
D03*
X1614000Y0457000D02*
D03*
X1631500Y0489500D02*
D03*
X1617000Y0488500D02*
D03*
X1635500Y0473500D02*
D03*
Y0479000D02*
D03*
X1666500Y0432000D02*
D03*
X1658500Y0447000D02*
D03*
X1656000Y0435500D02*
D03*
X1653500Y0441000D02*
D03*
X1653000Y0447500D02*
D03*
X1657500Y0425500D02*
D03*
X1634626Y0389874D02*
D03*
X1663500Y0363500D02*
D03*
X1660500Y0339000D02*
D03*
X1664000Y0328000D02*
D03*
X1776500Y0366500D02*
D03*
X1760500Y0349000D02*
D03*
X1808500Y0374500D02*
D03*
X1793500Y0336000D02*
D03*
X1816500Y0353000D02*
D03*
X1810500Y0362000D02*
D03*
X1755500Y0353000D02*
D03*
X1749000Y0353500D02*
D03*
X1823000Y0364500D02*
D03*
X1794500Y0359500D02*
D03*
X1757000Y0331000D02*
D03*
X1678000Y0480500D02*
D03*
X1635000Y0484500D02*
D03*
X1746500Y0412000D02*
D03*
X1777000Y0407500D02*
D03*
X1715500Y0442500D02*
D03*
X1675000Y0491000D02*
D03*
X1696000Y0470000D02*
D03*
X1672000Y0486000D02*
D03*
X1693500Y0463000D02*
D03*
X1782000Y0410500D02*
D03*
X1712500Y0432500D02*
D03*
X1674000Y0445000D02*
D03*
X1681500Y0446000D02*
D03*
X1711500Y0451000D02*
D03*
X1764500Y0407000D02*
D03*
X1707000Y0460000D02*
D03*
X1679500Y0355500D02*
D03*
G54D116*
X1741000Y0383000D02*
D03*
G54D117*
X1796773Y0366382D02*
D03*
X1800308Y0362846D02*
D03*
X1803844Y0359310D02*
D03*
X1807379Y0355775D02*
D03*
X1781044Y0350653D02*
D03*
X1784579Y0347117D02*
D03*
X1788115Y0343582D02*
D03*
X1791650Y0340046D02*
D03*
G54D118*
X1760500Y0314094D02*
D03*
Y0341000D02*
D03*
G54D119*
X1616802Y0352687D02*
D03*
X1635827Y0333661D02*
D03*
X1636811Y0372047D02*
D03*
X1655836Y0353022D02*
D03*
G54D120*
X1630771Y0456880D02*
D03*
X1632740D02*
D03*
X1634708D02*
D03*
X1636677D02*
D03*
X1638645D02*
D03*
X1640614D02*
D03*
X1642582Y0456880D02*
D03*
X1644551Y0456880D02*
D03*
X1646519D02*
D03*
X1648488D02*
D03*
X1650456D02*
D03*
X1652425D02*
D03*
X1654393Y0456880D02*
D03*
X1656362D02*
D03*
X1658330D02*
D03*
X1660299Y0456880D02*
D03*
X1662267D02*
D03*
X1664236D02*
D03*
X1666204D02*
D03*
X1668173D02*
D03*
X1670141D02*
D03*
X1672110D02*
D03*
X1674078D02*
D03*
X1676047D02*
D03*
X1678015D02*
D03*
Y0517706D02*
D03*
X1676047D02*
D03*
X1674078D02*
D03*
X1672110Y0517706D02*
D03*
X1670141D02*
D03*
X1668173D02*
D03*
X1666204Y0517706D02*
D03*
X1664236D02*
D03*
X1662267D02*
D03*
X1660299D02*
D03*
X1658330Y0517706D02*
D03*
X1656362D02*
D03*
X1654393D02*
D03*
X1652425Y0517706D02*
D03*
X1650456D02*
D03*
X1648488D02*
D03*
X1646519D02*
D03*
X1644551D02*
D03*
X1642582Y0517706D02*
D03*
X1640614D02*
D03*
X1638645Y0517706D02*
D03*
X1636677D02*
D03*
X1634708D02*
D03*
X1632740Y0517706D02*
D03*
X1630771D02*
D03*
G54D121*
X1684807Y0463671D02*
D03*
Y0465639D02*
D03*
Y0467608D02*
D03*
Y0469576D02*
D03*
Y0471545D02*
D03*
Y0473513D02*
D03*
Y0475482D02*
D03*
Y0477450D02*
D03*
Y0479419D02*
D03*
Y0481387D02*
D03*
Y0483356D02*
D03*
Y0485324D02*
D03*
Y0487293D02*
D03*
Y0489261D02*
D03*
Y0491230D02*
D03*
Y0493198D02*
D03*
Y0495167D02*
D03*
Y0497135D02*
D03*
Y0499104D02*
D03*
Y0501072D02*
D03*
Y0503041D02*
D03*
Y0505009D02*
D03*
Y0506978D02*
D03*
Y0508946D02*
D03*
Y0510915D02*
D03*
X1623980D02*
D03*
Y0508946D02*
D03*
Y0506978D02*
D03*
Y0505009D02*
D03*
Y0503041D02*
D03*
Y0501072D02*
D03*
Y0499104D02*
D03*
Y0497135D02*
D03*
Y0495167D02*
D03*
Y0493198D02*
D03*
Y0491230D02*
D03*
Y0489261D02*
D03*
Y0487293D02*
D03*
Y0485324D02*
D03*
Y0483356D02*
D03*
Y0481387D02*
D03*
Y0479419D02*
D03*
Y0477450D02*
D03*
Y0475482D02*
D03*
Y0473513D02*
D03*
Y0471545D02*
D03*
Y0469576D02*
D03*
Y0467608D02*
D03*
Y0465639D02*
D03*
Y0463671D02*
D03*
G54D122*
X1738070Y0481597D02*
D03*
X1763403Y0506930D02*
D03*
X1750597Y0469070D02*
D03*
X1775930Y0494403D02*
D03*
G54D123*
X1738504Y0435500D02*
D03*
X1738504Y0430500D02*
D03*
X1738504Y0425500D02*
D03*
Y0420500D02*
D03*
Y0415500D02*
D03*
Y0410500D02*
D03*
X1738504Y0405500D02*
D03*
X1738504Y0400500D02*
D03*
X1720000Y0435500D02*
D03*
X1720000Y0430500D02*
D03*
X1720000Y0425500D02*
D03*
Y0420500D02*
D03*
Y0415500D02*
D03*
Y0410500D02*
D03*
X1720000Y0405500D02*
D03*
X1720000Y0400500D02*
D03*
M02*
