G04 Layer_Color=128*
%FSAX25Y25*%
%MOIN*%
G70*
G01*
G75*
%ADD10P,0.04243X4X180.0*%
%ADD12P,0.04243X4X90.0*%
G04:AMPARAMS|DCode=14|XSize=40mil|YSize=50mil|CornerRadius=0mil|HoleSize=0mil|Usage=FLASHONLY|Rotation=45.000|XOffset=0mil|YOffset=0mil|HoleType=Round|Shape=Rectangle|*
%AMROTATEDRECTD14*
4,1,4,0.00353,-0.03182,-0.03182,0.00353,-0.00353,0.03182,0.03182,-0.00353,0.00353,-0.03182,0.0*
%
%ADD14ROTATEDRECTD14*%

%ADD18R,0.03000X0.03000*%
G04:AMPARAMS|DCode=19|XSize=35.43mil|YSize=47.24mil|CornerRadius=0mil|HoleSize=0mil|Usage=FLASHONLY|Rotation=135.000|XOffset=0mil|YOffset=0mil|HoleType=Round|Shape=Rectangle|*
%AMROTATEDRECTD19*
4,1,4,0.02923,0.00418,-0.00418,-0.02923,-0.02923,-0.00418,0.00418,0.02923,0.02923,0.00418,0.0*
%
%ADD19ROTATEDRECTD19*%

G04:AMPARAMS|DCode=20|XSize=47.24mil|YSize=35.43mil|CornerRadius=0mil|HoleSize=0mil|Usage=FLASHONLY|Rotation=225.000|XOffset=0mil|YOffset=0mil|HoleType=Round|Shape=Rectangle|*
%AMROTATEDRECTD20*
4,1,4,0.00418,0.02923,0.02923,0.00418,-0.00418,-0.02923,-0.02923,-0.00418,0.00418,0.02923,0.0*
%
%ADD20ROTATEDRECTD20*%

%ADD21R,0.03000X0.03000*%
%ADD24R,0.05000X0.04000*%
%ADD41C,0.01000*%
G04:AMPARAMS|DCode=61|XSize=25.59mil|YSize=64.96mil|CornerRadius=1.92mil|HoleSize=0mil|Usage=FLASHONLY|Rotation=135.000|XOffset=0mil|YOffset=0mil|HoleType=Round|Shape=RoundedRectangle|*
%AMROUNDEDRECTD61*
21,1,0.02559,0.06112,0,0,135.0*
21,1,0.02175,0.06496,0,0,135.0*
1,1,0.00384,0.01392,0.02930*
1,1,0.00384,0.02930,0.01392*
1,1,0.00384,-0.01392,-0.02930*
1,1,0.00384,-0.02930,-0.01392*
%
%ADD61ROUNDEDRECTD61*%
%ADD62R,0.15000X0.08000*%
G04:AMPARAMS|DCode=63|XSize=80mil|YSize=150mil|CornerRadius=0mil|HoleSize=0mil|Usage=FLASHONLY|Rotation=135.000|XOffset=0mil|YOffset=0mil|HoleType=Round|Shape=Rectangle|*
%AMROTATEDRECTD63*
4,1,4,0.08132,0.02475,-0.02475,-0.08132,-0.08132,-0.02475,0.02475,0.08132,0.08132,0.02475,0.0*
%
%ADD63ROTATEDRECTD63*%

%ADD65O,0.01181X0.05709*%
%ADD66O,0.05709X0.01181*%
G04:AMPARAMS|DCode=67|XSize=83mil|YSize=55mil|CornerRadius=0mil|HoleSize=0mil|Usage=FLASHONLY|Rotation=225.000|XOffset=0mil|YOffset=0mil|HoleType=Round|Shape=Rectangle|*
%AMROTATEDRECTD67*
4,1,4,0.00990,0.04879,0.04879,0.00990,-0.00990,-0.04879,-0.04879,-0.00990,0.00990,0.04879,0.0*
%
%ADD67ROTATEDRECTD67*%

%ADD68O,0.07480X0.02362*%
G54D10*
X1803611Y0371889D02*
D03*
X1807500Y0368000D02*
D03*
X1779858Y0342429D02*
D03*
X1783747Y0338540D02*
D03*
X1775615Y0346672D02*
D03*
X1771726Y0350561D02*
D03*
X1723500Y0481500D02*
D03*
X1727389Y0477611D02*
D03*
X1756111Y0520389D02*
D03*
X1760000Y0516500D02*
D03*
X1740500Y0502000D02*
D03*
X1744389Y0498111D02*
D03*
G54D12*
X1760827Y0400591D02*
D03*
X1756938Y0396702D02*
D03*
X1776527Y0392669D02*
D03*
X1772638Y0388779D02*
D03*
X1767716Y0384842D02*
D03*
X1763827Y0380953D02*
D03*
X1788889Y0369889D02*
D03*
X1785000Y0366000D02*
D03*
X1777111Y0358611D02*
D03*
X1781000Y0362500D02*
D03*
X1768500Y0471000D02*
D03*
X1772389Y0474889D02*
D03*
X1752889Y0515389D02*
D03*
X1749000Y0511500D02*
D03*
G54D14*
X1768501Y0374800D02*
D03*
X1773027Y0379326D02*
D03*
X1778543Y0384842D02*
D03*
X1783069Y0389368D02*
D03*
G54D18*
X1784000Y0427500D02*
D03*
Y0422000D02*
D03*
X1751000Y0425500D02*
D03*
Y0420000D02*
D03*
X1748500Y0365500D02*
D03*
Y0360000D02*
D03*
X1623000Y0447000D02*
D03*
Y0452500D02*
D03*
X1597500Y0491500D02*
D03*
Y0497000D02*
D03*
X1615500Y0509000D02*
D03*
Y0503500D02*
D03*
X1637000Y0532000D02*
D03*
Y0526500D02*
D03*
X1631500D02*
D03*
Y0532000D02*
D03*
X1699500Y0515000D02*
D03*
X1699500Y0509500D02*
D03*
X1693500D02*
D03*
Y0515000D02*
D03*
G54D19*
X1725000Y0467000D02*
D03*
X1743000Y0449000D02*
D03*
G54D20*
X1715525Y0476475D02*
D03*
X1733525Y0458475D02*
D03*
G54D21*
X1714500Y0506500D02*
D03*
X1709000D02*
D03*
X1709500Y0501000D02*
D03*
X1715000D02*
D03*
X1709500Y0495000D02*
D03*
X1715000D02*
D03*
X1704055Y0354000D02*
D03*
X1698555Y0354000D02*
D03*
G54D24*
X1757500Y0419150D02*
D03*
Y0425550D02*
D03*
X1756500Y0360150D02*
D03*
Y0366550D02*
D03*
G54D41*
X1844094Y0452756D02*
G03*
X1732284Y0564567I-0135433J-0023622D01*
G01*
X1685039D02*
G03*
X1572912Y0452811I0023228J-0135433D01*
G01*
X1573228Y0405512D02*
G03*
X1685039Y0293701I0135433J0023622D01*
G01*
X1732284D02*
G03*
X1844094Y0405512I-0023622J0135433D01*
G01*
X1732284Y0519685D02*
Y0564567D01*
X1685039Y0519685D02*
X1732284D01*
X1685039D02*
Y0564567D01*
Y0293701D02*
Y0338583D01*
X1732284D01*
Y0293701D02*
Y0338583D01*
X1799213Y0405512D02*
X1844094D01*
X1799213D02*
Y0452756D01*
X1844094D01*
X1573228Y0452756D02*
X1618110D01*
Y0405512D02*
Y0452756D01*
X1573228Y0405512D02*
X1618110D01*
G54D61*
X1796773Y0366382D02*
D03*
X1800308Y0362846D02*
D03*
X1803844Y0359310D02*
D03*
X1807379Y0355775D02*
D03*
X1781044Y0350653D02*
D03*
X1784579Y0347117D02*
D03*
X1788115Y0343582D02*
D03*
X1791650Y0340046D02*
D03*
G54D62*
X1760500Y0314094D02*
D03*
Y0341000D02*
D03*
G54D63*
X1616802Y0352687D02*
D03*
X1635827Y0333661D02*
D03*
X1636811Y0372047D02*
D03*
X1655836Y0353022D02*
D03*
G54D65*
X1630771Y0456880D02*
D03*
X1632740D02*
D03*
X1634708D02*
D03*
X1636677D02*
D03*
X1638645D02*
D03*
X1640614D02*
D03*
X1642582Y0456880D02*
D03*
X1644551Y0456880D02*
D03*
X1646519D02*
D03*
X1648488D02*
D03*
X1650456D02*
D03*
X1652425D02*
D03*
X1654393Y0456880D02*
D03*
X1656362D02*
D03*
X1658330D02*
D03*
X1660299Y0456880D02*
D03*
X1662267D02*
D03*
X1664236D02*
D03*
X1666204D02*
D03*
X1668173D02*
D03*
X1670141D02*
D03*
X1672110D02*
D03*
X1674078D02*
D03*
X1676047D02*
D03*
X1678015D02*
D03*
Y0517706D02*
D03*
X1676047D02*
D03*
X1674078D02*
D03*
X1672110Y0517706D02*
D03*
X1670141D02*
D03*
X1668173D02*
D03*
X1666204Y0517706D02*
D03*
X1664236D02*
D03*
X1662267D02*
D03*
X1660299D02*
D03*
X1658330Y0517706D02*
D03*
X1656362D02*
D03*
X1654393D02*
D03*
X1652425Y0517706D02*
D03*
X1650456D02*
D03*
X1648488D02*
D03*
X1646519D02*
D03*
X1644551D02*
D03*
X1642582Y0517706D02*
D03*
X1640614D02*
D03*
X1638645Y0517706D02*
D03*
X1636677D02*
D03*
X1634708D02*
D03*
X1632740Y0517706D02*
D03*
X1630771D02*
D03*
G54D66*
X1684807Y0463671D02*
D03*
Y0465639D02*
D03*
Y0467608D02*
D03*
Y0469576D02*
D03*
Y0471545D02*
D03*
Y0473513D02*
D03*
Y0475482D02*
D03*
Y0477450D02*
D03*
Y0479419D02*
D03*
Y0481387D02*
D03*
Y0483356D02*
D03*
Y0485324D02*
D03*
Y0487293D02*
D03*
Y0489261D02*
D03*
Y0491230D02*
D03*
Y0493198D02*
D03*
Y0495167D02*
D03*
Y0497135D02*
D03*
Y0499104D02*
D03*
Y0501072D02*
D03*
Y0503041D02*
D03*
Y0505009D02*
D03*
Y0506978D02*
D03*
Y0508946D02*
D03*
Y0510915D02*
D03*
X1623980D02*
D03*
Y0508946D02*
D03*
Y0506978D02*
D03*
Y0505009D02*
D03*
Y0503041D02*
D03*
Y0501072D02*
D03*
Y0499104D02*
D03*
Y0497135D02*
D03*
Y0495167D02*
D03*
Y0493198D02*
D03*
Y0491230D02*
D03*
Y0489261D02*
D03*
Y0487293D02*
D03*
Y0485324D02*
D03*
Y0483356D02*
D03*
Y0481387D02*
D03*
Y0479419D02*
D03*
Y0477450D02*
D03*
Y0475482D02*
D03*
Y0473513D02*
D03*
Y0471545D02*
D03*
Y0469576D02*
D03*
Y0467608D02*
D03*
Y0465639D02*
D03*
Y0463671D02*
D03*
G54D67*
X1738070Y0481597D02*
D03*
X1763403Y0506930D02*
D03*
X1750597Y0469070D02*
D03*
X1775930Y0494403D02*
D03*
G54D68*
X1738504Y0435500D02*
D03*
X1738504Y0430500D02*
D03*
X1738504Y0425500D02*
D03*
Y0420500D02*
D03*
Y0415500D02*
D03*
Y0410500D02*
D03*
X1738504Y0405500D02*
D03*
X1738504Y0400500D02*
D03*
X1720000Y0435500D02*
D03*
X1720000Y0430500D02*
D03*
X1720000Y0425500D02*
D03*
Y0420500D02*
D03*
Y0415500D02*
D03*
Y0410500D02*
D03*
X1720000Y0405500D02*
D03*
X1720000Y0400500D02*
D03*
M02*
