G04 Layer_Color=65535*
%FSAX25Y25*%
%MOIN*%
G70*
G01*
G75*
%ADD41C,0.01000*%
%ADD49C,0.00400*%
%ADD71C,0.02362*%
%ADD72C,0.00984*%
%ADD73C,0.01181*%
%ADD74C,0.00500*%
%ADD75C,0.00394*%
%ADD76C,0.00787*%
%ADD77C,0.00700*%
%ADD78C,0.00600*%
G04:AMPARAMS|DCode=79|XSize=30mil|YSize=19.68mil|CornerRadius=0mil|HoleSize=0mil|Usage=FLASHONLY|Rotation=45.000|XOffset=0mil|YOffset=0mil|HoleType=Round|Shape=Rectangle|*
%AMROTATEDRECTD79*
4,1,4,-0.00365,-0.01757,-0.01757,-0.00365,0.00365,0.01757,0.01757,0.00365,-0.00365,-0.01757,0.0*
%
%ADD79ROTATEDRECTD79*%

G36*
X1758276Y0521210D02*
X1754740Y0517675D01*
X1752972Y0522978D01*
X1758276Y0521210D01*
D02*
G37*
G54D41*
X1774556Y0346907D02*
G03*
X1774556Y0346907I-0000500J0000000D01*
G01*
X1606499Y0474700D02*
X1612100Y0474700D01*
X1603500Y0474700D02*
X1606499D01*
X1705864Y0483405D02*
X1750872Y0438398D01*
X1772508Y0550050D02*
X1817516Y0505042D01*
X1750872Y0438398D02*
X1752688Y0440213D01*
X1796763Y0484288D02*
X1817516Y0505042D01*
X1705864Y0483405D02*
X1707679Y0485220D01*
X1751756Y0529297D02*
X1772508Y0550050D01*
X1741578Y0347688D02*
X1793080Y0399189D01*
X1725154Y0364112D02*
X1745197Y0344069D01*
X1751322Y0350193D01*
X1796699Y0395570D01*
X1780274Y0411995D02*
X1796699Y0395570D01*
X1776655Y0415614D02*
X1780274Y0411995D01*
X1725154Y0364112D02*
X1776655Y0415614D01*
X1777212Y0415058D02*
X1778326Y0413944D01*
X1725989Y0363277D02*
X1726545Y0362720D01*
X1751322Y0350193D02*
X1751879Y0350750D01*
X1730165Y0369124D02*
X1730721Y0369680D01*
X1844094Y0452756D02*
G03*
X1732284Y0564567I-0135433J-0023622D01*
G01*
X1685039D02*
G03*
X1572912Y0452811I0023228J-0135433D01*
G01*
X1573228Y0405512D02*
G03*
X1685039Y0293701I0135433J0023622D01*
G01*
X1732284D02*
G03*
X1844094Y0405512I-0023622J0135433D01*
G01*
X1732284Y0519685D02*
Y0564567D01*
X1685039Y0519685D02*
X1732284D01*
X1685039D02*
Y0564567D01*
Y0293701D02*
Y0338583D01*
X1732284D01*
Y0293701D02*
Y0338583D01*
X1799213Y0405512D02*
X1844094D01*
X1799213D02*
Y0452756D01*
X1844094D01*
X1573228Y0452756D02*
X1618110D01*
Y0405512D02*
Y0452756D01*
X1573228Y0405512D02*
X1618110D01*
G54D49*
X1604488Y0370198D02*
X1605988D01*
X1604388D02*
X1604588Y0370198D01*
X1605988Y0370198D02*
Y0371198D01*
Y0370198D02*
Y0382698D01*
X1592488Y0370198D02*
X1605988D01*
Y0371498D02*
Y0371598D01*
X1592488Y0370198D02*
X1592488Y0382698D01*
X1605988D01*
X1608300Y0369900D02*
X1613700D01*
X1608300D02*
Y0383300D01*
X1613700D01*
Y0369900D02*
Y0383300D01*
X1606552Y0352589D02*
X1611952D01*
X1606552D02*
Y0365989D01*
X1611952D01*
Y0352589D02*
Y0365989D01*
X1642929Y0369915D02*
X1656081Y0356762D01*
X1661738Y0362419D01*
X1648585Y0375571D02*
X1661738Y0362419D01*
X1642929Y0369915D02*
X1648585Y0375571D01*
X1627221Y0365384D02*
X1632621D01*
X1627221D02*
Y0378784D01*
X1632621D01*
Y0365384D02*
Y0378784D01*
X1629333Y0351508D02*
Y0353008D01*
X1629333Y0351608D02*
X1629333Y0351408D01*
X1628333Y0353008D02*
X1629333D01*
X1616833D02*
X1629333D01*
Y0339508D02*
Y0353008D01*
X1627933D02*
X1628033D01*
X1616833Y0339508D02*
X1629333Y0339508D01*
X1616833Y0339508D02*
Y0353008D01*
X1644097Y0351508D02*
Y0353008D01*
X1644097Y0351608D02*
X1644097Y0351408D01*
X1643097Y0353008D02*
X1644097D01*
X1631597D02*
X1644097D01*
Y0339508D02*
Y0353008D01*
X1642697D02*
X1642797D01*
X1631597Y0339508D02*
X1644097D01*
X1631597D02*
Y0353008D01*
X1637500Y0400300D02*
Y0418900D01*
Y0400300D02*
X1645500D01*
Y0418900D01*
X1637500D02*
X1645500D01*
X1627500Y0403500D02*
Y0422100D01*
X1619500D02*
X1627500D01*
X1619500Y0403500D02*
Y0422100D01*
Y0403500D02*
X1627500D01*
X1636500Y0403000D02*
Y0421600D01*
X1628500D02*
X1636500D01*
X1628500Y0403000D02*
Y0421600D01*
Y0403000D02*
X1636500D01*
X1645226Y0392800D02*
Y0398200D01*
X1631826Y0392800D02*
X1645226D01*
X1631826D02*
Y0398200D01*
X1645226Y0398200D01*
X1597147Y0505681D02*
X1596440Y0505681D01*
X1595733Y0504974D01*
Y0504267D01*
X1597147Y0502853D01*
X1597853D01*
X1598560Y0503560D01*
X1598560Y0504267D01*
X1597853Y0504974D01*
X1597147Y0504267D01*
X1599621Y0504621D02*
X1597500Y0506741D01*
X1601034Y0506034D01*
X1598914Y0508155D01*
X1599621Y0508862D02*
X1601741Y0506741D01*
X1602802Y0507802D01*
X1602802Y0508508D01*
X1601388Y0509922D01*
X1600681D01*
X1599621Y0508862D01*
X1777147Y0454681D02*
X1776440Y0454681D01*
X1775733Y0453974D01*
Y0453267D01*
X1777147Y0451853D01*
X1777853D01*
X1778560Y0452560D01*
X1778560Y0453267D01*
X1777853Y0453974D01*
X1777147Y0453267D01*
X1779621Y0453621D02*
X1777500Y0455741D01*
X1781034Y0455034D01*
X1778914Y0457155D01*
X1779621Y0457862D02*
X1781741Y0455741D01*
X1782802Y0456802D01*
X1782802Y0457509D01*
X1781388Y0458922D01*
X1780681D01*
X1779621Y0457862D01*
X1748999Y0335999D02*
X1748499Y0336499D01*
X1747500D01*
X1747000Y0335999D01*
Y0334000D01*
X1747500Y0333500D01*
X1748499D01*
X1748999Y0334000D01*
Y0334999D01*
X1748000D01*
X1749999Y0333500D02*
Y0336499D01*
X1751998Y0333500D01*
Y0336499D01*
X1752998D02*
Y0333500D01*
X1754498D01*
X1754997Y0334000D01*
Y0335999D01*
X1754498Y0336499D01*
X1752998D01*
X1749000Y0325499D02*
Y0322500D01*
X1750500D01*
X1750999Y0323000D01*
Y0323500D01*
X1750500Y0324000D01*
X1749000D01*
X1750500D01*
X1750999Y0324499D01*
Y0324999D01*
X1750500Y0325499D01*
X1749000D01*
Y0313500D02*
Y0315499D01*
X1750000Y0316499D01*
X1750999Y0315499D01*
Y0313500D01*
Y0315000D01*
X1749000D01*
X1747500Y0302500D02*
X1748500D01*
X1748000D01*
Y0305499D01*
X1747500Y0304999D01*
X1751999Y0302500D02*
X1749999D01*
X1751999Y0304499D01*
Y0304999D01*
X1751499Y0305499D01*
X1750499D01*
X1749999Y0304999D01*
X1752998Y0305499D02*
Y0303500D01*
X1753998Y0302500D01*
X1754998Y0303500D01*
Y0305499D01*
X1652000Y0332000D02*
Y0333999D01*
X1653000Y0334999D01*
X1653999Y0333999D01*
Y0332000D01*
Y0333500D01*
X1652000D01*
X1654999Y0332000D02*
Y0334999D01*
X1656998Y0332000D01*
Y0334999D01*
X1659997Y0334499D02*
X1659498Y0334999D01*
X1658498D01*
X1657998Y0334499D01*
Y0332500D01*
X1658498Y0332000D01*
X1659498D01*
X1659997Y0332500D01*
X1660997Y0334999D02*
Y0332000D01*
Y0333500D01*
X1662996D01*
Y0334999D01*
Y0332000D01*
X1665496Y0334999D02*
X1664496D01*
X1663996Y0334499D01*
Y0332500D01*
X1664496Y0332000D01*
X1665496D01*
X1665995Y0332500D01*
Y0334499D01*
X1665496Y0334999D01*
X1666995Y0332000D02*
Y0334999D01*
X1668495D01*
X1668995Y0334499D01*
Y0333500D01*
X1668495Y0333000D01*
X1666995D01*
X1667995D02*
X1668995Y0332000D01*
X1654999Y0322999D02*
X1654499Y0323499D01*
X1653500D01*
X1653000Y0322999D01*
Y0322499D01*
X1653500Y0322000D01*
X1654499D01*
X1654999Y0321500D01*
Y0321000D01*
X1654499Y0320500D01*
X1653500D01*
X1653000Y0321000D01*
X1655999Y0323499D02*
X1657998D01*
X1656999D01*
Y0320500D01*
X1660997Y0323499D02*
X1658998D01*
Y0320500D01*
X1660997D01*
X1658998Y0322000D02*
X1659998D01*
X1661997Y0320500D02*
Y0322499D01*
X1662997Y0323499D01*
X1663996Y0322499D01*
Y0320500D01*
Y0322000D01*
X1661997D01*
X1664996Y0320500D02*
Y0323499D01*
X1665996Y0322499D01*
X1666995Y0323499D01*
Y0320500D01*
X1659000Y0308000D02*
Y0310999D01*
X1660500D01*
X1660999Y0310499D01*
Y0309500D01*
X1660500Y0309000D01*
X1659000D01*
X1661999Y0310999D02*
Y0308000D01*
X1662999Y0309000D01*
X1663998Y0308000D01*
Y0310999D01*
X1664998Y0308000D02*
Y0310999D01*
X1666498D01*
X1666997Y0310499D01*
Y0309500D01*
X1666498Y0309000D01*
X1664998D01*
X1665998D02*
X1666997Y0308000D01*
X1612000Y0400500D02*
Y0403499D01*
X1613499D01*
X1613999Y0402999D01*
Y0402000D01*
X1613499Y0401500D01*
X1612000D01*
X1614999Y0403499D02*
Y0400500D01*
X1615999Y0401500D01*
X1616998Y0400500D01*
Y0403499D01*
X1617998Y0400500D02*
Y0403499D01*
X1619498D01*
X1619997Y0402999D01*
Y0402000D01*
X1619498Y0401500D01*
X1617998D01*
X1618998D02*
X1619997Y0400500D01*
X1595500Y0401000D02*
Y0403999D01*
X1596500Y0402999D01*
X1597499Y0403999D01*
Y0401000D01*
X1598499D02*
Y0402999D01*
X1599499Y0403999D01*
X1600498Y0402999D01*
Y0401000D01*
Y0402499D01*
X1598499D01*
X1603497Y0403499D02*
X1602998Y0403999D01*
X1601998D01*
X1601498Y0403499D01*
Y0402999D01*
X1601998Y0402499D01*
X1602998D01*
X1603497Y0402000D01*
Y0401500D01*
X1602998Y0401000D01*
X1601998D01*
X1601498Y0401500D01*
X1604497Y0403999D02*
X1606496D01*
X1605497D01*
Y0401000D01*
X1578499Y0402999D02*
X1577999Y0403499D01*
X1577000D01*
X1576500Y0402999D01*
Y0401000D01*
X1577000Y0400500D01*
X1577999D01*
X1578499Y0401000D01*
Y0402000D01*
X1577500D01*
X1579499Y0400500D02*
Y0403499D01*
X1581498Y0400500D01*
Y0403499D01*
X1582498D02*
Y0400500D01*
X1583998D01*
X1584497Y0401000D01*
Y0402999D01*
X1583998Y0403499D01*
X1582498D01*
G54D71*
X1672776Y0411138D02*
G03*
X1672776Y0411138I-0001181J0000000D01*
G01*
G54D72*
X1667146Y0402772D02*
G03*
X1667146Y0402772I-0000492J0000000D01*
G01*
G54D73*
X1751681Y0532410D02*
G03*
X1751681Y0532410I-0000591J0000000D01*
G01*
G54D74*
X1803882Y0395621D02*
X1811024Y0388480D01*
X1807134Y0398874D02*
X1814276Y0391732D01*
X1803882Y0395621D02*
X1807134Y0398874D01*
X1811024Y0388480D02*
X1814276Y0391732D01*
X1795772Y0390223D02*
X1800722Y0395173D01*
X1805671Y0380324D02*
X1810621Y0385274D01*
X1795772Y0390223D02*
X1805671Y0380324D01*
X1800722Y0395173D02*
X1810621Y0385274D01*
X1788691Y0384660D02*
X1793640Y0389609D01*
X1798590Y0374760D02*
X1803540Y0379710D01*
X1788691Y0384660D02*
X1798590Y0374760D01*
X1793640Y0389609D02*
X1803540Y0379710D01*
X1786747Y0376500D02*
X1793889Y0369358D01*
X1790000Y0379753D02*
X1797142Y0372611D01*
X1786747Y0376500D02*
X1790000Y0379753D01*
X1793889Y0369358D02*
X1797142Y0372611D01*
X1812692Y0375000D02*
X1815945Y0371747D01*
X1819834Y0382142D02*
X1823087Y0378889D01*
X1815945Y0371747D02*
X1823087Y0378889D01*
X1812692Y0375000D02*
X1819834Y0382142D01*
X1817747Y0370000D02*
X1821000Y0366747D01*
X1824889Y0377142D02*
X1828142Y0373889D01*
X1821000Y0366747D02*
X1828142Y0373889D01*
X1817747Y0370000D02*
X1824889Y0377142D01*
X1816969Y0369222D02*
X1820222Y0365969D01*
X1800436Y0359001D02*
X1800506Y0358931D01*
X1800506Y0360911D02*
X1800648Y0361052D01*
X1799516Y0359921D02*
X1800577Y0360981D01*
X1799516Y0359921D02*
X1800224Y0359213D01*
X1811537Y0371941D02*
X1820376Y0363103D01*
X1799516Y0359921D02*
X1811537Y0371941D01*
X1799516Y0359921D02*
X1808355Y0351082D01*
X1820376Y0363103D01*
X1797422Y0355500D02*
X1798000Y0362500D01*
X1795935Y0356987D02*
X1800884Y0352037D01*
X1786035Y0347087D02*
X1790985Y0342138D01*
X1786035Y0347087D02*
X1795935Y0356987D01*
X1790985Y0342138D02*
X1800884Y0352037D01*
X1781244Y0352410D02*
X1788386Y0359552D01*
X1784497Y0349157D02*
X1791639Y0356299D01*
X1788386Y0359552D02*
X1791639Y0356299D01*
X1781244Y0352410D02*
X1784497Y0349157D01*
X1778243Y0344488D02*
X1785385Y0337346D01*
X1781496Y0347741D02*
X1788638Y0340599D01*
X1778243Y0344488D02*
X1781496Y0347741D01*
X1785385Y0337346D02*
X1788638Y0340599D01*
X1805096Y0347046D02*
X1810046Y0342096D01*
X1795197Y0337146D02*
X1800146Y0332197D01*
X1795197Y0337146D02*
X1805096Y0347046D01*
X1800146Y0332197D02*
X1810046Y0342096D01*
X1790284Y0336000D02*
X1792500Y0339500D01*
X1792275Y0327504D02*
X1795528Y0330757D01*
X1785133Y0334646D02*
X1788386Y0337898D01*
X1795528Y0330757D01*
X1785133Y0334646D02*
X1792275Y0327504D01*
X1781244Y0330661D02*
X1788386Y0323519D01*
X1784497Y0333913D02*
X1791639Y0326772D01*
X1781244Y0330661D02*
X1784497Y0333913D01*
X1788386Y0323519D02*
X1791639Y0326772D01*
X1765611Y0333642D02*
X1772753Y0326500D01*
X1762358Y0330389D02*
X1769500Y0323247D01*
X1772753Y0326500D01*
X1762358Y0330389D02*
X1765611Y0333642D01*
X1767596Y0309054D02*
X1772546Y0314004D01*
X1757697Y0318954D02*
X1762646Y0323903D01*
X1772546Y0314004D01*
X1757697Y0318954D02*
X1767596Y0309054D01*
X1780464Y0328992D02*
X1783717Y0325740D01*
X1773322Y0321850D02*
X1776575Y0318598D01*
X1773322Y0321850D02*
X1780464Y0328992D01*
X1776575Y0318598D02*
X1783717Y0325740D01*
X1766358Y0439389D02*
X1769611Y0442642D01*
X1773500Y0432247D02*
X1776753Y0435500D01*
X1766358Y0439389D02*
X1773500Y0432247D01*
X1769611Y0442642D02*
X1776753Y0435500D01*
X1597109Y0366473D02*
X1601709D01*
X1597109Y0356373D02*
X1601709D01*
X1597109D02*
Y0366473D01*
X1601709Y0356373D02*
Y0366473D01*
X1635495Y0371137D02*
X1640095D01*
X1635495Y0381237D02*
X1640095D01*
Y0371137D02*
Y0381237D01*
X1635495Y0371137D02*
Y0381237D01*
X1618763Y0376894D02*
X1623363D01*
X1618763Y0366794D02*
X1623363D01*
X1618763D02*
Y0376894D01*
X1623363Y0366794D02*
Y0376894D01*
X1627879Y0355968D02*
Y0360568D01*
X1617779Y0355968D02*
Y0360568D01*
X1627879D01*
X1617779Y0355968D02*
X1627879D01*
X1642064Y0356952D02*
Y0361552D01*
X1631964Y0356952D02*
Y0361552D01*
X1642064D01*
X1631964Y0356952D02*
X1642064D01*
X1644858Y0349611D02*
X1648111Y0346358D01*
X1652000Y0356753D02*
X1655253Y0353500D01*
X1648111Y0346358D02*
X1655253Y0353500D01*
X1644858Y0349611D02*
X1652000Y0356753D01*
X1644080Y0348833D02*
X1647333Y0345580D01*
X1648247Y0345500D02*
X1651500Y0342247D01*
X1655389Y0352642D02*
X1658642Y0349389D01*
X1651500Y0342247D02*
X1658642Y0349389D01*
X1648247Y0345500D02*
X1655389Y0352642D01*
X1647470Y0344722D02*
X1650722Y0341470D01*
X1664000Y0360753D02*
X1667253Y0357500D01*
X1656858Y0353611D02*
X1660111Y0350358D01*
X1656858Y0353611D02*
X1664000Y0360753D01*
X1660111Y0350358D02*
X1667253Y0357500D01*
X1667889Y0356642D02*
X1671142Y0353389D01*
X1660747Y0349500D02*
X1664000Y0346247D01*
X1660747Y0349500D02*
X1667889Y0356642D01*
X1664000Y0346247D02*
X1671142Y0353389D01*
X1696000Y0414650D02*
X1703000Y0414650D01*
X1696000Y0400650D02*
X1703000D01*
X1696000Y0414650D02*
X1696000Y0400650D01*
X1703000Y0414650D02*
X1703000Y0400650D01*
X1689500Y0416500D02*
X1691200Y0411800D01*
X1691200Y0401700D02*
X1691200Y0411800D01*
X1695800Y0401700D02*
Y0411800D01*
X1691200D02*
X1695800D01*
X1691200Y0401700D02*
X1695800D01*
X1708000Y0428500D02*
X1708500Y0430500D01*
X1701500Y0429850D02*
X1703500Y0435500D01*
X1697000Y0415850D02*
X1704000Y0415850D01*
X1697000Y0429850D02*
X1704000D01*
X1704000Y0415850D01*
X1697000Y0415850D02*
X1697000Y0429850D01*
X1700300Y0442800D02*
X1702500Y0449000D01*
X1693000Y0442800D02*
X1695500Y0449500D01*
X1686000Y0443000D02*
X1689000Y0449500D01*
X1695700Y0432700D02*
X1700300Y0432700D01*
X1695700Y0442800D02*
X1700300D01*
Y0432700D02*
Y0442800D01*
X1695700Y0432700D02*
X1695700Y0442800D01*
X1694800Y0432700D02*
Y0442800D01*
X1690200Y0432700D02*
Y0442800D01*
Y0432700D02*
X1694800D01*
X1690200Y0442800D02*
X1694800D01*
X1684700D02*
X1689300D01*
X1684700Y0432700D02*
X1689300D01*
X1684700D02*
Y0442800D01*
X1689300Y0432700D02*
Y0442800D01*
X1678000D02*
X1679000Y0449000D01*
X1673700Y0438200D02*
Y0442800D01*
X1683800Y0438200D02*
Y0442800D01*
X1673700Y0438200D02*
X1683800Y0438200D01*
X1673700Y0442800D02*
X1683800Y0442800D01*
Y0432700D02*
Y0437300D01*
X1673700Y0432700D02*
X1673700Y0437300D01*
X1683800Y0437300D01*
X1673700Y0432700D02*
X1683800D01*
X1670000Y0446500D02*
X1672000Y0447500D01*
X1661500Y0444800D02*
Y0447500D01*
X1636000Y0423000D02*
X1639500Y0424000D01*
X1639700Y0431300D02*
X1644300D01*
X1639700Y0421200D02*
X1644300D01*
X1639700D02*
X1639700Y0431300D01*
X1644300Y0421200D02*
Y0431300D01*
X1632700Y0424700D02*
X1637300D01*
X1632700Y0434800D02*
X1637300D01*
Y0424700D02*
Y0434800D01*
X1632700Y0424700D02*
Y0434800D01*
X1660800Y0408700D02*
Y0418800D01*
X1656200Y0408700D02*
Y0418800D01*
Y0408700D02*
X1660800Y0408700D01*
X1656200Y0418800D02*
X1660800D01*
X1674700Y0394800D02*
X1684800D01*
X1674700Y0390200D02*
X1684800D01*
X1684800Y0394800D02*
X1684800Y0390200D01*
X1674700D02*
X1674700Y0394800D01*
X1685300Y0388800D02*
X1687500Y0392000D01*
X1675200Y0384200D02*
Y0388800D01*
X1685300Y0384200D02*
Y0388800D01*
X1675200Y0384200D02*
X1685300D01*
X1675200Y0388800D02*
X1685300D01*
X1690800Y0388800D02*
X1693500Y0391500D01*
X1686200Y0378700D02*
Y0388800D01*
X1690800Y0378700D02*
X1690800Y0388800D01*
X1686200Y0388800D02*
X1690800Y0388800D01*
X1686200Y0378700D02*
X1690800D01*
X1691700Y0388800D02*
X1696300D01*
X1691700Y0378700D02*
X1696300D01*
X1691700D02*
Y0388800D01*
X1696300Y0378700D02*
Y0388800D01*
X1685300Y0378200D02*
Y0382800D01*
X1675200Y0378200D02*
Y0382800D01*
X1685300D01*
X1675200Y0378200D02*
X1685300D01*
X1663700Y0390200D02*
Y0394800D01*
X1673800Y0390200D02*
Y0394800D01*
X1663700Y0390200D02*
X1673800D01*
X1663700Y0394800D02*
X1673800D01*
X1662000Y0383500D02*
X1663700Y0384700D01*
X1662000Y0376500D02*
X1663700Y0378200D01*
X1673800Y0384700D02*
Y0389300D01*
X1663700Y0384700D02*
Y0389300D01*
X1673800D01*
X1663700Y0384700D02*
X1673800D01*
X1663700Y0382800D02*
X1673800D01*
X1663700Y0378200D02*
X1673800D01*
Y0382800D01*
X1663700Y0378200D02*
X1663700Y0382800D01*
X1655700Y0384700D02*
Y0394800D01*
X1660300Y0384700D02*
Y0394800D01*
X1655700D02*
X1660300D01*
X1655700Y0384700D02*
X1660300D01*
X1649700Y0402800D02*
X1649700Y0398200D01*
X1659800D02*
Y0402800D01*
X1649700Y0398200D02*
X1659800D01*
X1649700Y0402800D02*
X1659800Y0402800D01*
X1648000Y0405000D02*
X1655000Y0405000D01*
X1648000Y0419000D02*
X1655000D01*
X1655000Y0405000D01*
X1648000Y0419000D02*
X1648000Y0405000D01*
X1645700Y0433300D02*
X1650300D01*
X1645700Y0423200D02*
X1650300D01*
X1645700D02*
Y0433300D01*
X1650300D02*
X1650300Y0423200D01*
X1650700Y0433300D02*
X1655300D01*
X1650700Y0423200D02*
X1655300D01*
X1650700D02*
X1650700Y0433300D01*
X1655300Y0423200D02*
Y0433300D01*
X1659700Y0431300D02*
X1664300D01*
X1659700Y0421200D02*
X1664300D01*
X1659700D02*
X1659700Y0431300D01*
X1664300Y0421200D02*
Y0431300D01*
X1663000Y0432500D02*
X1670000D01*
X1663000Y0446500D02*
X1670000D01*
X1670000Y0432500D01*
X1663000Y0446500D02*
X1663000Y0432500D01*
X1658200Y0434700D02*
X1658200Y0444800D01*
X1662800Y0434700D02*
Y0444800D01*
X1658200Y0444800D02*
X1662800Y0444800D01*
X1658200Y0434700D02*
X1662800Y0434700D01*
X1611700Y0459700D02*
Y0469800D01*
X1616300Y0459700D02*
Y0469800D01*
X1611700D02*
X1616300D01*
X1611700Y0459700D02*
X1616300D01*
X1627200Y0457800D02*
X1631800D01*
X1627200Y0447700D02*
X1631800D01*
X1627200D02*
X1627200Y0457800D01*
X1631800Y0447700D02*
Y0457800D01*
X1671200Y0467700D02*
Y0477800D01*
X1675800Y0467700D02*
Y0477800D01*
X1671200D02*
X1675800D01*
X1671200Y0467700D02*
X1675800D01*
X1680300D02*
Y0477800D01*
X1675700Y0467700D02*
Y0477800D01*
Y0467700D02*
X1680300D01*
X1675700Y0477800D02*
X1680300D01*
X1657700Y0467800D02*
X1667800Y0467800D01*
X1657700Y0463200D02*
X1667800Y0463200D01*
X1667800Y0467800D02*
X1667800Y0463200D01*
X1657700Y0463200D02*
Y0467800D01*
X1655850Y0468000D02*
X1655850Y0475000D01*
X1669850Y0468000D02*
Y0475000D01*
X1655850Y0468000D02*
X1669850Y0468000D01*
X1655850Y0475000D02*
X1669850Y0475000D01*
X1647200Y0479800D02*
X1657300D01*
X1647200Y0475200D02*
X1657300D01*
X1657300Y0479800D01*
X1647200D02*
X1647200Y0475200D01*
X1647200Y0485300D02*
X1657300Y0485300D01*
X1647200Y0480700D02*
X1657300D01*
Y0485300D01*
X1647200Y0480700D02*
Y0485300D01*
X1634200Y0487700D02*
X1634200Y0492300D01*
X1644300D02*
X1644300Y0487700D01*
X1634200D02*
X1644300D01*
X1634200Y0492300D02*
X1644300D01*
X1618200Y0513300D02*
X1628300D01*
X1618200Y0508700D02*
X1628300D01*
Y0513300D01*
X1618200Y0508700D02*
Y0513300D01*
X1629700Y0508700D02*
X1639800D01*
X1629700Y0513300D02*
X1639800D01*
X1629700Y0508700D02*
Y0513300D01*
X1639800Y0508700D02*
Y0513300D01*
X1648200Y0532700D02*
Y0537300D01*
X1658300Y0532700D02*
Y0537300D01*
X1648200Y0532700D02*
X1658300D01*
X1648200Y0537300D02*
X1658300D01*
X1669800Y0537700D02*
Y0542300D01*
X1659700Y0537700D02*
Y0542300D01*
X1669800D01*
X1659700Y0537700D02*
X1669800D01*
X1670900D02*
Y0542300D01*
X1669800Y0532700D02*
Y0537300D01*
X1659700Y0532700D02*
Y0537300D01*
X1669800Y0537300D01*
X1659700Y0532700D02*
X1669800Y0532700D01*
X1670900Y0532700D02*
Y0537300D01*
X1669800Y0527200D02*
Y0531800D01*
X1659700Y0527200D02*
Y0531800D01*
X1669800D01*
X1659700Y0527200D02*
X1669800D01*
X1670900D02*
Y0531800D01*
X1648200Y0527200D02*
X1648200Y0531800D01*
X1658300D02*
X1658300Y0527200D01*
X1648200D02*
X1658300D01*
X1648200Y0531800D02*
X1658300D01*
X1709300Y0428300D02*
X1709300Y0418200D01*
X1704700Y0418200D02*
X1704700Y0428300D01*
X1704700Y0418200D02*
X1709300Y0418200D01*
X1704700Y0428300D02*
X1709300D01*
X1648200Y0542300D02*
X1648200Y0537700D01*
X1658300D02*
X1658300Y0542300D01*
X1648200Y0537700D02*
X1658300D01*
X1648200Y0542300D02*
X1658300D01*
X1630603Y0440951D02*
X1640703D01*
X1630603Y0436351D02*
X1640703D01*
X1640703Y0440951D02*
X1640703Y0436351D01*
X1630603D02*
X1630603Y0440951D01*
X1641025Y0436351D02*
X1651125D01*
X1641025Y0440951D02*
X1651125D01*
X1641025Y0436351D02*
Y0440951D01*
X1651125Y0436351D02*
Y0440951D01*
X1585499Y0385499D02*
X1584500D01*
X1584999D01*
Y0383000D01*
X1584500Y0382500D01*
X1584000D01*
X1583500Y0383000D01*
X1588498Y0382500D02*
X1586499D01*
X1588498Y0384499D01*
Y0384999D01*
X1587999Y0385499D01*
X1586999D01*
X1586499Y0384999D01*
X1777647Y0349181D02*
X1776940Y0349181D01*
X1776233Y0348474D01*
Y0347767D01*
X1777647Y0346353D01*
X1778353D01*
X1779060Y0347060D01*
X1779060Y0347767D01*
X1778353Y0349888D02*
Y0350595D01*
X1779060Y0351302D01*
X1779767Y0351302D01*
X1780121Y0350948D01*
Y0350241D01*
X1780828Y0350241D01*
X1781181Y0349888D01*
X1781181Y0349181D01*
X1780474Y0348474D01*
X1779767D01*
X1779414Y0348828D01*
Y0349534D01*
X1778707Y0349534D01*
X1778353Y0349888D01*
X1779414Y0349534D02*
X1780121Y0350241D01*
X1649366Y0421833D02*
X1648900Y0422299D01*
X1647967D01*
X1647500Y0421833D01*
Y0419967D01*
X1647967Y0419500D01*
X1648900D01*
X1649366Y0419967D01*
X1650299Y0419500D02*
X1651232D01*
X1650766D01*
Y0422299D01*
X1650299Y0421833D01*
X1652632D02*
X1653098Y0422299D01*
X1654031D01*
X1654498Y0421833D01*
Y0419967D01*
X1654031Y0419500D01*
X1653098D01*
X1652632Y0419967D01*
Y0421833D01*
X1755647Y0323681D02*
X1754940Y0323681D01*
X1754233Y0322974D01*
Y0322267D01*
X1755647Y0320853D01*
X1756353D01*
X1757060Y0321560D01*
X1757060Y0322267D01*
X1758121Y0322621D02*
X1758828Y0323327D01*
X1758474Y0322974D01*
X1756353Y0325095D01*
Y0324388D01*
X1759888D02*
X1760595Y0325095D01*
X1760241Y0324741D01*
X1758121Y0326862D01*
Y0326155D01*
X1760647Y0335681D02*
X1759940Y0335681D01*
X1759233Y0334974D01*
Y0334267D01*
X1760647Y0332853D01*
X1761353D01*
X1762060Y0333560D01*
X1762060Y0334267D01*
X1763121Y0334621D02*
X1763828Y0335328D01*
X1763474Y0334974D01*
X1761353Y0337095D01*
Y0336388D01*
X1766302Y0337802D02*
X1764888Y0336388D01*
Y0339215D01*
X1764534Y0339569D01*
X1763828D01*
X1763121Y0338862D01*
Y0338155D01*
X1791147Y0323681D02*
X1790440Y0323681D01*
X1789733Y0322974D01*
Y0322267D01*
X1791147Y0320853D01*
X1791853D01*
X1792560Y0321560D01*
X1792560Y0322267D01*
X1793621Y0322621D02*
X1794328Y0323327D01*
X1793974Y0322974D01*
X1791853Y0325095D01*
Y0324388D01*
X1793621Y0326155D02*
Y0326862D01*
X1794328Y0327569D01*
X1795034D01*
X1795388Y0327215D01*
Y0326508D01*
X1795034Y0326155D01*
X1795388Y0326508D01*
X1796095Y0326508D01*
X1796448Y0326155D01*
X1796448Y0325448D01*
X1795741Y0324741D01*
X1795034D01*
X1786647Y0362681D02*
X1785940Y0362681D01*
X1785233Y0361974D01*
Y0361267D01*
X1786647Y0359853D01*
X1787353D01*
X1788060Y0360560D01*
X1788060Y0361267D01*
X1789121Y0361621D02*
X1789828Y0362328D01*
X1789474Y0361974D01*
X1787353Y0364095D01*
Y0363388D01*
X1790181Y0366922D02*
X1788767Y0365509D01*
X1789828Y0364448D01*
X1790181Y0365509D01*
X1790534Y0365862D01*
X1791241D01*
X1791948Y0365155D01*
X1791948Y0364448D01*
X1791241Y0363741D01*
X1790534D01*
X1783147Y0370681D02*
X1782440Y0370681D01*
X1781733Y0369974D01*
Y0369267D01*
X1783147Y0367853D01*
X1783853D01*
X1784560Y0368560D01*
X1784560Y0369267D01*
X1785621Y0369621D02*
X1786328Y0370327D01*
X1785974Y0369974D01*
X1783853Y0372095D01*
Y0371388D01*
X1786681Y0374922D02*
X1786328Y0373862D01*
Y0372448D01*
X1787034Y0371741D01*
X1787741D01*
X1788448Y0372448D01*
X1788448Y0373155D01*
X1788095Y0373509D01*
X1787388Y0373509D01*
X1786328Y0372448D01*
X1814499Y0397499D02*
X1814000Y0397999D01*
X1813000D01*
X1812500Y0397499D01*
Y0395500D01*
X1813000Y0395000D01*
X1814000D01*
X1814499Y0395500D01*
X1815499Y0395000D02*
X1816499D01*
X1815999D01*
Y0397999D01*
X1815499Y0397499D01*
X1817998Y0397999D02*
X1819998D01*
Y0397499D01*
X1817998Y0395500D01*
Y0395000D01*
X1693001Y0451499D02*
X1692501Y0450999D01*
Y0450000D01*
X1693001Y0449500D01*
X1695000D01*
X1695500Y0450000D01*
Y0450999D01*
X1695000Y0451499D01*
X1695500Y0452499D02*
Y0453499D01*
Y0452999D01*
X1692501D01*
X1693001Y0452499D01*
X1695000Y0454998D02*
X1695500Y0455498D01*
Y0456498D01*
X1695000Y0456998D01*
X1693001D01*
X1692501Y0456498D01*
Y0455498D01*
X1693001Y0454998D01*
X1693501D01*
X1694000Y0455498D01*
Y0456998D01*
X1704501Y0401999D02*
X1704001Y0401500D01*
Y0400500D01*
X1704501Y0400000D01*
X1706500D01*
X1707000Y0400500D01*
Y0401500D01*
X1706500Y0401999D01*
X1707000Y0404998D02*
Y0402999D01*
X1705001Y0404998D01*
X1704501D01*
X1704001Y0404498D01*
Y0403499D01*
X1704501Y0402999D01*
X1707000Y0405998D02*
Y0406998D01*
Y0406498D01*
X1704001D01*
X1704501Y0405998D01*
X1652001Y0386499D02*
X1651501Y0385999D01*
Y0385000D01*
X1652001Y0384500D01*
X1654000D01*
X1654500Y0385000D01*
Y0385999D01*
X1654000Y0386499D01*
X1654500Y0389498D02*
Y0387499D01*
X1652501Y0389498D01*
X1652001D01*
X1651501Y0388999D01*
Y0387999D01*
X1652001Y0387499D01*
X1654500Y0392497D02*
Y0390498D01*
X1652501Y0392497D01*
X1652001D01*
X1651501Y0391998D01*
Y0390998D01*
X1652001Y0390498D01*
X1677999Y0397999D02*
X1677500Y0398499D01*
X1676500D01*
X1676000Y0397999D01*
Y0396000D01*
X1676500Y0395500D01*
X1677500D01*
X1677999Y0396000D01*
X1680998Y0395500D02*
X1678999D01*
X1680998Y0397499D01*
Y0397999D01*
X1680499Y0398499D01*
X1679499D01*
X1678999Y0397999D01*
X1681998D02*
X1682498Y0398499D01*
X1683498D01*
X1683997Y0397999D01*
Y0397499D01*
X1683498Y0397000D01*
X1682998D01*
X1683498D01*
X1683997Y0396500D01*
Y0396000D01*
X1683498Y0395500D01*
X1682498D01*
X1681998Y0396000D01*
X1660501Y0449999D02*
X1660001Y0449500D01*
Y0448500D01*
X1660501Y0448000D01*
X1662500D01*
X1663000Y0448500D01*
Y0449500D01*
X1662500Y0449999D01*
X1663000Y0452998D02*
Y0450999D01*
X1661001Y0452998D01*
X1660501D01*
X1660001Y0452498D01*
Y0451499D01*
X1660501Y0450999D01*
X1663000Y0455498D02*
X1660001D01*
X1661501Y0453998D01*
Y0455997D01*
X1660499Y0460499D02*
X1659999Y0460999D01*
X1659000D01*
X1658500Y0460499D01*
Y0458500D01*
X1659000Y0458000D01*
X1659999D01*
X1660499Y0458500D01*
X1663498Y0458000D02*
X1661499D01*
X1663498Y0459999D01*
Y0460499D01*
X1662999Y0460999D01*
X1661999D01*
X1661499Y0460499D01*
X1666497Y0460999D02*
X1664498D01*
Y0459500D01*
X1665498Y0459999D01*
X1665998D01*
X1666497Y0459500D01*
Y0458500D01*
X1665998Y0458000D01*
X1664998D01*
X1664498Y0458500D01*
X1618001Y0462499D02*
X1617501Y0462000D01*
Y0461000D01*
X1618001Y0460500D01*
X1620000D01*
X1620500Y0461000D01*
Y0462000D01*
X1620000Y0462499D01*
X1620500Y0465498D02*
Y0463499D01*
X1618501Y0465498D01*
X1618001D01*
X1617501Y0464998D01*
Y0463999D01*
X1618001Y0463499D01*
X1617501Y0468497D02*
X1618001Y0467498D01*
X1619000Y0466498D01*
X1620000D01*
X1620500Y0466998D01*
Y0467998D01*
X1620000Y0468497D01*
X1619500D01*
X1619000Y0467998D01*
Y0466498D01*
X1671501Y0460999D02*
X1671001Y0460499D01*
Y0459500D01*
X1671501Y0459000D01*
X1673500D01*
X1674000Y0459500D01*
Y0460499D01*
X1673500Y0460999D01*
X1674000Y0463998D02*
Y0461999D01*
X1672001Y0463998D01*
X1671501D01*
X1671001Y0463498D01*
Y0462499D01*
X1671501Y0461999D01*
Y0464998D02*
X1671001Y0465498D01*
Y0466498D01*
X1671501Y0466997D01*
X1672001D01*
X1672500Y0466498D01*
X1673000Y0466997D01*
X1673500D01*
X1674000Y0466498D01*
Y0465498D01*
X1673500Y0464998D01*
X1673000D01*
X1672500Y0465498D01*
X1672001Y0464998D01*
X1671501D01*
X1672500Y0465498D02*
Y0466498D01*
X1671001Y0449999D02*
X1670501Y0449500D01*
Y0448500D01*
X1671001Y0448000D01*
X1673000D01*
X1673500Y0448500D01*
Y0449500D01*
X1673000Y0449999D01*
X1671001Y0450999D02*
X1670501Y0451499D01*
Y0452498D01*
X1671001Y0452998D01*
X1671501D01*
X1672001Y0452498D01*
Y0451999D01*
Y0452498D01*
X1672500Y0452998D01*
X1673000D01*
X1673500Y0452498D01*
Y0451499D01*
X1673000Y0450999D01*
X1671001Y0453998D02*
X1670501Y0454498D01*
Y0455498D01*
X1671001Y0455997D01*
X1673000D01*
X1673500Y0455498D01*
Y0454498D01*
X1673000Y0453998D01*
X1671001D01*
X1662999Y0478499D02*
X1662499Y0478999D01*
X1661500D01*
X1661000Y0478499D01*
Y0476500D01*
X1661500Y0476000D01*
X1662499D01*
X1662999Y0476500D01*
X1663999Y0478499D02*
X1664499Y0478999D01*
X1665499D01*
X1665998Y0478499D01*
Y0477999D01*
X1665499Y0477499D01*
X1664999D01*
X1665499D01*
X1665998Y0477000D01*
Y0476500D01*
X1665499Y0476000D01*
X1664499D01*
X1663999Y0476500D01*
X1666998Y0476000D02*
X1667998D01*
X1667498D01*
Y0478999D01*
X1666998Y0478499D01*
X1703499Y0438999D02*
X1702999Y0439499D01*
X1702000D01*
X1701500Y0438999D01*
Y0437000D01*
X1702000Y0436500D01*
X1702999D01*
X1703499Y0437000D01*
X1704499Y0438999D02*
X1704999Y0439499D01*
X1705998D01*
X1706498Y0438999D01*
Y0438499D01*
X1705998Y0437999D01*
X1705499D01*
X1705998D01*
X1706498Y0437500D01*
Y0437000D01*
X1705998Y0436500D01*
X1704999D01*
X1704499Y0437000D01*
X1708998Y0436500D02*
Y0439499D01*
X1707498Y0437999D01*
X1709497D01*
X1695499Y0393999D02*
X1695000Y0394499D01*
X1694000D01*
X1693500Y0393999D01*
Y0392000D01*
X1694000Y0391500D01*
X1695000D01*
X1695499Y0392000D01*
X1697998Y0391500D02*
Y0394499D01*
X1696499Y0393000D01*
X1698498D01*
X1699498Y0393999D02*
X1699998Y0394499D01*
X1700998D01*
X1701497Y0393999D01*
Y0392000D01*
X1700998Y0391500D01*
X1699998D01*
X1699498Y0392000D01*
Y0393999D01*
X1656499Y0377999D02*
X1656000Y0378499D01*
X1655000D01*
X1654500Y0377999D01*
Y0376000D01*
X1655000Y0375500D01*
X1656000D01*
X1656499Y0376000D01*
X1658998Y0375500D02*
Y0378499D01*
X1657499Y0376999D01*
X1659498D01*
X1660498Y0375500D02*
X1661498D01*
X1660998D01*
Y0378499D01*
X1660498Y0377999D01*
X1643299Y0446199D02*
X1642800Y0446699D01*
X1641800D01*
X1641300Y0446199D01*
Y0444200D01*
X1641800Y0443700D01*
X1642800D01*
X1643299Y0444200D01*
X1645798Y0443700D02*
Y0446699D01*
X1644299Y0445199D01*
X1646298D01*
X1649297Y0443700D02*
X1647298D01*
X1649297Y0445699D01*
Y0446199D01*
X1648798Y0446699D01*
X1647798D01*
X1647298Y0446199D01*
X1632899D02*
X1632400Y0446699D01*
X1631400D01*
X1630900Y0446199D01*
Y0444200D01*
X1631400Y0443700D01*
X1632400D01*
X1632899Y0444200D01*
X1635399Y0443700D02*
Y0446699D01*
X1633899Y0445199D01*
X1635898D01*
X1636898Y0446199D02*
X1637398Y0446699D01*
X1638398D01*
X1638897Y0446199D01*
Y0445699D01*
X1638398Y0445199D01*
X1637898D01*
X1638398D01*
X1638897Y0444700D01*
Y0444200D01*
X1638398Y0443700D01*
X1637398D01*
X1636898Y0444200D01*
X1631501Y0516499D02*
X1631001Y0516000D01*
Y0515000D01*
X1631501Y0514500D01*
X1633500D01*
X1634000Y0515000D01*
Y0516000D01*
X1633500Y0516499D01*
X1634000Y0518998D02*
X1631001D01*
X1632500Y0517499D01*
Y0519498D01*
X1634000Y0521998D02*
X1631001D01*
X1632500Y0520498D01*
Y0522497D01*
X1620501Y0516499D02*
X1620001Y0516000D01*
Y0515000D01*
X1620501Y0514500D01*
X1622500D01*
X1623000Y0515000D01*
Y0516000D01*
X1622500Y0516499D01*
X1623000Y0518998D02*
X1620001D01*
X1621501Y0517499D01*
Y0519498D01*
X1620001Y0522497D02*
Y0520498D01*
X1621501D01*
X1621001Y0521498D01*
Y0521998D01*
X1621501Y0522497D01*
X1622500D01*
X1623000Y0521998D01*
Y0520998D01*
X1622500Y0520498D01*
X1650999Y0488499D02*
X1650500Y0488999D01*
X1649500D01*
X1649000Y0488499D01*
Y0486500D01*
X1649500Y0486000D01*
X1650500D01*
X1650999Y0486500D01*
X1653498Y0486000D02*
Y0488999D01*
X1651999Y0487500D01*
X1653998D01*
X1654998Y0488999D02*
X1656997D01*
Y0488499D01*
X1654998Y0486500D01*
Y0486000D01*
X1648999Y0473999D02*
X1648499Y0474499D01*
X1647500D01*
X1647000Y0473999D01*
Y0472000D01*
X1647500Y0471500D01*
X1648499D01*
X1648999Y0472000D01*
X1651498Y0471500D02*
Y0474499D01*
X1649999Y0472999D01*
X1651998D01*
X1652998Y0472000D02*
X1653498Y0471500D01*
X1654498D01*
X1654997Y0472000D01*
Y0473999D01*
X1654498Y0474499D01*
X1653498D01*
X1652998Y0473999D01*
Y0473499D01*
X1653498Y0472999D01*
X1654997D01*
X1657000Y0345499D02*
Y0342500D01*
X1658500D01*
X1658999Y0343000D01*
Y0344999D01*
X1658500Y0345499D01*
X1657000D01*
X1659999Y0344999D02*
X1660499Y0345499D01*
X1661498D01*
X1661998Y0344999D01*
Y0344499D01*
X1661498Y0344000D01*
X1660999D01*
X1661498D01*
X1661998Y0343500D01*
Y0343000D01*
X1661498Y0342500D01*
X1660499D01*
X1659999Y0343000D01*
X1646000Y0379499D02*
Y0376500D01*
X1647499D01*
X1647999Y0377000D01*
Y0378999D01*
X1647499Y0379499D01*
X1646000D01*
X1650998D02*
X1648999D01*
Y0377999D01*
X1649999Y0378499D01*
X1650499D01*
X1650998Y0377999D01*
Y0377000D01*
X1650499Y0376500D01*
X1649499D01*
X1648999Y0377000D01*
X1608500Y0351999D02*
Y0349000D01*
X1609999D01*
X1610499Y0349500D01*
Y0351499D01*
X1609999Y0351999D01*
X1608500D01*
X1613498D02*
X1612499Y0351499D01*
X1611499Y0350500D01*
Y0349500D01*
X1611999Y0349000D01*
X1612999D01*
X1613498Y0349500D01*
Y0350000D01*
X1612999Y0350500D01*
X1611499D01*
X1585500Y0378499D02*
Y0375500D01*
X1587000D01*
X1587499Y0376000D01*
Y0377999D01*
X1587000Y0378499D01*
X1585500D01*
X1588499D02*
X1590498D01*
Y0377999D01*
X1588499Y0376000D01*
Y0375500D01*
X1615500Y0385499D02*
Y0382500D01*
X1616999D01*
X1617499Y0383000D01*
Y0384999D01*
X1616999Y0385499D01*
X1615500D01*
X1618499Y0384999D02*
X1618999Y0385499D01*
X1619999D01*
X1620498Y0384999D01*
Y0384499D01*
X1619999Y0383999D01*
X1620498Y0383500D01*
Y0383000D01*
X1619999Y0382500D01*
X1618999D01*
X1618499Y0383000D01*
Y0383500D01*
X1618999Y0383999D01*
X1618499Y0384499D01*
Y0384999D01*
X1618999Y0383999D02*
X1619999D01*
X1627500Y0382999D02*
Y0380000D01*
X1629000D01*
X1629499Y0380500D01*
Y0382499D01*
X1629000Y0382999D01*
X1627500D01*
X1630499Y0380500D02*
X1630999Y0380000D01*
X1631999D01*
X1632498Y0380500D01*
Y0382499D01*
X1631999Y0382999D01*
X1630999D01*
X1630499Y0382499D01*
Y0381999D01*
X1630999Y0381500D01*
X1632498D01*
X1826879Y0378621D02*
X1829000Y0376500D01*
X1830060Y0377560D01*
X1830060Y0378267D01*
X1828647Y0379681D01*
X1827940Y0379681D01*
X1826879Y0378621D01*
X1831121D02*
X1831828Y0379328D01*
X1831474Y0378974D01*
X1829353Y0381095D01*
Y0380388D01*
X1832888D02*
X1833595Y0381095D01*
X1833241Y0380741D01*
X1831121Y0382862D01*
Y0382155D01*
X1638500Y0407999D02*
Y0405500D01*
X1639750D01*
X1640166Y0405917D01*
Y0407583D01*
X1639750Y0407999D01*
X1638500D01*
X1640999Y0405500D02*
X1641832D01*
X1641416D01*
Y0407999D01*
X1640999Y0407583D01*
X1644748Y0405500D02*
X1643082D01*
X1644748Y0407166D01*
Y0407583D01*
X1644332Y0407999D01*
X1643498D01*
X1643082Y0407583D01*
X1629000Y0401999D02*
Y0399000D01*
X1630499D01*
X1630999Y0399500D01*
Y0401499D01*
X1630499Y0401999D01*
X1629000D01*
X1631999Y0399000D02*
X1632999D01*
X1632499D01*
Y0401999D01*
X1631999Y0401499D01*
X1634498D02*
X1634998Y0401999D01*
X1635998D01*
X1636498Y0401499D01*
Y0400999D01*
X1635998Y0400499D01*
X1635498D01*
X1635998D01*
X1636498Y0400000D01*
Y0399500D01*
X1635998Y0399000D01*
X1634998D01*
X1634498Y0399500D01*
X1629500Y0415999D02*
Y0413500D01*
X1630750D01*
X1631166Y0413916D01*
Y0415583D01*
X1630750Y0415999D01*
X1629500D01*
X1631999Y0413500D02*
X1632832D01*
X1632416D01*
Y0415999D01*
X1631999Y0415583D01*
X1635332Y0413500D02*
Y0415999D01*
X1634082Y0414750D01*
X1635748D01*
X1620500Y0416499D02*
Y0414000D01*
X1621750D01*
X1622166Y0414417D01*
Y0416083D01*
X1621750Y0416499D01*
X1620500D01*
X1622999Y0414000D02*
X1623832D01*
X1623416D01*
Y0416499D01*
X1622999Y0416083D01*
X1626748Y0416499D02*
X1625082D01*
Y0415250D01*
X1625915Y0415666D01*
X1626332D01*
X1626748Y0415250D01*
Y0414417D01*
X1626332Y0414000D01*
X1625498D01*
X1625082Y0414417D01*
X1662000Y0547499D02*
Y0544500D01*
X1663499D01*
X1663999Y0545000D01*
Y0546999D01*
X1663499Y0547499D01*
X1662000D01*
X1664999Y0544500D02*
X1665999D01*
X1665499D01*
Y0547499D01*
X1664999Y0546999D01*
X1667498D02*
X1667998Y0547499D01*
X1668998D01*
X1669498Y0546999D01*
Y0546499D01*
X1668998Y0545999D01*
X1669498Y0545500D01*
Y0545000D01*
X1668998Y0544500D01*
X1667998D01*
X1667498Y0545000D01*
Y0545500D01*
X1667998Y0545999D01*
X1667498Y0546499D01*
Y0546999D01*
X1667998Y0545999D02*
X1668998D01*
X1674500Y0541999D02*
Y0539000D01*
X1675999D01*
X1676499Y0539500D01*
Y0541499D01*
X1675999Y0541999D01*
X1674500D01*
X1677499Y0539000D02*
X1678499D01*
X1677999D01*
Y0541999D01*
X1677499Y0541499D01*
X1679998Y0539500D02*
X1680498Y0539000D01*
X1681498D01*
X1681998Y0539500D01*
Y0541499D01*
X1681498Y0541999D01*
X1680498D01*
X1679998Y0541499D01*
Y0540999D01*
X1680498Y0540499D01*
X1681998D01*
X1660000Y0523499D02*
Y0520500D01*
X1661499D01*
X1661999Y0521000D01*
Y0522999D01*
X1661499Y0523499D01*
X1660000D01*
X1664998Y0520500D02*
X1662999D01*
X1664998Y0522499D01*
Y0522999D01*
X1664499Y0523499D01*
X1663499D01*
X1662999Y0522999D01*
X1665998D02*
X1666498Y0523499D01*
X1667498D01*
X1667997Y0522999D01*
Y0521000D01*
X1667498Y0520500D01*
X1666498D01*
X1665998Y0521000D01*
Y0522999D01*
X1676499Y0352499D02*
X1675500D01*
X1675999D01*
Y0350000D01*
X1675500Y0349500D01*
X1675000D01*
X1674500Y0350000D01*
X1677499Y0349500D02*
X1678499D01*
X1677999D01*
Y0352499D01*
X1677499Y0351999D01*
X1750999Y0343499D02*
X1750000D01*
X1750500D01*
Y0341000D01*
X1750000Y0340500D01*
X1749500D01*
X1749000Y0341000D01*
X1751999Y0342999D02*
X1752499Y0343499D01*
X1753498D01*
X1753998Y0342999D01*
Y0342499D01*
X1753498Y0342000D01*
X1752999D01*
X1753498D01*
X1753998Y0341500D01*
Y0341000D01*
X1753498Y0340500D01*
X1752499D01*
X1751999Y0341000D01*
X1623078Y0447527D02*
X1622078D01*
X1622578D01*
Y0445028D01*
X1622078Y0444528D01*
X1621578D01*
X1621078Y0445028D01*
X1626077Y0447527D02*
X1624077D01*
Y0446027D01*
X1625077Y0446527D01*
X1625577D01*
X1626077Y0446027D01*
Y0445028D01*
X1625577Y0444528D01*
X1624577D01*
X1624077Y0445028D01*
X1792999Y0442499D02*
X1792000D01*
X1792500D01*
Y0440000D01*
X1792000Y0439500D01*
X1791500D01*
X1791000Y0440000D01*
X1793999Y0442499D02*
X1795998D01*
Y0441999D01*
X1793999Y0440000D01*
Y0439500D01*
X1593499Y0488499D02*
X1592500D01*
X1592999D01*
Y0486000D01*
X1592500Y0485500D01*
X1592000D01*
X1591500Y0486000D01*
X1594499Y0487999D02*
X1594999Y0488499D01*
X1595999D01*
X1596498Y0487999D01*
Y0487499D01*
X1595999Y0487000D01*
X1596498Y0486500D01*
Y0486000D01*
X1595999Y0485500D01*
X1594999D01*
X1594499Y0486000D01*
Y0486500D01*
X1594999Y0487000D01*
X1594499Y0487499D01*
Y0487999D01*
X1594999Y0487000D02*
X1595999D01*
X1762500Y0346999D02*
Y0344000D01*
X1764499D01*
X1765499D02*
X1766499D01*
X1765999D01*
Y0346999D01*
X1765499Y0346499D01*
X1625499Y0335500D02*
Y0337499D01*
X1624999Y0337999D01*
X1624000D01*
X1623500Y0337499D01*
Y0335500D01*
X1624000Y0335000D01*
X1624999D01*
X1624500Y0336000D02*
X1625499Y0335000D01*
X1624999D02*
X1625499Y0335500D01*
X1626499Y0335000D02*
X1627499D01*
X1626999D01*
Y0337999D01*
X1626499Y0337499D01*
X1637999Y0336000D02*
Y0337999D01*
X1637499Y0338499D01*
X1636500D01*
X1636000Y0337999D01*
Y0336000D01*
X1636500Y0335500D01*
X1637499D01*
X1637000Y0336500D02*
X1637999Y0335500D01*
X1637499D02*
X1637999Y0336000D01*
X1640998Y0335500D02*
X1638999D01*
X1640998Y0337499D01*
Y0337999D01*
X1640499Y0338499D01*
X1639499D01*
X1638999Y0337999D01*
X1671000Y0356000D02*
Y0358999D01*
X1672499D01*
X1672999Y0358499D01*
Y0357500D01*
X1672499Y0357000D01*
X1671000D01*
X1672000D02*
X1672999Y0356000D01*
X1675998D02*
X1673999D01*
X1675998Y0357999D01*
Y0358499D01*
X1675499Y0358999D01*
X1674499D01*
X1673999Y0358499D01*
X1668000Y0360500D02*
Y0363499D01*
X1669500D01*
X1669999Y0362999D01*
Y0362000D01*
X1669500Y0361500D01*
X1668000D01*
X1669000D02*
X1669999Y0360500D01*
X1670999Y0362999D02*
X1671499Y0363499D01*
X1672499D01*
X1672998Y0362999D01*
Y0362499D01*
X1672499Y0362000D01*
X1671999D01*
X1672499D01*
X1672998Y0361500D01*
Y0361000D01*
X1672499Y0360500D01*
X1671499D01*
X1670999Y0361000D01*
X1605500Y0363500D02*
X1602501D01*
Y0365000D01*
X1603001Y0365499D01*
X1604000D01*
X1604500Y0365000D01*
Y0363500D01*
Y0364500D02*
X1605500Y0365499D01*
Y0367999D02*
X1602501D01*
X1604000Y0366499D01*
Y0368498D01*
X1619500Y0361500D02*
Y0364499D01*
X1621000D01*
X1621499Y0363999D01*
Y0363000D01*
X1621000Y0362500D01*
X1619500D01*
X1620500D02*
X1621499Y0361500D01*
X1624498Y0364499D02*
X1622499D01*
Y0363000D01*
X1623499Y0363499D01*
X1623999D01*
X1624498Y0363000D01*
Y0362000D01*
X1623999Y0361500D01*
X1622999D01*
X1622499Y0362000D01*
X1636000Y0382000D02*
Y0384999D01*
X1637499D01*
X1637999Y0384499D01*
Y0383500D01*
X1637499Y0383000D01*
X1636000D01*
X1637000D02*
X1637999Y0382000D01*
X1640998Y0384999D02*
X1639999Y0384499D01*
X1638999Y0383500D01*
Y0382500D01*
X1639499Y0382000D01*
X1640499D01*
X1640998Y0382500D01*
Y0383000D01*
X1640499Y0383500D01*
X1638999D01*
X1618000Y0375500D02*
X1615001D01*
Y0376999D01*
X1615501Y0377499D01*
X1616500D01*
X1617000Y0376999D01*
Y0375500D01*
Y0376500D02*
X1618000Y0377499D01*
X1615001Y0378499D02*
Y0380498D01*
X1615501D01*
X1617500Y0378499D01*
X1618000D01*
X1641000Y0362500D02*
Y0365499D01*
X1642500D01*
X1642999Y0364999D01*
Y0364000D01*
X1642500Y0363500D01*
X1641000D01*
X1642000D02*
X1642999Y0362500D01*
X1643999Y0364999D02*
X1644499Y0365499D01*
X1645498D01*
X1645998Y0364999D01*
Y0364499D01*
X1645498Y0364000D01*
X1645998Y0363500D01*
Y0363000D01*
X1645498Y0362500D01*
X1644499D01*
X1643999Y0363000D01*
Y0363500D01*
X1644499Y0364000D01*
X1643999Y0364499D01*
Y0364999D01*
X1644499Y0364000D02*
X1645498D01*
X1691500Y0449500D02*
X1688501D01*
Y0450999D01*
X1689001Y0451499D01*
X1690001D01*
X1690500Y0450999D01*
Y0449500D01*
Y0450500D02*
X1691500Y0451499D01*
X1691000Y0452499D02*
X1691500Y0452999D01*
Y0453999D01*
X1691000Y0454498D01*
X1689001D01*
X1688501Y0453999D01*
Y0452999D01*
X1689001Y0452499D01*
X1689501D01*
X1690001Y0452999D01*
Y0454498D01*
X1675000Y0429000D02*
Y0431999D01*
X1676500D01*
X1676999Y0431499D01*
Y0430500D01*
X1676500Y0430000D01*
X1675000D01*
X1676000D02*
X1676999Y0429000D01*
X1677999D02*
X1678999D01*
X1678499D01*
Y0431999D01*
X1677999Y0431499D01*
X1680498D02*
X1680998Y0431999D01*
X1681998D01*
X1682498Y0431499D01*
Y0429500D01*
X1681998Y0429000D01*
X1680998D01*
X1680498Y0429500D01*
Y0431499D01*
X1823500Y0380500D02*
X1821379Y0382621D01*
X1822440Y0383681D01*
X1823147Y0383681D01*
X1823853Y0382974D01*
X1823853Y0382267D01*
X1822793Y0381207D01*
X1823500Y0381914D02*
X1824914Y0381914D01*
X1825621Y0382621D02*
X1826328Y0383328D01*
X1825974Y0382974D01*
X1823853Y0385095D01*
Y0384388D01*
X1827388D02*
X1828095Y0385095D01*
X1827741Y0384741D01*
X1825621Y0386862D01*
Y0386155D01*
X1794500Y0339000D02*
X1792379Y0341121D01*
X1793440Y0342181D01*
X1794147Y0342181D01*
X1794853Y0341474D01*
X1794853Y0340767D01*
X1793793Y0339707D01*
X1794500Y0340414D02*
X1795914Y0340414D01*
X1796621Y0341121D02*
X1797327Y0341828D01*
X1796974Y0341474D01*
X1794853Y0343595D01*
Y0342888D01*
X1799802Y0344302D02*
X1798388Y0342888D01*
Y0345715D01*
X1798034Y0346069D01*
X1797327D01*
X1796621Y0345362D01*
Y0344655D01*
X1781000Y0316000D02*
X1778879Y0318121D01*
X1779940Y0319181D01*
X1780647Y0319181D01*
X1781353Y0318474D01*
X1781353Y0317767D01*
X1780293Y0316707D01*
X1781000Y0317414D02*
X1782414Y0317414D01*
X1783121Y0318121D02*
X1783828Y0318828D01*
X1783474Y0318474D01*
X1781353Y0320595D01*
Y0319888D01*
X1783121Y0321655D02*
Y0322362D01*
X1783828Y0323069D01*
X1784534D01*
X1784888Y0322715D01*
Y0322008D01*
X1784534Y0321655D01*
X1784888Y0322008D01*
X1785595Y0322008D01*
X1785948Y0321655D01*
X1785948Y0320948D01*
X1785241Y0320241D01*
X1784534D01*
X1675500Y0450000D02*
Y0452999D01*
X1676999D01*
X1677499Y0452499D01*
Y0451500D01*
X1676999Y0451000D01*
X1675500D01*
X1676500D02*
X1677499Y0450000D01*
X1678499D02*
X1679499D01*
X1678999D01*
Y0452999D01*
X1678499Y0452499D01*
X1682998Y0452999D02*
X1680998D01*
Y0451500D01*
X1681998Y0451999D01*
X1682498D01*
X1682998Y0451500D01*
Y0450500D01*
X1682498Y0450000D01*
X1681498D01*
X1680998Y0450500D01*
X1663500Y0396500D02*
Y0399499D01*
X1665000D01*
X1665499Y0398999D01*
Y0398000D01*
X1665000Y0397500D01*
X1663500D01*
X1664500D02*
X1665499Y0396500D01*
X1666499D02*
X1667499D01*
X1666999D01*
Y0399499D01*
X1666499Y0398999D01*
X1670998Y0399499D02*
X1669998Y0398999D01*
X1668998Y0398000D01*
Y0397000D01*
X1669498Y0396500D01*
X1670498D01*
X1670998Y0397000D01*
Y0397500D01*
X1670498Y0398000D01*
X1668998D01*
X1654500Y0380000D02*
Y0382999D01*
X1656000D01*
X1656499Y0382499D01*
Y0381500D01*
X1656000Y0381000D01*
X1654500D01*
X1655500D02*
X1656499Y0380000D01*
X1657499D02*
X1658499D01*
X1657999D01*
Y0382999D01*
X1657499Y0382499D01*
X1659998Y0382999D02*
X1661998D01*
Y0382499D01*
X1659998Y0380500D01*
Y0380000D01*
X1632000Y0429500D02*
X1629501D01*
Y0430750D01*
X1629917Y0431166D01*
X1630750D01*
X1631167Y0430750D01*
Y0429500D01*
Y0430333D02*
X1632000Y0431166D01*
Y0431999D02*
Y0432832D01*
Y0432416D01*
X1629501D01*
X1629917Y0431999D01*
Y0434082D02*
X1629501Y0434498D01*
Y0435331D01*
X1629917Y0435748D01*
X1630334D01*
X1630750Y0435331D01*
X1631167Y0435748D01*
X1631584D01*
X1632000Y0435331D01*
Y0434498D01*
X1631584Y0434082D01*
X1631167D01*
X1630750Y0434498D01*
X1630334Y0434082D01*
X1629917D01*
X1630750Y0434498D02*
Y0435331D01*
X1647500Y0394000D02*
Y0396999D01*
X1648999D01*
X1649499Y0396499D01*
Y0395499D01*
X1648999Y0395000D01*
X1647500D01*
X1648500D02*
X1649499Y0394000D01*
X1650499D02*
X1651499D01*
X1650999D01*
Y0396999D01*
X1650499Y0396499D01*
X1652998Y0394500D02*
X1653498Y0394000D01*
X1654498D01*
X1654998Y0394500D01*
Y0396499D01*
X1654498Y0396999D01*
X1653498D01*
X1652998Y0396499D01*
Y0395999D01*
X1653498Y0395499D01*
X1654998D01*
X1689500Y0393000D02*
X1686501D01*
Y0394499D01*
X1687001Y0394999D01*
X1688000D01*
X1688500Y0394499D01*
Y0393000D01*
Y0394000D02*
X1689500Y0394999D01*
Y0397998D02*
Y0395999D01*
X1687501Y0397998D01*
X1687001D01*
X1686501Y0397498D01*
Y0396499D01*
X1687001Y0395999D01*
X1689500Y0398998D02*
Y0399998D01*
Y0399498D01*
X1686501D01*
X1687001Y0398998D01*
X1676000Y0373500D02*
Y0376499D01*
X1677500D01*
X1677999Y0375999D01*
Y0374999D01*
X1677500Y0374500D01*
X1676000D01*
X1677000D02*
X1677999Y0373500D01*
X1680998D02*
X1678999D01*
X1680998Y0375499D01*
Y0375999D01*
X1680499Y0376499D01*
X1679499D01*
X1678999Y0375999D01*
X1683997Y0373500D02*
X1681998D01*
X1683997Y0375499D01*
Y0375999D01*
X1683498Y0376499D01*
X1682498D01*
X1681998Y0375999D01*
X1693500Y0374500D02*
Y0377499D01*
X1695000D01*
X1695499Y0376999D01*
Y0375999D01*
X1695000Y0375500D01*
X1693500D01*
X1694500D02*
X1695499Y0374500D01*
X1698498D02*
X1696499D01*
X1698498Y0376499D01*
Y0376999D01*
X1697998Y0377499D01*
X1696999D01*
X1696499Y0376999D01*
X1699498D02*
X1699998Y0377499D01*
X1700998D01*
X1701497Y0376999D01*
Y0376499D01*
X1700998Y0375999D01*
X1700498D01*
X1700998D01*
X1701497Y0375500D01*
Y0375000D01*
X1700998Y0374500D01*
X1699998D01*
X1699498Y0375000D01*
X1629000Y0422000D02*
Y0424499D01*
X1630250D01*
X1630666Y0424083D01*
Y0423250D01*
X1630250Y0422833D01*
X1629000D01*
X1629833D02*
X1630666Y0422000D01*
X1633165D02*
X1631499D01*
X1633165Y0423666D01*
Y0424083D01*
X1632749Y0424499D01*
X1631916D01*
X1631499Y0424083D01*
X1633998Y0424499D02*
X1635665D01*
Y0424083D01*
X1633998Y0422416D01*
Y0422000D01*
X1645700Y0433300D02*
Y0435299D01*
X1646700D01*
X1647033Y0434966D01*
Y0434300D01*
X1646700Y0433966D01*
X1645700D01*
X1646366D02*
X1647033Y0433300D01*
X1649032D02*
X1647699D01*
X1649032Y0434633D01*
Y0434966D01*
X1648699Y0435299D01*
X1648033D01*
X1647699Y0434966D01*
X1649699D02*
X1650032Y0435299D01*
X1650698D01*
X1651032Y0434966D01*
Y0434633D01*
X1650698Y0434300D01*
X1651032Y0433966D01*
Y0433633D01*
X1650698Y0433300D01*
X1650032D01*
X1649699Y0433633D01*
Y0433966D01*
X1650032Y0434300D01*
X1649699Y0434633D01*
Y0434966D01*
X1650032Y0434300D02*
X1650698D01*
X1668500Y0421500D02*
X1665501D01*
Y0422999D01*
X1666001Y0423499D01*
X1667001D01*
X1667500Y0422999D01*
Y0421500D01*
Y0422500D02*
X1668500Y0423499D01*
Y0426498D02*
Y0424499D01*
X1666501Y0426498D01*
X1666001D01*
X1665501Y0425998D01*
Y0424999D01*
X1666001Y0424499D01*
X1668000Y0427498D02*
X1668500Y0427998D01*
Y0428998D01*
X1668000Y0429497D01*
X1666001D01*
X1665501Y0428998D01*
Y0427998D01*
X1666001Y0427498D01*
X1666501D01*
X1667001Y0427998D01*
Y0429497D01*
X1658000Y0428000D02*
X1656001D01*
Y0429000D01*
X1656334Y0429333D01*
X1657000D01*
X1657334Y0429000D01*
Y0428000D01*
Y0428666D02*
X1658000Y0429333D01*
X1656334Y0429999D02*
X1656001Y0430333D01*
Y0430999D01*
X1656334Y0431332D01*
X1656667D01*
X1657000Y0430999D01*
Y0430666D01*
Y0430999D01*
X1657334Y0431332D01*
X1657667D01*
X1658000Y0430999D01*
Y0430333D01*
X1657667Y0429999D01*
X1656334Y0431999D02*
X1656001Y0432332D01*
Y0432998D01*
X1656334Y0433332D01*
X1657667D01*
X1658000Y0432998D01*
Y0432332D01*
X1657667Y0431999D01*
X1656334D01*
X1626500Y0451500D02*
X1623501D01*
Y0452999D01*
X1624001Y0453499D01*
X1625001D01*
X1625500Y0452999D01*
Y0451500D01*
Y0452500D02*
X1626500Y0453499D01*
X1624001Y0454499D02*
X1623501Y0454999D01*
Y0455999D01*
X1624001Y0456498D01*
X1624501D01*
X1625001Y0455999D01*
Y0455499D01*
Y0455999D01*
X1625500Y0456498D01*
X1626000D01*
X1626500Y0455999D01*
Y0454999D01*
X1626000Y0454499D01*
X1626500Y0457498D02*
Y0458498D01*
Y0457998D01*
X1623501D01*
X1624001Y0457498D01*
X1648400Y0545000D02*
Y0547999D01*
X1649899D01*
X1650399Y0547499D01*
Y0546499D01*
X1649899Y0546000D01*
X1648400D01*
X1649400D02*
X1650399Y0545000D01*
X1651399Y0547499D02*
X1651899Y0547999D01*
X1652898D01*
X1653398Y0547499D01*
Y0546999D01*
X1652898Y0546499D01*
X1652399D01*
X1652898D01*
X1653398Y0546000D01*
Y0545500D01*
X1652898Y0545000D01*
X1651899D01*
X1651399Y0545500D01*
X1656397Y0545000D02*
X1654398D01*
X1656397Y0546999D01*
Y0547499D01*
X1655898Y0547999D01*
X1654898D01*
X1654398Y0547499D01*
X1642500Y0493000D02*
Y0495999D01*
X1643999D01*
X1644499Y0495499D01*
Y0494499D01*
X1643999Y0494000D01*
X1642500D01*
X1643500D02*
X1644499Y0493000D01*
X1645499Y0495499D02*
X1645999Y0495999D01*
X1646998D01*
X1647498Y0495499D01*
Y0494999D01*
X1646998Y0494499D01*
X1646499D01*
X1646998D01*
X1647498Y0494000D01*
Y0493500D01*
X1646998Y0493000D01*
X1645999D01*
X1645499Y0493500D01*
X1650497Y0495999D02*
X1648498D01*
Y0494499D01*
X1649498Y0494999D01*
X1649998D01*
X1650497Y0494499D01*
Y0493500D01*
X1649998Y0493000D01*
X1648998D01*
X1648498Y0493500D01*
X1632000Y0529500D02*
Y0532499D01*
X1633500D01*
X1633999Y0531999D01*
Y0531000D01*
X1633500Y0530500D01*
X1632000D01*
X1633000D02*
X1633999Y0529500D01*
X1634999Y0531999D02*
X1635499Y0532499D01*
X1636499D01*
X1636998Y0531999D01*
Y0531499D01*
X1636499Y0531000D01*
X1635999D01*
X1636499D01*
X1636998Y0530500D01*
Y0530000D01*
X1636499Y0529500D01*
X1635499D01*
X1634999Y0530000D01*
X1639997Y0532499D02*
X1638998Y0531999D01*
X1637998Y0531000D01*
Y0530000D01*
X1638498Y0529500D01*
X1639498D01*
X1639997Y0530000D01*
Y0530500D01*
X1639498Y0531000D01*
X1637998D01*
X1649000Y0521500D02*
Y0524499D01*
X1650500D01*
X1650999Y0523999D01*
Y0522999D01*
X1650500Y0522500D01*
X1649000D01*
X1650000D02*
X1650999Y0521500D01*
X1651999Y0523999D02*
X1652499Y0524499D01*
X1653498D01*
X1653998Y0523999D01*
Y0523499D01*
X1653498Y0522999D01*
X1652999D01*
X1653498D01*
X1653998Y0522500D01*
Y0522000D01*
X1653498Y0521500D01*
X1652499D01*
X1651999Y0522000D01*
X1654998D02*
X1655498Y0521500D01*
X1656498D01*
X1656997Y0522000D01*
Y0523999D01*
X1656498Y0524499D01*
X1655498D01*
X1654998Y0523999D01*
Y0523499D01*
X1655498Y0522999D01*
X1656997D01*
X1776000Y0429500D02*
Y0432499D01*
X1777500D01*
X1777999Y0431999D01*
Y0431000D01*
X1777500Y0430500D01*
X1776000D01*
X1777000D02*
X1777999Y0429500D01*
X1780499D02*
Y0432499D01*
X1778999Y0431000D01*
X1780998D01*
X1783997Y0432499D02*
X1781998D01*
Y0431000D01*
X1782998Y0431499D01*
X1783498D01*
X1783997Y0431000D01*
Y0430000D01*
X1783498Y0429500D01*
X1782498D01*
X1781998Y0430000D01*
X1785405Y0415372D02*
Y0412873D01*
X1785904Y0412373D01*
X1786904D01*
X1787404Y0412873D01*
Y0415372D01*
X1788404Y0412373D02*
X1789403D01*
X1788903D01*
Y0415372D01*
X1788404Y0414872D01*
X1817379Y0358121D02*
X1819147Y0356353D01*
X1819853D01*
X1820560Y0357060D01*
X1820560Y0357767D01*
X1818793Y0359534D01*
X1823034D02*
X1821621Y0358121D01*
Y0360948D01*
X1821267Y0361302D01*
X1820560Y0361302D01*
X1819853Y0360595D01*
Y0359888D01*
X1662500Y0406999D02*
Y0404500D01*
X1663000Y0404000D01*
X1664000D01*
X1664499Y0404500D01*
Y0406999D01*
X1665499Y0406499D02*
X1665999Y0406999D01*
X1666998D01*
X1667498Y0406499D01*
Y0405999D01*
X1666998Y0405500D01*
X1666499D01*
X1666998D01*
X1667498Y0405000D01*
Y0404500D01*
X1666998Y0404000D01*
X1665999D01*
X1665499Y0404500D01*
X1765100Y0353399D02*
Y0350900D01*
X1765600Y0350400D01*
X1766599D01*
X1767099Y0350900D01*
Y0353399D01*
X1769599Y0350400D02*
Y0353399D01*
X1768099Y0351900D01*
X1770098D01*
X1662501Y0415999D02*
X1662001Y0415499D01*
Y0414500D01*
X1662501Y0414000D01*
X1664500D01*
X1665000Y0414500D01*
Y0415499D01*
X1664500Y0415999D01*
Y0416999D02*
X1665000Y0417499D01*
Y0418499D01*
X1664500Y0418998D01*
X1662501D01*
X1662001Y0418499D01*
Y0417499D01*
X1662501Y0416999D01*
X1663001D01*
X1663501Y0417499D01*
Y0418998D01*
X1688501Y0419499D02*
X1688001Y0418999D01*
Y0418000D01*
X1688501Y0417500D01*
X1690500D01*
X1691000Y0418000D01*
Y0418999D01*
X1690500Y0419499D01*
X1691000Y0422498D02*
Y0420499D01*
X1689001Y0422498D01*
X1688501D01*
X1688001Y0421999D01*
Y0420999D01*
X1688501Y0420499D01*
Y0423498D02*
X1688001Y0423998D01*
Y0424998D01*
X1688501Y0425497D01*
X1690500D01*
X1691000Y0424998D01*
Y0423998D01*
X1690500Y0423498D01*
X1688501D01*
X1706999Y0433499D02*
X1706499Y0433999D01*
X1705500D01*
X1705000Y0433499D01*
Y0431500D01*
X1705500Y0431000D01*
X1706499D01*
X1706999Y0431500D01*
X1707999Y0433499D02*
X1708499Y0433999D01*
X1709498D01*
X1709998Y0433499D01*
Y0432999D01*
X1709498Y0432500D01*
X1708999D01*
X1709498D01*
X1709998Y0432000D01*
Y0431500D01*
X1709498Y0431000D01*
X1708499D01*
X1707999Y0431500D01*
X1712997Y0433999D02*
X1710998D01*
Y0432500D01*
X1711998Y0432999D01*
X1712498D01*
X1712997Y0432500D01*
Y0431500D01*
X1712498Y0431000D01*
X1711498D01*
X1710998Y0431500D01*
X1597501Y0464000D02*
X1600500D01*
Y0465999D01*
Y0468998D02*
Y0466999D01*
X1598501Y0468998D01*
X1598001D01*
X1597501Y0468499D01*
Y0467499D01*
X1598001Y0466999D01*
X1656000Y0495499D02*
Y0492500D01*
X1657999D01*
X1658999Y0494999D02*
X1659499Y0495499D01*
X1660498D01*
X1660998Y0494999D01*
Y0494499D01*
X1660498Y0493999D01*
X1659999D01*
X1660498D01*
X1660998Y0493500D01*
Y0493000D01*
X1660498Y0492500D01*
X1659499D01*
X1658999Y0493000D01*
X1726000Y0386500D02*
Y0389499D01*
X1727999Y0386500D01*
Y0389499D01*
X1728999D02*
X1730998D01*
X1729999D01*
Y0386500D01*
X1731998D02*
X1732998D01*
X1732498D01*
Y0389499D01*
X1731998Y0388999D01*
X1653000Y0500000D02*
Y0502999D01*
X1654999Y0500000D01*
Y0502999D01*
X1655999D02*
X1657998D01*
X1656999D01*
Y0500000D01*
X1658998Y0502499D02*
X1659498Y0502999D01*
X1660498D01*
X1660997Y0502499D01*
Y0501999D01*
X1660498Y0501500D01*
X1659998D01*
X1660498D01*
X1660997Y0501000D01*
Y0500500D01*
X1660498Y0500000D01*
X1659498D01*
X1658998Y0500500D01*
X1636000Y0464499D02*
Y0463999D01*
X1637000Y0462999D01*
X1637999Y0463999D01*
Y0464499D01*
X1637000Y0462999D02*
Y0461500D01*
X1638999D02*
X1639999D01*
X1639499D01*
Y0464499D01*
X1638999Y0463999D01*
X1621000Y0493499D02*
Y0492999D01*
X1622000Y0491999D01*
X1622999Y0492999D01*
Y0493499D01*
X1622000Y0491999D02*
Y0490500D01*
X1625998D02*
X1623999D01*
X1625998Y0492499D01*
Y0492999D01*
X1625499Y0493499D01*
X1624499D01*
X1623999Y0492999D01*
X1641000Y0471499D02*
Y0470999D01*
X1642000Y0470000D01*
X1642999Y0470999D01*
Y0471499D01*
X1642000Y0470000D02*
Y0468500D01*
X1643999Y0470999D02*
X1644499Y0471499D01*
X1645498D01*
X1645998Y0470999D01*
Y0470499D01*
X1645498Y0470000D01*
X1644999D01*
X1645498D01*
X1645998Y0469500D01*
Y0469000D01*
X1645498Y0468500D01*
X1644499D01*
X1643999Y0469000D01*
X1682501Y0470499D02*
X1682001Y0470000D01*
Y0469000D01*
X1682501Y0468500D01*
X1684500D01*
X1685000Y0469000D01*
Y0470000D01*
X1684500Y0470499D01*
X1682501Y0471499D02*
X1682001Y0471999D01*
Y0472999D01*
X1682501Y0473498D01*
X1683001D01*
X1683500Y0472999D01*
Y0472499D01*
Y0472999D01*
X1684000Y0473498D01*
X1684500D01*
X1685000Y0472999D01*
Y0471999D01*
X1684500Y0471499D01*
X1682501Y0474498D02*
X1682001Y0474998D01*
Y0475998D01*
X1682501Y0476497D01*
X1683001D01*
X1683500Y0475998D01*
X1684000Y0476497D01*
X1684500D01*
X1685000Y0475998D01*
Y0474998D01*
X1684500Y0474498D01*
X1684000D01*
X1683500Y0474998D01*
X1683001Y0474498D01*
X1682501D01*
X1683500Y0474998D02*
Y0475998D01*
X1704000Y0449000D02*
X1701001D01*
Y0450499D01*
X1701501Y0450999D01*
X1702501D01*
X1703000Y0450499D01*
Y0449000D01*
Y0450000D02*
X1704000Y0450999D01*
Y0451999D02*
Y0452999D01*
Y0452499D01*
X1701001D01*
X1701501Y0451999D01*
X1714500Y0466999D02*
Y0464500D01*
X1715000Y0464000D01*
X1715999D01*
X1716499Y0464500D01*
Y0466999D01*
X1717499Y0466499D02*
X1717999Y0466999D01*
X1718999D01*
X1719498Y0466499D01*
Y0465999D01*
X1718999Y0465499D01*
X1719498Y0465000D01*
Y0464500D01*
X1718999Y0464000D01*
X1717999D01*
X1717499Y0464500D01*
Y0465000D01*
X1717999Y0465499D01*
X1717499Y0465999D01*
Y0466499D01*
X1717999Y0465499D02*
X1718999D01*
X1645500Y0359499D02*
Y0356500D01*
X1647000D01*
X1647499Y0357000D01*
Y0358999D01*
X1647000Y0359499D01*
X1645500D01*
X1649998Y0356500D02*
Y0359499D01*
X1648499Y0357999D01*
X1650498D01*
X1797647Y0365681D02*
X1796940Y0365681D01*
X1796233Y0364974D01*
Y0364267D01*
X1797647Y0362853D01*
X1798353D01*
X1799060Y0363560D01*
X1799060Y0364267D01*
X1800121Y0364621D02*
X1800827Y0365328D01*
X1800474Y0364974D01*
X1798353Y0367095D01*
Y0366388D01*
X1802948Y0367448D02*
X1800827Y0369569D01*
Y0367448D01*
X1802241Y0368862D01*
X1809647Y0347681D02*
X1808940Y0347681D01*
X1808233Y0346974D01*
Y0346267D01*
X1809647Y0344853D01*
X1810353D01*
X1811060Y0345560D01*
X1811060Y0346267D01*
X1812121Y0346621D02*
X1812827Y0347327D01*
X1812474Y0346974D01*
X1810353Y0349095D01*
Y0348388D01*
X1812121Y0350155D02*
Y0350862D01*
X1812827Y0351569D01*
X1813534D01*
X1813888Y0351215D01*
Y0350508D01*
X1814595Y0350508D01*
X1814948Y0350155D01*
X1814948Y0349448D01*
X1814241Y0348741D01*
X1813534D01*
X1813181Y0349095D01*
Y0349802D01*
X1812474Y0349802D01*
X1812121Y0350155D01*
X1813181Y0349802D02*
X1813888Y0350508D01*
X1800647Y0374681D02*
X1799940Y0374681D01*
X1799233Y0373974D01*
Y0373267D01*
X1800647Y0371853D01*
X1801353D01*
X1802060Y0372560D01*
X1802060Y0373267D01*
X1802414Y0377155D02*
X1801000Y0375741D01*
X1802060Y0374681D01*
X1802414Y0375741D01*
X1802767Y0376095D01*
X1803474D01*
X1804181Y0375388D01*
X1804181Y0374681D01*
X1803474Y0373974D01*
X1802767D01*
X1805241Y0375741D02*
X1805948Y0376448D01*
X1805595Y0376095D01*
X1803474Y0378215D01*
Y0377508D01*
X1808147Y0380681D02*
X1807440Y0380681D01*
X1806733Y0379974D01*
Y0379267D01*
X1808147Y0377853D01*
X1808853D01*
X1809560Y0378560D01*
X1809560Y0379267D01*
X1809914Y0383155D02*
X1808500Y0381741D01*
X1809560Y0380681D01*
X1809914Y0381741D01*
X1810267Y0382095D01*
X1810974D01*
X1811681Y0381388D01*
X1811681Y0380681D01*
X1810974Y0379974D01*
X1810267D01*
X1814155Y0383155D02*
X1812741Y0381741D01*
Y0384569D01*
X1812388Y0384922D01*
X1811681D01*
X1810974Y0384215D01*
Y0383508D01*
X1821999Y0474499D02*
X1821000D01*
X1821499D01*
Y0472000D01*
X1821000Y0471500D01*
X1820500D01*
X1820000Y0472000D01*
X1822999D02*
X1823499Y0471500D01*
X1824499D01*
X1824998Y0472000D01*
Y0473999D01*
X1824499Y0474499D01*
X1823499D01*
X1822999Y0473999D01*
Y0473499D01*
X1823499Y0472999D01*
X1824998D01*
X1694222Y0516999D02*
X1693223D01*
X1693723D01*
Y0514500D01*
X1693223Y0514000D01*
X1692723D01*
X1692223Y0514500D01*
X1697221Y0516999D02*
X1696222Y0516499D01*
X1695222Y0515499D01*
Y0514500D01*
X1695722Y0514000D01*
X1696721D01*
X1697221Y0514500D01*
Y0515000D01*
X1696721Y0515499D01*
X1695222D01*
X1717499Y0346999D02*
X1716500D01*
X1716999D01*
Y0344500D01*
X1716500Y0344000D01*
X1716000D01*
X1715500Y0344500D01*
X1719999Y0344000D02*
Y0346999D01*
X1718499Y0345499D01*
X1720498D01*
G54D75*
X1759046Y0355568D02*
X1769068Y0345546D01*
X1781318Y0357796D01*
X1771296Y0367817D02*
X1781318Y0357796D01*
X1759046Y0355568D02*
X1771296Y0367817D01*
G54D76*
X1610213Y0376757D02*
X1611787D01*
X1609425Y0377544D02*
X1611000Y0375969D01*
X1609425Y0377544D02*
X1612575Y0377544D01*
X1611000Y0375969D02*
X1612575Y0377544D01*
X1609400Y0375700D02*
X1612550Y0375700D01*
X1608465Y0359446D02*
X1610039D01*
X1607677Y0360233D02*
X1609252Y0358658D01*
X1607677Y0360233D02*
X1610827Y0360233D01*
X1609252Y0358658D02*
X1610827Y0360233D01*
X1607652Y0358389D02*
X1610802Y0358389D01*
X1651609Y0366056D02*
X1652444Y0366891D01*
X1651330Y0367170D02*
X1654114D01*
X1651330Y0364386D02*
Y0367170D01*
Y0364386D02*
X1654114Y0367170D01*
X1651609Y0365221D02*
X1653279Y0366891D01*
X1649660Y0366056D02*
X1652444Y0368840D01*
X1629134Y0372241D02*
X1630709D01*
X1628346Y0373028D02*
X1629921Y0371453D01*
X1628346Y0373028D02*
X1631496Y0373028D01*
X1629921Y0371453D02*
X1631496Y0373028D01*
X1628321Y0371184D02*
X1631471Y0371184D01*
X1640909Y0410034D02*
X1642091D01*
X1641500Y0411018D02*
X1643468Y0409050D01*
X1639532D02*
X1641500Y0411018D01*
X1639532Y0409050D02*
X1643468D01*
X1640319Y0409443D02*
X1642681D01*
X1639532Y0411412D02*
X1643468D01*
X1622909Y0412366D02*
X1624091D01*
X1621531Y0413350D02*
X1623500Y0411382D01*
X1625468Y0413350D01*
X1621531D02*
X1625468D01*
X1622319Y0412957D02*
X1624681D01*
X1621531Y0410988D02*
X1625468D01*
X1631909Y0411866D02*
X1633091D01*
X1630532Y0412850D02*
X1632500Y0410882D01*
X1634468Y0412850D01*
X1630532D02*
X1634468D01*
X1631319Y0412457D02*
X1633681D01*
X1630532Y0410488D02*
X1634468Y0410488D01*
X1638369Y0396287D02*
X1638369Y0394713D01*
X1637582Y0393925D02*
X1639157Y0395500D01*
X1637582Y0393925D02*
Y0397075D01*
X1639157Y0395500D01*
X1639426Y0397050D02*
X1639426Y0393900D01*
X1687342Y0407201D02*
Y0419799D01*
X1667657Y0407201D02*
Y0419799D01*
X1687342D01*
X1667657Y0407201D02*
X1687342D01*
X1650067Y0457587D02*
Y0459949D01*
X1647705Y0459949D02*
X1650067Y0459949D01*
X1632744Y0443413D02*
X1632744Y0441051D01*
X1635106D01*
X1647705D02*
X1650067D01*
Y0443413D01*
X1632744Y0455224D02*
X1632744Y0459949D01*
X1637469D01*
G54D77*
X1638563Y0480575D02*
X1638563Y0477425D01*
X1646437D02*
Y0480575D01*
G54D78*
X1766632Y0335240D02*
X1767197Y0335806D01*
X1766632Y0335240D02*
X1772289Y0329583D01*
X1772854Y0330149D01*
X1781481Y0338775D02*
X1782047Y0339341D01*
X1776390Y0344998D02*
X1782047Y0339341D01*
X1775683Y0344291D02*
X1776390Y0344998D01*
G54D79*
X1806313Y0365128D02*
D03*
M02*
