G04 Layer_Physical_Order=3*
G04 Layer_Color=16440176*
%FSAX25Y25*%
%MOIN*%
G70*
G01*
G75*
%ADD41C,0.01000*%
%ADD53R,0.07874X0.07874*%
%ADD59C,0.04000*%
G36*
X1684000Y0562391D02*
X1684000Y0518833D01*
X1683487Y0518620D01*
X1682860Y0518140D01*
X1682380Y0517513D01*
X1682077Y0516783D01*
X1681974Y0516000D01*
X1682077Y0515217D01*
X1682380Y0514487D01*
X1682860Y0513860D01*
X1683487Y0513379D01*
X1684000Y0513167D01*
Y0507874D01*
X1720472Y0507874D01*
X1731099Y0518500D01*
X1753153Y0518500D01*
X1787402Y0484252D01*
X1787402Y0459666D01*
X1786833Y0459230D01*
X1786042Y0458198D01*
X1785544Y0456997D01*
X1785375Y0455709D01*
X1785544Y0454420D01*
X1785795Y0453815D01*
X1785371Y0453532D01*
X1783283Y0455620D01*
X1776301Y0448638D01*
X1783283Y0441656D01*
X1786940Y0445312D01*
X1787402Y0445121D01*
Y0444882D01*
Y0405512D01*
X1842114Y0405512D01*
X1842422Y0405118D01*
X1835821Y0378595D01*
X1819843Y0351926D01*
X1819395Y0352151D01*
X1819423Y0352217D01*
X1819526Y0353000D01*
X1819423Y0353783D01*
X1819120Y0354513D01*
X1818640Y0355140D01*
X1818013Y0355621D01*
X1817283Y0355923D01*
X1816500Y0356026D01*
X1815717Y0355923D01*
X1814987Y0355621D01*
X1814360Y0355140D01*
X1813880Y0354513D01*
X1813577Y0353783D01*
X1813474Y0353000D01*
X1813577Y0352217D01*
X1813880Y0351487D01*
X1814360Y0350860D01*
X1814987Y0350379D01*
X1815717Y0350077D01*
X1816500Y0349974D01*
X1817283Y0350077D01*
X1818013Y0350379D01*
X1818640Y0350860D01*
X1819016Y0350544D01*
X1814490Y0342990D01*
X1799000Y0326500D01*
X1778776Y0311776D01*
X1765432Y0304432D01*
X1752000Y0299000D01*
X1736613Y0295368D01*
X1736221Y0295678D01*
Y0299039D01*
X1746079D01*
Y0308913D01*
X1743126D01*
X1743027Y0309413D01*
X1743632Y0309664D01*
X1744663Y0310455D01*
X1745454Y0311487D01*
X1745952Y0312688D01*
X1746121Y0313976D01*
X1745952Y0315265D01*
X1745454Y0316466D01*
X1744663Y0317497D01*
X1743632Y0318289D01*
X1742625Y0318706D01*
Y0319247D01*
X1743632Y0319664D01*
X1744663Y0320455D01*
X1745454Y0321487D01*
X1745952Y0322688D01*
X1746121Y0323976D01*
X1745952Y0325265D01*
X1745454Y0326466D01*
X1744663Y0327498D01*
X1743632Y0328289D01*
X1742625Y0328706D01*
Y0329247D01*
X1743632Y0329664D01*
X1744663Y0330455D01*
X1745454Y0331487D01*
X1745952Y0332688D01*
X1746121Y0333976D01*
X1745952Y0335265D01*
X1745454Y0336466D01*
X1744663Y0337497D01*
X1743632Y0338289D01*
X1742430Y0338786D01*
X1741142Y0338956D01*
X1739853Y0338786D01*
X1738652Y0338289D01*
X1737621Y0337497D01*
X1736829Y0336466D01*
X1736720Y0336204D01*
X1736221Y0336303D01*
Y0354331D01*
X1744094Y0362205D01*
X1771654Y0389764D01*
Y0395319D01*
X1771984Y0395362D01*
X1773079Y0395815D01*
X1774019Y0396537D01*
X1774740Y0397477D01*
X1775193Y0398571D01*
X1775348Y0399746D01*
X1775193Y0400921D01*
X1774740Y0402016D01*
X1774019Y0402956D01*
X1773079Y0403677D01*
X1771984Y0404130D01*
X1771654Y0404174D01*
X1771654Y0437008D01*
X1734175Y0474486D01*
X1734123Y0474883D01*
X1733821Y0475613D01*
X1733340Y0476240D01*
X1732713Y0476721D01*
X1731983Y0477023D01*
X1731586Y0477075D01*
X1728346Y0480315D01*
X1710410D01*
X1710121Y0481013D01*
X1709640Y0481640D01*
X1709013Y0482121D01*
X1708283Y0482423D01*
X1707500Y0482526D01*
X1706717Y0482423D01*
X1705987Y0482121D01*
X1705360Y0481640D01*
X1704880Y0481013D01*
X1704577Y0480283D01*
X1704560Y0480150D01*
X1697171Y0472762D01*
X1696783Y0472923D01*
X1696000Y0473026D01*
X1695217Y0472923D01*
X1694487Y0472620D01*
X1693860Y0472140D01*
X1693380Y0471513D01*
X1693077Y0470783D01*
X1692974Y0470000D01*
X1693077Y0469217D01*
X1693238Y0468829D01*
X1688976Y0464567D01*
X1679848D01*
X1679518Y0464943D01*
X1679526Y0465000D01*
X1679423Y0465783D01*
X1679120Y0466513D01*
X1678640Y0467140D01*
X1678013Y0467621D01*
X1677283Y0467923D01*
X1677000Y0467960D01*
Y0465000D01*
X1676000D01*
Y0467960D01*
X1675717Y0467923D01*
X1674987Y0467621D01*
X1674360Y0467140D01*
X1673879Y0466513D01*
X1673728Y0466148D01*
X1673228Y0466248D01*
Y0483262D01*
X1673513Y0483380D01*
X1674140Y0483860D01*
X1674620Y0484487D01*
X1674923Y0485217D01*
X1675026Y0486000D01*
X1674923Y0486783D01*
X1674620Y0487513D01*
X1674615Y0487521D01*
X1674885Y0487989D01*
X1675000Y0487974D01*
X1675783Y0488077D01*
X1676513Y0488379D01*
X1677140Y0488860D01*
X1677621Y0489487D01*
X1677923Y0490217D01*
X1678026Y0491000D01*
X1677923Y0491783D01*
X1677621Y0492513D01*
X1677140Y0493140D01*
X1676513Y0493620D01*
X1675783Y0493923D01*
X1675000Y0494026D01*
X1674217Y0493923D01*
X1673487Y0493620D01*
X1672860Y0493140D01*
X1672379Y0492513D01*
X1672077Y0491783D01*
X1671974Y0491000D01*
X1672077Y0490217D01*
X1672379Y0489487D01*
X1672385Y0489479D01*
X1672115Y0489011D01*
X1672000Y0489026D01*
X1671217Y0488923D01*
X1670487Y0488621D01*
X1669860Y0488140D01*
X1669379Y0487513D01*
X1669077Y0486783D01*
X1668974Y0486000D01*
X1669077Y0485217D01*
X1669270Y0484752D01*
X1668961Y0484252D01*
X1638243D01*
X1638026Y0484500D01*
X1637923Y0485283D01*
X1637621Y0486013D01*
X1637140Y0486640D01*
X1636513Y0487120D01*
X1635783Y0487423D01*
X1635000Y0487526D01*
X1634329Y0487438D01*
X1634113Y0487698D01*
X1634042Y0487885D01*
X1634121Y0487987D01*
X1634423Y0488717D01*
X1634526Y0489500D01*
X1634423Y0490283D01*
X1634121Y0491013D01*
X1633640Y0491640D01*
X1633013Y0492121D01*
X1632283Y0492423D01*
X1631500Y0492526D01*
X1630717Y0492423D01*
X1629987Y0492121D01*
X1629360Y0491640D01*
X1628880Y0491013D01*
X1628577Y0490283D01*
X1628474Y0489500D01*
X1628577Y0488717D01*
X1628880Y0487987D01*
X1629360Y0487360D01*
X1629987Y0486879D01*
X1630717Y0486577D01*
X1631500Y0486474D01*
X1632171Y0486562D01*
X1632387Y0486302D01*
X1632458Y0486115D01*
X1632380Y0486013D01*
X1632077Y0485283D01*
X1631974Y0484500D01*
X1632077Y0483717D01*
X1632380Y0482987D01*
X1632716Y0482549D01*
X1632539Y0482172D01*
X1632034Y0482059D01*
X1632013Y0482075D01*
X1631283Y0482377D01*
X1630500Y0482480D01*
X1629717Y0482377D01*
X1628987Y0482075D01*
X1628360Y0481594D01*
X1627880Y0480967D01*
X1627577Y0480237D01*
X1627474Y0479454D01*
X1627577Y0478671D01*
X1627880Y0477941D01*
X1628360Y0477315D01*
X1628987Y0476834D01*
X1629034Y0476814D01*
X1629193Y0476340D01*
X1619930Y0460630D01*
X1575223D01*
X1574926Y0461032D01*
X1579500Y0476000D01*
X1587524Y0493036D01*
X1602555Y0515555D01*
X1622547Y0534933D01*
X1641732Y0547244D01*
X1665000Y0559000D01*
X1683614Y0562708D01*
X1684000Y0562391D01*
D02*
G37*
%LPC*%
G36*
X1775500Y0478500D02*
X1773040D01*
X1773077Y0478217D01*
X1773380Y0477487D01*
X1773860Y0476860D01*
X1774487Y0476379D01*
X1775217Y0476077D01*
X1775500Y0476040D01*
Y0478500D01*
D02*
G37*
G36*
X1613900Y0476126D02*
X1613117Y0476023D01*
X1612387Y0475721D01*
X1611760Y0475240D01*
X1611279Y0474613D01*
X1610977Y0473883D01*
X1610874Y0473100D01*
X1610977Y0472317D01*
X1611279Y0471587D01*
X1611760Y0470960D01*
X1612387Y0470479D01*
X1613117Y0470177D01*
X1613900Y0470074D01*
X1614683Y0470177D01*
X1615413Y0470479D01*
X1616040Y0470960D01*
X1616521Y0471587D01*
X1616823Y0472317D01*
X1616926Y0473100D01*
X1616823Y0473883D01*
X1616521Y0474613D01*
X1616040Y0475240D01*
X1615413Y0475721D01*
X1614683Y0476023D01*
X1613900Y0476126D01*
D02*
G37*
G36*
X1606500Y0481000D02*
X1602063D01*
Y0476563D01*
X1606500D01*
Y0481000D01*
D02*
G37*
G36*
X1778960Y0478500D02*
X1776500D01*
Y0476040D01*
X1776783Y0476077D01*
X1777513Y0476379D01*
X1778140Y0476860D01*
X1778621Y0477487D01*
X1778923Y0478217D01*
X1778960Y0478500D01*
D02*
G37*
G36*
X1782000Y0413526D02*
X1781217Y0413423D01*
X1780487Y0413121D01*
X1779860Y0412640D01*
X1779379Y0412013D01*
X1779077Y0411283D01*
X1778974Y0410500D01*
X1778989Y0410385D01*
X1778521Y0410115D01*
X1778513Y0410120D01*
X1777783Y0410423D01*
X1777000Y0410526D01*
X1776217Y0410423D01*
X1775487Y0410120D01*
X1774860Y0409640D01*
X1774380Y0409013D01*
X1774077Y0408283D01*
X1773974Y0407500D01*
X1774077Y0406717D01*
X1774380Y0405987D01*
X1774860Y0405360D01*
X1775487Y0404880D01*
X1776217Y0404577D01*
X1777000Y0404474D01*
X1777783Y0404577D01*
X1778513Y0404880D01*
X1779140Y0405360D01*
X1779621Y0405987D01*
X1779923Y0406717D01*
X1780026Y0407500D01*
X1780011Y0407615D01*
X1780479Y0407885D01*
X1780487Y0407879D01*
X1781217Y0407577D01*
X1782000Y0407474D01*
X1782783Y0407577D01*
X1783513Y0407879D01*
X1784140Y0408360D01*
X1784620Y0408987D01*
X1784923Y0409717D01*
X1785026Y0410500D01*
X1784923Y0411283D01*
X1784620Y0412013D01*
X1784140Y0412640D01*
X1783513Y0413121D01*
X1782783Y0413423D01*
X1782000Y0413526D01*
D02*
G37*
G36*
X1801181Y0402007D02*
X1800398Y0401904D01*
X1799668Y0401602D01*
X1799042Y0401121D01*
X1798561Y0400494D01*
X1798258Y0399764D01*
X1798155Y0398981D01*
X1798258Y0398198D01*
X1798561Y0397468D01*
X1799042Y0396842D01*
X1799668Y0396361D01*
X1800398Y0396058D01*
X1801181Y0395955D01*
X1801964Y0396058D01*
X1802694Y0396361D01*
X1803321Y0396842D01*
X1803802Y0397468D01*
X1804104Y0398198D01*
X1804207Y0398981D01*
X1804104Y0399764D01*
X1803802Y0400494D01*
X1803321Y0401121D01*
X1802694Y0401602D01*
X1801964Y0401904D01*
X1801181Y0402007D01*
D02*
G37*
G36*
X1754000Y0464526D02*
X1753217Y0464423D01*
X1752487Y0464120D01*
X1751860Y0463640D01*
X1751380Y0463013D01*
X1751077Y0462283D01*
X1750974Y0461500D01*
X1751077Y0460717D01*
X1751380Y0459987D01*
X1751860Y0459360D01*
X1752487Y0458880D01*
X1753217Y0458577D01*
X1754000Y0458474D01*
X1754783Y0458577D01*
X1755513Y0458880D01*
X1756140Y0459360D01*
X1756620Y0459987D01*
X1756923Y0460717D01*
X1757026Y0461500D01*
X1756923Y0462283D01*
X1756620Y0463013D01*
X1756140Y0463640D01*
X1755513Y0464120D01*
X1754783Y0464423D01*
X1754000Y0464526D01*
D02*
G37*
G36*
X1773500Y0449526D02*
X1772717Y0449423D01*
X1771987Y0449121D01*
X1771360Y0448640D01*
X1770880Y0448013D01*
X1770577Y0447283D01*
X1770474Y0446500D01*
X1770577Y0445717D01*
X1770880Y0444987D01*
X1771360Y0444360D01*
X1771987Y0443880D01*
X1772717Y0443577D01*
X1773500Y0443474D01*
X1774283Y0443577D01*
X1775013Y0443880D01*
X1775640Y0444360D01*
X1776121Y0444987D01*
X1776423Y0445717D01*
X1776526Y0446500D01*
X1776423Y0447283D01*
X1776121Y0448013D01*
X1775640Y0448640D01*
X1775013Y0449121D01*
X1774283Y0449423D01*
X1773500Y0449526D01*
D02*
G37*
G36*
X1607000Y0516480D02*
X1605711Y0516310D01*
X1604510Y0515812D01*
X1603479Y0515021D01*
X1602687Y0513990D01*
X1602190Y0512789D01*
X1602020Y0511500D01*
X1602190Y0510211D01*
X1602687Y0509010D01*
X1603479Y0507979D01*
X1604510Y0507188D01*
X1605517Y0506771D01*
Y0506229D01*
X1604510Y0505813D01*
X1603479Y0505021D01*
X1602687Y0503990D01*
X1602190Y0502789D01*
X1602020Y0501500D01*
X1602190Y0500211D01*
X1602687Y0499010D01*
X1603479Y0497979D01*
X1604510Y0497188D01*
X1605517Y0496771D01*
Y0496229D01*
X1604510Y0495813D01*
X1603479Y0495021D01*
X1602687Y0493990D01*
X1602190Y0492789D01*
X1602020Y0491500D01*
X1602190Y0490211D01*
X1602687Y0489010D01*
X1603479Y0487979D01*
X1604510Y0487187D01*
X1605115Y0486937D01*
X1605016Y0486437D01*
X1602063D01*
Y0482000D01*
X1607000D01*
X1611937D01*
Y0486437D01*
X1608984D01*
X1608885Y0486937D01*
X1609490Y0487187D01*
X1610521Y0487979D01*
X1611312Y0489010D01*
X1611810Y0490211D01*
X1611980Y0491500D01*
X1611810Y0492789D01*
X1611312Y0493990D01*
X1610521Y0495021D01*
X1609490Y0495813D01*
X1608483Y0496229D01*
Y0496771D01*
X1609490Y0497188D01*
X1610521Y0497979D01*
X1611312Y0499010D01*
X1611810Y0500211D01*
X1611980Y0501500D01*
X1611810Y0502789D01*
X1611312Y0503990D01*
X1610521Y0505021D01*
X1609490Y0505813D01*
X1608483Y0506229D01*
Y0506771D01*
X1609490Y0507188D01*
X1610521Y0507979D01*
X1611312Y0509010D01*
X1611810Y0510211D01*
X1611980Y0511500D01*
X1611810Y0512789D01*
X1611312Y0513990D01*
X1610521Y0515021D01*
X1609490Y0515812D01*
X1608289Y0516310D01*
X1607000Y0516480D01*
D02*
G37*
G36*
X1730000Y0488026D02*
X1729217Y0487923D01*
X1728487Y0487620D01*
X1727860Y0487140D01*
X1727379Y0486513D01*
X1727077Y0485783D01*
X1726974Y0485000D01*
X1727077Y0484217D01*
X1727379Y0483487D01*
X1727860Y0482860D01*
X1728487Y0482379D01*
X1729217Y0482077D01*
X1730000Y0481974D01*
X1730783Y0482077D01*
X1731513Y0482379D01*
X1732140Y0482860D01*
X1732620Y0483487D01*
X1732923Y0484217D01*
X1733026Y0485000D01*
X1732923Y0485783D01*
X1732620Y0486513D01*
X1732140Y0487140D01*
X1731513Y0487620D01*
X1730783Y0487923D01*
X1730000Y0488026D01*
D02*
G37*
G36*
X1725960Y0487000D02*
X1723500D01*
Y0484540D01*
X1723783Y0484577D01*
X1724513Y0484879D01*
X1725140Y0485360D01*
X1725620Y0485987D01*
X1725923Y0486717D01*
X1725960Y0487000D01*
D02*
G37*
G36*
X1722500D02*
X1720040D01*
X1720077Y0486717D01*
X1720379Y0485987D01*
X1720860Y0485360D01*
X1721487Y0484879D01*
X1722217Y0484577D01*
X1722500Y0484540D01*
Y0487000D01*
D02*
G37*
G36*
X1678000Y0483526D02*
X1677217Y0483423D01*
X1676487Y0483120D01*
X1675860Y0482640D01*
X1675380Y0482013D01*
X1675077Y0481283D01*
X1674974Y0480500D01*
X1675077Y0479717D01*
X1675380Y0478987D01*
X1675860Y0478360D01*
X1676487Y0477879D01*
X1677217Y0477577D01*
X1678000Y0477474D01*
X1678783Y0477577D01*
X1679513Y0477879D01*
X1680140Y0478360D01*
X1680621Y0478987D01*
X1680923Y0479717D01*
X1681026Y0480500D01*
X1680923Y0481283D01*
X1680621Y0482013D01*
X1680140Y0482640D01*
X1679513Y0483120D01*
X1678783Y0483423D01*
X1678000Y0483526D01*
D02*
G37*
G36*
X1611937Y0481000D02*
X1607500D01*
Y0476563D01*
X1611937D01*
Y0481000D01*
D02*
G37*
G36*
X1776500Y0481960D02*
Y0479500D01*
X1778960D01*
X1778923Y0479783D01*
X1778621Y0480513D01*
X1778140Y0481140D01*
X1777513Y0481621D01*
X1776783Y0481923D01*
X1776500Y0481960D01*
D02*
G37*
G36*
X1775500D02*
X1775217Y0481923D01*
X1774487Y0481621D01*
X1773860Y0481140D01*
X1773380Y0480513D01*
X1773077Y0479783D01*
X1773040Y0479500D01*
X1775500D01*
Y0481960D01*
D02*
G37*
G36*
X1749000Y0356526D02*
X1748217Y0356423D01*
X1747487Y0356120D01*
X1746860Y0355640D01*
X1746379Y0355013D01*
X1746077Y0354283D01*
X1745974Y0353500D01*
X1746077Y0352717D01*
X1746379Y0351987D01*
X1746860Y0351360D01*
X1747487Y0350880D01*
X1748217Y0350577D01*
X1749000Y0350474D01*
X1749783Y0350577D01*
X1750513Y0350880D01*
X1751140Y0351360D01*
X1751620Y0351987D01*
X1751923Y0352717D01*
X1752026Y0353500D01*
X1751923Y0354283D01*
X1751620Y0355013D01*
X1751140Y0355640D01*
X1750513Y0356120D01*
X1749783Y0356423D01*
X1749000Y0356526D01*
D02*
G37*
G36*
X1755500Y0356026D02*
X1754717Y0355923D01*
X1753987Y0355621D01*
X1753360Y0355140D01*
X1752880Y0354513D01*
X1752577Y0353783D01*
X1752474Y0353000D01*
X1752577Y0352217D01*
X1752880Y0351487D01*
X1753360Y0350860D01*
X1753987Y0350379D01*
X1754717Y0350077D01*
X1755500Y0349974D01*
X1756283Y0350077D01*
X1757013Y0350379D01*
X1757409Y0350683D01*
X1757820Y0350368D01*
X1757577Y0349783D01*
X1757474Y0349000D01*
X1757577Y0348217D01*
X1757879Y0347487D01*
X1758360Y0346860D01*
X1758987Y0346379D01*
X1759717Y0346077D01*
X1760500Y0345974D01*
X1761283Y0346077D01*
X1762013Y0346379D01*
X1762640Y0346860D01*
X1763120Y0347487D01*
X1763423Y0348217D01*
X1763526Y0349000D01*
X1763423Y0349783D01*
X1763120Y0350513D01*
X1762640Y0351140D01*
X1762013Y0351621D01*
X1761283Y0351923D01*
X1760500Y0352026D01*
X1759717Y0351923D01*
X1758987Y0351621D01*
X1758591Y0351317D01*
X1758180Y0351632D01*
X1758423Y0352217D01*
X1758526Y0353000D01*
X1758423Y0353783D01*
X1758121Y0354513D01*
X1757640Y0355140D01*
X1757013Y0355621D01*
X1756283Y0355923D01*
X1755500Y0356026D01*
D02*
G37*
G36*
X1794500Y0362526D02*
X1793717Y0362423D01*
X1792987Y0362121D01*
X1792360Y0361640D01*
X1791879Y0361013D01*
X1791577Y0360283D01*
X1791474Y0359500D01*
X1791577Y0358717D01*
X1791879Y0357987D01*
X1792360Y0357360D01*
X1792987Y0356879D01*
X1793717Y0356577D01*
X1794500Y0356474D01*
X1795283Y0356577D01*
X1796013Y0356879D01*
X1796640Y0357360D01*
X1797120Y0357987D01*
X1797423Y0358717D01*
X1797526Y0359500D01*
X1797423Y0360283D01*
X1797120Y0361013D01*
X1796640Y0361640D01*
X1796013Y0362121D01*
X1795283Y0362423D01*
X1794500Y0362526D01*
D02*
G37*
G36*
X1783275Y0360751D02*
X1782492Y0360648D01*
X1781762Y0360346D01*
X1781135Y0359865D01*
X1780654Y0359238D01*
X1780352Y0358508D01*
X1780249Y0357725D01*
X1780352Y0356942D01*
X1780654Y0356212D01*
X1781135Y0355586D01*
X1781762Y0355105D01*
X1782492Y0354802D01*
X1783275Y0354699D01*
X1784058Y0354802D01*
X1784788Y0355105D01*
X1785414Y0355586D01*
X1785895Y0356212D01*
X1786198Y0356942D01*
X1786301Y0357725D01*
X1786198Y0358508D01*
X1785895Y0359238D01*
X1785414Y0359865D01*
X1784788Y0360346D01*
X1784058Y0360648D01*
X1783275Y0360751D01*
D02*
G37*
G36*
X1757000Y0334026D02*
X1756217Y0333923D01*
X1755487Y0333621D01*
X1754860Y0333140D01*
X1754379Y0332513D01*
X1754077Y0331783D01*
X1753974Y0331000D01*
X1754077Y0330217D01*
X1754379Y0329487D01*
X1754860Y0328860D01*
X1755487Y0328380D01*
X1756217Y0328077D01*
X1757000Y0327974D01*
X1757783Y0328077D01*
X1758513Y0328380D01*
X1759140Y0328860D01*
X1759620Y0329487D01*
X1759923Y0330217D01*
X1760026Y0331000D01*
X1759923Y0331783D01*
X1759620Y0332513D01*
X1759140Y0333140D01*
X1758513Y0333621D01*
X1757783Y0333923D01*
X1757000Y0334026D01*
D02*
G37*
G36*
X1771100Y0321926D02*
X1770317Y0321823D01*
X1769587Y0321520D01*
X1768960Y0321040D01*
X1768480Y0320413D01*
X1768177Y0319683D01*
X1768074Y0318900D01*
X1768177Y0318117D01*
X1768480Y0317387D01*
X1768960Y0316760D01*
X1769587Y0316280D01*
X1770317Y0315977D01*
X1771100Y0315874D01*
X1771883Y0315977D01*
X1772613Y0316280D01*
X1773240Y0316760D01*
X1773721Y0317387D01*
X1774023Y0318117D01*
X1774126Y0318900D01*
X1774023Y0319683D01*
X1773721Y0320413D01*
X1773240Y0321040D01*
X1772613Y0321520D01*
X1771883Y0321823D01*
X1771100Y0321926D01*
D02*
G37*
G36*
X1776100Y0342226D02*
X1775317Y0342123D01*
X1774587Y0341821D01*
X1773960Y0341340D01*
X1773479Y0340713D01*
X1773177Y0339983D01*
X1773074Y0339200D01*
X1773177Y0338417D01*
X1773479Y0337687D01*
X1773960Y0337060D01*
X1774587Y0336579D01*
X1775317Y0336277D01*
X1776100Y0336174D01*
X1776883Y0336277D01*
X1777613Y0336579D01*
X1778240Y0337060D01*
X1778720Y0337687D01*
X1779023Y0338417D01*
X1779126Y0339200D01*
X1779023Y0339983D01*
X1778720Y0340713D01*
X1778240Y0341340D01*
X1777613Y0341821D01*
X1776883Y0342123D01*
X1776100Y0342226D01*
D02*
G37*
G36*
X1793500Y0339026D02*
X1792717Y0338923D01*
X1791987Y0338620D01*
X1791360Y0338140D01*
X1790879Y0337513D01*
X1790577Y0336783D01*
X1790474Y0336000D01*
X1790577Y0335217D01*
X1790879Y0334487D01*
X1791360Y0333860D01*
X1791987Y0333380D01*
X1792717Y0333077D01*
X1793500Y0332974D01*
X1794283Y0333077D01*
X1795013Y0333380D01*
X1795640Y0333860D01*
X1796120Y0334487D01*
X1796423Y0335217D01*
X1796526Y0336000D01*
X1796423Y0336783D01*
X1796120Y0337513D01*
X1795640Y0338140D01*
X1795013Y0338620D01*
X1794283Y0338923D01*
X1793500Y0339026D01*
D02*
G37*
G36*
X1810500Y0365026D02*
X1809717Y0364923D01*
X1808987Y0364620D01*
X1808360Y0364140D01*
X1807879Y0363513D01*
X1807577Y0362783D01*
X1807474Y0362000D01*
X1807577Y0361217D01*
X1807879Y0360487D01*
X1808360Y0359860D01*
X1808987Y0359380D01*
X1809717Y0359077D01*
X1810500Y0358974D01*
X1811283Y0359077D01*
X1812013Y0359380D01*
X1812640Y0359860D01*
X1813120Y0360487D01*
X1813423Y0361217D01*
X1813526Y0362000D01*
X1813423Y0362783D01*
X1813120Y0363513D01*
X1812640Y0364140D01*
X1812013Y0364620D01*
X1811283Y0364923D01*
X1810500Y0365026D01*
D02*
G37*
G36*
X1817921Y0385327D02*
X1815461D01*
Y0382867D01*
X1815744Y0382904D01*
X1816474Y0383206D01*
X1817100Y0383687D01*
X1817581Y0384314D01*
X1817883Y0385044D01*
X1817921Y0385327D01*
D02*
G37*
G36*
X1814461D02*
X1812001D01*
X1812038Y0385044D01*
X1812340Y0384314D01*
X1812821Y0383687D01*
X1813448Y0383206D01*
X1814178Y0382904D01*
X1814461Y0382867D01*
Y0385327D01*
D02*
G37*
G36*
X1815461Y0388787D02*
Y0386327D01*
X1817921D01*
X1817883Y0386610D01*
X1817581Y0387340D01*
X1817100Y0387966D01*
X1816474Y0388447D01*
X1815744Y0388750D01*
X1815461Y0388787D01*
D02*
G37*
G36*
X1814461D02*
X1814178Y0388750D01*
X1813448Y0388447D01*
X1812821Y0387966D01*
X1812340Y0387340D01*
X1812038Y0386610D01*
X1812001Y0386327D01*
X1814461D01*
Y0388787D01*
D02*
G37*
G36*
X1776500Y0369526D02*
X1775717Y0369423D01*
X1774987Y0369121D01*
X1774360Y0368640D01*
X1773879Y0368013D01*
X1773577Y0367283D01*
X1773474Y0366500D01*
X1773577Y0365717D01*
X1773879Y0364987D01*
X1774360Y0364360D01*
X1774987Y0363879D01*
X1775717Y0363577D01*
X1776500Y0363474D01*
X1777283Y0363577D01*
X1778013Y0363879D01*
X1778640Y0364360D01*
X1779120Y0364987D01*
X1779423Y0365717D01*
X1779526Y0366500D01*
X1779423Y0367283D01*
X1779120Y0368013D01*
X1778640Y0368640D01*
X1778013Y0369121D01*
X1777283Y0369423D01*
X1776500Y0369526D01*
D02*
G37*
G36*
X1823000Y0367526D02*
X1822217Y0367423D01*
X1821487Y0367121D01*
X1820860Y0366640D01*
X1820379Y0366013D01*
X1820077Y0365283D01*
X1819974Y0364500D01*
X1820077Y0363717D01*
X1820379Y0362987D01*
X1820860Y0362360D01*
X1821487Y0361879D01*
X1822217Y0361577D01*
X1823000Y0361474D01*
X1823783Y0361577D01*
X1824513Y0361879D01*
X1825140Y0362360D01*
X1825620Y0362987D01*
X1825923Y0363717D01*
X1826026Y0364500D01*
X1825923Y0365283D01*
X1825620Y0366013D01*
X1825140Y0366640D01*
X1824513Y0367121D01*
X1823783Y0367423D01*
X1823000Y0367526D01*
D02*
G37*
G36*
X1786300Y0383426D02*
X1785517Y0383323D01*
X1784787Y0383020D01*
X1784160Y0382540D01*
X1783680Y0381913D01*
X1783377Y0381183D01*
X1783274Y0380400D01*
X1783377Y0379617D01*
X1783680Y0378887D01*
X1784160Y0378260D01*
X1784787Y0377780D01*
X1785517Y0377477D01*
X1786300Y0377374D01*
X1787083Y0377477D01*
X1787813Y0377780D01*
X1788440Y0378260D01*
X1788921Y0378887D01*
X1789223Y0379617D01*
X1789326Y0380400D01*
X1789223Y0381183D01*
X1788921Y0381913D01*
X1788440Y0382540D01*
X1787813Y0383020D01*
X1787083Y0383323D01*
X1786300Y0383426D01*
D02*
G37*
G36*
X1808500Y0377526D02*
X1807717Y0377423D01*
X1806987Y0377120D01*
X1806360Y0376640D01*
X1805880Y0376013D01*
X1805577Y0375283D01*
X1805474Y0374500D01*
X1805577Y0373717D01*
X1805880Y0372987D01*
X1806360Y0372360D01*
X1806987Y0371880D01*
X1807717Y0371577D01*
X1808500Y0371474D01*
X1809283Y0371577D01*
X1810013Y0371880D01*
X1810640Y0372360D01*
X1811120Y0372987D01*
X1811423Y0373717D01*
X1811526Y0374500D01*
X1811423Y0375283D01*
X1811120Y0376013D01*
X1810640Y0376640D01*
X1810013Y0377120D01*
X1809283Y0377423D01*
X1808500Y0377526D01*
D02*
G37*
G36*
X1617000Y0491526D02*
X1616217Y0491423D01*
X1615487Y0491120D01*
X1614860Y0490640D01*
X1614380Y0490013D01*
X1614077Y0489283D01*
X1613974Y0488500D01*
X1614077Y0487717D01*
X1614380Y0486987D01*
X1614860Y0486360D01*
X1615487Y0485880D01*
X1616217Y0485577D01*
X1617000Y0485474D01*
X1617783Y0485577D01*
X1618513Y0485880D01*
X1619140Y0486360D01*
X1619621Y0486987D01*
X1619923Y0487717D01*
X1620026Y0488500D01*
X1619923Y0489283D01*
X1619621Y0490013D01*
X1619140Y0490640D01*
X1618513Y0491120D01*
X1617783Y0491423D01*
X1617000Y0491526D01*
D02*
G37*
G36*
X1627000Y0521026D02*
X1626217Y0520923D01*
X1625487Y0520620D01*
X1624860Y0520140D01*
X1624380Y0519513D01*
X1624077Y0518783D01*
X1623974Y0518000D01*
X1624077Y0517217D01*
X1624380Y0516487D01*
X1624860Y0515860D01*
X1625487Y0515379D01*
X1626217Y0515077D01*
X1627000Y0514974D01*
X1627783Y0515077D01*
X1628513Y0515379D01*
X1629140Y0515860D01*
X1629621Y0516487D01*
X1629923Y0517217D01*
X1630026Y0518000D01*
X1629923Y0518783D01*
X1629621Y0519513D01*
X1629140Y0520140D01*
X1628513Y0520620D01*
X1627783Y0520923D01*
X1627000Y0521026D01*
D02*
G37*
G36*
X1618460Y0515000D02*
X1616000D01*
Y0512540D01*
X1616283Y0512577D01*
X1617013Y0512880D01*
X1617640Y0513360D01*
X1618121Y0513987D01*
X1618423Y0514717D01*
X1618460Y0515000D01*
D02*
G37*
G36*
X1616000Y0518460D02*
Y0516000D01*
X1618460D01*
X1618423Y0516283D01*
X1618121Y0517013D01*
X1617640Y0517640D01*
X1617013Y0518120D01*
X1616283Y0518423D01*
X1616000Y0518460D01*
D02*
G37*
G36*
X1615000D02*
X1614717Y0518423D01*
X1613987Y0518120D01*
X1613360Y0517640D01*
X1612880Y0517013D01*
X1612577Y0516283D01*
X1612540Y0516000D01*
X1615000D01*
Y0518460D01*
D02*
G37*
G36*
X1755500Y0511526D02*
X1754717Y0511423D01*
X1753987Y0511121D01*
X1753360Y0510640D01*
X1752880Y0510013D01*
X1752577Y0509283D01*
X1752474Y0508500D01*
X1752577Y0507717D01*
X1752880Y0506987D01*
X1753360Y0506360D01*
X1753987Y0505879D01*
X1754717Y0505577D01*
X1755500Y0505474D01*
X1756283Y0505577D01*
X1757013Y0505879D01*
X1757640Y0506360D01*
X1758121Y0506987D01*
X1758423Y0507717D01*
X1758526Y0508500D01*
X1758423Y0509283D01*
X1758121Y0510013D01*
X1757640Y0510640D01*
X1757013Y0511121D01*
X1756283Y0511423D01*
X1755500Y0511526D01*
D02*
G37*
G36*
X1696500Y0506960D02*
Y0504500D01*
X1698960D01*
X1698923Y0504783D01*
X1698620Y0505513D01*
X1698140Y0506140D01*
X1697513Y0506621D01*
X1696783Y0506923D01*
X1696500Y0506960D01*
D02*
G37*
G36*
X1615000Y0515000D02*
X1612540D01*
X1612577Y0514717D01*
X1612880Y0513987D01*
X1613360Y0513360D01*
X1613987Y0512880D01*
X1614717Y0512577D01*
X1615000Y0512540D01*
Y0515000D01*
D02*
G37*
G36*
X1743500Y0513372D02*
X1742717Y0513269D01*
X1741987Y0512967D01*
X1741360Y0512486D01*
X1740879Y0511859D01*
X1740577Y0511130D01*
X1740474Y0510346D01*
X1740577Y0509563D01*
X1740879Y0508834D01*
X1741360Y0508207D01*
X1741987Y0507726D01*
X1742717Y0507424D01*
X1743500Y0507320D01*
X1744283Y0507424D01*
X1745013Y0507726D01*
X1745640Y0508207D01*
X1746120Y0508834D01*
X1746423Y0509563D01*
X1746526Y0510346D01*
X1746423Y0511130D01*
X1746120Y0511859D01*
X1745640Y0512486D01*
X1745013Y0512967D01*
X1744283Y0513269D01*
X1743500Y0513372D01*
D02*
G37*
G36*
X1641000Y0543026D02*
X1640217Y0542923D01*
X1639487Y0542621D01*
X1638860Y0542140D01*
X1638379Y0541513D01*
X1638077Y0540783D01*
X1637974Y0540000D01*
X1638077Y0539217D01*
X1638379Y0538487D01*
X1638860Y0537860D01*
X1639487Y0537380D01*
X1640217Y0537077D01*
X1641000Y0536974D01*
X1641021Y0536977D01*
X1641256Y0536504D01*
X1640879Y0536013D01*
X1640577Y0535283D01*
X1640474Y0534500D01*
X1640577Y0533717D01*
X1640879Y0532987D01*
X1641360Y0532360D01*
X1641987Y0531880D01*
X1642717Y0531577D01*
X1643500Y0531474D01*
X1644283Y0531577D01*
X1645013Y0531880D01*
X1645640Y0532360D01*
X1646120Y0532987D01*
X1646423Y0533717D01*
X1646526Y0534500D01*
X1646423Y0535283D01*
X1646120Y0536013D01*
X1645640Y0536640D01*
X1645013Y0537120D01*
X1644283Y0537423D01*
X1643500Y0537526D01*
X1643480Y0537523D01*
X1643244Y0537996D01*
X1643620Y0538487D01*
X1643923Y0539217D01*
X1644026Y0540000D01*
X1643923Y0540783D01*
X1643620Y0541513D01*
X1643140Y0542140D01*
X1642513Y0542621D01*
X1641783Y0542923D01*
X1641000Y0543026D01*
D02*
G37*
G36*
X1626000Y0528960D02*
Y0526500D01*
X1628460D01*
X1628423Y0526783D01*
X1628120Y0527513D01*
X1627640Y0528140D01*
X1627013Y0528620D01*
X1626283Y0528923D01*
X1626000Y0528960D01*
D02*
G37*
G36*
X1633800Y0539626D02*
X1633017Y0539523D01*
X1632287Y0539221D01*
X1631660Y0538740D01*
X1631179Y0538113D01*
X1630877Y0537383D01*
X1630774Y0536600D01*
X1630877Y0535817D01*
X1631179Y0535087D01*
X1631660Y0534460D01*
X1632287Y0533980D01*
X1633017Y0533677D01*
X1633800Y0533574D01*
X1634583Y0533677D01*
X1635313Y0533980D01*
X1635940Y0534460D01*
X1636420Y0535087D01*
X1636723Y0535817D01*
X1636826Y0536600D01*
X1636723Y0537383D01*
X1636420Y0538113D01*
X1635940Y0538740D01*
X1635313Y0539221D01*
X1634583Y0539523D01*
X1633800Y0539626D01*
D02*
G37*
G36*
X1674800Y0538026D02*
X1674017Y0537923D01*
X1673287Y0537620D01*
X1672660Y0537140D01*
X1672179Y0536513D01*
X1671877Y0535783D01*
X1671774Y0535000D01*
X1671877Y0534217D01*
X1672179Y0533487D01*
X1672660Y0532860D01*
X1673287Y0532379D01*
X1674017Y0532077D01*
X1674800Y0531974D01*
X1675583Y0532077D01*
X1676313Y0532379D01*
X1676940Y0532860D01*
X1677420Y0533487D01*
X1677723Y0534217D01*
X1677826Y0535000D01*
X1677723Y0535783D01*
X1677420Y0536513D01*
X1676940Y0537140D01*
X1676313Y0537620D01*
X1675583Y0537923D01*
X1674800Y0538026D01*
D02*
G37*
G36*
X1628460Y0525500D02*
X1626000D01*
Y0523040D01*
X1626283Y0523077D01*
X1627013Y0523380D01*
X1627640Y0523860D01*
X1628120Y0524487D01*
X1628423Y0525217D01*
X1628460Y0525500D01*
D02*
G37*
G36*
X1625000D02*
X1622540D01*
X1622577Y0525217D01*
X1622879Y0524487D01*
X1623360Y0523860D01*
X1623987Y0523380D01*
X1624717Y0523077D01*
X1625000Y0523040D01*
Y0525500D01*
D02*
G37*
G36*
Y0528960D02*
X1624717Y0528923D01*
X1623987Y0528620D01*
X1623360Y0528140D01*
X1622879Y0527513D01*
X1622577Y0526783D01*
X1622540Y0526500D01*
X1625000D01*
Y0528960D01*
D02*
G37*
G36*
X1645500Y0530026D02*
X1644717Y0529923D01*
X1643987Y0529621D01*
X1643360Y0529140D01*
X1642879Y0528513D01*
X1642577Y0527783D01*
X1642474Y0527000D01*
X1642577Y0526217D01*
X1642879Y0525487D01*
X1643360Y0524860D01*
X1643987Y0524379D01*
X1644717Y0524077D01*
X1645500Y0523974D01*
X1646283Y0524077D01*
X1647013Y0524379D01*
X1647640Y0524860D01*
X1648120Y0525487D01*
X1648423Y0526217D01*
X1648526Y0527000D01*
X1648423Y0527783D01*
X1648120Y0528513D01*
X1647640Y0529140D01*
X1647013Y0529621D01*
X1646283Y0529923D01*
X1645500Y0530026D01*
D02*
G37*
G36*
X1695500Y0506960D02*
X1695217Y0506923D01*
X1694487Y0506621D01*
X1693860Y0506140D01*
X1693380Y0505513D01*
X1693077Y0504783D01*
X1693040Y0504500D01*
X1695500D01*
Y0506960D01*
D02*
G37*
G36*
X1734500Y0496526D02*
X1733717Y0496423D01*
X1732987Y0496121D01*
X1732360Y0495640D01*
X1732051Y0495236D01*
X1732029Y0495225D01*
X1731471D01*
X1731449Y0495236D01*
X1731140Y0495640D01*
X1730513Y0496121D01*
X1729783Y0496423D01*
X1729000Y0496526D01*
X1728217Y0496423D01*
X1727487Y0496121D01*
X1726860Y0495640D01*
X1726380Y0495013D01*
X1726077Y0494283D01*
X1725974Y0493500D01*
X1726077Y0492717D01*
X1726380Y0491987D01*
X1726860Y0491360D01*
X1727487Y0490879D01*
X1728217Y0490577D01*
X1729000Y0490474D01*
X1729783Y0490577D01*
X1730513Y0490879D01*
X1731140Y0491360D01*
X1731449Y0491764D01*
X1731471Y0491775D01*
X1732029D01*
X1732051Y0491764D01*
X1732360Y0491360D01*
X1732987Y0490879D01*
X1733717Y0490577D01*
X1734500Y0490474D01*
X1735283Y0490577D01*
X1736013Y0490879D01*
X1736640Y0491360D01*
X1737120Y0491987D01*
X1737423Y0492717D01*
X1737526Y0493500D01*
X1737423Y0494283D01*
X1737120Y0495013D01*
X1736640Y0495640D01*
X1736013Y0496121D01*
X1735283Y0496423D01*
X1734500Y0496526D01*
D02*
G37*
G36*
X1667960Y0496000D02*
X1665500D01*
Y0493540D01*
X1665783Y0493577D01*
X1666513Y0493880D01*
X1667140Y0494360D01*
X1667620Y0494987D01*
X1667923Y0495717D01*
X1667960Y0496000D01*
D02*
G37*
G36*
X1665500Y0499460D02*
Y0497000D01*
X1667960D01*
X1667923Y0497283D01*
X1667620Y0498013D01*
X1667140Y0498640D01*
X1666513Y0499121D01*
X1665783Y0499423D01*
X1665500Y0499460D01*
D02*
G37*
G36*
X1664500D02*
X1664217Y0499423D01*
X1663487Y0499121D01*
X1662860Y0498640D01*
X1662379Y0498013D01*
X1662077Y0497283D01*
X1662040Y0497000D01*
X1664500D01*
Y0499460D01*
D02*
G37*
G36*
X1722500Y0490460D02*
X1722217Y0490423D01*
X1721487Y0490121D01*
X1720860Y0489640D01*
X1720379Y0489013D01*
X1720077Y0488283D01*
X1720040Y0488000D01*
X1722500D01*
Y0490460D01*
D02*
G37*
G36*
X1693500Y0491526D02*
X1692717Y0491423D01*
X1691987Y0491120D01*
X1691360Y0490640D01*
X1690879Y0490013D01*
X1690577Y0489283D01*
X1690474Y0488500D01*
X1690577Y0487717D01*
X1690879Y0486987D01*
X1691360Y0486360D01*
X1691987Y0485880D01*
X1692717Y0485577D01*
X1693500Y0485474D01*
X1694283Y0485577D01*
X1695013Y0485880D01*
X1695640Y0486360D01*
X1696120Y0486987D01*
X1696423Y0487717D01*
X1696526Y0488500D01*
X1696423Y0489283D01*
X1696120Y0490013D01*
X1695640Y0490640D01*
X1695013Y0491120D01*
X1694283Y0491423D01*
X1693500Y0491526D01*
D02*
G37*
G36*
X1664500Y0496000D02*
X1662040D01*
X1662077Y0495717D01*
X1662379Y0494987D01*
X1662860Y0494360D01*
X1663487Y0493880D01*
X1664217Y0493577D01*
X1664500Y0493540D01*
Y0496000D01*
D02*
G37*
G36*
X1723500Y0490460D02*
Y0488000D01*
X1725960D01*
X1725923Y0488283D01*
X1725620Y0489013D01*
X1725140Y0489640D01*
X1724513Y0490121D01*
X1723783Y0490423D01*
X1723500Y0490460D01*
D02*
G37*
G36*
X1649000Y0509526D02*
X1648217Y0509423D01*
X1647487Y0509121D01*
X1646860Y0508640D01*
X1646379Y0508013D01*
X1646077Y0507283D01*
X1645974Y0506500D01*
X1646077Y0505717D01*
X1646379Y0504987D01*
X1646860Y0504360D01*
X1647487Y0503879D01*
X1648217Y0503577D01*
X1649000Y0503474D01*
X1649783Y0503577D01*
X1650513Y0503879D01*
X1651140Y0504360D01*
X1651620Y0504987D01*
X1651923Y0505717D01*
X1652026Y0506500D01*
X1651923Y0507283D01*
X1651620Y0508013D01*
X1651140Y0508640D01*
X1650513Y0509121D01*
X1649783Y0509423D01*
X1649000Y0509526D01*
D02*
G37*
G36*
X1698960Y0503500D02*
X1696500D01*
Y0501040D01*
X1696783Y0501077D01*
X1697513Y0501379D01*
X1698140Y0501860D01*
X1698620Y0502487D01*
X1698923Y0503217D01*
X1698960Y0503500D01*
D02*
G37*
G36*
X1749500Y0506460D02*
Y0504000D01*
X1751960D01*
X1751923Y0504283D01*
X1751620Y0505013D01*
X1751140Y0505640D01*
X1750513Y0506120D01*
X1749783Y0506423D01*
X1749500Y0506460D01*
D02*
G37*
G36*
X1748500D02*
X1748217Y0506423D01*
X1747487Y0506120D01*
X1746860Y0505640D01*
X1746379Y0505013D01*
X1746077Y0504283D01*
X1746040Y0504000D01*
X1748500D01*
Y0506460D01*
D02*
G37*
G36*
Y0503000D02*
X1746040D01*
X1746077Y0502717D01*
X1746379Y0501987D01*
X1746860Y0501360D01*
X1747487Y0500879D01*
X1748217Y0500577D01*
X1748500Y0500540D01*
Y0503000D01*
D02*
G37*
G36*
X1703500Y0505026D02*
X1702717Y0504923D01*
X1701987Y0504621D01*
X1701360Y0504140D01*
X1700879Y0503513D01*
X1700577Y0502783D01*
X1700474Y0502000D01*
X1700577Y0501217D01*
X1700879Y0500487D01*
X1701360Y0499860D01*
X1701987Y0499379D01*
X1702717Y0499077D01*
X1703500Y0498974D01*
X1704283Y0499077D01*
X1705013Y0499379D01*
X1705640Y0499860D01*
X1706120Y0500487D01*
X1706423Y0501217D01*
X1706526Y0502000D01*
X1706423Y0502783D01*
X1706120Y0503513D01*
X1705640Y0504140D01*
X1705013Y0504621D01*
X1704283Y0504923D01*
X1703500Y0505026D01*
D02*
G37*
G36*
X1695500Y0503500D02*
X1693040D01*
X1693077Y0503217D01*
X1693380Y0502487D01*
X1693860Y0501860D01*
X1694487Y0501379D01*
X1695217Y0501077D01*
X1695500Y0501040D01*
Y0503500D01*
D02*
G37*
G36*
X1751960Y0503000D02*
X1749500D01*
Y0500540D01*
X1749783Y0500577D01*
X1750513Y0500879D01*
X1751140Y0501360D01*
X1751620Y0501987D01*
X1751923Y0502717D01*
X1751960Y0503000D01*
D02*
G37*
%LPD*%
G54D41*
X1844094Y0452756D02*
G03*
X1732284Y0564567I-0135433J-0023622D01*
G01*
X1685039D02*
G03*
X1572912Y0452811I0023228J-0135433D01*
G01*
X1573228Y0405512D02*
G03*
X1685039Y0293701I0135433J0023622D01*
G01*
X1732284D02*
G03*
X1844094Y0405512I-0023622J0135433D01*
G01*
X1732284Y0519685D02*
Y0564567D01*
X1685039Y0519685D02*
X1732284D01*
X1685039D02*
Y0564567D01*
Y0293701D02*
Y0338583D01*
X1732284D01*
Y0293701D02*
Y0338583D01*
X1799213Y0405512D02*
X1844094D01*
X1799213D02*
Y0452756D01*
X1844094D01*
X1573228Y0452756D02*
X1618110D01*
Y0405512D02*
Y0452756D01*
X1573228Y0405512D02*
X1618110D01*
G54D53*
X1607000Y0481500D02*
D03*
G54D59*
X1814961Y0385827D02*
D03*
X1696000Y0504000D02*
D03*
X1676500Y0465000D02*
D03*
X1776000Y0479000D02*
D03*
X1723000Y0487500D02*
D03*
X1749000Y0503500D02*
D03*
X1665000Y0496500D02*
D03*
X1615500Y0515500D02*
D03*
X1625500Y0526000D02*
D03*
M02*
