G04 Layer_Color=2752767*
%FSAX25Y25*%
%MOIN*%
G70*
G01*
G75*
%ADD41C,0.01000*%
%ADD125C,0.00200*%
%ADD126C,0.00267*%
G54D41*
X1844094Y0452756D02*
G03*
X1732284Y0564567I-0135433J-0023622D01*
G01*
X1685039D02*
G03*
X1572912Y0452811I0023228J-0135433D01*
G01*
X1573228Y0405512D02*
G03*
X1685039Y0293701I0135433J0023622D01*
G01*
X1732284D02*
G03*
X1844094Y0405512I-0023622J0135433D01*
G01*
X1732284Y0519685D02*
Y0564567D01*
X1685039Y0519685D02*
X1732284D01*
X1685039D02*
Y0564567D01*
Y0293701D02*
Y0338583D01*
X1732284D01*
Y0293701D02*
Y0338583D01*
X1799213Y0405512D02*
X1844094D01*
X1799213D02*
Y0452756D01*
X1844094D01*
X1573228Y0452756D02*
X1618110D01*
Y0405512D02*
Y0452756D01*
X1573228Y0405512D02*
X1618110D01*
G54D125*
X1588767Y0393885D02*
Y0395485D01*
X1590367D01*
Y0393885D01*
X1588767D01*
X1604367D02*
Y0395485D01*
X1605967D01*
Y0393885D01*
X1604367D01*
X1619967D02*
Y0395485D01*
X1621567D01*
Y0393885D01*
X1619967D01*
X1783283Y0447838D02*
X1782483Y0449438D01*
X1784083D01*
X1783283Y0447838D01*
X1790354Y0454909D02*
X1789554Y0456509D01*
X1791154D01*
X1790354Y0454909D01*
X1797425Y0461980D02*
X1796625Y0463580D01*
X1798225D01*
X1797425Y0461980D01*
X1804497Y0469051D02*
X1803696Y0470651D01*
X1805297D01*
X1804497Y0469051D01*
X1811567Y0476122D02*
X1810768Y0477722D01*
X1812367D01*
X1811567Y0476122D01*
X1818639Y0483193D02*
X1817839Y0484793D01*
X1819439D01*
X1818639Y0483193D01*
X1674397Y0336650D02*
Y0338250D01*
X1675997D01*
Y0336650D01*
X1674397D01*
Y0321050D02*
Y0322650D01*
X1675997D01*
Y0321050D01*
X1674397D01*
Y0305450D02*
Y0307050D01*
X1675997D01*
Y0305450D01*
X1674397D01*
X1698555Y0345200D02*
X1697755Y0346800D01*
X1699355D01*
X1698555Y0345200D01*
X1708555D02*
X1707755Y0346800D01*
X1709355D01*
X1708555Y0345200D01*
X1706987Y0513200D02*
X1706187Y0514800D01*
X1707787D01*
X1706987Y0513200D01*
X1716987D02*
X1716187Y0514800D01*
X1717787D01*
X1716987Y0513200D01*
X1770809Y0398946D02*
X1771209Y0399346D01*
X1771609D01*
X1771209Y0399746D01*
X1771609Y0400146D01*
X1771209D01*
X1770809Y0400546D01*
X1770409Y0400146D01*
X1770009D01*
X1770409Y0399746D01*
X1770009Y0399346D01*
X1770409D01*
X1770809Y0398946D01*
X1763849Y0391986D02*
X1764249Y0392387D01*
X1764650D01*
X1764249Y0392787D01*
X1764650Y0393186D01*
X1764249D01*
X1763849Y0393586D01*
X1763449Y0393186D01*
X1763050D01*
X1763449Y0392787D01*
X1763050Y0392387D01*
X1763449D01*
X1763849Y0391986D01*
X1756890Y0385027D02*
X1757290Y0385427D01*
X1757690D01*
X1757290Y0385827D01*
X1757690Y0386227D01*
X1757290D01*
X1756890Y0386627D01*
X1756490Y0386227D01*
X1756090D01*
X1756490Y0385827D01*
X1756090Y0385427D01*
X1756490D01*
X1756890Y0385027D01*
X1743082Y0371219D02*
X1743482Y0371619D01*
X1743882D01*
X1743482Y0372019D01*
X1743882Y0372419D01*
X1743482D01*
X1743082Y0372819D01*
X1742682Y0372419D01*
X1742282D01*
X1742682Y0372019D01*
X1742282Y0371619D01*
X1742682D01*
X1743082Y0371219D01*
X1736011Y0364148D02*
X1736411Y0364548D01*
X1736811D01*
X1736411Y0364948D01*
X1736811Y0365348D01*
X1736411D01*
X1736011Y0365748D01*
X1735611Y0365348D01*
X1735211D01*
X1735611Y0364948D01*
X1735211Y0364548D01*
X1735611D01*
X1736011Y0364148D01*
X1792500Y0420700D02*
X1791700Y0422300D01*
X1793300D01*
X1792500Y0420700D01*
Y0430700D02*
X1791700Y0432300D01*
X1793300D01*
X1792500Y0430700D01*
X1625015Y0426838D02*
X1624215Y0428438D01*
X1625815D01*
X1625015Y0426838D01*
Y0436838D02*
X1624215Y0438438D01*
X1625815D01*
X1625015Y0436838D01*
X1741142Y0303176D02*
X1740342Y0304776D01*
X1741942D01*
X1741142Y0303176D01*
Y0313176D02*
X1740342Y0314776D01*
X1741942D01*
X1741142Y0313176D01*
Y0323176D02*
X1740342Y0324776D01*
X1741942D01*
X1741142Y0323176D01*
Y0333176D02*
X1740342Y0334776D01*
X1741942D01*
X1741142Y0333176D01*
X1729200Y0484200D02*
X1729600Y0485000D01*
X1729200Y0485800D01*
X1730000Y0485400D01*
X1730800Y0485800D01*
X1730400Y0485000D01*
X1730800Y0484200D01*
X1730000Y0484600D01*
X1729200Y0484200D01*
X1649200Y0467700D02*
X1649600Y0468500D01*
X1649200Y0469300D01*
X1650000Y0468900D01*
X1650800Y0469300D01*
X1650400Y0468500D01*
X1650800Y0467700D01*
X1650000Y0468100D01*
X1649200Y0467700D01*
X1642700Y0463700D02*
X1643100Y0464500D01*
X1642700Y0465300D01*
X1643500Y0464900D01*
X1644300Y0465300D01*
X1643900Y0464500D01*
X1644300Y0463700D01*
X1643500Y0464100D01*
X1642700Y0463700D01*
X1689400Y0443900D02*
X1689800Y0444700D01*
X1689400Y0445500D01*
X1690200Y0445100D01*
X1691000Y0445500D01*
X1690600Y0444700D01*
X1691000Y0443900D01*
X1690200Y0444300D01*
X1689400Y0443900D01*
X1697200Y0444300D02*
X1697600Y0445100D01*
X1697200Y0445900D01*
X1698000Y0445500D01*
X1698800Y0445900D01*
X1698400Y0445100D01*
X1698800Y0444300D01*
X1698000Y0444700D01*
X1697200Y0444300D01*
X1814161Y0385027D02*
X1814561Y0385827D01*
X1814161Y0386627D01*
X1814961Y0386227D01*
X1815761Y0386627D01*
X1815361Y0385827D01*
X1815761Y0385027D01*
X1814961Y0385427D01*
X1814161Y0385027D01*
X1692700Y0487700D02*
X1693100Y0488500D01*
X1692700Y0489300D01*
X1693500Y0488900D01*
X1694300Y0489300D01*
X1693900Y0488500D01*
X1694300Y0487700D01*
X1693500Y0488100D01*
X1692700Y0487700D01*
X1706700Y0478700D02*
X1707100Y0479500D01*
X1706700Y0480300D01*
X1707500Y0479900D01*
X1708300Y0480300D01*
X1707900Y0479500D01*
X1708300Y0478700D01*
X1707500Y0479100D01*
X1706700Y0478700D01*
X1770300Y0318100D02*
X1770700Y0318900D01*
X1770300Y0319700D01*
X1771100Y0319300D01*
X1771900Y0319700D01*
X1771500Y0318900D01*
X1771900Y0318100D01*
X1771100Y0318500D01*
X1770300Y0318100D01*
X1775300Y0338400D02*
X1775700Y0339200D01*
X1775300Y0340000D01*
X1776100Y0339600D01*
X1776900Y0340000D01*
X1776500Y0339200D01*
X1776900Y0338400D01*
X1776100Y0338800D01*
X1775300Y0338400D01*
X1782475Y0356925D02*
X1782875Y0357725D01*
X1782475Y0358525D01*
X1783275Y0358125D01*
X1784075Y0358525D01*
X1783675Y0357725D01*
X1784075Y0356925D01*
X1783275Y0357325D01*
X1782475Y0356925D01*
X1800381Y0398181D02*
X1800781Y0398981D01*
X1800381Y0399781D01*
X1801181Y0399381D01*
X1801981Y0399781D01*
X1801581Y0398981D01*
X1801981Y0398181D01*
X1801181Y0398581D01*
X1800381Y0398181D01*
X1785500Y0379600D02*
X1785900Y0380400D01*
X1785500Y0381200D01*
X1786300Y0380800D01*
X1787100Y0381200D01*
X1786700Y0380400D01*
X1787100Y0379600D01*
X1786300Y0380000D01*
X1785500Y0379600D01*
X1633000Y0535800D02*
X1633400Y0536600D01*
X1633000Y0537400D01*
X1633800Y0537000D01*
X1634600Y0537400D01*
X1634200Y0536600D01*
X1634600Y0535800D01*
X1633800Y0536200D01*
X1633000Y0535800D01*
X1674000Y0534200D02*
X1674400Y0535000D01*
X1674000Y0535800D01*
X1674800Y0535400D01*
X1675600Y0535800D01*
X1675200Y0535000D01*
X1675600Y0534200D01*
X1674800Y0534600D01*
X1674000Y0534200D01*
X1613100Y0472300D02*
X1613500Y0473100D01*
X1613100Y0473900D01*
X1613900Y0473500D01*
X1614700Y0473900D01*
X1614300Y0473100D01*
X1614700Y0472300D01*
X1613900Y0472700D01*
X1613100Y0472300D01*
X1604200Y0347000D02*
X1604600Y0347800D01*
X1604200Y0348600D01*
X1605000Y0348200D01*
X1605800Y0348600D01*
X1605400Y0347800D01*
X1605800Y0347000D01*
X1605000Y0347400D01*
X1604200Y0347000D01*
X1621700Y0378500D02*
X1622100Y0379300D01*
X1621700Y0380100D01*
X1622500Y0379700D01*
X1623300Y0380100D01*
X1622900Y0379300D01*
X1623300Y0378500D01*
X1622500Y0378900D01*
X1621700Y0378500D01*
X1637900Y0363200D02*
X1638300Y0364000D01*
X1637900Y0364800D01*
X1638700Y0364400D01*
X1639500Y0364800D01*
X1639100Y0364000D01*
X1639500Y0363200D01*
X1638700Y0363600D01*
X1637900Y0363200D01*
X1614200Y0365700D02*
X1614600Y0366500D01*
X1614200Y0367300D01*
X1615000Y0366900D01*
X1615800Y0367300D01*
X1615400Y0366500D01*
X1615800Y0365700D01*
X1615000Y0366100D01*
X1614200Y0365700D01*
X1730400Y0473300D02*
X1730800Y0474100D01*
X1730400Y0474900D01*
X1731200Y0474500D01*
X1732000Y0474900D01*
X1731600Y0474100D01*
X1732000Y0473300D01*
X1731200Y0473700D01*
X1730400Y0473300D01*
X1760500Y0436500D02*
X1760900Y0437300D01*
X1760500Y0438100D01*
X1761300Y0437700D01*
X1762100Y0438100D01*
X1761700Y0437300D01*
X1762100Y0436500D01*
X1761300Y0436900D01*
X1760500Y0436500D01*
X1772700Y0445700D02*
X1773100Y0446500D01*
X1772700Y0447300D01*
X1773500Y0446900D01*
X1774300Y0447300D01*
X1773900Y0446500D01*
X1774300Y0445700D01*
X1773500Y0446100D01*
X1772700Y0445700D01*
X1666700Y0449200D02*
X1667100Y0450000D01*
X1666700Y0450800D01*
X1667500Y0450400D01*
X1668300Y0450800D01*
X1667900Y0450000D01*
X1668300Y0449200D01*
X1667500Y0449600D01*
X1666700Y0449200D01*
X1684600Y0450200D02*
X1685000Y0451000D01*
X1684600Y0451800D01*
X1685400Y0451400D01*
X1686200Y0451800D01*
X1685800Y0451000D01*
X1686200Y0450200D01*
X1685400Y0450600D01*
X1684600Y0450200D01*
X1644600Y0388200D02*
X1645000Y0389000D01*
X1644600Y0389800D01*
X1645400Y0389400D01*
X1646200Y0389800D01*
X1645800Y0389000D01*
X1646200Y0388200D01*
X1645400Y0388600D01*
X1644600Y0388200D01*
X1761800Y0414400D02*
X1762200Y0415200D01*
X1761800Y0416000D01*
X1762600Y0415600D01*
X1763400Y0416000D01*
X1763000Y0415200D01*
X1763400Y0414400D01*
X1762600Y0414800D01*
X1761800Y0414400D01*
X1740200Y0382200D02*
X1740600Y0383000D01*
X1740200Y0383800D01*
X1741000Y0383400D01*
X1741800Y0383800D01*
X1741400Y0383000D01*
X1741800Y0382200D01*
X1741000Y0382600D01*
X1740200Y0382200D01*
X1734800Y0393300D02*
X1735200Y0394100D01*
X1734800Y0394900D01*
X1735600Y0394500D01*
X1736400Y0394900D01*
X1736000Y0394100D01*
X1736400Y0393300D01*
X1735600Y0393700D01*
X1734800Y0393300D01*
X1637829Y0466071D02*
X1638229Y0466871D01*
X1637829Y0467671D01*
X1638629Y0467271D01*
X1639429Y0467671D01*
X1639029Y0466871D01*
X1639429Y0466071D01*
X1638629Y0466471D01*
X1637829Y0466071D01*
X1630200Y0469200D02*
X1630600Y0470000D01*
X1630200Y0470800D01*
X1631000Y0470400D01*
X1631800Y0470800D01*
X1631400Y0470000D01*
X1631800Y0469200D01*
X1631000Y0469600D01*
X1630200Y0469200D01*
X1629700Y0478654D02*
X1630100Y0479454D01*
X1629700Y0480254D01*
X1630500Y0479854D01*
X1631300Y0480254D01*
X1630900Y0479454D01*
X1631300Y0478654D01*
X1630500Y0479054D01*
X1629700Y0478654D01*
X1632200Y0463200D02*
X1632600Y0464000D01*
X1632200Y0464800D01*
X1633000Y0464400D01*
X1633800Y0464800D01*
X1633400Y0464000D01*
X1633800Y0463200D01*
X1633000Y0463600D01*
X1632200Y0463200D01*
X1688200Y0374700D02*
X1688600Y0375500D01*
X1688200Y0376300D01*
X1689000Y0375900D01*
X1689800Y0376300D01*
X1689400Y0375500D01*
X1689800Y0374700D01*
X1689000Y0375100D01*
X1688200Y0374700D01*
X1733200Y0373700D02*
X1733600Y0374500D01*
X1733200Y0375300D01*
X1734000Y0374900D01*
X1734800Y0375300D01*
X1734400Y0374500D01*
X1734800Y0373700D01*
X1734000Y0374100D01*
X1733200Y0373700D01*
X1707200Y0365700D02*
X1707600Y0366500D01*
X1707200Y0367300D01*
X1708000Y0366900D01*
X1708800Y0367300D01*
X1708400Y0366500D01*
X1708800Y0365700D01*
X1708000Y0366100D01*
X1707200Y0365700D01*
X1658700Y0404700D02*
X1659100Y0405500D01*
X1658700Y0406300D01*
X1659500Y0405900D01*
X1660300Y0406300D01*
X1659900Y0405500D01*
X1660300Y0404700D01*
X1659500Y0405100D01*
X1658700Y0404700D01*
X1663185Y0409185D02*
X1663585Y0409985D01*
X1663185Y0410785D01*
X1663985Y0410385D01*
X1664785Y0410785D01*
X1664385Y0409985D01*
X1664785Y0409185D01*
X1663985Y0409585D01*
X1663185Y0409185D01*
X1746200Y0404200D02*
X1746600Y0405000D01*
X1746200Y0405800D01*
X1747000Y0405400D01*
X1747800Y0405800D01*
X1747400Y0405000D01*
X1747800Y0404200D01*
X1747000Y0404600D01*
X1746200Y0404200D01*
X1692200Y0414700D02*
X1692600Y0415500D01*
X1692200Y0416300D01*
X1693000Y0415900D01*
X1693800Y0416300D01*
X1693400Y0415500D01*
X1693800Y0414700D01*
X1693000Y0415100D01*
X1692200Y0414700D01*
X1711200D02*
X1711600Y0415500D01*
X1711200Y0416300D01*
X1712000Y0415900D01*
X1712800Y0416300D01*
X1712400Y0415500D01*
X1712800Y0414700D01*
X1712000Y0415100D01*
X1711200Y0414700D01*
X1704700Y0411200D02*
X1705100Y0412000D01*
X1704700Y0412800D01*
X1705500Y0412400D01*
X1706300Y0412800D01*
X1705900Y0412000D01*
X1706300Y0411200D01*
X1705500Y0411600D01*
X1704700Y0411200D01*
X1693200Y0420200D02*
X1693600Y0421000D01*
X1693200Y0421800D01*
X1694000Y0421400D01*
X1694800Y0421800D01*
X1694400Y0421000D01*
X1694800Y0420200D01*
X1694000Y0420600D01*
X1693200Y0420200D01*
X1693700Y0426200D02*
X1694100Y0427000D01*
X1693700Y0427800D01*
X1694500Y0427400D01*
X1695300Y0427800D01*
X1694900Y0427000D01*
X1695300Y0426200D01*
X1694500Y0426600D01*
X1693700Y0426200D01*
X1710200Y0408200D02*
X1710600Y0409000D01*
X1710200Y0409800D01*
X1711000Y0409400D01*
X1711800Y0409800D01*
X1711400Y0409000D01*
X1711800Y0408200D01*
X1711000Y0408600D01*
X1710200Y0408200D01*
X1750700Y0412200D02*
X1751100Y0413000D01*
X1750700Y0413800D01*
X1751500Y0413400D01*
X1752300Y0413800D01*
X1751900Y0413000D01*
X1752300Y0412200D01*
X1751500Y0412600D01*
X1750700Y0412200D01*
X1691200Y0395700D02*
X1691600Y0396500D01*
X1691200Y0397300D01*
X1692000Y0396900D01*
X1692800Y0397300D01*
X1692400Y0396500D01*
X1692800Y0395700D01*
X1692000Y0396100D01*
X1691200Y0395700D01*
X1728200Y0492700D02*
X1728600Y0493500D01*
X1728200Y0494300D01*
X1729000Y0493900D01*
X1729800Y0494300D01*
X1729400Y0493500D01*
X1729800Y0492700D01*
X1729000Y0493100D01*
X1728200Y0492700D01*
X1733700D02*
X1734100Y0493500D01*
X1733700Y0494300D01*
X1734500Y0493900D01*
X1735300Y0494300D01*
X1734900Y0493500D01*
X1735300Y0492700D01*
X1734500Y0493100D01*
X1733700Y0492700D01*
X1695200Y0503200D02*
X1695600Y0504000D01*
X1695200Y0504800D01*
X1696000Y0504400D01*
X1696800Y0504800D01*
X1696400Y0504000D01*
X1696800Y0503200D01*
X1696000Y0503600D01*
X1695200Y0503200D01*
X1702700Y0501200D02*
X1703100Y0502000D01*
X1702700Y0502800D01*
X1703500Y0502400D01*
X1704300Y0502800D01*
X1703900Y0502000D01*
X1704300Y0501200D01*
X1703500Y0501600D01*
X1702700Y0501200D01*
X1696700Y0452160D02*
X1697100Y0452960D01*
X1696700Y0453760D01*
X1697500Y0453360D01*
X1698300Y0453760D01*
X1697900Y0452960D01*
X1698300Y0452160D01*
X1697500Y0452560D01*
X1696700Y0452160D01*
X1629200Y0444700D02*
X1629600Y0445500D01*
X1629200Y0446300D01*
X1630000Y0445900D01*
X1630800Y0446300D01*
X1630400Y0445500D01*
X1630800Y0444700D01*
X1630000Y0445100D01*
X1629200Y0444700D01*
X1648200Y0505700D02*
X1648600Y0506500D01*
X1648200Y0507300D01*
X1649000Y0506900D01*
X1649800Y0507300D01*
X1649400Y0506500D01*
X1649800Y0505700D01*
X1649000Y0506100D01*
X1648200Y0505700D01*
X1626200Y0517200D02*
X1626600Y0518000D01*
X1626200Y0518800D01*
X1627000Y0518400D01*
X1627800Y0518800D01*
X1627400Y0518000D01*
X1627800Y0517200D01*
X1627000Y0517600D01*
X1626200Y0517200D01*
X1684200Y0459200D02*
X1684600Y0460000D01*
X1684200Y0460800D01*
X1685000Y0460400D01*
X1685800Y0460800D01*
X1685400Y0460000D01*
X1685800Y0459200D01*
X1685000Y0459600D01*
X1684200Y0459200D01*
X1675700Y0464200D02*
X1676100Y0465000D01*
X1675700Y0465800D01*
X1676500Y0465400D01*
X1677300Y0465800D01*
X1676900Y0465000D01*
X1677300Y0464200D01*
X1676500Y0464600D01*
X1675700Y0464200D01*
X1775200Y0478200D02*
X1775600Y0479000D01*
X1775200Y0479800D01*
X1776000Y0479400D01*
X1776800Y0479800D01*
X1776400Y0479000D01*
X1776800Y0478200D01*
X1776000Y0478600D01*
X1775200Y0478200D01*
X1722200Y0486700D02*
X1722600Y0487500D01*
X1722200Y0488300D01*
X1723000Y0487900D01*
X1723800Y0488300D01*
X1723400Y0487500D01*
X1723800Y0486700D01*
X1723000Y0487100D01*
X1722200Y0486700D01*
X1757700Y0524700D02*
X1758100Y0525500D01*
X1757700Y0526300D01*
X1758500Y0525900D01*
X1759300Y0526300D01*
X1758900Y0525500D01*
X1759300Y0524700D01*
X1758500Y0525100D01*
X1757700Y0524700D01*
X1748200Y0502700D02*
X1748600Y0503500D01*
X1748200Y0504300D01*
X1749000Y0503900D01*
X1749800Y0504300D01*
X1749400Y0503500D01*
X1749800Y0502700D01*
X1749000Y0503100D01*
X1748200Y0502700D01*
X1742700Y0509546D02*
X1743100Y0510346D01*
X1742700Y0511146D01*
X1743500Y0510746D01*
X1744300Y0511146D01*
X1743900Y0510346D01*
X1744300Y0509546D01*
X1743500Y0509946D01*
X1742700Y0509546D01*
X1754700Y0507700D02*
X1755100Y0508500D01*
X1754700Y0509300D01*
X1755500Y0508900D01*
X1756300Y0509300D01*
X1755900Y0508500D01*
X1756300Y0507700D01*
X1755500Y0508100D01*
X1754700Y0507700D01*
X1753200Y0460700D02*
X1753600Y0461500D01*
X1753200Y0462300D01*
X1754000Y0461900D01*
X1754800Y0462300D01*
X1754400Y0461500D01*
X1754800Y0460700D01*
X1754000Y0461100D01*
X1753200Y0460700D01*
X1641200Y0433200D02*
X1641600Y0434000D01*
X1641200Y0434800D01*
X1642000Y0434400D01*
X1642800Y0434800D01*
X1642400Y0434000D01*
X1642800Y0433200D01*
X1642000Y0433600D01*
X1641200Y0433200D01*
X1669200Y0414200D02*
X1669600Y0415000D01*
X1669200Y0415800D01*
X1670000Y0415400D01*
X1670800Y0415800D01*
X1670400Y0415000D01*
X1670800Y0414200D01*
X1670000Y0414600D01*
X1669200Y0414200D01*
X1707700Y0384700D02*
X1708100Y0385500D01*
X1707700Y0386300D01*
X1708500Y0385900D01*
X1709300Y0386300D01*
X1708900Y0385500D01*
X1709300Y0384700D01*
X1708500Y0385100D01*
X1707700Y0384700D01*
X1711700Y0419700D02*
X1712100Y0420500D01*
X1711700Y0421300D01*
X1712500Y0420900D01*
X1713300Y0421300D01*
X1712900Y0420500D01*
X1713300Y0419700D01*
X1712500Y0420100D01*
X1711700Y0419700D01*
X1698200Y0396700D02*
X1698600Y0397500D01*
X1698200Y0398300D01*
X1699000Y0397900D01*
X1699800Y0398300D01*
X1699400Y0397500D01*
X1699800Y0396700D01*
X1699000Y0397100D01*
X1698200Y0396700D01*
X1712200Y0424700D02*
X1712600Y0425500D01*
X1712200Y0426300D01*
X1713000Y0425900D01*
X1713800Y0426300D01*
X1713400Y0425500D01*
X1713800Y0424700D01*
X1713000Y0425100D01*
X1712200Y0424700D01*
X1664200Y0495700D02*
X1664600Y0496500D01*
X1664200Y0497300D01*
X1665000Y0496900D01*
X1665800Y0497300D01*
X1665400Y0496500D01*
X1665800Y0495700D01*
X1665000Y0496100D01*
X1664200Y0495700D01*
X1653700Y0464700D02*
X1654100Y0465500D01*
X1653700Y0466300D01*
X1654500Y0465900D01*
X1655300Y0466300D01*
X1654900Y0465500D01*
X1655300Y0464700D01*
X1654500Y0465100D01*
X1653700Y0464700D01*
X1684200Y0515200D02*
X1684600Y0516000D01*
X1684200Y0516800D01*
X1685000Y0516400D01*
X1685800Y0516800D01*
X1685400Y0516000D01*
X1685800Y0515200D01*
X1685000Y0515600D01*
X1684200Y0515200D01*
X1644700Y0526200D02*
X1645100Y0527000D01*
X1644700Y0527800D01*
X1645500Y0527400D01*
X1646300Y0527800D01*
X1645900Y0527000D01*
X1646300Y0526200D01*
X1645500Y0526600D01*
X1644700Y0526200D01*
X1642700Y0533700D02*
X1643100Y0534500D01*
X1642700Y0535300D01*
X1643500Y0534900D01*
X1644300Y0535300D01*
X1643900Y0534500D01*
X1644300Y0533700D01*
X1643500Y0534100D01*
X1642700Y0533700D01*
X1640200Y0539200D02*
X1640600Y0540000D01*
X1640200Y0540800D01*
X1641000Y0540400D01*
X1641800Y0540800D01*
X1641400Y0540000D01*
X1641800Y0539200D01*
X1641000Y0539600D01*
X1640200Y0539200D01*
X1614700Y0514700D02*
X1615100Y0515500D01*
X1614700Y0516300D01*
X1615500Y0515900D01*
X1616300Y0516300D01*
X1615900Y0515500D01*
X1616300Y0514700D01*
X1615500Y0515100D01*
X1614700Y0514700D01*
X1624700Y0525200D02*
X1625100Y0526000D01*
X1624700Y0526800D01*
X1625500Y0526400D01*
X1626300Y0526800D01*
X1625900Y0526000D01*
X1626300Y0525200D01*
X1625500Y0525600D01*
X1624700Y0525200D01*
X1613200Y0456200D02*
X1613600Y0457000D01*
X1613200Y0457800D01*
X1614000Y0457400D01*
X1614800Y0457800D01*
X1614400Y0457000D01*
X1614800Y0456200D01*
X1614000Y0456600D01*
X1613200Y0456200D01*
X1630700Y0488700D02*
X1631100Y0489500D01*
X1630700Y0490300D01*
X1631500Y0489900D01*
X1632300Y0490300D01*
X1631900Y0489500D01*
X1632300Y0488700D01*
X1631500Y0489100D01*
X1630700Y0488700D01*
X1616200Y0487700D02*
X1616600Y0488500D01*
X1616200Y0489300D01*
X1617000Y0488900D01*
X1617800Y0489300D01*
X1617400Y0488500D01*
X1617800Y0487700D01*
X1617000Y0488100D01*
X1616200Y0487700D01*
X1634700Y0472700D02*
X1635100Y0473500D01*
X1634700Y0474300D01*
X1635500Y0473900D01*
X1636300Y0474300D01*
X1635900Y0473500D01*
X1636300Y0472700D01*
X1635500Y0473100D01*
X1634700Y0472700D01*
Y0478200D02*
X1635100Y0479000D01*
X1634700Y0479800D01*
X1635500Y0479400D01*
X1636300Y0479800D01*
X1635900Y0479000D01*
X1636300Y0478200D01*
X1635500Y0478600D01*
X1634700Y0478200D01*
X1665700Y0431200D02*
X1666100Y0432000D01*
X1665700Y0432800D01*
X1666500Y0432400D01*
X1667300Y0432800D01*
X1666900Y0432000D01*
X1667300Y0431200D01*
X1666500Y0431600D01*
X1665700Y0431200D01*
X1657700Y0446200D02*
X1658100Y0447000D01*
X1657700Y0447800D01*
X1658500Y0447400D01*
X1659300Y0447800D01*
X1658900Y0447000D01*
X1659300Y0446200D01*
X1658500Y0446600D01*
X1657700Y0446200D01*
X1655200Y0434700D02*
X1655600Y0435500D01*
X1655200Y0436300D01*
X1656000Y0435900D01*
X1656800Y0436300D01*
X1656400Y0435500D01*
X1656800Y0434700D01*
X1656000Y0435100D01*
X1655200Y0434700D01*
X1652700Y0440200D02*
X1653100Y0441000D01*
X1652700Y0441800D01*
X1653500Y0441400D01*
X1654300Y0441800D01*
X1653900Y0441000D01*
X1654300Y0440200D01*
X1653500Y0440600D01*
X1652700Y0440200D01*
X1652200Y0446700D02*
X1652600Y0447500D01*
X1652200Y0448300D01*
X1653000Y0447900D01*
X1653800Y0448300D01*
X1653400Y0447500D01*
X1653800Y0446700D01*
X1653000Y0447100D01*
X1652200Y0446700D01*
X1656700Y0424700D02*
X1657100Y0425500D01*
X1656700Y0426300D01*
X1657500Y0425900D01*
X1658300Y0426300D01*
X1657900Y0425500D01*
X1658300Y0424700D01*
X1657500Y0425100D01*
X1656700Y0424700D01*
X1633826Y0389074D02*
X1634226Y0389874D01*
X1633826Y0390674D01*
X1634626Y0390274D01*
X1635426Y0390674D01*
X1635026Y0389874D01*
X1635426Y0389074D01*
X1634626Y0389474D01*
X1633826Y0389074D01*
X1662700Y0362700D02*
X1663100Y0363500D01*
X1662700Y0364300D01*
X1663500Y0363900D01*
X1664300Y0364300D01*
X1663900Y0363500D01*
X1664300Y0362700D01*
X1663500Y0363100D01*
X1662700Y0362700D01*
X1659700Y0338200D02*
X1660100Y0339000D01*
X1659700Y0339800D01*
X1660500Y0339400D01*
X1661300Y0339800D01*
X1660900Y0339000D01*
X1661300Y0338200D01*
X1660500Y0338600D01*
X1659700Y0338200D01*
X1663200Y0327200D02*
X1663600Y0328000D01*
X1663200Y0328800D01*
X1664000Y0328400D01*
X1664800Y0328800D01*
X1664400Y0328000D01*
X1664800Y0327200D01*
X1664000Y0327600D01*
X1663200Y0327200D01*
X1630100Y0344100D02*
Y0343700D01*
X1630900D01*
Y0344100D01*
X1631300D01*
Y0344900D01*
X1630900D01*
Y0345300D01*
X1630100D01*
Y0344900D01*
X1629700D01*
Y0344100D01*
X1630100D01*
X1615600Y0337600D02*
Y0337200D01*
X1616400D01*
Y0337600D01*
X1616800D01*
Y0338400D01*
X1616400D01*
Y0338800D01*
X1615600D01*
Y0338400D01*
X1615200D01*
Y0337600D01*
X1615600D01*
X1775700Y0365700D02*
X1776100Y0366500D01*
X1775700Y0367300D01*
X1776500Y0366900D01*
X1777300Y0367300D01*
X1776900Y0366500D01*
X1777300Y0365700D01*
X1776500Y0366100D01*
X1775700Y0365700D01*
X1759700Y0348200D02*
X1760100Y0349000D01*
X1759700Y0349800D01*
X1760500Y0349400D01*
X1761300Y0349800D01*
X1760900Y0349000D01*
X1761300Y0348200D01*
X1760500Y0348600D01*
X1759700Y0348200D01*
X1807700Y0373700D02*
X1808100Y0374500D01*
X1807700Y0375300D01*
X1808500Y0374900D01*
X1809300Y0375300D01*
X1808900Y0374500D01*
X1809300Y0373700D01*
X1808500Y0374100D01*
X1807700Y0373700D01*
X1792700Y0335200D02*
X1793100Y0336000D01*
X1792700Y0336800D01*
X1793500Y0336400D01*
X1794300Y0336800D01*
X1793900Y0336000D01*
X1794300Y0335200D01*
X1793500Y0335600D01*
X1792700Y0335200D01*
X1815700Y0352200D02*
X1816100Y0353000D01*
X1815700Y0353800D01*
X1816500Y0353400D01*
X1817300Y0353800D01*
X1816900Y0353000D01*
X1817300Y0352200D01*
X1816500Y0352600D01*
X1815700Y0352200D01*
X1809700Y0361200D02*
X1810100Y0362000D01*
X1809700Y0362800D01*
X1810500Y0362400D01*
X1811300Y0362800D01*
X1810900Y0362000D01*
X1811300Y0361200D01*
X1810500Y0361600D01*
X1809700Y0361200D01*
X1754700Y0352200D02*
X1755100Y0353000D01*
X1754700Y0353800D01*
X1755500Y0353400D01*
X1756300Y0353800D01*
X1755900Y0353000D01*
X1756300Y0352200D01*
X1755500Y0352600D01*
X1754700Y0352200D01*
X1748200Y0352700D02*
X1748600Y0353500D01*
X1748200Y0354300D01*
X1749000Y0353900D01*
X1749800Y0354300D01*
X1749400Y0353500D01*
X1749800Y0352700D01*
X1749000Y0353100D01*
X1748200Y0352700D01*
X1822200Y0363700D02*
X1822600Y0364500D01*
X1822200Y0365300D01*
X1823000Y0364900D01*
X1823800Y0365300D01*
X1823400Y0364500D01*
X1823800Y0363700D01*
X1823000Y0364100D01*
X1822200Y0363700D01*
X1793700Y0358700D02*
X1794100Y0359500D01*
X1793700Y0360300D01*
X1794500Y0359900D01*
X1795300Y0360300D01*
X1794900Y0359500D01*
X1795300Y0358700D01*
X1794500Y0359100D01*
X1793700Y0358700D01*
X1756200Y0330200D02*
X1756600Y0331000D01*
X1756200Y0331800D01*
X1757000Y0331400D01*
X1757800Y0331800D01*
X1757400Y0331000D01*
X1757800Y0330200D01*
X1757000Y0330600D01*
X1756200Y0330200D01*
X1677200Y0479700D02*
X1677600Y0480500D01*
X1677200Y0481300D01*
X1678000Y0480900D01*
X1678800Y0481300D01*
X1678400Y0480500D01*
X1678800Y0479700D01*
X1678000Y0480100D01*
X1677200Y0479700D01*
X1634200Y0483700D02*
X1634600Y0484500D01*
X1634200Y0485300D01*
X1635000Y0484900D01*
X1635800Y0485300D01*
X1635400Y0484500D01*
X1635800Y0483700D01*
X1635000Y0484100D01*
X1634200Y0483700D01*
X1745700Y0411200D02*
X1746100Y0412000D01*
X1745700Y0412800D01*
X1746500Y0412400D01*
X1747300Y0412800D01*
X1746900Y0412000D01*
X1747300Y0411200D01*
X1746500Y0411600D01*
X1745700Y0411200D01*
X1776200Y0406700D02*
X1776600Y0407500D01*
X1776200Y0408300D01*
X1777000Y0407900D01*
X1777800Y0408300D01*
X1777400Y0407500D01*
X1777800Y0406700D01*
X1777000Y0407100D01*
X1776200Y0406700D01*
X1714700Y0441700D02*
X1715100Y0442500D01*
X1714700Y0443300D01*
X1715500Y0442900D01*
X1716300Y0443300D01*
X1715900Y0442500D01*
X1716300Y0441700D01*
X1715500Y0442100D01*
X1714700Y0441700D01*
X1674200Y0490200D02*
X1674600Y0491000D01*
X1674200Y0491800D01*
X1675000Y0491400D01*
X1675800Y0491800D01*
X1675400Y0491000D01*
X1675800Y0490200D01*
X1675000Y0490600D01*
X1674200Y0490200D01*
X1695200Y0469200D02*
X1695600Y0470000D01*
X1695200Y0470800D01*
X1696000Y0470400D01*
X1696800Y0470800D01*
X1696400Y0470000D01*
X1696800Y0469200D01*
X1696000Y0469600D01*
X1695200Y0469200D01*
X1671200Y0485200D02*
X1671600Y0486000D01*
X1671200Y0486800D01*
X1672000Y0486400D01*
X1672800Y0486800D01*
X1672400Y0486000D01*
X1672800Y0485200D01*
X1672000Y0485600D01*
X1671200Y0485200D01*
X1692700Y0462200D02*
X1693100Y0463000D01*
X1692700Y0463800D01*
X1693500Y0463400D01*
X1694300Y0463800D01*
X1693900Y0463000D01*
X1694300Y0462200D01*
X1693500Y0462600D01*
X1692700Y0462200D01*
X1781200Y0409700D02*
X1781600Y0410500D01*
X1781200Y0411300D01*
X1782000Y0410900D01*
X1782800Y0411300D01*
X1782400Y0410500D01*
X1782800Y0409700D01*
X1782000Y0410100D01*
X1781200Y0409700D01*
X1711700Y0431700D02*
X1712100Y0432500D01*
X1711700Y0433300D01*
X1712500Y0432900D01*
X1713300Y0433300D01*
X1712900Y0432500D01*
X1713300Y0431700D01*
X1712500Y0432100D01*
X1711700Y0431700D01*
X1673200Y0444200D02*
X1673600Y0445000D01*
X1673200Y0445800D01*
X1674000Y0445400D01*
X1674800Y0445800D01*
X1674400Y0445000D01*
X1674800Y0444200D01*
X1674000Y0444600D01*
X1673200Y0444200D01*
X1680700Y0445200D02*
X1681100Y0446000D01*
X1680700Y0446800D01*
X1681500Y0446400D01*
X1682300Y0446800D01*
X1681900Y0446000D01*
X1682300Y0445200D01*
X1681500Y0445600D01*
X1680700Y0445200D01*
X1710700Y0450200D02*
X1711100Y0451000D01*
X1710700Y0451800D01*
X1711500Y0451400D01*
X1712300Y0451800D01*
X1711900Y0451000D01*
X1712300Y0450200D01*
X1711500Y0450600D01*
X1710700Y0450200D01*
X1763700Y0406200D02*
X1764100Y0407000D01*
X1763700Y0407800D01*
X1764500Y0407400D01*
X1765300Y0407800D01*
X1764900Y0407000D01*
X1765300Y0406200D01*
X1764500Y0406600D01*
X1763700Y0406200D01*
X1706200Y0459200D02*
X1706600Y0460000D01*
X1706200Y0460800D01*
X1707000Y0460400D01*
X1707800Y0460800D01*
X1707400Y0460000D01*
X1707800Y0459200D01*
X1707000Y0459600D01*
X1706200Y0459200D01*
X1678700Y0354700D02*
X1679100Y0355500D01*
X1678700Y0356300D01*
X1679500Y0355900D01*
X1680300Y0356300D01*
X1679900Y0355500D01*
X1680300Y0354700D01*
X1679500Y0355100D01*
X1678700Y0354700D01*
G54D126*
X1607800Y0511500D02*
G03*
X1607800Y0511500I-0000800J0000000D01*
G01*
Y0501500D02*
G03*
X1607800Y0501500I-0000800J0000000D01*
G01*
Y0491500D02*
G03*
X1607800Y0491500I-0000800J0000000D01*
G01*
X1607800Y0481500D02*
G03*
X1607800Y0481500I-0000800J0000000D01*
G01*
M02*
