G04 Layer_Color=128*
%FSAX25Y25*%
%MOIN*%
G70*
G01*
G75*
%ADD41C,0.01000*%
%ADD125C,0.00200*%
G54D41*
X1844094Y0452756D02*
G03*
X1732284Y0564567I-0135433J-0023622D01*
G01*
X1685039D02*
G03*
X1572912Y0452811I0023228J-0135433D01*
G01*
X1573228Y0405512D02*
G03*
X1685039Y0293701I0135433J0023622D01*
G01*
X1732284D02*
G03*
X1844094Y0405512I-0023622J0135433D01*
G01*
X1732284Y0519685D02*
Y0564567D01*
X1685039Y0519685D02*
X1732284D01*
X1685039D02*
Y0564567D01*
Y0293701D02*
Y0338583D01*
X1732284D01*
Y0293701D02*
Y0338583D01*
X1799213Y0405512D02*
X1844094D01*
X1799213D02*
Y0452756D01*
X1844094D01*
X1573228Y0452756D02*
X1618110D01*
Y0405512D02*
Y0452756D01*
X1573228Y0405512D02*
X1618110D01*
G54D125*
X1587067Y0394685D02*
X1592067D01*
X1589567Y0392185D02*
Y0397185D01*
X1602667Y0394685D02*
X1607667D01*
X1605167Y0392185D02*
Y0397185D01*
X1618267Y0394685D02*
X1623267D01*
X1620767Y0392185D02*
Y0397185D01*
X1604638Y0511500D02*
X1609362D01*
X1607000Y0509138D02*
Y0513862D01*
X1604638Y0501500D02*
X1609362D01*
X1607000Y0499138D02*
Y0503862D01*
X1604638Y0491500D02*
X1609362D01*
X1607000Y0489138D02*
Y0493862D01*
X1604638Y0481500D02*
X1609362D01*
X1607000Y0479138D02*
Y0483862D01*
X1781315Y0448638D02*
X1785252D01*
X1783283Y0446669D02*
Y0450606D01*
X1788386Y0455709D02*
X1792323D01*
X1790354Y0453740D02*
Y0457677D01*
X1795457Y0462780D02*
X1799394D01*
X1797425Y0460811D02*
Y0464748D01*
X1802528Y0469851D02*
X1806465D01*
X1804497Y0467882D02*
Y0471819D01*
X1809599Y0476922D02*
X1813536D01*
X1811567Y0474953D02*
Y0478890D01*
X1816670Y0483993D02*
X1820607D01*
X1818639Y0482024D02*
Y0485961D01*
X1672697Y0337450D02*
X1677697D01*
X1675197Y0334950D02*
Y0339950D01*
X1672697Y0321850D02*
X1677697D01*
X1675197Y0319350D02*
Y0324350D01*
X1672697Y0306250D02*
X1677697D01*
X1675197Y0303750D02*
Y0308750D01*
X1696587Y0346000D02*
X1700524D01*
X1698555Y0344032D02*
Y0347969D01*
X1706587Y0346000D02*
X1710524D01*
X1708555Y0344032D02*
Y0347969D01*
X1705018Y0514000D02*
X1708955D01*
X1706987Y0512032D02*
Y0515969D01*
X1715018Y0514000D02*
X1718955D01*
X1716987Y0512032D02*
Y0515969D01*
X1768809Y0399746D02*
X1772809D01*
X1770809Y0397746D02*
Y0401746D01*
X1761850Y0392787D02*
X1765849D01*
X1763849Y0390787D02*
Y0394787D01*
X1754890Y0385827D02*
X1758890D01*
X1756890Y0383827D02*
Y0387827D01*
X1741082Y0372019D02*
X1745082D01*
X1743082Y0370019D02*
Y0374019D01*
X1734011Y0364948D02*
X1738011D01*
X1736011Y0362948D02*
Y0366948D01*
X1790532Y0421500D02*
X1794468D01*
X1792500Y0419531D02*
Y0423468D01*
X1790532Y0431500D02*
X1794468D01*
X1792500Y0429531D02*
Y0433468D01*
X1623047Y0427638D02*
X1626984D01*
X1625015Y0425669D02*
Y0429606D01*
X1623047Y0437638D02*
X1626984D01*
X1625015Y0435670D02*
Y0439607D01*
X1739173Y0303976D02*
X1743110D01*
X1741142Y0302008D02*
Y0305945D01*
X1739173Y0313976D02*
X1743110D01*
X1741142Y0312008D02*
Y0315945D01*
X1739173Y0323976D02*
X1743110D01*
X1741142Y0322008D02*
Y0325945D01*
X1739173Y0333976D02*
X1743110D01*
X1741142Y0332008D02*
Y0335945D01*
X1729000Y0485000D02*
X1731000D01*
X1730000Y0484000D02*
Y0486000D01*
X1649000Y0468500D02*
X1651000D01*
X1650000Y0467500D02*
Y0469500D01*
X1642500Y0464500D02*
X1644500D01*
X1643500Y0463500D02*
Y0465500D01*
X1689200Y0444700D02*
X1691200D01*
X1690200Y0443700D02*
Y0445700D01*
X1697000Y0445100D02*
X1699000D01*
X1698000Y0444100D02*
Y0446100D01*
X1813961Y0385827D02*
X1815961D01*
X1814961Y0384827D02*
Y0386827D01*
X1692500Y0488500D02*
X1694500D01*
X1693500Y0487500D02*
Y0489500D01*
X1706500Y0479500D02*
X1708500D01*
X1707500Y0478500D02*
Y0480500D01*
X1770100Y0318900D02*
X1772100D01*
X1771100Y0317900D02*
Y0319900D01*
X1775100Y0339200D02*
X1777100D01*
X1776100Y0338200D02*
Y0340200D01*
X1782275Y0357725D02*
X1784275D01*
X1783275Y0356725D02*
Y0358725D01*
X1800181Y0398981D02*
X1802181D01*
X1801181Y0397981D02*
Y0399981D01*
X1785300Y0380400D02*
X1787300D01*
X1786300Y0379400D02*
Y0381400D01*
X1632800Y0536600D02*
X1634800D01*
X1633800Y0535600D02*
Y0537600D01*
X1673800Y0535000D02*
X1675800D01*
X1674800Y0534000D02*
Y0536000D01*
X1612900Y0473100D02*
X1614900D01*
X1613900Y0472100D02*
Y0474100D01*
X1604000Y0347800D02*
X1606000D01*
X1605000Y0346800D02*
Y0348800D01*
X1621500Y0379300D02*
X1623500D01*
X1622500Y0378300D02*
Y0380300D01*
X1637700Y0364000D02*
X1639700D01*
X1638700Y0363000D02*
Y0365000D01*
X1614000Y0366500D02*
X1616000D01*
X1615000Y0365500D02*
Y0367500D01*
X1730200Y0474100D02*
X1732200D01*
X1731200Y0473100D02*
Y0475100D01*
X1760300Y0437300D02*
X1762300D01*
X1761300Y0436300D02*
Y0438300D01*
X1772500Y0446500D02*
X1774500D01*
X1773500Y0445500D02*
Y0447500D01*
X1666500Y0450000D02*
X1668500D01*
X1667500Y0449000D02*
Y0451000D01*
X1684400D02*
X1686400D01*
X1685400Y0450000D02*
Y0452000D01*
X1644400Y0389000D02*
X1646400D01*
X1645400Y0388000D02*
Y0390000D01*
X1761600Y0415200D02*
X1763600D01*
X1762600Y0414200D02*
Y0416200D01*
X1740000Y0383000D02*
X1742000D01*
X1741000Y0382000D02*
Y0384000D01*
X1734600Y0394100D02*
X1736600D01*
X1735600Y0393100D02*
Y0395100D01*
X1637629Y0466871D02*
X1639629D01*
X1638629Y0465871D02*
Y0467871D01*
X1630000Y0470000D02*
X1632000D01*
X1631000Y0469000D02*
Y0471000D01*
X1629500Y0479454D02*
X1631500D01*
X1630500Y0478454D02*
Y0480454D01*
X1632000Y0464000D02*
X1634000D01*
X1633000Y0463000D02*
Y0465000D01*
X1688000Y0375500D02*
X1690000D01*
X1689000Y0374500D02*
Y0376500D01*
X1733000Y0374500D02*
X1735000D01*
X1734000Y0373500D02*
Y0375500D01*
X1707000Y0366500D02*
X1709000D01*
X1708000Y0365500D02*
Y0367500D01*
X1658500Y0405500D02*
X1660500D01*
X1659500Y0404500D02*
Y0406500D01*
X1662985Y0409985D02*
X1664985D01*
X1663985Y0408985D02*
Y0410985D01*
X1746000Y0405000D02*
X1748000D01*
X1747000Y0404000D02*
Y0406000D01*
X1692000Y0415500D02*
X1694000D01*
X1693000Y0414500D02*
Y0416500D01*
X1711000Y0415500D02*
X1713000D01*
X1712000Y0414500D02*
Y0416500D01*
X1704500Y0412000D02*
X1706500D01*
X1705500Y0411000D02*
Y0413000D01*
X1693000Y0421000D02*
X1695000D01*
X1694000Y0420000D02*
Y0422000D01*
X1693500Y0427000D02*
X1695500D01*
X1694500Y0426000D02*
Y0428000D01*
X1710000Y0409000D02*
X1712000D01*
X1711000Y0408000D02*
Y0410000D01*
X1750500Y0413000D02*
X1752500D01*
X1751500Y0412000D02*
Y0414000D01*
X1691000Y0396500D02*
X1693000D01*
X1692000Y0395500D02*
Y0397500D01*
X1728000Y0493500D02*
X1730000D01*
X1729000Y0492500D02*
Y0494500D01*
X1733500Y0493500D02*
X1735500D01*
X1734500Y0492500D02*
Y0494500D01*
X1695000Y0504000D02*
X1697000D01*
X1696000Y0503000D02*
Y0505000D01*
X1702500Y0502000D02*
X1704500D01*
X1703500Y0501000D02*
Y0503000D01*
X1696500Y0452960D02*
X1698500D01*
X1697500Y0451960D02*
Y0453960D01*
X1629000Y0445500D02*
X1631000D01*
X1630000Y0444500D02*
Y0446500D01*
X1648000Y0506500D02*
X1650000D01*
X1649000Y0505500D02*
Y0507500D01*
X1626000Y0518000D02*
X1628000D01*
X1627000Y0517000D02*
Y0519000D01*
X1684000Y0460000D02*
X1686000D01*
X1685000Y0459000D02*
Y0461000D01*
X1675500Y0465000D02*
X1677500D01*
X1676500Y0464000D02*
Y0466000D01*
X1775000Y0479000D02*
X1777000D01*
X1776000Y0478000D02*
Y0480000D01*
X1722000Y0487500D02*
X1724000D01*
X1723000Y0486500D02*
Y0488500D01*
X1757500Y0525500D02*
X1759500D01*
X1758500Y0524500D02*
Y0526500D01*
X1748000Y0503500D02*
X1750000D01*
X1749000Y0502500D02*
Y0504500D01*
X1742500Y0510346D02*
X1744500D01*
X1743500Y0509346D02*
Y0511346D01*
X1754500Y0508500D02*
X1756500D01*
X1755500Y0507500D02*
Y0509500D01*
X1753000Y0461500D02*
X1755000D01*
X1754000Y0460500D02*
Y0462500D01*
X1641000Y0434000D02*
X1643000D01*
X1642000Y0433000D02*
Y0435000D01*
X1669000Y0415000D02*
X1671000D01*
X1670000Y0414000D02*
Y0416000D01*
X1707500Y0385500D02*
X1709500D01*
X1708500Y0384500D02*
Y0386500D01*
X1711500Y0420500D02*
X1713500D01*
X1712500Y0419500D02*
Y0421500D01*
X1698000Y0397500D02*
X1700000D01*
X1699000Y0396500D02*
Y0398500D01*
X1712000Y0425500D02*
X1714000D01*
X1713000Y0424500D02*
Y0426500D01*
X1664000Y0496500D02*
X1666000D01*
X1665000Y0495500D02*
Y0497500D01*
X1653500Y0465500D02*
X1655500D01*
X1654500Y0464500D02*
Y0466500D01*
X1684000Y0516000D02*
X1686000D01*
X1685000Y0515000D02*
Y0517000D01*
X1644500Y0527000D02*
X1646500D01*
X1645500Y0526000D02*
Y0528000D01*
X1642500Y0534500D02*
X1644500D01*
X1643500Y0533500D02*
Y0535500D01*
X1640000Y0540000D02*
X1642000D01*
X1641000Y0539000D02*
Y0541000D01*
X1614500Y0515500D02*
X1616500D01*
X1615500Y0514500D02*
Y0516500D01*
X1624500Y0526000D02*
X1626500D01*
X1625500Y0525000D02*
Y0527000D01*
X1613000Y0457000D02*
X1615000D01*
X1614000Y0456000D02*
Y0458000D01*
X1630500Y0489500D02*
X1632500D01*
X1631500Y0488500D02*
Y0490500D01*
X1616000Y0488500D02*
X1618000D01*
X1617000Y0487500D02*
Y0489500D01*
X1634500Y0473500D02*
X1636500D01*
X1635500Y0472500D02*
Y0474500D01*
X1634500Y0479000D02*
X1636500D01*
X1635500Y0478000D02*
Y0480000D01*
X1665500Y0432000D02*
X1667500D01*
X1666500Y0431000D02*
Y0433000D01*
X1657500Y0447000D02*
X1659500D01*
X1658500Y0446000D02*
Y0448000D01*
X1655000Y0435500D02*
X1657000D01*
X1656000Y0434500D02*
Y0436500D01*
X1652500Y0441000D02*
X1654500D01*
X1653500Y0440000D02*
Y0442000D01*
X1652000Y0447500D02*
X1654000D01*
X1653000Y0446500D02*
Y0448500D01*
X1656500Y0425500D02*
X1658500D01*
X1657500Y0424500D02*
Y0426500D01*
X1633626Y0389874D02*
X1635626D01*
X1634626Y0388874D02*
Y0390874D01*
X1662500Y0363500D02*
X1664500D01*
X1663500Y0362500D02*
Y0364500D01*
X1659500Y0339000D02*
X1661500D01*
X1660500Y0338000D02*
Y0340000D01*
X1663000Y0328000D02*
X1665000D01*
X1664000Y0327000D02*
Y0329000D01*
X1628600Y0344500D02*
X1632400D01*
X1630500Y0342600D02*
Y0346400D01*
X1614100Y0338000D02*
X1617900D01*
X1616000Y0336100D02*
Y0339900D01*
X1775500Y0366500D02*
X1777500D01*
X1776500Y0365500D02*
Y0367500D01*
X1759500Y0349000D02*
X1761500D01*
X1760500Y0348000D02*
Y0350000D01*
X1807500Y0374500D02*
X1809500D01*
X1808500Y0373500D02*
Y0375500D01*
X1792500Y0336000D02*
X1794500D01*
X1793500Y0335000D02*
Y0337000D01*
X1815500Y0353000D02*
X1817500D01*
X1816500Y0352000D02*
Y0354000D01*
X1809500Y0362000D02*
X1811500D01*
X1810500Y0361000D02*
Y0363000D01*
X1754500Y0353000D02*
X1756500D01*
X1755500Y0352000D02*
Y0354000D01*
X1748000Y0353500D02*
X1750000D01*
X1749000Y0352500D02*
Y0354500D01*
X1822000Y0364500D02*
X1824000D01*
X1823000Y0363500D02*
Y0365500D01*
X1793500Y0359500D02*
X1795500D01*
X1794500Y0358500D02*
Y0360500D01*
X1756000Y0331000D02*
X1758000D01*
X1757000Y0330000D02*
Y0332000D01*
X1677000Y0480500D02*
X1679000D01*
X1678000Y0479500D02*
Y0481500D01*
X1634000Y0484500D02*
X1636000D01*
X1635000Y0483500D02*
Y0485500D01*
X1745500Y0412000D02*
X1747500D01*
X1746500Y0411000D02*
Y0413000D01*
X1776000Y0407500D02*
X1778000D01*
X1777000Y0406500D02*
Y0408500D01*
X1714500Y0442500D02*
X1716500D01*
X1715500Y0441500D02*
Y0443500D01*
X1674000Y0491000D02*
X1676000D01*
X1675000Y0490000D02*
Y0492000D01*
X1695000Y0470000D02*
X1697000D01*
X1696000Y0469000D02*
Y0471000D01*
X1671000Y0486000D02*
X1673000D01*
X1672000Y0485000D02*
Y0487000D01*
X1692500Y0463000D02*
X1694500D01*
X1693500Y0462000D02*
Y0464000D01*
X1781000Y0410500D02*
X1783000D01*
X1782000Y0409500D02*
Y0411500D01*
X1711500Y0432500D02*
X1713500D01*
X1712500Y0431500D02*
Y0433500D01*
X1673000Y0445000D02*
X1675000D01*
X1674000Y0444000D02*
Y0446000D01*
X1680500D02*
X1682500D01*
X1681500Y0445000D02*
Y0447000D01*
X1710500Y0451000D02*
X1712500D01*
X1711500Y0450000D02*
Y0452000D01*
X1763500Y0407000D02*
X1765500D01*
X1764500Y0406000D02*
Y0408000D01*
X1706000Y0460000D02*
X1708000D01*
X1707000Y0459000D02*
Y0461000D01*
X1678500Y0355500D02*
X1680500D01*
X1679500Y0354500D02*
Y0356500D01*
M02*
